<svg width="30" height="22" viewBox="0 0 30 22" fill="none" xmlns="http://www.w3.org/2000/svg">
<g clip-path="url(#clip0_534_1289)">
<path d="M28.4655 0H1.08154C0.484223 0 0 0.482223 0 1.07707V1.78901C0 2.38386 0.484223 2.86608 1.08154 2.86608H28.4655C29.0628 2.86608 29.547 2.38386 29.547 1.78901V1.07707C29.547 0.482223 29.0628 0 28.4655 0Z" fill="#00A886"/>
<path d="M0.000287821 13.0391V15.4592C-0.00747385 16.2479 0.141817 17.0304 0.439532 17.7613C0.737247 18.4922 1.17748 19.1571 1.73479 19.7176C2.2921 20.2781 2.95542 20.723 3.68643 21.0266C4.41744 21.3302 5.20162 21.4866 5.99367 21.4866C6.78571 21.4866 7.5699 21.3302 8.3009 21.0266C9.03191 20.723 9.69524 20.2781 10.2525 19.7176C10.8099 19.1571 11.2501 18.4922 11.5478 17.7613C11.8455 17.0304 11.9948 16.2479 11.987 15.4592V13.0391H0.000287821Z" fill="#00A886"/>
<path d="M18.011 13.0391V15.4592C18.0033 16.2479 18.1526 17.0304 18.4503 17.7613C18.748 18.4922 19.1882 19.1571 19.7455 19.7176C20.3028 20.2781 20.9662 20.723 21.6972 21.0266C22.4282 21.3302 23.2124 21.4866 24.0044 21.4866C24.7965 21.4866 25.5806 21.3302 26.3117 21.0266C27.0427 20.723 27.706 20.2781 28.2633 19.7176C28.8206 19.1571 29.2608 18.4922 29.5586 17.7613C29.8563 17.0304 30.0056 16.2479 29.9978 15.4592V13.0391H18.011Z" fill="#00A886"/>
<path d="M1.27565 11.8239H0.0185547L5.9397 1.03711L6.93663 1.61033L1.27565 11.8239Z" fill="#00A886"/>
<path d="M10.7201 11.8239H11.9767L6.05552 1.03711L5.05859 1.61033L10.7201 11.8239Z" fill="#00A886"/>
<path d="M19.3001 11.8239H18.043L23.9641 1.03711L24.961 1.61033L19.3001 11.8239Z" fill="#00A886"/>
<path d="M28.7436 11.8239H30.0001L24.079 1.03711L23.082 1.61033L28.7436 11.8239Z" fill="#00A886"/>
</g>
<defs>
<clipPath id="clip0_534_1289">
<rect width="30" height="21.4286" fill="white"/>
</clipPath>
</defs>
</svg>
