<svg width="26" height="26" viewBox="0 0 26 26" fill="none" xmlns="http://www.w3.org/2000/svg">
<g clip-path="url(#clip0_1316_908)">
<path d="M8.97734 24.0238C10.1325 24.0238 11.0689 23.0805 11.0689 21.9169C11.0689 20.7533 10.1325 19.81 8.97734 19.81C7.82218 19.81 6.88574 20.7533 6.88574 21.9169C6.88574 23.0805 7.82218 24.0238 8.97734 24.0238Z" fill="white" stroke="#00A886" stroke-width="1.97863" stroke-miterlimit="10"/>
<path d="M20.4798 24.0238C21.6349 24.0238 22.5714 23.0805 22.5714 21.9169C22.5714 20.7533 21.6349 19.81 20.4798 19.81C19.3246 19.81 18.3882 20.7533 18.3882 21.9169C18.3882 23.0805 19.3246 24.0238 20.4798 24.0238Z" fill="white" stroke="#00A886" stroke-width="1.97863" stroke-miterlimit="10"/>
<path d="M4.79492 4.53656L7.93206 16.6497H21.5246L24.1397 4.53656H4.79492Z" fill="#00A886" stroke="#00A886" stroke-width="1.97863"/>
<path d="M4.79503 4.53684L3.74949 1.37671H0.0898438" fill="white"/>
<path d="M4.79503 4.53684L3.74949 1.37671H0.0898438" stroke="#00A886" stroke-width="1.97863"/>
</g>
<defs>
<clipPath id="clip0_1316_908">
<rect width="25.9" height="25.0645" fill="white" transform="translate(0 0.167786)"/>
</clipPath>
</defs>
</svg>
