<svg width="21" height="21" viewBox="0 0 21 21" fill="none" xmlns="http://www.w3.org/2000/svg">
<g clip-path="url(#clip0_561_946)">
<path d="M10.8696 20.7148C16.3925 20.7148 20.8696 16.2377 20.8696 10.7148C20.8696 5.192 16.3925 0.714844 10.8696 0.714844C5.34678 0.714844 0.869629 5.192 0.869629 10.7148C0.869629 16.2377 5.34678 20.7148 10.8696 20.7148Z" fill="#F6A305"/>
<path d="M10.8481 18.9766C15.411 18.9766 19.1099 15.2777 19.1099 10.7148C19.1099 6.15202 15.411 2.45312 10.8481 2.45312C6.28532 2.45312 2.58643 6.15202 2.58643 10.7148C2.58643 15.2777 6.28532 18.9766 10.8481 18.9766Z" stroke="white" stroke-width="0.555164" stroke-miterlimit="10"/>
<path d="M10.8481 2.45313V0.714844" stroke="white" stroke-width="0.555164" stroke-miterlimit="10"/>
<path d="M16.6899 4.87383L17.9192 3.64453" stroke="white" stroke-width="0.555164" stroke-miterlimit="10"/>
<path d="M19.1099 10.7148L20.7478 10.7051" stroke="white" stroke-width="0.555164" stroke-miterlimit="10"/>
<path d="M16.6724 16.5742L17.9017 17.8035" stroke="white" stroke-width="0.555164" stroke-miterlimit="10"/>
<path d="M10.8481 18.9766V20.7148" stroke="white" stroke-width="0.555164" stroke-miterlimit="10"/>
<path d="M5.00615 16.5566L3.77686 17.7859" stroke="white" stroke-width="0.555164" stroke-miterlimit="10"/>
<path d="M2.58643 10.7148H0.848145" stroke="white" stroke-width="0.555164" stroke-miterlimit="10"/>
<path d="M4.98906 4.88945L3.75977 3.66016" stroke="white" stroke-width="0.555164" stroke-miterlimit="10"/>
<g opacity="0.97">
<path opacity="0.97" d="M7.66436 10.1332C7.83128 10.3155 7.91475 10.5664 7.91475 10.8859V12.2922H7.18115V10.9852C7.18115 10.8242 7.13949 10.6991 7.05615 10.6098C6.96511 10.524 6.84473 10.4762 6.71963 10.4762C6.59452 10.4762 6.47414 10.524 6.38311 10.6098C6.29951 10.6988 6.25772 10.824 6.25772 10.9852V12.2926H5.51904V9.09961H6.25654V10.207C6.33526 10.0973 6.44085 10.0096 6.56318 9.95234C6.69911 9.88755 6.84817 9.85506 6.99873 9.85742C7.27581 9.85846 7.49769 9.95039 7.66436 10.1332Z" fill="white"/>
<path opacity="0.97" d="M8.42158 10.4338C8.50616 10.2577 8.63837 10.1089 8.80322 10.0041C8.96432 9.90133 9.15158 9.84709 9.34267 9.84785C9.4986 9.84464 9.65283 9.88078 9.79111 9.95293C9.91239 10.0159 10.0145 10.1104 10.0868 10.2264V9.88574H10.8224V12.2932H10.0849V11.9522C10.0102 12.0677 9.90683 12.1619 9.78486 12.2256C9.64701 12.2968 9.49351 12.3324 9.33837 12.3291C9.14891 12.3311 8.96297 12.2779 8.80322 12.176C8.63798 12.0691 8.50582 11.9183 8.42158 11.7404C8.32908 11.5353 8.28125 11.3128 8.28125 11.0877C8.28125 10.8626 8.32908 10.6401 8.42158 10.435V10.4338ZM9.9329 10.6541C9.88586 10.6049 9.82958 10.5654 9.76728 10.538C9.70498 10.5106 9.63788 10.4957 9.56982 10.4942C9.50176 10.4927 9.43407 10.5046 9.37063 10.5293C9.30719 10.554 9.24924 10.591 9.20009 10.6381C9.1954 10.6424 9.19072 10.6471 9.18642 10.6518C9.08408 10.7559 9.03303 10.9005 9.03329 11.0854C9.03355 11.2702 9.0846 11.4162 9.18642 11.5232C9.23251 11.5724 9.28785 11.612 9.34927 11.6398C9.41068 11.6676 9.47697 11.683 9.54434 11.6851C9.61171 11.6873 9.67884 11.6761 9.74189 11.6523C9.80495 11.6285 9.86269 11.5924 9.91181 11.5463C9.91923 11.5396 9.92626 11.5326 9.9329 11.5256C10.035 11.4193 10.086 11.274 10.086 11.0896C10.086 10.9053 10.035 10.7594 9.9329 10.6521V10.6541Z" fill="white"/>
<path opacity="0.97" d="M13.5001 10.1337C13.6683 10.316 13.7524 10.5669 13.7524 10.8864V12.2927H13.0192V10.9857C13.0192 10.8247 12.9774 10.6996 12.8938 10.6103C12.8028 10.5245 12.6824 10.4767 12.5573 10.4767C12.4322 10.4767 12.3118 10.5245 12.2208 10.6103C12.1372 10.6993 12.0955 10.8245 12.0958 10.9857V12.2931H11.3579V9.88565H12.0962V10.2048C12.1735 10.0961 12.2775 10.0092 12.3981 9.95245C12.531 9.8891 12.6767 9.85729 12.8239 9.85948C13.1067 9.85948 13.3321 9.95089 13.5001 10.1337Z" fill="white"/>
<path opacity="0.97" d="M14.6843 12.2179C14.5315 12.1546 14.3978 12.0528 14.296 11.9225C14.2026 11.801 14.1471 11.6547 14.1362 11.5018H14.8655C14.8694 11.5421 14.8819 11.581 14.9021 11.6159C14.9223 11.6509 14.9498 11.6811 14.9827 11.7046C15.0567 11.7579 15.1462 11.7854 15.2374 11.7827C15.3125 11.787 15.387 11.7682 15.4511 11.7288C15.4743 11.7136 15.4934 11.6927 15.5066 11.6683C15.5197 11.6438 15.5266 11.6164 15.5265 11.5886C15.5267 11.5549 15.5164 11.5221 15.4971 11.4946C15.4778 11.4671 15.4504 11.4463 15.4187 11.435C15.3048 11.3886 15.1872 11.3519 15.0671 11.3253C14.9212 11.2925 14.7776 11.2499 14.6374 11.1979C14.522 11.1535 14.4196 11.081 14.3394 10.987C14.2563 10.8904 14.2146 10.7602 14.2144 10.5964C14.2134 10.4619 14.2533 10.3303 14.3288 10.219C14.4128 10.0987 14.5295 10.005 14.6651 9.94911C14.8321 9.87863 15.0121 9.84416 15.1933 9.84794C15.4956 9.84794 15.7336 9.92281 15.9073 10.0725C16.0823 10.2235 16.1902 10.4378 16.2073 10.6682H15.5257C15.5164 10.5913 15.4771 10.5211 15.4163 10.4729C15.346 10.4211 15.2598 10.3951 15.1726 10.3995C15.1029 10.3951 15.0336 10.4125 14.9741 10.4491C14.9521 10.4641 14.9342 10.4844 14.9221 10.5082C14.91 10.532 14.9041 10.5584 14.905 10.585C14.9051 10.6193 14.9157 10.6526 14.9354 10.6806C14.9551 10.7085 14.9829 10.7297 15.0151 10.7413C15.1258 10.7871 15.2406 10.8217 15.3581 10.8448C15.5055 10.881 15.6506 10.9263 15.7925 10.9804C15.9072 11.0267 16.0087 11.1008 16.0878 11.196C16.1724 11.2952 16.2163 11.4283 16.2194 11.5952C16.2218 11.7303 16.1807 11.8626 16.1022 11.9725C16.0153 12.0896 15.8973 12.18 15.7616 12.2335C15.5979 12.2996 15.4225 12.3319 15.246 12.3284C15.0531 12.331 14.8618 12.2934 14.6843 12.2179Z" fill="white"/>
</g>
</g>
<defs>
<clipPath id="clip0_561_946">
<rect width="20.0207" height="20" fill="white" transform="translate(0.848145 0.714844)"/>
</clipPath>
</defs>
</svg>
