<svg width="35" height="32" viewBox="0 0 35 32" fill="none" xmlns="http://www.w3.org/2000/svg">
<g clip-path="url(#clip0_520_1694)">
<path d="M34.6856 15.0322L26.9669 6.0482C26.914 5.98643 26.8483 5.93687 26.7745 5.90292C26.7006 5.86897 26.6202 5.85145 26.5389 5.85156H20.8559C20.781 5.85144 20.7068 5.86616 20.6376 5.89486C20.5684 5.92355 20.5055 5.96567 20.4527 6.01877C20.3998 6.07188 20.358 6.13492 20.3296 6.20426C20.3012 6.2736 20.2869 6.34788 20.2873 6.4228L20.3852 19.5025C20.3811 19.7603 20.2764 20.0062 20.0936 20.188C19.9108 20.3699 19.6643 20.4731 19.4065 20.4759H0.96859C0.929653 20.4759 0.89231 20.4913 0.864778 20.5189C0.837245 20.5464 0.821777 20.5837 0.821777 20.6227V25.706C0.821777 25.8947 0.896772 26.0758 1.03026 26.2093C1.16376 26.3428 1.34481 26.4178 1.5336 26.4178H6.78326C6.79579 25.7442 7.07217 25.1024 7.55296 24.6305C8.03375 24.1586 8.68055 23.8942 9.35425 23.8942C10.028 23.8942 10.6748 24.1586 11.1555 24.6305C11.6363 25.1024 11.9127 25.7442 11.9253 26.4178H22.6568C22.6568 25.736 22.9276 25.0822 23.4097 24.6001C23.8918 24.118 24.5456 23.8472 25.2274 23.8472C25.9091 23.8472 26.5629 24.118 27.045 24.6001C27.5271 25.0822 27.7979 25.736 27.7979 26.4178H34.1082C34.297 26.4178 34.478 26.3428 34.6115 26.2093C34.745 26.0758 34.82 25.8947 34.82 25.706V15.3988C34.8205 15.2645 34.7728 15.1344 34.6856 15.0322ZM30.5562 15.5492H24.0822C24.0629 15.5493 24.0437 15.5456 24.0258 15.5383C24.0078 15.531 23.9916 15.5202 23.9778 15.5065C23.9641 15.4929 23.9532 15.4766 23.9458 15.4588C23.9383 15.4409 23.9345 15.4217 23.9345 15.4024V9.60641C23.9345 9.58705 23.9383 9.56789 23.9458 9.55002C23.9532 9.53215 23.9641 9.51592 23.9778 9.50228C23.9916 9.48863 24.0078 9.47784 24.0258 9.47051C24.0437 9.46319 24.0629 9.45948 24.0822 9.45959H26.0282C26.1346 9.45979 26.2397 9.48388 26.3356 9.53008C26.4316 9.57627 26.5159 9.6434 26.5825 9.72652L30.8365 14.9886V14.9931C30.8745 15.0451 30.8974 15.1066 30.9027 15.1708C30.908 15.235 30.8955 15.2994 30.8665 15.3569C30.8375 15.4144 30.7932 15.4628 30.7384 15.4968C30.6837 15.5307 30.6206 15.5488 30.5562 15.5492Z"/>
<path d="M9.35895 21.583C8.40268 21.583 7.46787 21.8666 6.67276 22.3979C5.87764 22.9291 5.25792 23.6843 4.89197 24.5677C4.52602 25.4512 4.43027 26.4234 4.61683 27.3613C4.80339 28.2992 5.26388 29.1607 5.94007 29.8369C6.61626 30.5131 7.47778 30.9736 8.41569 31.1602C9.35359 31.3467 10.3258 31.251 11.2092 30.885C12.0927 30.5191 12.8479 29.8993 13.3791 29.1042C13.9104 28.3091 14.194 27.3743 14.194 26.418C14.1937 25.1358 13.6843 23.9061 12.7776 22.9994C11.8709 22.0927 10.6412 21.5832 9.35895 21.583ZM9.35895 28.9886C8.85055 28.9886 8.35356 28.8378 7.93083 28.5554C7.50811 28.2729 7.17863 27.8714 6.98407 27.4017C6.78951 26.932 6.73861 26.4152 6.83779 25.9165C6.93698 25.4179 7.1818 24.9599 7.5413 24.6004C7.9008 24.2409 8.35882 23.9961 8.85746 23.8969C9.3561 23.7977 9.87296 23.8486 10.3427 24.0432C10.8124 24.2377 11.2138 24.5672 11.4963 24.9899C11.7787 25.4126 11.9295 25.9096 11.9295 26.418C11.9288 27.0996 11.6577 27.753 11.1758 28.2349C10.6939 28.7168 10.0405 28.9879 9.35895 28.9886Z"/>
<path d="M25.2271 21.583C24.2708 21.583 23.336 21.8666 22.5409 22.3979C21.7458 22.9291 21.1261 23.6843 20.7601 24.5677C20.3942 25.4512 20.2984 26.4234 20.485 27.3613C20.6716 28.2992 21.132 29.1607 21.8082 29.8369C22.4844 30.5131 23.3459 30.9736 24.2838 31.1602C25.2218 31.3467 26.1939 31.251 27.0774 30.885C27.9609 30.5191 28.716 29.8993 29.2473 29.1042C29.7786 28.3091 30.0621 27.3743 30.0621 26.418C30.0619 25.1358 29.5524 23.9061 28.6457 22.9994C27.739 22.0927 26.5094 21.5832 25.2271 21.583ZM25.2271 28.9886C24.7187 28.9886 24.2217 28.8378 23.799 28.5554C23.3763 28.2729 23.0468 27.8714 22.8522 27.4017C22.6577 26.932 22.6068 26.4152 22.706 25.9165C22.8051 25.4179 23.05 24.9599 23.4095 24.6004C23.769 24.2409 24.227 23.9961 24.7256 23.8969C25.2243 23.7977 25.7411 23.8486 26.2108 24.0432C26.6805 24.2377 27.082 24.5672 27.3645 24.9899C27.6469 25.4126 27.7977 25.9096 27.7977 26.418C27.7972 27.0996 27.5262 27.7532 27.0443 28.2352C26.5623 28.7171 25.9087 28.9881 25.2271 28.9886Z"/>
<path d="M17.7933 1.50432V17.328C17.7933 17.4034 17.7785 17.478 17.7496 17.5475C17.7207 17.6171 17.6785 17.6803 17.6252 17.7335C17.5719 17.7868 17.5086 17.829 17.439 17.8577C17.3693 17.8864 17.2947 17.9012 17.2194 17.9011H1.39568C1.32036 17.9012 1.24575 17.8864 1.17612 17.8577C1.1065 17.829 1.04323 17.7868 0.989924 17.7335C0.93662 17.6803 0.894333 17.6171 0.86548 17.5475C0.836628 17.478 0.821777 17.4034 0.821777 17.328V1.50432C0.821777 1.35212 0.882242 1.20614 0.98987 1.09851C1.0975 0.990885 1.24347 0.930421 1.39568 0.930421H5.67994V8.89834C5.67994 8.91791 5.67994 8.93749 5.67994 8.95617C5.71909 9.33433 6.17554 9.50872 6.48073 9.28094L9.35915 7.101L12.1664 9.27382C12.4671 9.50694 12.9262 9.33344 12.9672 8.95528C12.9672 8.9366 12.9672 8.91702 12.9672 8.89745V0.930421H17.2185C17.294 0.930304 17.3687 0.945062 17.4384 0.973851C17.5081 1.00264 17.5715 1.04489 17.6249 1.0982C17.6783 1.1515 17.7206 1.21481 17.7495 1.2845C17.7784 1.35418 17.7933 1.42888 17.7933 1.50432Z"/>
</g>
<defs>
<clipPath id="clip0_520_1694">
<rect width="34" height="30.3226" fill="white" transform="translate(0.821777 0.928467)"/>
</clipPath>
</defs>
</svg>
