<svg width="18" height="24" viewBox="0 0 18 24" fill="none" xmlns="http://www.w3.org/2000/svg">
<g clip-path="url(#clip0_462_2887)">
<path d="M14.243 5.56833H17.249L12.6572 0.75V3.98878C12.6572 4.86432 13.3613 5.56833 14.243 5.56833Z" fill="#00A886"/>
<path d="M11.6776 3.98792V-0.00390625H2.27355C1.05507 -0.00390625 0.0449219 1.00023 0.0449219 2.21853V20.9165C0.0449219 22.135 1.05507 23.139 2.27355 23.139H15.6939C16.9122 23.139 17.9223 22.1348 17.9223 20.9165V6.54706H14.2427C12.8224 6.54706 11.6776 5.40221 11.6776 3.98787L11.6776 3.98792ZM5.06538 11.9655C5.2612 11.7818 5.57358 11.794 5.75718 11.99L8.49396 14.9288V7.93699C8.49396 7.66754 8.71432 7.44719 8.98376 7.44719C9.25316 7.44719 9.47356 7.66754 9.47356 7.93699V14.9348L12.2103 11.996C12.3939 11.8002 12.7063 11.7879 12.9021 11.9715C13.0981 12.1553 13.1103 12.4675 12.9266 12.6635L9.33881 16.5145C9.24701 16.6123 9.11846 16.6674 8.97757 16.6674C8.83686 16.6674 8.71432 16.6123 8.6165 16.5145L5.02868 12.6635C4.85723 12.4613 4.86939 12.1553 5.06538 11.9655V11.9655ZM14.5122 19.4042C14.5122 19.6736 14.2918 19.894 14.0224 19.894H3.9449C3.6755 19.894 3.4551 19.6736 3.4551 19.4042C3.4551 19.1348 3.67546 18.9144 3.9449 18.9144H14.0286C14.298 18.9144 14.5122 19.1349 14.5122 19.4042Z" fill="#00A886"/>
</g>
<defs>
<clipPath id="clip0_462_2887">
<rect width="18" height="23.1429" fill="white"/>
</clipPath>
</defs>
</svg>
