<svg width="70" height="71" viewBox="0 0 70 71" fill="none" xmlns="http://www.w3.org/2000/svg">
<g clip-path="url(#clip0_458_1601)">
<path d="M35 70.3867C54.33 70.3867 70 54.7167 70 35.3867C70 16.0568 54.33 0.386719 35 0.386719C15.67 0.386719 0 16.0568 0 35.3867C0 54.7167 15.67 70.3867 35 70.3867Z" fill="#00A886"/>
<path d="M35 64.3027C50.9699 64.3027 63.916 51.3566 63.916 35.3867C63.916 19.4168 50.9699 6.4707 35 6.4707C19.0301 6.4707 6.08398 19.4168 6.08398 35.3867C6.08398 51.3566 19.0301 64.3027 35 64.3027Z" stroke="white" stroke-width="1.56054" stroke-miterlimit="10"/>
<path d="M35 6.4707V0.386719" stroke="white" stroke-width="1.56054" stroke-miterlimit="10"/>
<path d="M55.4463 14.9412L59.7488 10.6387" stroke="white" stroke-width="1.56054" stroke-miterlimit="10"/>
<path d="M63.916 35.3857L69.6486 35.3516" stroke="white" stroke-width="1.56054" stroke-miterlimit="10"/>
<path d="M55.3862 55.8945L59.6888 60.1971" stroke="white" stroke-width="1.56054" stroke-miterlimit="10"/>
<path d="M35 64.3027V70.3867" stroke="white" stroke-width="1.56054" stroke-miterlimit="10"/>
<path d="M14.5535 55.834L10.251 60.1365" stroke="white" stroke-width="1.56054" stroke-miterlimit="10"/>
<path d="M6.08399 35.3867H0" stroke="white" stroke-width="1.56054" stroke-miterlimit="10"/>
<path d="M14.4935 14.9998L10.1909 10.6973" stroke="white" stroke-width="1.56054" stroke-miterlimit="10"/>
<path opacity="0.97" d="M23.6592 21.0639V17.4531H29.9482V34.0275H25.9068V21.0639H23.6592Z" fill="white"/>
<path opacity="0.97" d="M32.6963 31.0754V27.9418L39.8699 17.6797H44.2066V27.7148H46.0687V31.0754H44.2066V34.0271H40.3238V31.0754H32.6963ZM40.5959 21.948L36.7828 27.7148H40.5959V21.948Z" fill="white"/>
<path opacity="0.97" d="M23.923 41.9574C24.5063 42.5954 24.7984 43.4736 24.7993 44.592V49.5139H22.2317V44.9393C22.2317 44.376 22.0859 43.938 21.7942 43.6254C21.4756 43.3251 21.0543 43.1578 20.6164 43.1578C20.1785 43.1578 19.7572 43.3251 19.4386 43.6254C19.146 43.938 18.9997 44.376 18.9997 44.9393V49.5152H16.4185V38.3398H18.9997V42.2213C19.2755 41.8374 19.645 41.5305 20.0729 41.3299C20.549 41.1039 21.0705 40.9902 21.5974 40.9977C22.5644 40.9977 23.3396 41.3176 23.923 41.9574Z" fill="white"/>
<path opacity="0.97" d="M26.5739 43.0124C26.8702 42.3963 27.3329 41.8754 27.9096 41.5085C28.4736 41.1491 29.129 40.9592 29.7977 40.9616C30.3434 40.9507 30.8832 41.0771 31.3672 41.3294C31.7916 41.5501 32.149 41.8806 32.4022 42.2864V41.0942H34.9766V49.5202H32.3954V48.3266C32.1346 48.7315 31.7727 49.0614 31.3454 49.2837C30.8631 49.5335 30.3257 49.6581 29.7827 49.646C29.1196 49.6528 28.4688 49.4666 27.9096 49.11C27.3312 48.7361 26.8686 48.2082 26.5739 47.5856C26.2503 46.8674 26.083 46.0887 26.083 45.301C26.083 44.5134 26.2503 43.7346 26.5739 43.0165V43.0124ZM31.8594 43.7835C31.6907 43.6073 31.4883 43.467 31.2641 43.3709C31.04 43.2748 30.7987 43.2248 30.5548 43.2241C30.3109 43.2233 30.0694 43.2717 29.8446 43.3664C29.6199 43.4611 29.4165 43.6002 29.2467 43.7753C28.8885 44.1398 28.7099 44.6457 28.7108 45.2928C28.7117 45.94 28.8904 46.4509 29.2467 46.8255C29.4141 47.0039 29.6161 47.1462 29.8405 47.2438C30.0648 47.3414 30.3067 47.3921 30.5513 47.3928C30.7959 47.3936 31.0381 47.3444 31.2631 47.2483C31.488 47.1521 31.6909 47.011 31.8594 46.8337C32.2167 46.4618 32.3954 45.9532 32.3954 45.3079C32.3954 44.6626 32.2167 44.1522 31.8594 43.7766V43.7835Z" fill="white"/>
<path opacity="0.97" d="M44.3473 41.9562C44.9361 42.5943 45.2305 43.4725 45.2305 44.5908V49.5127H42.6643V44.9381C42.6643 44.3748 42.518 43.9368 42.2254 43.6242C41.9068 43.3239 41.4854 43.1566 41.0476 43.1566C40.6097 43.1566 40.1884 43.3239 39.8697 43.6242C39.5771 43.9368 39.4313 44.3748 39.4322 44.9381V49.514H36.8496V41.0881H39.4336V42.2051C39.7043 41.8249 40.0682 41.5208 40.4904 41.3219C40.9574 41.1 41.4692 40.9886 41.9861 40.9965C42.9714 40.9965 43.7585 41.3164 44.3473 41.9562Z" fill="white"/>
<path opacity="0.97" d="M48.4929 49.258C47.9582 49.0365 47.49 48.6805 47.1339 48.2244C46.8071 47.799 46.6126 47.2869 46.5747 46.7519H49.1272C49.1407 46.8927 49.1843 47.0289 49.2551 47.1513C49.3259 47.2738 49.4221 47.3795 49.5374 47.4615C49.7963 47.6483 50.1097 47.7444 50.4288 47.7349C50.6916 47.7507 50.9528 47.6848 51.1767 47.5462C51.2582 47.4931 51.3252 47.4203 51.3713 47.3345C51.4174 47.2488 51.4412 47.1528 51.4405 47.0554C51.4411 46.9378 51.4051 46.8229 51.3375 46.7266C51.2699 46.6304 51.174 46.5575 51.0632 46.5181C50.6644 46.3561 50.2528 46.2276 49.8327 46.1339C49.3218 46.02 48.8193 45.8711 48.3288 45.6882C47.925 45.5321 47.5665 45.2779 47.2856 44.9486C46.9949 44.6113 46.8491 44.1556 46.8481 43.5814C46.8449 43.1108 46.9846 42.6502 47.2487 42.2607C47.5433 41.8402 47.9516 41.5125 48.4259 41.316C49.0104 41.0697 49.6402 40.9491 50.2743 40.9619C51.3325 40.9619 52.1656 41.2239 52.7735 41.748C53.386 42.2763 53.7637 43.0263 53.8235 43.833H51.4378C51.4057 43.5634 51.268 43.3176 51.055 43.1494C50.8084 42.9686 50.5073 42.8778 50.2019 42.8923C49.958 42.8773 49.7154 42.938 49.5073 43.066C49.4303 43.1185 49.3677 43.1897 49.3254 43.2729C49.2831 43.356 49.2624 43.4485 49.2653 43.5417C49.2656 43.6615 49.3027 43.7782 49.3717 43.8761C49.4407 43.9739 49.5382 44.0481 49.6509 44.0886C50.0379 44.2491 50.4401 44.3704 50.8513 44.4509C51.369 44.5785 51.8786 44.7374 52.377 44.9267C52.7785 45.0892 53.1336 45.3484 53.4106 45.6814C53.7078 46.0287 53.8614 46.4944 53.8714 47.0787C53.8795 47.5514 53.7358 48.0144 53.4612 48.3994C53.1572 48.8094 52.7441 49.1258 52.269 49.3126C51.6962 49.5445 51.0822 49.6575 50.4644 49.6449C49.7874 49.6551 49.1158 49.5232 48.4929 49.258Z" fill="white"/>
</g>
<defs>
<clipPath id="clip0_458_1601">
<rect width="70" height="70" fill="white" transform="translate(0 0.386719)"/>
</clipPath>
</defs>
</svg>
