<svg width="34" height="31" viewBox="0 0 34 31" fill="none" xmlns="http://www.w3.org/2000/svg">
<g clip-path="url(#clip0_68_1629)">
<path d="M33.3885 10.0183C33.3885 12.4363 32.5845 14.7482 31.1204 16.538C31.0886 16.598 31.0478 16.6527 30.9994 16.7003C30.8809 16.8281 30.7759 16.9323 30.669 17.0333L30.5346 17.1612L17.4826 30.1871C17.4193 30.2504 17.3441 30.3006 17.2613 30.3349C17.1786 30.3691 17.0898 30.3867 17.0002 30.3867C16.9106 30.3867 16.8219 30.3691 16.7392 30.3349C16.6564 30.3006 16.5812 30.2504 16.5179 30.1871L3.88649 17.6022C3.84476 17.5606 3.80861 17.5138 3.77894 17.4629C1.76365 15.615 0.611328 12.9151 0.611328 10.0183C0.611328 4.70858 4.44024 0.387695 9.14684 0.387695C12.7824 0.387695 15.7836 3.75939 16.9999 5.35224C18.2163 3.76067 21.2174 0.388974 24.853 0.388974C29.5596 0.387695 33.3885 4.70858 33.3885 10.0183Z"/>
</g>
<defs>
<clipPath id="clip0_68_1629">
<rect width="32.7772" height="29.9995" fill="white" transform="translate(0.611328 0.387695)"/>
</clipPath>
</defs>
</svg>
