<svg width="29" height="29" viewBox="0 0 29 29" fill="none" xmlns="http://www.w3.org/2000/svg">
<g clip-path="url(#clip0_823_1308)">
<path d="M15.7975 3.09473H8.64051L7.15043 4.74694L6.92139 4.97083V5.13554C7.51161 4.95054 8.12134 4.83482 8.7383 4.79069C9.00912 4.77395 9.28072 4.77395 9.55154 4.79069L12.5163 4.63885C16.7266 4.66973 21.3435 8.78739 21.6986 14.0142C21.7806 15.4242 21.5549 16.8352 21.0372 18.1492C20.5195 19.4633 19.7222 20.649 18.7005 21.6242C18.7589 21.6419 18.8099 21.6781 18.8461 21.7273C18.8823 21.7764 18.9016 21.8359 18.9012 21.897C18.9027 21.9682 18.8778 22.0374 18.8313 22.0913C18.7847 22.1453 18.7199 22.18 18.6493 22.189C18.5786 22.1979 18.5071 22.1804 18.4486 22.1398C18.3901 22.0992 18.3488 22.0384 18.3324 21.969C17.9669 22.2938 17.5781 22.5914 17.1692 22.8595L14.8221 24.0407L12.9975 24.9698L13.2832 25.0084L15.5118 25.3095L23.0703 18.5617L23.2479 11.4484L15.7975 3.09473ZM8.65852 4.15502C8.6009 4.15502 8.54457 4.1379 8.49669 4.10583C8.44882 4.07376 8.41155 4.02819 8.38961 3.9749C8.36768 3.92161 8.36207 3.86301 8.3735 3.80653C8.38494 3.75005 8.41289 3.69823 8.45382 3.65767C8.49475 3.6171 8.5468 3.58961 8.60338 3.57868C8.65996 3.56775 8.71851 3.57388 8.77161 3.59629C8.8247 3.61869 8.86994 3.65637 8.90158 3.70453C8.93322 3.75269 8.94984 3.80916 8.94933 3.86679C8.94865 3.94347 8.91772 4.01678 8.86325 4.07076C8.80879 4.12474 8.73521 4.15503 8.65852 4.15502ZM11.8523 4.5951C11.7948 4.5951 11.7385 4.57804 11.6907 4.54609C11.6429 4.51413 11.6056 4.46872 11.5836 4.41558C11.5616 4.36244 11.5558 4.30397 11.5671 4.24755C11.5783 4.19114 11.606 4.13933 11.6466 4.09866C11.6873 4.05798 11.7391 4.03029 11.7955 4.01907C11.852 4.00785 11.9104 4.0136 11.9636 4.03562C12.0167 4.05763 12.0621 4.0949 12.0941 4.14272C12.126 4.19055 12.1431 4.24677 12.1431 4.30429C12.1431 4.38142 12.1125 4.45538 12.0579 4.50992C12.0034 4.56446 11.9294 4.5951 11.8523 4.5951ZM15.1052 3.91311C15.0476 3.91311 14.9913 3.89599 14.9434 3.86392C14.8955 3.83185 14.8583 3.78628 14.8363 3.73299C14.8144 3.6797 14.8088 3.62109 14.8202 3.56461C14.8316 3.50813 14.8596 3.45632 14.9005 3.41576C14.9415 3.37519 14.9935 3.3477 15.0501 3.33677C15.1067 3.32584 15.1652 3.33197 15.2183 3.35437C15.2714 3.37678 15.3166 3.41445 15.3483 3.46261C15.3799 3.51078 15.3966 3.56725 15.396 3.62488C15.396 3.66294 15.3885 3.70064 15.3739 3.73578C15.3592 3.77091 15.3377 3.8028 15.3107 3.8296C15.2837 3.8564 15.2516 3.87758 15.2163 3.89191C15.1811 3.90625 15.1433 3.91345 15.1052 3.91311ZM18.8523 7.48775C18.7948 7.48775 18.7386 7.4707 18.6907 7.43874C18.6429 7.40679 18.6056 7.36137 18.5836 7.30823C18.5616 7.25509 18.5559 7.19662 18.5671 7.14021C18.5783 7.0838 18.606 7.03198 18.6467 6.99131C18.6873 6.95064 18.7392 6.92294 18.7956 6.91172C18.852 6.9005 18.9104 6.90626 18.9636 6.92827C19.0167 6.95028 19.0621 6.98755 19.0941 7.03538C19.1261 7.0832 19.1431 7.13943 19.1431 7.19694C19.1424 7.27386 19.1116 7.34744 19.0572 7.40183C19.0028 7.45623 18.9292 7.48708 18.8523 7.48775ZM14.8942 25.0882C14.8367 25.0882 14.7805 25.0711 14.7326 25.0392C14.6848 25.0072 14.6475 24.9618 14.6255 24.9086C14.6035 24.8555 14.5978 24.797 14.609 24.7406C14.6202 24.6842 14.6479 24.6324 14.6886 24.5917C14.7292 24.5511 14.7811 24.5234 14.8375 24.5121C14.8939 24.5009 14.9524 24.5067 15.0055 24.5287C15.0586 24.5507 15.104 24.588 15.136 24.6358C15.168 24.6836 15.185 24.7398 15.185 24.7974C15.185 24.8745 15.1544 24.9485 15.0998 25.003C15.0453 25.0575 14.9713 25.0882 14.8942 25.0882ZM22.1464 18.7109C22.0888 18.7109 22.0325 18.6938 21.9846 18.6617C21.9367 18.6297 21.8994 18.5841 21.8775 18.5308C21.8556 18.4775 21.85 18.4189 21.8614 18.3624C21.8728 18.306 21.9008 18.2542 21.9417 18.2136C21.9826 18.173 22.0347 18.1455 22.0913 18.1346C22.1479 18.1237 22.2064 18.1298 22.2595 18.1522C22.3126 18.1746 22.3578 18.2123 22.3895 18.2604C22.4211 18.3086 22.4377 18.3651 22.4372 18.4227C22.4372 18.4608 22.4297 18.4985 22.415 18.5336C22.4004 18.5687 22.3789 18.6006 22.3519 18.6274C22.3249 18.6542 22.2928 18.6754 22.2575 18.6897C22.2222 18.7041 22.1845 18.7113 22.1464 18.7109ZM22.4372 11.9014C22.3797 11.9014 22.3235 11.8843 22.2757 11.8524C22.2278 11.8204 22.1906 11.775 22.1686 11.7218C22.1466 11.6687 22.1408 11.6102 22.152 11.5538C22.1632 11.4974 22.1909 11.4456 22.2316 11.4049C22.2723 11.3643 22.3241 11.3366 22.3805 11.3253C22.4369 11.3141 22.4954 11.3199 22.5485 11.3419C22.6017 11.3639 22.6471 11.4012 22.679 11.449C22.711 11.4968 22.728 11.553 22.728 11.6106C22.728 11.6877 22.6974 11.7617 22.6429 11.8162C22.5883 11.8707 22.5144 11.9014 22.4372 11.9014Z" />
<path d="M15.7412 23.2607C16.8877 22.1916 17.7846 20.8831 18.3682 19.4282C18.9518 17.9733 19.2077 16.4077 19.1177 14.8427C18.7754 9.82168 14.7633 5.74263 10.6816 4.92167C11.1987 4.89699 11.7169 4.9324 12.2258 5.02718C16.2971 5.04262 20.7648 9.02646 21.1096 14.0757C21.3927 18.178 18.8655 21.768 15.7412 23.2607Z" />
<path d="M14.0117 24.0175C12.7839 24.8972 11.3422 25.4305 9.83747 25.5616C5.32863 25.8602 0.474945 21.1532 0.091488 15.5042C-0.291969 9.90166 3.86944 5.48547 8.3268 5.1123C5.49591 6.71819 2.66502 10.5373 2.66502 14.2226C2.66502 18.6362 5.82275 22.4708 9.35622 23.5929C10.0331 23.8065 10.8489 24.1436 11.5875 24.1771C12.3957 24.336 13.2313 24.281 14.0117 24.0175Z" />
<path d="M15.8289 21.7037C15.7439 21.5797 15.6238 21.4839 15.4841 21.4284C15.3456 21.3712 15.1932 21.3569 15.0466 21.3872C14.8992 21.4182 14.7641 21.4915 14.658 21.5982C14.5517 21.7041 14.48 21.8395 14.4521 21.9868C14.4239 22.1338 14.4391 22.2858 14.4958 22.4243C14.5534 22.563 14.6511 22.6813 14.7763 22.764C14.9373 22.8741 15.1354 22.9157 15.3271 22.8799H15.376L15.4197 22.8464C15.6024 22.6662 15.7774 22.4784 15.9344 22.2828C15.9306 22.2667 15.9306 22.25 15.9344 22.2339C15.9382 22.1971 15.9382 22.16 15.9344 22.1232C15.9399 21.9762 15.9033 21.8307 15.8289 21.7037ZM15.201 22.4552C15.1342 22.463 15.0667 22.4504 15.0072 22.419C14.9478 22.3876 14.8993 22.3389 14.8682 22.2793C14.837 22.2198 14.8247 22.1521 14.8328 22.0854C14.8409 22.0187 14.8691 21.956 14.9136 21.9056C14.9581 21.8553 15.0169 21.8196 15.0821 21.8034C15.1473 21.7871 15.2159 21.791 15.2789 21.8146C15.3418 21.8382 15.3961 21.8803 15.4346 21.9354C15.4731 21.9905 15.4939 22.056 15.4944 22.1232C15.4968 22.1651 15.4908 22.207 15.4768 22.2465C15.4627 22.2861 15.4409 22.3224 15.4126 22.3533C15.3843 22.3843 15.3501 22.4092 15.3119 22.4267C15.2738 22.4442 15.2326 22.4539 15.1907 22.4552H15.201ZM5.31087 9.87835C5.2464 9.76454 5.15323 9.6696 5.04065 9.60298C4.92878 9.5356 4.80066 9.50001 4.67006 9.50004H4.57227C4.36993 9.85581 4.18778 10.2227 4.02668 10.5989C4.08827 10.7093 4.17771 10.8016 4.28608 10.8666C4.39445 10.9316 4.51797 10.9671 4.64433 10.9695C4.77453 10.9781 4.90457 10.9505 5.02006 10.8897C5.13337 10.8294 5.22912 10.7407 5.29801 10.6324C5.3665 10.5204 5.4038 10.3922 5.40607 10.261C5.40833 10.1298 5.37546 10.0003 5.31087 9.88607V9.87835ZM4.67778 10.5217C4.62158 10.5222 4.56649 10.506 4.51955 10.4751C4.4726 10.4442 4.43592 10.4 4.41418 10.3482C4.39243 10.2963 4.38661 10.2392 4.39745 10.1841C4.40829 10.1289 4.4353 10.0782 4.47505 10.0385C4.51479 9.99874 4.56547 9.97172 4.62062 9.96088C4.67578 9.95004 4.73291 9.95586 4.78474 9.97761C4.83657 9.99935 4.88076 10.036 4.91166 10.083C4.94257 10.1299 4.95881 10.185 4.9583 10.2412C4.9583 10.3156 4.92875 10.387 4.87614 10.4396C4.82353 10.4922 4.75218 10.5217 4.67778 10.5217ZM18.5105 14.8581C18.3539 12.7886 17.5923 10.8108 16.3205 9.17063H16.2638L16.2458 9.18607V9.17063L10.0076 9.08055L8.85721 8.59415L8.8186 8.5607C8.75451 8.50508 8.6718 8.47567 8.58699 8.47835C8.50148 8.47322 8.41739 8.50187 8.35279 8.55813C8.29448 8.61129 8.25936 8.68522 8.255 8.76401C8.25899 8.7963 8.26857 8.82765 8.28331 8.85666C8.30063 8.89147 8.3252 8.92218 8.35537 8.94673L8.42743 9.00077L8.88037 10.2129V17.3262L8.53294 18.2578L8.49177 18.3015C8.43416 18.3668 8.40297 18.4512 8.40426 18.5383C8.40021 18.586 8.40546 18.6341 8.41971 18.6798C8.4324 18.717 8.45254 18.7511 8.4789 18.7802C8.5052 18.8089 8.53662 18.8325 8.57154 18.8497C8.60701 18.8666 8.64552 18.8762 8.68478 18.878C8.71884 18.8765 8.75218 18.8677 8.78257 18.8523C8.81766 18.8354 8.84846 18.8107 8.87265 18.7802L8.92927 18.7082L9.79655 18.3916H9.86603L17.844 19.0633L17.8877 19.0504C18.394 17.7139 18.6064 16.2841 18.5105 14.8581ZM10.3962 9.85776C10.8105 9.85776 11.1451 10.321 11.1451 10.8872C11.1451 11.4534 10.8105 11.9166 10.3962 11.9166C9.98184 11.9166 9.64728 11.4534 9.64728 10.8872C9.64728 10.321 9.98442 9.85776 10.3962 9.85776ZM11.037 13.7953C11.0458 13.8881 11.0363 13.9817 11.0088 14.0708C10.9814 14.1599 10.9366 14.2427 10.877 14.3145C10.8175 14.3862 10.7444 14.4455 10.6618 14.4889C10.5793 14.5323 10.489 14.5589 10.3962 14.5673C10.2172 14.536 10.0551 14.4425 9.93825 14.3035C9.8214 14.1644 9.75734 13.9885 9.75734 13.8069C9.75734 13.6252 9.8214 13.4493 9.93825 13.3103C10.0551 13.1712 10.2172 13.0777 10.3962 13.0464C10.5794 13.0634 10.7488 13.1511 10.8684 13.2909C10.988 13.4307 11.0485 13.6116 11.037 13.7953ZM10.4811 17.846C10.0693 17.846 9.73221 17.3828 9.73221 16.8166C9.73221 16.2504 10.0693 15.7872 10.4811 15.7872C10.8929 15.7872 11.23 16.2504 11.23 16.8166C11.23 17.3828 10.8954 17.846 10.4811 17.846ZM13.1756 17.7945C13.0201 17.8214 12.86 17.7999 12.7171 17.7329C12.5741 17.666 12.4551 17.5569 12.3761 17.4203C12.2971 17.2836 12.2618 17.1261 12.2751 16.9688C12.2884 16.8115 12.3495 16.6621 12.4503 16.5406C12.5512 16.4192 12.6868 16.3315 12.8389 16.2895C12.991 16.2475 13.1524 16.2531 13.3013 16.3056C13.4501 16.3581 13.5793 16.455 13.6714 16.5832C13.7635 16.7113 13.8141 16.8647 13.8164 17.0225C13.8253 17.1153 13.8157 17.2089 13.7882 17.298C13.7608 17.3872 13.716 17.47 13.6565 17.5417C13.5969 17.6134 13.5238 17.6727 13.4413 17.7161C13.3587 17.7595 13.2685 17.7862 13.1756 17.7945ZM12.8925 13.9342C12.8925 13.8462 12.9186 13.7601 12.9675 13.6869C13.0165 13.6137 13.086 13.5566 13.1674 13.5229C13.2487 13.4892 13.3382 13.4804 13.4246 13.4976C13.511 13.5148 13.5903 13.5572 13.6526 13.6194C13.7148 13.6817 13.7572 13.761 13.7744 13.8474C13.7916 13.9337 13.7828 14.0233 13.7491 14.1046C13.7154 14.186 13.6583 14.2555 13.5851 14.3044C13.5119 14.3534 13.4258 14.3795 13.3377 14.3795C13.2197 14.3795 13.1064 14.3326 13.0229 14.2491C12.9394 14.1656 12.8925 14.0523 12.8925 13.9342ZM13.3377 11.51C13.1505 11.4924 12.9778 11.4012 12.8577 11.2564C12.7376 11.1117 12.6797 10.9252 12.6969 10.7379C12.6825 10.6451 12.6883 10.5502 12.714 10.4598C12.7397 10.3695 12.7847 10.2857 12.8458 10.2144C12.9069 10.143 12.9828 10.0857 13.0681 10.0464C13.1535 10.0072 13.2463 9.98683 13.3403 9.98683C13.4343 9.98683 13.5271 10.0072 13.6125 10.0464C13.6978 10.0857 13.7737 10.143 13.8348 10.2144C13.8959 10.2857 13.9409 10.3695 13.9666 10.4598C13.9923 10.5502 13.9981 10.6451 13.9837 10.7379C13.9922 10.8311 13.9822 10.925 13.9543 11.0142C13.9264 11.1035 13.8811 11.1864 13.8211 11.2581C13.7611 11.3299 13.6875 11.389 13.6045 11.4323C13.5216 11.4755 13.4309 11.5019 13.3377 11.51ZM16.1094 18.0699C15.6977 18.0699 15.3605 17.6067 15.3605 17.0405C15.3605 16.4743 15.6977 16.0111 16.1094 16.0111C16.5212 16.0111 16.8583 16.4769 16.8583 17.0354C16.8583 17.5938 16.5238 18.0699 16.1094 18.0699ZM16.2767 14.7964C16.1212 14.8232 15.9611 14.8017 15.8182 14.7348C15.6752 14.6678 15.5562 14.5587 15.4772 14.4221C15.3982 14.2855 15.3629 14.1279 15.3762 13.9706C15.3895 13.8133 15.4506 13.6639 15.5515 13.5424C15.6523 13.421 15.7879 13.3334 15.94 13.2913C16.0922 13.2493 16.2535 13.2549 16.4024 13.3074C16.5512 13.36 16.6804 13.4568 16.7725 13.585C16.8646 13.7132 16.9152 13.8665 16.9175 14.0243C16.9347 14.2116 16.8769 14.3981 16.7568 14.5428C16.6366 14.6876 16.464 14.7788 16.2767 14.7964ZM16.2767 12.0273C15.8649 12.0273 15.5304 11.564 15.5304 10.9978C15.5304 10.4317 15.8649 9.96842 16.2767 9.96842C16.6885 9.96842 17.0256 10.4317 17.0256 10.9978C17.0256 11.564 16.6911 12.0273 16.2767 12.0273ZM16.0194 20.7104H15.3863V19.5085L12.5554 19.2666V20.996H13.6826V21.6368H11.9043V19.2126L9.87633 19.0504L9.30243 19.2589C9.22765 19.3326 9.14056 19.3927 9.04507 19.4365C8.92184 19.4971 8.78609 19.5279 8.64875 19.5265C8.52026 19.5208 8.39424 19.4893 8.27816 19.4339C8.16635 19.3808 8.06652 19.3055 7.98478 19.2126C7.90189 19.1205 7.83804 19.0129 7.79691 18.896C7.7609 18.7795 7.74694 18.6573 7.75573 18.5357C7.75672 18.3186 7.83109 18.1082 7.96676 17.9387L8.22412 17.2258V15.6817C8.15214 15.7117 8.08247 15.747 8.01566 15.7872L7.75831 16.0883C7.64743 16.2333 7.50608 16.3523 7.34422 16.4368C7.18236 16.5213 7.00394 16.5692 6.82154 16.5773C5.64029 16.5773 4.81933 14.9096 4.81933 13.4247C4.81933 11.9398 5.68661 10.5578 6.72117 10.4291C6.7803 10.4253 6.83962 10.4253 6.89875 10.4291C7.08091 10.4274 7.26112 10.4667 7.42597 10.5443C7.59083 10.6218 7.73609 10.7355 7.85095 10.8769L8.06198 11.1342C8.12192 11.148 8.18322 11.1549 8.24471 11.1548V10.3287L7.87669 9.3868C7.80383 9.31655 7.74297 9.23483 7.69654 9.14489C7.63305 9.0249 7.59784 8.89198 7.5936 8.75629C7.59626 8.63203 7.62354 8.50954 7.67388 8.39591C7.72422 8.28227 7.79661 8.17976 7.88685 8.0943C7.97709 8.00885 8.0834 7.94215 8.1996 7.89807C8.31581 7.854 8.43961 7.83342 8.56382 7.83754C8.78371 7.83293 8.99838 7.90479 9.17118 8.04084L10.1182 8.43974L11.5929 8.46033V7.22503H10.9752V5.39268C10.3012 5.19553 9.60319 5.09248 8.90096 5.08643C8.39817 5.35685 7.92246 5.67485 7.48037 6.03606C7.61101 6.06462 7.73616 6.11416 7.85095 6.18275C8.0269 6.29779 8.16341 6.46394 8.24213 6.65886C8.30225 6.80369 8.32949 6.96005 8.3219 7.11668C8.3143 7.27331 8.27206 7.42631 8.19822 7.56464C8.12437 7.70298 8.02076 7.82322 7.89485 7.91669C7.76894 8.01016 7.62386 8.07454 7.47007 8.10518C7.40136 8.1184 7.33158 8.12529 7.26161 8.12577C7.08741 8.12461 6.91614 8.08085 6.76273 7.99831C6.60932 7.91578 6.47843 7.79697 6.38147 7.65224C6.29871 7.5227 6.24433 7.3771 6.22191 7.22503C5.67124 7.82927 5.18241 8.48708 4.76271 9.18864C4.9199 9.19974 5.07234 9.24732 5.20793 9.32761C5.36877 9.42315 5.50125 9.55983 5.59172 9.72357C5.68218 9.88732 5.72738 10.0722 5.72264 10.2592C5.71939 10.4466 5.66607 10.6296 5.56823 10.7894C5.47238 10.9503 5.33447 11.082 5.16933 11.1703C5.01176 11.2572 4.83458 11.3024 4.65462 11.3015H4.63403C4.44736 11.2969 4.26528 11.2427 4.10646 11.1445C4.02395 11.0929 3.94866 11.0306 3.88256 10.9592C3.48369 11.9523 3.27252 13.0108 3.25977 14.0809C3.25955 14.5932 3.3026 15.1046 3.38844 15.6096C3.55734 15.5353 3.74311 15.5077 3.92631 15.5298C4.06436 15.545 4.19812 15.5869 4.32006 15.6534C4.44192 15.7168 4.54962 15.8044 4.63661 15.9107C4.72566 16.0178 4.7914 16.1422 4.82962 16.2762C4.86853 16.4097 4.88077 16.5496 4.86565 16.6879C4.85182 16.8271 4.80979 16.9619 4.74212 17.0843C4.67786 17.2056 4.59042 17.3131 4.48477 17.4008C4.37771 17.4899 4.25324 17.5556 4.11933 17.5938L3.97521 17.6273C4.50656 18.9349 5.30007 20.1199 6.30683 21.1093C6.30683 21.0861 6.3197 21.0655 6.32485 21.0423C6.40197 20.7717 6.58345 20.5428 6.82935 20.406C6.95111 20.3382 7.08502 20.2951 7.22343 20.2791C7.36185 20.2631 7.50206 20.2746 7.63606 20.3127C7.77007 20.3509 7.89523 20.4151 8.00442 20.5017C8.11361 20.5883 8.20468 20.6955 8.27243 20.8173C8.34017 20.939 8.38328 21.0729 8.39928 21.2113C8.41527 21.3498 8.40385 21.49 8.36566 21.624C8.29741 21.839 8.16327 22.0272 7.9822 22.1618C7.92205 22.2056 7.85734 22.2427 7.78919 22.2725C8.41955 22.6883 9.10351 23.0164 9.82228 23.2479C10.4538 23.4855 11.1126 23.6429 11.7833 23.7163C12.1488 23.6802 13.3841 24.1254 14.9333 23.1707C14.8129 23.1416 14.6987 23.091 14.5962 23.0214C14.4183 22.9035 14.2795 22.7353 14.1974 22.5382C14.1154 22.3411 14.0939 22.1241 14.1355 21.9148C14.166 21.7582 14.2308 21.6103 14.3251 21.4818C14.4195 21.3532 14.5412 21.2471 14.6814 21.1711C14.8216 21.0951 14.9769 21.051 15.1361 21.0421C15.2954 21.0332 15.4546 21.0597 15.6024 21.1196C15.8 21.2049 15.9682 21.3463 16.0863 21.5262C16.1677 21.6456 16.2238 21.7805 16.251 21.9225C16.7957 21.2391 17.2547 20.4915 17.6175 19.6964L16.0271 19.5651L16.0194 20.7104ZM15.1598 7.87356V8.5118H15.78C15.5716 8.29562 15.3734 8.07945 15.1598 7.87356ZM12.244 8.47063L14.5602 8.50151V7.34856L14.4135 7.22503H12.244V8.47063ZM11.6263 5.60885V6.58422H13.5436C12.9427 6.18891 12.2997 5.86177 11.6263 5.60885ZM7.71713 15.2133C7.87411 15.1153 8.04911 15.0496 8.23184 15.0203V11.7905C8.09388 11.7916 7.95662 11.7708 7.82522 11.7287L7.75316 11.7853C7.60036 11.9203 7.47535 12.0838 7.38514 12.2666C7.20009 12.6263 7.10474 13.0253 7.1072 13.4298C7.10714 13.8794 7.2046 14.3237 7.39286 14.732C7.4729 14.9097 7.58255 15.0724 7.71713 15.2133ZM7.35426 11.2809C7.30119 11.2097 7.23253 11.1516 7.15353 11.1111C7.07335 11.072 6.98534 11.0518 6.89617 11.0519H6.82154C6.18588 11.1342 5.46014 12.1559 5.46014 13.4247C5.46014 14.7346 6.16786 15.9365 6.82154 15.9365C6.91183 15.9311 6.99977 15.9056 7.07889 15.8618C7.15993 15.8176 7.23022 15.7561 7.28478 15.6817C7.09038 15.4852 6.9334 15.255 6.82154 15.0023C6.59049 14.5085 6.47099 13.9699 6.47154 13.4247C6.46965 12.9165 6.58968 12.4152 6.82154 11.9629C6.95121 11.7019 7.13243 11.4699 7.35426 11.2809ZM7.95647 6.77981C7.90135 6.64196 7.80637 6.52369 7.68367 6.44011C7.52353 6.35878 7.34828 6.31147 7.16897 6.30113C6.95022 6.49158 6.73404 6.69489 6.52558 6.90849C6.52232 6.95304 6.52232 6.99776 6.52558 7.04231C6.53329 7.19339 6.57839 7.34018 6.65683 7.46952C6.73936 7.59318 6.85694 7.68937 6.99449 7.74577C7.13205 7.80217 7.28331 7.8162 7.42889 7.78606C7.57169 7.75544 7.70287 7.68494 7.8072 7.58276C7.9047 7.47989 7.97077 7.35132 7.99765 7.21217C8.02854 7.06723 8.01417 6.91631 7.95647 6.77981ZM7.27191 7.39489C7.20585 7.39694 7.14068 7.37922 7.08475 7.34401C7.02882 7.3088 6.98467 7.2577 6.95795 7.19724C6.93124 7.13679 6.92318 7.06974 6.9348 7.00468C6.94643 6.93961 6.97721 6.8795 7.0232 6.83204C7.06919 6.78457 7.1283 6.75192 7.19297 6.73825C7.25763 6.72458 7.3249 6.73053 7.38617 6.75533C7.44743 6.78012 7.4999 6.82264 7.53686 6.87743C7.57381 6.93223 7.59357 6.99681 7.5936 7.0629C7.5943 7.14939 7.56096 7.23268 7.50077 7.2948C7.44058 7.35691 7.35838 7.39286 7.27191 7.39489ZM4.52337 16.3714C4.49542 16.2779 4.45002 16.1906 4.38955 16.114C4.32854 16.0374 4.2523 15.9743 4.16565 15.9287C4.08054 15.8817 3.98695 15.8519 3.89028 15.8412C3.75478 15.8262 3.61775 15.8484 3.49396 15.9056C3.47856 15.9127 3.46391 15.9213 3.45021 15.9313C3.48366 16.0986 3.52227 16.2659 3.56859 16.4306C3.59451 16.3893 3.63073 16.3555 3.67368 16.3325C3.71663 16.3095 3.76483 16.2981 3.81353 16.2994C3.86223 16.3007 3.90975 16.3147 3.95142 16.3399C3.99309 16.3651 4.02747 16.4008 4.05117 16.4434C4.07487 16.4859 4.08708 16.5339 4.08659 16.5826C4.08611 16.6314 4.07294 16.6791 4.0484 16.7212C4.02385 16.7633 3.98877 16.7982 3.9466 16.8226C3.90444 16.847 3.85665 16.86 3.80793 16.8604C3.76395 16.861 3.72053 16.8504 3.68183 16.8295C3.73072 16.9942 3.78734 17.1563 3.84653 17.3184C3.90573 17.3155 3.96443 17.306 4.02153 17.2901C4.11519 17.2614 4.20253 17.2151 4.27889 17.1537C4.35596 17.0943 4.41919 17.0187 4.46418 16.9324C4.51125 16.8473 4.54099 16.7537 4.55168 16.657C4.56019 16.5609 4.55058 16.464 4.52337 16.3714ZM8.04397 21.0758C7.99289 20.9266 7.89541 20.7977 7.7658 20.708C7.63619 20.6182 7.48125 20.5722 7.32365 20.5768C7.16605 20.5814 7.01406 20.6363 6.88991 20.7335C6.76576 20.8307 6.67597 20.9651 6.63367 21.117C6.60882 21.2003 6.60008 21.2877 6.60794 21.3743C6.87214 21.6148 7.15059 21.8391 7.44176 22.046C7.58216 22.028 7.71436 21.9698 7.82254 21.8785C7.93072 21.7872 8.01028 21.6667 8.05169 21.5313C8.09648 21.3824 8.09379 21.2232 8.04397 21.0758ZM7.33625 21.5982C7.28015 21.5982 7.22531 21.5816 7.17871 21.5503C7.1321 21.5191 7.09582 21.4748 7.07447 21.4229C7.05312 21.371 7.04767 21.3139 7.0588 21.259C7.06993 21.204 7.09715 21.1535 7.137 21.1141C7.17685 21.0746 7.22753 21.0478 7.28261 21.0372C7.3377 21.0266 7.3947 21.0325 7.44638 21.0543C7.49806 21.0762 7.54209 21.1129 7.57288 21.1597C7.60368 21.2066 7.61985 21.2616 7.61934 21.3177C7.61934 21.3548 7.612 21.3915 7.59774 21.4257C7.58348 21.4599 7.56259 21.4909 7.53627 21.517C7.50995 21.5431 7.47872 21.5637 7.44439 21.5776C7.41006 21.5916 7.3733 21.5986 7.33625 21.5982Z" />
<path d="M23.8887 12.6553V15.9623H25.0339C25.086 15.9622 25.1375 15.9724 25.1857 15.9923C25.2338 16.0121 25.2776 16.0413 25.3144 16.0781C25.3874 16.1523 25.4289 16.2519 25.4302 16.356V17.8204H28.9997V14.4181C29.0001 14.1895 28.9553 13.963 28.868 13.7516C28.7807 13.5402 28.6527 13.3481 28.4911 13.1863C28.3295 13.0245 28.1376 12.8961 27.9264 12.8085C27.7151 12.7209 27.4887 12.6759 27.26 12.6759L23.8887 12.6553Z" />
<path d="M27.2116 19.1204C28.1972 19.1204 28.995 18.9814 28.995 18.809C28.995 18.6365 28.1972 18.4976 27.2116 18.4976C26.2259 18.4976 25.4307 18.6391 25.4307 18.809C25.4307 18.9788 26.2285 19.1204 27.2116 19.1204Z" />
<path d="M28.995 18.4224H25.4307V18.8084H28.995V18.4224Z" />
<path d="M15.1882 26.0972H12.3984V28.0582H15.1882V26.0972Z" />
<path d="M15.0569 0.495605H12.2646V2.44635H15.0569V0.495605Z" />
<path d="M13.7907 28.457C14.5628 28.457 15.1856 28.2717 15.1856 28.0452C15.1856 27.8187 14.5628 27.6309 13.7907 27.6309C13.0187 27.6309 12.3984 27.8162 12.3984 28.0452C12.3984 28.2742 13.0212 28.457 13.7907 28.457Z" />
<path d="M13.6569 0.910089C14.429 0.910089 15.0518 0.724795 15.0518 0.49575C15.0518 0.266705 14.4264 0.0839844 13.6569 0.0839844C12.8874 0.0839844 12.2646 0.264132 12.2646 0.49575C12.2646 0.727368 12.8874 0.910089 13.6569 0.910089Z" />
</g>
<defs>
<clipPath id="clip0_823_1308">
<rect width="28.9343" height="28.3758" fill="white" transform="translate(0.065918 0.0839844)"/>
</clipPath>
</defs>
</svg>
