<svg width="27" height="29" viewBox="0 0 27 29" fill="none" xmlns="http://www.w3.org/2000/svg">
<g clip-path="url(#clip0_823_1283)">
<path d="M8.69948 12.6933L8.18371 12.8441L7.99856 12.8996L1.08723 14.9018L0.391602 14.6373C0.416971 14.6249 0.443564 14.6152 0.470951 14.6083L8.18371 12.4658L8.69948 12.6933Z" />
<path d="M0.849116 15.3993V24.9212L0.505269 24.781L0.460305 24.7625L0.380955 24.7308C0.359821 24.7209 0.339482 24.7094 0.320121 24.6964L0.291026 24.6752C0.222824 24.6255 0.167503 24.5602 0.129682 24.4848C0.0912898 24.4093 0.0704914 24.3261 0.0688477 24.2415V15.0898L0.849116 15.3993Z" />
<path d="M9.51681 19.8874V13.3358C9.51701 13.2392 9.48332 13.1456 9.42159 13.0713L8.24458 13.4125L8.18903 13.4363L1.4126 15.3883V25.1086C1.4389 25.1126 1.46565 25.1126 1.49195 25.1086L9.20735 22.9291C9.29653 22.9043 9.37536 22.8514 9.43217 22.7784C9.48915 22.7021 9.51895 22.609 9.51681 22.5139V20.4852L3.29582 17.9989V21.1729L2.73509 20.993V17.4699L7.52514 16.0945L7.56746 16.113L8.36096 16.4383L4.02319 17.6815L9.51681 19.8874Z" />
<path d="M8.63869 0.232717L8.10969 0.386126L7.92719 0.439025L1.0238 2.44127L0.314941 2.17678C0.341764 2.15706 0.371123 2.14104 0.402226 2.12917L7.82933 0.084598L8.12027 0.0131836L8.63869 0.232717Z" />
<path d="M5.12373 8.08836L4.84336 8.00372L4.42017 7.87676C4.17525 7.73568 3.98198 7.51984 3.86869 7.26089C3.75541 7.00195 3.72806 6.71352 3.79066 6.43789C3.90704 5.6444 4.54183 4.93555 5.11315 4.93555H5.1925L5.28243 4.95142L5.45435 5.00167L5.98335 5.16301C5.70756 5.36164 5.47441 5.61355 5.29769 5.90386C5.12096 6.19416 5.00425 6.51696 4.95445 6.85316C4.88301 7.27251 4.9421 7.70369 5.12373 8.08836Z" />
<path d="M7.99866 7.10209C7.89286 7.89558 7.16813 8.4907 6.59417 8.4907C6.55543 8.49341 6.51654 8.49341 6.47779 8.4907L6.37464 8.46954C6.17226 8.42231 5.98828 8.31651 5.84564 8.16537C5.69864 8.00163 5.59139 7.8062 5.53221 7.59426C5.47303 7.38232 5.46353 7.1596 5.50444 6.94339C5.54113 6.68097 5.6303 6.42862 5.76663 6.20141C5.90295 5.97419 6.08365 5.77676 6.29794 5.6209C6.4517 5.50715 6.63586 5.44177 6.82693 5.43311H6.91951C7.56488 5.52568 8.12562 6.12873 7.99866 7.10209Z" />
<path d="M9.35812 0.603315C9.33805 0.580986 9.31591 0.560617 9.29199 0.54248L9.35283 0.603315L8.17846 0.947162L8.12027 0.970967L1.34912 2.92296V12.6459H1.42318L9.15181 10.4559C9.24124 10.4316 9.32022 10.3786 9.37663 10.3051C9.43476 10.2295 9.46469 10.1359 9.46127 10.0406V0.878393C9.46155 0.777194 9.42487 0.679375 9.35812 0.603315ZM8.56462 7.17609C8.42444 8.23408 7.47754 9.04609 6.5994 9.04609C6.53334 9.05003 6.4671 9.05003 6.40103 9.04609C6.27278 9.02795 6.14743 8.99328 6.02809 8.94293L4.7056 8.54619L4.23215 8.40865C3.86435 8.22409 3.56746 7.92368 3.38726 7.55372C3.20706 7.18376 3.15356 6.76481 3.23499 6.36143C3.39369 5.28757 4.24802 4.38299 5.11822 4.38299H5.10499C5.16399 4.37896 5.2232 4.37896 5.28221 4.38299C5.3351 4.38299 5.388 4.39357 5.4409 4.41473L5.6287 4.45969L6.38516 4.68716L6.44864 3.98889C6.58153 3.92361 6.72953 3.89529 6.87713 3.90689C7.03004 3.91611 7.17702 3.96939 7.30032 4.0603L7.21833 4.93315C8.04621 5.15532 8.7101 5.98585 8.55404 7.17609H8.56462Z" />
<path d="M0.785925 2.94138V12.4633L0.442077 12.3231L0.397113 12.3046L0.320408 12.2729C0.299274 12.263 0.278935 12.2515 0.259574 12.2385L0.230479 12.2173C0.162277 12.1676 0.106956 12.1023 0.0691353 12.0269C0.030743 11.9514 0.00994449 11.8682 0.00830078 11.7835V2.63721L0.785925 2.94138Z" />
<path d="M25.9926 23.6465L21.7263 24.7865L4.02344 17.6821L8.35062 16.439L25.9926 23.6465Z" />
<path d="M21.4722 25.2831L21.4695 27.0394L3.2959 21.157V17.9883L21.4722 25.2831Z" />
<path d="M26.3971 25.7224V26.1641L25.4634 26.4075L22.0249 27.1771V27.1295V27.0449L22.0275 26.5106L22.0302 25.2833L26.3971 24.1143V25.7224Z" />
<path d="M25.2412 27.0552L22.2788 27.7191L22.3529 28.0497L25.3152 27.3858L25.2412 27.0552Z" />
</g>
<defs>
<clipPath id="clip0_823_1283">
<rect width="26.3969" height="28.05" fill="white"/>
</clipPath>
</defs>
</svg>
