<svg width="19" height="33" viewBox="0 0 19 33" fill="none" xmlns="http://www.w3.org/2000/svg">
<g clip-path="url(#clip0_828_1605)">
<path d="M10.4474 8.44347C12.9145 8.44347 15.4913 7.89521 16.4782 6.85352V8.14192C16.4782 9.29327 13.7917 10.2527 10.4474 10.2527C7.10297 10.2527 4.4165 9.32068 4.4165 8.14192V6.85352C5.40337 7.89521 7.98019 8.44347 10.4474 8.44347Z"/>
<path d="M16.4782 10.6638C16.4782 11.8425 13.7917 12.802 10.4474 12.802C7.10297 12.802 4.4165 11.8699 4.4165 10.6912V10.6638V9.04639C5.40337 10.0881 7.98019 10.6363 10.4474 10.6363C12.9145 10.6363 15.4913 10.0881 16.4782 9.04639V10.6638Z" />
<path d="M16.4782 11.6235V30.7578C16.4782 31.9091 13.7917 32.8686 10.4474 32.8686C7.10297 32.8686 4.4165 31.9365 4.4165 30.7578V11.6235C5.40337 12.6652 7.98019 13.2135 10.4474 13.2135C12.9145 13.2135 15.4913 12.6652 16.4782 11.6235Z"/>
<path d="M12.8048 5.729V5.94831V5.97572V6.00313C12.8048 6.03055 12.7774 6.05796 12.75 6.08537C12.5033 6.3595 11.5986 6.63363 10.4747 6.63363C9.24112 6.63363 8.28167 6.30468 8.1446 6.00313C8.11719 5.97572 8.11719 5.97572 8.11719 5.94831V5.729C8.28167 5.81124 8.41873 5.86607 8.61062 5.92089C9.21371 6.11279 9.8442 6.19502 10.4747 6.16761C11.1052 6.16761 11.7357 6.08537 12.3388 5.92089C12.4758 5.86607 12.6403 5.81124 12.8048 5.729Z"/>
<path d="M13.3535 4.0845V2.13818C13.2986 2.19301 13.2438 2.22042 13.1616 2.27525C13.1068 2.30266 13.0245 2.33007 12.9697 2.3849C12.1747 2.68644 11.2975 2.82351 10.4477 2.79609C9.5979 2.82351 8.7481 2.68644 7.95312 2.3849C7.87088 2.35749 7.81606 2.33007 7.76123 2.27525C7.67899 2.24784 7.62417 2.19301 7.56934 2.13818V4.0845C5.70526 4.44087 4.47168 5.12619 4.47168 5.92117C4.47168 7.07251 7.15815 8.03197 10.5025 8.03197C13.8469 8.03197 16.5334 7.09993 16.5334 5.92117C16.4785 5.12619 15.2176 4.44087 13.3535 4.0845ZM13.2164 5.94858C13.2164 6.03082 13.189 6.11306 13.1616 6.1953C13.1068 6.30495 13.0245 6.38719 12.8875 6.49684C12.8326 6.52425 12.8052 6.55167 12.7504 6.57908C12.5311 6.71614 12.2295 6.8258 11.9006 6.88062C11.4346 6.99027 10.9137 7.0451 10.4477 7.0451C9.35118 7.0451 8.06277 6.79838 7.76123 6.22271C7.70641 6.14047 7.67899 6.05823 7.67899 5.94858V5.07137L8.28208 5.40032C8.30949 5.40032 8.3369 5.42774 8.36432 5.42774C8.39173 5.45515 8.41914 5.45515 8.44656 5.45515C8.47397 5.48256 8.50138 5.48256 8.52879 5.48256C8.58362 5.50997 8.63845 5.50998 8.69327 5.53739C9.02223 5.61963 9.35118 5.70187 9.68014 5.72928C9.73496 5.72928 9.8172 5.72928 9.87203 5.75669C9.92685 5.75669 10.0091 5.75669 10.0639 5.7841C10.1187 5.7841 10.1736 5.7841 10.2284 5.7841C10.2832 5.7841 10.338 5.7841 10.3929 5.7841H10.4751C10.5848 5.7841 10.667 5.7841 10.7767 5.7841C10.8589 5.7841 10.9137 5.7841 10.996 5.7841C11.4072 5.75669 11.8458 5.67445 12.257 5.5648C12.394 5.50997 12.5311 5.48256 12.6681 5.40032L12.86 5.29067L13.2712 5.07137V5.94858H13.2164Z"/>
<path d="M13.353 1.42562C13.353 1.56269 13.2707 1.69975 13.1611 1.75458C13.1063 1.83682 13.024 1.89164 12.9692 1.91906C12.4483 2.19319 11.5163 2.38508 10.4472 2.38508C9.3781 2.38508 8.44606 2.19319 7.95263 1.91906C7.87039 1.89164 7.81556 1.83682 7.76074 1.78199C7.65109 1.69975 7.56885 1.5901 7.56885 1.45304C7.56885 0.987016 8.58313 0.603235 9.92636 0.520996C10.0086 0.520996 10.0908 0.520996 10.1731 0.520996H10.4746H10.7762H11.0229C12.3387 0.603235 13.353 0.987016 13.353 1.42562Z"/>
</g>
<defs>
<clipPath id="clip0_828_1605">
<rect width="18.3667" height="32.8955" fill="white" transform="translate(0.633301)"/>
</clipPath>
</defs>
</svg>
