<svg width="27" height="27" viewBox="0 0 27 27" fill="none" xmlns="http://www.w3.org/2000/svg">
<g clip-path="url(#clip0_375_445)">
<path d="M22.2031 0.269531H3.82031C1.72043 0.269531 0.0117188 1.97824 0.0117188 4.07812V22.4609C0.0117188 24.5608 1.72043 26.2695 3.82031 26.2695H22.2031C24.303 26.2695 26.0117 24.5608 26.0117 22.4609V4.07812C26.0117 1.97824 24.303 0.269531 22.2031 0.269531ZM13.0625 20.0742C9.28227 20.0742 6.20703 16.999 6.20703 13.2188C6.20703 9.43852 9.28227 6.36328 13.0625 6.36328C16.8427 6.36328 19.918 9.43852 19.918 13.2188C19.918 16.999 16.8427 20.0742 13.0625 20.0742ZM20.6797 7.88672C19.4197 7.88672 18.3945 6.86157 18.3945 5.60156C18.3945 4.34155 19.4197 3.31641 20.6797 3.31641C21.9397 3.31641 22.9648 4.34155 22.9648 5.60156C22.9648 6.86157 21.9397 7.88672 20.6797 7.88672Z"/>
<path d="M13.0625 7.88672C10.1227 7.88672 7.73047 10.279 7.73047 13.2188C7.73047 16.1585 10.1227 18.5508 13.0625 18.5508C16.0023 18.5508 18.3945 16.1585 18.3945 13.2188C18.3945 10.279 16.0023 7.88672 13.0625 7.88672Z"/>
</g>
<defs>
<clipPath id="clip0_375_445">
<rect width="26" height="26" fill="white" transform="translate(0.0117188 0.269531)"/>
</clipPath>
</defs>
</svg>
