<svg width="36" height="40" viewBox="0 0 36 40" fill="none" xmlns="http://www.w3.org/2000/svg">
<g clip-path="url(#clip0_492_800)">
<path d="M2.56616 38.1229H1.41139C1.41139 39.422 1.90858 39.8871 2.56616 39.9833H1.61989C1.19985 39.9846 0.794203 39.8304 0.481155 39.5503C0.334165 39.4151 0.215834 39.2517 0.133182 39.0698C0.0505299 38.888 0.00524042 38.6914 0 38.4918V33.167C0.00513893 32.0202 0.357405 30.9019 1.01042 29.9593C1.40131 29.2681 1.95107 28.6798 2.61427 28.2432V38.1229H2.56616Z" fill="#00A886"/>
<path d="M35.2845 33.1518V38.4926C35.2876 38.6908 35.2493 38.8874 35.1722 39.07C35.0843 39.2549 34.965 39.4232 34.8194 39.5672C34.6636 39.705 34.4844 39.8137 34.2901 39.8879C34.0962 39.9646 33.8892 40.0028 33.6806 40.0002H32.7344C33.392 39.904 33.8891 39.4389 33.8891 38.1397H32.7344V28.2119C33.399 28.6605 33.9485 29.2594 34.3382 29.9601C34.97 30.9034 35.3001 32.0165 35.2845 33.1518Z" fill="#00A886"/>
<path d="M28.9328 38.1247C29.4362 38.1163 29.9159 37.9093 30.2674 37.5488C30.6189 37.1883 30.8137 36.7035 30.8094 36.2001V23.1127C30.8094 22.862 30.76 22.6139 30.6641 22.3823C30.5682 22.1507 30.4276 21.9403 30.2503 21.7631C30.0731 21.5859 29.8627 21.4453 29.6312 21.3494C29.3996 21.2535 29.1514 21.2041 28.9008 21.2041H6.36669C5.86051 21.2041 5.37505 21.4052 5.01712 21.7631C4.65919 22.121 4.45811 22.6065 4.45811 23.1127V36.2001C4.45599 36.4521 4.5038 36.702 4.59877 36.9354C4.69373 37.1688 4.83398 37.3811 5.01142 37.56C5.18886 37.739 5.39998 37.881 5.63259 37.9779C5.8652 38.0748 6.1147 38.1247 6.36669 38.1247H3.01465C3.01465 39.6163 3.65619 40.0012 4.45811 40.0012H30.8094C31.6113 40.0012 32.2528 39.6163 32.2528 38.1247H28.9328Z" fill="#00A886"/>
<path d="M17.6418 19.599C23.0539 19.599 27.4413 15.2116 27.4413 9.79952C27.4413 4.38739 23.0539 0 17.6418 0C12.2297 0 7.84229 4.38739 7.84229 9.79952C7.84229 15.2116 12.2297 19.599 17.6418 19.599Z" fill="#00A886"/>
</g>
<defs>
<clipPath id="clip0_492_800">
<rect width="35.2847" height="40" fill="white"/>
</clipPath>
</defs>
</svg>
