<svg width="49" height="30" viewBox="0 0 49 30" fill="none" xmlns="http://www.w3.org/2000/svg">
<g clip-path="url(#clip0_375_461)">
<path d="M48.5113 15.0486C48.5113 23.1375 41.978 29.7486 33.8113 29.7486C25.7224 29.7486 19.1113 23.1375 19.1113 15.0486C19.1113 6.95974 25.6447 0.348633 33.7336 0.348633C41.978 0.348633 48.5113 6.95974 48.5113 15.0486Z" fill="#FFB600"/>
<path d="M33.8113 0.348633C41.9002 0.348633 48.5113 6.95974 48.5113 15.0486C48.5113 23.1375 41.978 29.7486 33.8113 29.7486C25.7224 29.7486 19.1113 23.1375 19.1113 15.0486" fill="#F7981D"/>
<path d="M33.8105 0.348633C41.8994 0.348633 48.5105 6.95974 48.5105 15.0486C48.5105 23.1375 41.9772 29.7486 33.8105 29.7486" fill="#FF8500"/>
<path d="M14.0562 0.348633C6.04505 0.426411 -0.488281 6.95974 -0.488281 15.0486C-0.488281 23.1375 6.04505 29.7486 14.2117 29.7486C18.0228 29.7486 21.4451 28.2709 24.0895 25.9375C24.6339 25.4709 25.1006 24.9264 25.5673 24.382H22.5339C22.1451 23.9153 21.7562 23.3709 21.4451 22.9042H26.6562C26.9673 22.4375 27.2784 21.8931 27.5117 21.3486H20.5895C20.3562 20.882 20.1228 20.3375 19.9673 19.7931H28.0562C28.5228 18.3153 28.8339 16.7597 28.8339 15.1264C28.8339 14.0375 28.6784 13.0264 28.5228 12.0153H19.5006C19.5784 11.4709 19.7339 11.0042 19.8895 10.4597H27.9784C27.8228 9.9153 27.5895 9.37086 27.3562 8.90419H20.5117C20.7451 8.35974 21.0562 7.89308 21.3673 7.34863H26.5784C26.2673 6.80419 25.8784 6.25974 25.4117 5.79308H22.5339C23.0006 5.24863 23.4673 4.78197 24.0117 4.3153C21.4451 1.90419 17.9451 0.504188 14.1339 0.504188C14.1339 0.348633 14.1339 0.348633 14.0562 0.348633Z" fill="#FF5050"/>
<path d="M-0.488281 15.0484C-0.488281 23.1372 6.04505 29.7484 14.2117 29.7484C18.0228 29.7484 21.4451 28.2706 24.0895 25.9372C24.6339 25.4706 25.1006 24.9261 25.5673 24.3817H22.5339C22.1451 23.915 21.7562 23.3706 21.4451 22.9039H26.6562C26.9673 22.4372 27.2784 21.8928 27.5117 21.3484H20.5895C20.3562 20.8817 20.1228 20.3372 19.9673 19.7928H28.0562C28.5228 18.315 28.8339 16.7595 28.8339 15.1261C28.8339 14.0372 28.6784 13.0261 28.5228 12.015H19.5006C19.5784 11.4706 19.7339 11.0039 19.8895 10.4595H27.9784C27.8228 9.91502 27.5895 9.37057 27.3562 8.90391H20.5117C20.7451 8.35946 21.0562 7.8928 21.3673 7.34835H26.5784C26.2673 6.80391 25.8784 6.25946 25.4117 5.7928H22.5339C23.0006 5.24835 23.4673 4.78168 24.0117 4.31502C21.4451 1.90391 17.9451 0.503906 14.1339 0.503906H14.0562" fill="#E52836"/>
<path d="M14.2112 29.7484C18.0223 29.7484 21.4446 28.2706 24.089 25.9372C24.6334 25.4706 25.1001 24.9261 25.5668 24.3817H22.5334C22.1446 23.915 21.7557 23.3706 21.4446 22.9039H26.6557C26.9668 22.4372 27.2779 21.8928 27.5112 21.3484H20.589C20.3557 20.8817 20.1223 20.3372 19.9668 19.7928H28.0557C28.5223 18.315 28.8334 16.7595 28.8334 15.1261C28.8334 14.0372 28.6779 13.0261 28.5223 12.015H19.5001C19.5779 11.4706 19.7334 11.0039 19.889 10.4595H27.9779C27.8223 9.91502 27.589 9.37057 27.3557 8.90391H20.5112C20.7446 8.35946 21.0557 7.8928 21.3668 7.34835H26.5779C26.2668 6.80391 25.8779 6.25946 25.4112 5.7928H22.5334C23.0001 5.24835 23.4668 4.78168 24.0112 4.31502C21.4446 1.90391 17.9446 0.503906 14.1334 0.503906H14.0557" fill="#CB2026"/>
<path d="M19.4225 18.7829L19.6559 17.4607C19.5781 17.4607 19.4225 17.5385 19.267 17.5385C18.7225 17.5385 18.6448 17.2274 18.7225 17.0718L19.1892 14.3496H20.0448L20.2781 12.8718H19.5003L19.6559 11.9385H18.1003C18.1003 11.9385 17.167 17.0718 17.167 17.694C17.167 18.6274 17.7114 19.0163 18.4114 19.0163C18.8781 19.0163 19.267 18.8607 19.4225 18.7829Z" fill="#1D252D"/>
<path d="M19.9668 16.294C19.9668 18.4718 21.4446 19.0163 22.689 19.0163C23.8557 19.0163 24.3224 18.7829 24.3224 18.7829L24.6335 17.3051C24.6335 17.3051 23.7779 17.694 23.0001 17.694C21.289 17.694 21.6001 16.4496 21.6001 16.4496H24.789C24.789 16.4496 25.0224 15.4385 25.0224 15.0496C25.0224 14.0385 24.4779 12.794 22.7668 12.794C21.1335 12.6385 19.9668 14.3496 19.9668 16.294ZM22.689 14.0385C23.5446 14.0385 23.389 15.0496 23.389 15.1274H21.6779C21.6779 15.0496 21.8335 14.0385 22.689 14.0385Z" fill="#1D252D"/>
<path d="M32.5668 18.7827L32.878 17.0716C32.878 17.0716 32.1002 17.4605 31.5557 17.4605C30.4668 17.4605 30.0002 16.6049 30.0002 15.6716C30.0002 13.8049 30.9335 12.7938 32.0224 12.7938C32.8002 12.7938 33.4224 13.2605 33.4224 13.2605L33.6557 11.6272C33.6557 11.6272 32.7224 11.2383 31.8668 11.2383C30.078 11.2383 28.2891 12.7938 28.2891 15.7494C28.2891 17.6938 29.2224 19.0161 31.0891 19.0161C31.7113 19.0161 32.5668 18.7827 32.5668 18.7827Z" fill="#1D252D"/>
<path d="M10.8667 12.6387C9.7778 12.6387 9.00002 12.9498 9.00002 12.9498L8.76669 14.272C8.76669 14.272 9.46669 13.9609 10.4778 13.9609C11.0222 13.9609 11.4889 14.0387 11.4889 14.5053C11.4889 14.8164 11.4111 14.8942 11.4111 14.8942C11.4111 14.8942 10.9445 14.8942 10.7111 14.8942C9.38891 14.8942 7.91113 15.4387 7.91113 17.2276C7.91113 18.6276 8.84447 18.9387 9.38891 18.9387C10.4778 18.9387 10.9445 18.2387 11.0222 18.2387L10.9445 18.8609H12.3445L12.9667 14.5831C12.9667 12.7164 11.4111 12.6387 10.8667 12.6387ZM11.1778 16.1387C11.1778 16.372 11.0222 17.6164 10.0889 17.6164C9.62224 17.6164 9.46669 17.2276 9.46669 16.9942C9.46669 16.6053 9.70002 16.0609 10.8667 16.0609C11.1 16.1387 11.1778 16.1387 11.1778 16.1387Z" fill="#1D252D"/>
<path d="M14.4442 18.9383C14.8331 18.9383 16.7775 19.0161 16.7775 16.9161C16.7775 14.9717 14.9108 15.3605 14.9108 14.5828C14.9108 14.1939 15.2219 14.0383 15.7664 14.0383C15.9997 14.0383 16.8553 14.1161 16.8553 14.1161L17.0886 12.7161C17.0886 12.7161 16.5442 12.5605 15.6108 12.5605C14.4442 12.5605 13.2775 13.0272 13.2775 14.5828C13.2775 16.3717 15.2219 16.2161 15.2219 16.9161C15.2219 17.3828 14.6775 17.4605 14.2886 17.4605C13.5886 17.4605 12.8886 17.2272 12.8886 17.2272L12.6553 18.6272C12.7331 18.7828 13.1219 18.9383 14.4442 18.9383Z" fill="#1D252D"/>
<path d="M45.4783 11.3945L45.1671 13.4945C45.1671 13.4945 44.5449 12.7168 43.6894 12.7168C42.2894 12.7168 41.0449 14.4279 41.0449 16.4501C41.0449 17.6945 41.6671 19.0168 42.9894 19.0168C43.9227 19.0168 44.4671 18.3945 44.4671 18.3945L44.3894 18.939H45.9449L47.1116 11.4723L45.4783 11.3945ZM44.7783 15.5168C44.7783 16.3723 44.3894 17.4612 43.5338 17.4612C42.9894 17.4612 42.6783 16.9945 42.6783 16.2168C42.6783 14.9723 43.2227 14.1945 43.9227 14.1945C44.4671 14.1945 44.7783 14.5834 44.7783 15.5168Z" fill="#1D252D"/>
<path d="M2.38891 18.8612L3.32224 13.2612L3.4778 18.8612H4.56669L6.58891 13.2612L5.73336 18.8612H7.36669L8.61113 11.3945H6.04447L4.48891 15.9834L4.41113 11.3945H2.15558L0.911133 18.8612H2.38891Z" fill="#1D252D"/>
<path d="M26.5002 18.8606C26.9668 16.2939 27.0446 14.1939 28.1335 14.5828C28.2891 13.5717 28.5224 13.1828 28.678 12.7939C28.678 12.7939 28.6002 12.7939 28.3668 12.7939C27.6668 12.7939 27.1224 13.7273 27.1224 13.7273L27.278 12.8717H25.8002L24.7891 18.9384H26.5002V18.8606Z" fill="#1D252D"/>
<path d="M36.144 12.6387C35.0551 12.6387 34.2774 12.9498 34.2774 12.9498L34.044 14.272C34.044 14.272 34.744 13.9609 35.7551 13.9609C36.2996 13.9609 36.7663 14.0387 36.7663 14.5053C36.7663 14.8164 36.6885 14.8942 36.6885 14.8942C36.6885 14.8942 36.2218 14.8942 35.9885 14.8942C34.6663 14.8942 33.1885 15.4387 33.1885 17.2276C33.1885 18.6276 34.1218 18.9387 34.6663 18.9387C35.7551 18.9387 36.2218 18.2387 36.2996 18.2387L36.2218 18.8609H37.6218L38.244 14.5831C38.3218 12.7164 36.6885 12.6387 36.144 12.6387ZM36.5329 16.1387C36.5329 16.372 36.3774 17.6164 35.444 17.6164C34.9774 17.6164 34.8218 17.2276 34.8218 16.9942C34.8218 16.6053 35.0551 16.0609 36.2218 16.0609C36.4551 16.1387 36.4551 16.1387 36.5329 16.1387Z" fill="#1D252D"/>
<path d="M39.5666 18.8606C40.0332 16.2939 40.111 14.1939 41.1999 14.5828C41.3555 13.5717 41.5888 13.1828 41.7444 12.7939C41.7444 12.7939 41.6666 12.7939 41.4332 12.7939C40.7332 12.7939 40.1888 13.7273 40.1888 13.7273L40.3444 12.8717H38.8666L37.8555 18.9384H39.5666V18.8606Z" fill="#1D252D"/>
<path d="M17.0107 17.694C17.0107 18.6274 17.5552 19.0163 18.2552 19.0163C18.7996 19.0163 19.2663 18.8607 19.4219 18.7829L19.6552 17.4607C19.5774 17.4607 19.4219 17.5385 19.2663 17.5385C18.7219 17.5385 18.6441 17.2274 18.7219 17.0718L19.1885 14.3496H20.0441L20.2774 12.8718H19.4996L19.6552 11.9385" fill="#DCE5E5"/>
<path d="M20.7441 16.294C20.7441 18.4718 21.4441 19.0163 22.6886 19.0163C23.8553 19.0163 24.3219 18.7829 24.3219 18.7829L24.633 17.3051C24.633 17.3051 23.7775 17.694 22.9997 17.694C21.2886 17.694 21.5997 16.4496 21.5997 16.4496H24.7886C24.7886 16.4496 25.0219 15.4385 25.0219 15.0496C25.0219 14.0385 24.4775 12.794 22.7664 12.794C21.133 12.6385 20.7441 14.3496 20.7441 16.294ZM22.6886 14.0385C23.5441 14.0385 23.6997 15.0496 23.6997 15.1274H21.6775C21.6775 15.0496 21.833 14.0385 22.6886 14.0385Z" fill="#DCE5E5"/>
<path d="M32.5664 18.7827L32.8775 17.0716C32.8775 17.0716 32.0997 17.4605 31.5553 17.4605C30.4664 17.4605 29.9997 16.6049 29.9997 15.6716C29.9997 13.8049 30.9331 12.7938 32.022 12.7938C32.7997 12.7938 33.422 13.2605 33.422 13.2605L33.6553 11.6272C33.6553 11.6272 32.722 11.2383 31.8664 11.2383C30.0775 11.2383 29.0664 12.7938 29.0664 15.7494C29.0664 17.6938 29.222 19.0161 31.0886 19.0161C31.7109 19.0161 32.5664 18.7827 32.5664 18.7827Z" fill="#DCE5E5"/>
<path d="M8.76669 14.3495C8.76669 14.3495 9.46669 14.0384 10.4778 14.0384C11.0222 14.0384 11.4889 14.1162 11.4889 14.5828C11.4889 14.8939 11.4111 14.9717 11.4111 14.9717C11.4111 14.9717 10.9445 14.9717 10.7111 14.9717C9.38891 14.9717 7.91113 15.5162 7.91113 17.3051C7.91113 18.7051 8.84447 19.0162 9.38891 19.0162C10.4778 19.0162 10.9445 18.3162 11.0222 18.3162L10.9445 18.9384H12.3445L12.9667 14.6606C12.9667 12.8717 11.4111 12.7939 10.7889 12.7939L8.76669 14.3495ZM11.9556 16.1384C11.9556 16.3717 11.0222 17.6162 10.0889 17.6162C9.62224 17.6162 9.46669 17.2273 9.46669 16.9939C9.46669 16.6051 9.70002 16.0606 10.8667 16.0606C11.1 16.1384 11.9556 16.1384 11.9556 16.1384Z" fill="#DCE5E5"/>
<path d="M12.7334 18.7828C12.7334 18.7828 13.2001 18.9383 14.5223 18.9383C14.9112 18.9383 16.8556 19.0161 16.8556 16.9161C16.8556 14.9717 14.989 15.3605 14.989 14.5828C14.989 14.1939 15.3001 14.0383 15.8445 14.0383C16.0778 14.0383 16.9334 14.1161 16.9334 14.1161L17.1667 12.7161C17.1667 12.7161 16.6223 12.5605 15.689 12.5605C14.5223 12.5605 14.1334 13.0272 14.1334 14.5828C14.1334 16.3717 15.3001 16.2161 15.3001 16.9161C15.3001 17.3828 14.7556 17.4605 14.3667 17.4605" fill="#DCE5E5"/>
<path d="M45.1665 13.4939C45.1665 13.4939 44.5443 12.7161 43.6887 12.7161C42.2887 12.7161 41.822 14.4272 41.822 16.4495C41.822 17.6939 41.6665 19.0161 42.9887 19.0161C43.922 19.0161 44.4665 18.3939 44.4665 18.3939L44.3887 18.9383H45.9443L47.1109 11.4717L45.1665 13.4939ZM45.0887 15.5161C45.0887 16.3717 44.3887 17.4606 43.5332 17.4606C42.9887 17.4606 42.6776 16.9939 42.6776 16.2161C42.6776 14.9717 43.222 14.1939 43.922 14.1939C44.4665 14.1939 45.0887 14.5828 45.0887 15.5161Z" fill="#DCE5E5"/>
<path d="M2.38891 18.8612L3.32224 13.2612L3.4778 18.8612H4.56669L6.58891 13.2612L5.73336 18.8612H7.36669L8.61113 11.3945H6.66669L4.48891 15.9834L4.41113 11.3945H3.55558L0.911133 18.8612H2.38891Z" fill="#DCE5E5"/>
<path d="M24.8662 18.8606H26.4995C26.9662 16.294 27.044 14.1939 28.1329 14.5828C28.2884 13.5717 28.5218 13.1828 28.6773 12.7939C28.6773 12.7939 28.5995 12.7939 28.3662 12.7939C27.6662 12.7939 27.1218 13.7273 27.1218 13.7273L27.2773 12.8717" fill="#DCE5E5"/>
<path d="M34.044 14.3495C34.044 14.3495 34.744 14.0384 35.7551 14.0384C36.2996 14.0384 36.7663 14.1162 36.7663 14.5828C36.7663 14.8939 36.6885 14.9717 36.6885 14.9717C36.6885 14.9717 36.2218 14.9717 35.9885 14.9717C34.6663 14.9717 33.1885 15.5162 33.1885 17.3051C33.1885 18.7051 34.1218 19.0162 34.6663 19.0162C35.7551 19.0162 36.2218 18.3162 36.2996 18.3162L36.2218 18.9384H37.6218L38.244 14.6606C38.244 12.8717 36.6885 12.7939 36.0663 12.7939L34.044 14.3495ZM37.2329 16.1384C37.2329 16.3717 36.2996 17.6162 35.3663 17.6162C34.8996 17.6162 34.744 17.2273 34.744 16.9939C34.744 16.6051 34.9774 16.0606 36.144 16.0606C36.4551 16.1384 37.2329 16.1384 37.2329 16.1384Z" fill="#DCE5E5"/>
<path d="M37.9336 18.8606H39.5669C40.0336 16.294 40.1114 14.1939 41.2003 14.5828C41.3558 13.5717 41.5892 13.1828 41.7447 12.7939C41.7447 12.7939 41.6669 12.7939 41.4336 12.7939C40.7336 12.7939 40.1892 13.7273 40.1892 13.7273L40.3447 12.8717" fill="#DCE5E5"/>
</g>
<defs>
<clipPath id="clip0_375_461">
<rect width="49" height="30" fill="white"/>
</clipPath>
</defs>
</svg>
