<svg width="14" height="14" viewBox="0 0 14 14" fill="none" xmlns="http://www.w3.org/2000/svg">
<path d="M13.017 4.40332H12.6335V8.6178C12.6335 9.27399 12.2515 9.86735 11.4855 9.86735H3.98145V10.0677C3.98145 10.6479 4.64128 11.2335 5.31888 11.2335H11.0561L13.251 12.524L12.9327 11.2335H13.017C13.6941 11.2335 13.9997 10.6492 13.9997 10.0677V5.40378C13.9997 4.82363 13.6941 4.40332 13.017 4.40332Z" fill="white"/>
<path d="M10.3652 1.47559H1.64936C0.882514 1.47559 0 2.15682 0 2.81347V8.0958C0 8.70054 0.747723 9.13724 1.46494 9.20464L0.998179 10.9765L3.98907 9.21693H10.3652C11.1321 9.21693 11.8397 8.752 11.8397 8.0958V2.81347C11.8397 2.15682 11.1316 1.47559 10.3652 1.47559ZM2.97905 5.9346C2.77024 5.9346 2.56997 5.85165 2.42232 5.704C2.27466 5.55634 2.19171 5.35608 2.19171 5.14726C2.19171 4.93845 2.27466 4.73818 2.42232 4.59053C2.56997 4.44287 2.77024 4.35992 2.97905 4.35992C3.18787 4.35992 3.38813 4.44287 3.53579 4.59053C3.68344 4.73818 3.76639 4.93845 3.76639 5.14726C3.76639 5.35608 3.68344 5.55634 3.53579 5.704C3.38813 5.85165 3.18787 5.9346 2.97905 5.9346ZM5.91985 5.9346C5.71104 5.9346 5.51078 5.85165 5.36312 5.704C5.21547 5.55634 5.13251 5.35608 5.13251 5.14726C5.13251 4.93845 5.21547 4.73818 5.36312 4.59053C5.51078 4.44287 5.71104 4.35992 5.91985 4.35992C6.12867 4.35992 6.32893 4.44287 6.47659 4.59053C6.62424 4.73818 6.7072 4.93845 6.7072 5.14726C6.7072 5.35608 6.62424 5.55634 6.47659 5.704C6.32893 5.85165 6.12867 5.9346 5.91985 5.9346ZM8.86111 5.9346C8.75766 5.9346 8.65521 5.91423 8.55964 5.87464C8.46406 5.83504 8.37721 5.77702 8.30406 5.70386C8.2309 5.63071 8.17287 5.54386 8.13328 5.44828C8.09369 5.3527 8.07332 5.25026 8.07332 5.14681C8.07332 5.04335 8.09369 4.94091 8.13328 4.84533C8.17287 4.74975 8.2309 4.6629 8.30406 4.58975C8.37721 4.5166 8.46406 4.45857 8.55964 4.41898C8.65521 4.37939 8.75766 4.35901 8.86111 4.35901C9.07005 4.35901 9.27043 4.44201 9.41817 4.58975C9.56591 4.73749 9.64891 4.93787 9.64891 5.14681C9.64891 5.35574 9.56591 5.55612 9.41817 5.70386C9.27043 5.8516 9.07005 5.9346 8.86111 5.9346Z" fill="white"/>
</svg>
