<svg width="67" height="67" viewBox="0 0 67 67" fill="none" xmlns="http://www.w3.org/2000/svg">
<g filter="url(#filter0_dd_356_248)">
<path d="M24.0501 21.9473H8.11523V56.1223H24.0501V21.9473Z" fill="#00a886"/>
<path d="M25.776 59.3164H6.39258V62.3231H25.776V59.3164Z" fill="#00a886"/>
<path d="M51.9386 7.78735V10.3054H26.8193C26.0847 10.3058 25.3804 10.6019 24.8611 11.1284C24.3418 11.655 24.0501 12.3691 24.0501 13.1136V18.7526H8.11523V7.78585C8.11523 7.25782 8.32209 6.7514 8.69035 6.37789C9.0586 6.00438 9.55811 5.79434 10.0791 5.79395H49.9792C50.4997 5.79554 50.9983 6.00631 51.3656 6.38001C51.7329 6.75372 51.939 7.25984 51.9386 7.78735Z" fill="#00a886"/>
<path d="M27.1992 24.9746H59.3744C60.0857 24.9746 60.7678 25.261 61.2707 25.7707C61.7736 26.2804 62.0562 26.9718 62.0562 27.6926V33.0505H27.1992V24.9746Z" fill="#00a886"/>
<path d="M50.7295 36.2422H60.6823V37.7816C60.6823 38.0427 60.5799 38.2932 60.3977 38.4779C60.2155 38.6625 59.9684 38.7663 59.7107 38.7663H51.701C51.4434 38.7663 51.1963 38.6625 51.0141 38.4779C50.8319 38.2932 50.7295 38.0427 50.7295 37.7816V36.2422Z" fill="#00a886"/>
</g>
<defs>
<filter id="filter0_dd_356_248" x="-1.15365" y="-1.75814" width="69.4597" height="70.3727" filterUnits="userSpaceOnUse" color-interpolation-filters="sRGB">
<feFlood flood-opacity="0" result="BackgroundImageFix"/>
<feColorMatrix in="SourceAlpha" type="matrix" values="0 0 0 0 0 0 0 0 0 0 0 0 0 0 0 0 0 0 127 0" result="hardAlpha"/>
<feOffset dx="1.19633" dy="1.19633"/>
<feGaussianBlur stdDeviation="1.65152"/>
<feColorMatrix type="matrix" values="0 0 0 0 0.835529 0 0 0 0 0.835294 0 0 0 0 0.847059 0 0 0 0.4 0"/>
<feBlend mode="normal" in2="BackgroundImageFix" result="effect1_dropShadow_356_248"/>
<feColorMatrix in="SourceAlpha" type="matrix" values="0 0 0 0 0 0 0 0 0 0 0 0 0 0 0 0 0 0 127 0" result="hardAlpha"/>
<feOffset dx="-1.79449" dy="-1.79449"/>
<feGaussianBlur stdDeviation="1.98183"/>
<feColorMatrix type="matrix" values="0 0 0 0 1 0 0 0 0 1 0 0 0 0 1 0 0 0 1 0"/>
<feBlend mode="normal" in2="effect1_dropShadow_356_248" result="effect2_dropShadow_356_248"/>
<feBlend mode="normal" in="SourceGraphic" in2="effect2_dropShadow_356_248" result="shape"/>
</filter>
</defs>
</svg>
