<svg width="38" height="41" viewBox="0 0 38 41" fill="none" xmlns="http://www.w3.org/2000/svg">
<g clip-path="url(#clip0_492_752)">
<path d="M7.05273 5.95068V11.5166H12.6578V5.95068H7.05273ZM7.05273 5.95068V11.5166H12.6578V5.95068H7.05273ZM7.05273 5.95068V11.5166H12.6578V5.95068H7.05273ZM7.05273 5.95068V11.5166H12.6578V5.95068H7.05273ZM7.05273 5.95068V11.5166H12.6578V5.95068H7.05273ZM7.05273 5.95068V11.5166H12.6578V5.95068H7.05273ZM7.05273 5.95068V11.5166H12.6578V5.95068H7.05273ZM7.05273 5.95068V11.5166H12.6578V5.95068H7.05273ZM7.05273 5.95068V11.5166H12.6578V5.95068H7.05273ZM7.05273 5.95068V11.5166H12.6578V5.95068H7.05273ZM7.05273 5.95068V11.5166H12.6578V5.95068H7.05273Z" fill="#00A886"/>
<path fill-rule="evenodd" clip-rule="evenodd" d="M1.51489 0H35.7347C36.1364 0 36.5217 0.158489 36.8058 0.440602C37.0899 0.722714 37.2495 1.10534 37.2495 1.50431V18.503H0V1.50431C0 1.10534 0.159604 0.722714 0.443702 0.440602C0.7278 0.158489 1.11312 0 1.51489 0ZM14.6495 3.58574C14.7401 3.64379 14.825 3.71161 14.9025 3.78852C15.1897 4.07376 15.3511 4.46064 15.3511 4.86404V12.6697C15.3511 13.0731 15.1897 13.46 14.9025 13.7453C14.6152 14.0305 14.2256 14.1908 13.8194 14.1908H5.79043C5.58927 14.1864 5.39094 14.1428 5.20677 14.0623C5.0226 13.9818 4.8562 13.8661 4.71709 13.7217C4.57797 13.5774 4.46886 13.4072 4.39598 13.221C4.32612 13.0424 4.29088 12.8525 4.29202 12.6611C4.2917 12.6417 4.29176 12.6222 4.2922 12.6028V4.79707C4.30955 4.40537 4.47856 4.03546 4.76396 3.76451C5.04935 3.49357 5.42909 3.34253 5.82392 3.34291H13.8192C14.116 3.34291 14.4039 3.42844 14.6495 3.58574ZM30.7493 12.583C30.8914 12.442 30.9712 12.2507 30.9712 12.0512L31.0553 10.7809C31.0553 10.5814 30.9755 10.3901 30.8335 10.249C30.6914 10.108 30.4988 10.0287 30.2979 10.0287H22.6561C22.5538 10.0264 22.4521 10.0448 22.3571 10.0826C22.2621 10.1204 22.1758 10.177 22.1035 10.2488C22.0311 10.3207 21.9741 10.4064 21.936 10.5007C21.898 10.595 21.8795 10.696 21.8818 10.7976V12.0512C21.8818 12.1514 21.9019 12.2506 21.941 12.3429C21.9801 12.4353 22.0374 12.519 22.1096 12.589C22.1817 12.6591 22.2672 12.7142 22.361 12.751C22.4549 12.7878 22.5552 12.8056 22.6561 12.8033H30.2137C30.4146 12.8033 30.6073 12.7241 30.7493 12.583ZM32.6682 6.48223C32.8102 6.34117 32.89 6.14986 32.89 5.95038L32.8732 4.69679C32.8732 4.4973 32.7934 4.30599 32.6513 4.16493C32.5093 4.02388 32.3166 3.94463 32.1157 3.94463H22.6392C22.4384 3.94463 22.2457 4.02388 22.1036 4.16493C21.9616 4.30599 21.8818 4.4973 21.8818 4.69679V5.95038C21.8818 6.05057 21.9019 6.14977 21.941 6.24213C21.9801 6.33449 22.0374 6.41816 22.1096 6.48823C22.1817 6.55829 22.2672 6.61334 22.361 6.65015C22.4549 6.68695 22.5552 6.70476 22.6561 6.70253H32.1326C32.3335 6.70253 32.5261 6.62329 32.6682 6.48223Z" fill="#00A886"/>
<path d="M0 21.2607V38.6104C0 39.0094 0.159604 39.392 0.443702 39.6741C0.7278 39.9563 1.11312 40.1147 1.51489 40.1147H35.7347C36.1364 40.1147 36.5217 39.9563 36.8058 39.6741C37.0899 39.392 37.2495 39.0094 37.2495 38.6104V21.2607H0ZM15.3509 33.9304C15.3509 34.3338 15.1895 34.7206 14.9023 35.0059C14.615 35.2911 14.2254 35.4514 13.8192 35.4514H5.82392C5.41769 35.4514 5.02808 35.2911 4.74083 35.0059C4.45358 34.7206 4.2922 34.3338 4.2922 33.9304V26.1414C4.2922 25.738 4.45358 25.3511 4.74083 25.0659C5.02808 24.7806 5.41769 24.6204 5.82392 24.6204H13.8192C14.2254 24.6204 14.615 24.7806 14.9023 25.0659C15.1895 25.3511 15.3509 25.738 15.3509 26.1414V33.9304ZM31.5434 33.3119C31.5434 33.5114 31.4636 33.7027 31.3216 33.8438C31.1796 33.9848 30.9869 34.0641 30.786 34.0641H22.6561C22.4552 34.0641 22.2625 33.9848 22.1205 33.8438C21.9784 33.7027 21.8986 33.5114 21.8986 33.3119V32.0583C21.8986 31.8589 21.9784 31.6675 22.1205 31.5265C22.2625 31.3854 22.4552 31.3062 22.6561 31.3062H30.786C30.9869 31.3062 31.1796 31.3854 31.3216 31.5265C31.4636 31.6675 31.5434 31.8589 31.5434 32.0583V33.3119ZM32.89 27.2111C32.89 27.4106 32.8102 27.6019 32.6682 27.743C32.5261 27.884 32.3335 27.9633 32.1326 27.9633H22.6561C22.4552 27.9633 22.2625 27.884 22.1205 27.743C21.9784 27.6019 21.8986 27.4106 21.8986 27.2111V25.9575C21.8986 25.758 21.9784 25.5667 22.1205 25.4257C22.2625 25.2846 22.4552 25.2054 22.6561 25.2054H32.1326C32.3335 25.2054 32.5261 25.2846 32.6682 25.4257C32.8102 25.5667 32.89 25.758 32.89 25.9575V27.2111Z" fill="#00A886"/>
<path d="M12.6578 27.2949H7.05273V32.7773H12.6578V27.2949Z" fill="#00A886"/>
</g>
<defs>
<clipPath id="clip0_492_752">
<rect width="37.2495" height="40.1149" fill="white"/>
</clipPath>
</defs>
</svg>
