<svg width="100" height="100" viewBox="0 0 100 100" fill="none" xmlns="http://www.w3.org/2000/svg">
<circle cx="50" cy="50" r="50" fill="white"/>
<circle cx="50" cy="50" r="44" stroke="#00A886" stroke-width="2"/>
<g clip-path="url(#clip0_1127_1168)">
<path d="M30 26V28.6102C30 32.4196 34.7971 31.9963 37.3367 31.9963H62.2391C65.4842 31.9963 69.9991 32.2785 69.9991 28.6102V26H30Z" fill="#00A886"/>
<path d="M53.209 45.3282L55.8192 43.9173V35.2402H53.209V45.3282Z" fill="#00A886"/>
<path d="M53.209 56.193L55.8192 54.7821V48.292L53.209 49.6323V56.193Z" fill="#00A886"/>
<path d="M53.209 74.2529H55.8192V59.1562L53.209 60.4966V74.2529Z" fill="#00A886"/>
<path d="M48.7646 74.2538H51.3043V61.5557L48.7646 63.0371V74.2538Z" fill="#00A886"/>
<path d="M48.7646 58.6632L51.3043 57.1818V50.6211L48.7646 52.1025V58.6632Z" fill="#00A886"/>
<path d="M44.251 61.0612L46.8611 59.7208V53.1602L44.251 54.5005V61.0612Z" fill="#00A886"/>
<path d="M44.251 50.2663L46.8611 48.7849V35.2402H44.251V50.2663Z" fill="#00A886"/>
<path d="M48.7646 47.7973L51.3043 46.3158V35.2402H48.7646V47.7973Z" fill="#00A886"/>
<path d="M44.251 74.2522H46.8611V64.0938L44.251 65.4341V74.2522Z" fill="#00A886"/>
</g>
<defs>
<clipPath id="clip0_1127_1168">
<rect width="39.9991" height="48.2528" fill="white" transform="translate(30 26)"/>
</clipPath>
</defs>
</svg>
