<svg width="73" height="74" viewBox="0 0 73 74" fill="none" xmlns="http://www.w3.org/2000/svg">
<g filter="url(#filter0_dd_363_341)">
<path d="M33.0369 16.1161L37.149 18.184V7.68555H27.3438V18.184L31.4839 16.1161C31.7246 15.992 31.9906 15.9273 32.2604 15.9273C32.5302 15.9273 32.7962 15.992 33.0369 16.1161Z" fill="#6e6e6e"/>
<path d="M56.6847 28.8923V9.43528C56.6847 8.97122 56.5036 8.52617 56.1813 8.19803C55.859 7.86989 55.4219 7.68555 54.9661 7.68555H40.4801V21.0328C40.4817 21.3445 40.4015 21.6509 40.2478 21.9205C40.094 22.19 39.8724 22.4128 39.6057 22.5659C39.3391 22.719 39.0371 22.7968 38.7311 22.7913C38.425 22.7857 38.1259 22.6971 37.8648 22.5344L32.2623 19.6362L26.5425 22.5949C26.2803 22.7311 25.988 22.7965 25.6938 22.7847C25.3996 22.7729 25.1133 22.6844 24.8624 22.5276C24.6115 22.3708 24.4043 22.151 24.2608 21.8892C24.1173 21.6275 24.0422 21.3326 24.0428 21.0328V7.68555H9.55841C9.10262 7.68555 8.66549 7.86989 8.3432 8.19803C8.02091 8.52617 7.83984 8.97122 7.83984 9.43528V55.6601C7.83984 56.1241 8.02091 56.5692 8.3432 56.8973C8.66549 57.2255 9.10262 57.4098 9.55841 57.4098H28.6689C26.5428 52.0884 26.5641 46.1279 28.7282 40.8223C33.2528 29.7083 45.7296 24.3669 56.6847 28.8923Z" fill="#6e6e6e"/>
<path d="M61.3877 36.0261C58.4317 33.0179 54.5428 31.1463 50.3835 30.7299C46.2242 30.3135 42.0517 31.3782 38.5768 33.7426C35.102 36.107 32.5398 39.6248 31.3267 43.6968C30.1135 47.7688 30.3245 52.1431 31.9237 56.0745C33.5229 60.0058 36.4113 63.2511 40.097 65.2575C43.7826 67.2639 48.0375 67.9072 52.1368 67.0779C56.236 66.2486 59.9261 63.9979 62.5784 60.7094C65.2306 57.4208 66.681 53.2977 66.6825 49.0425C66.6864 46.6246 66.2206 44.2298 65.3119 41.9959C64.4032 39.762 63.0696 37.7332 61.3877 36.0261ZM55.8774 54.796C55.2592 55.427 54.5248 55.9276 53.7162 56.2691C52.9076 56.6105 52.0408 56.7862 51.1654 56.7859H43.1209C42.6639 56.7859 42.2256 56.6011 41.9024 56.272C41.5792 55.943 41.3977 55.4967 41.3977 55.0314C41.3977 54.5661 41.5792 54.1198 41.9024 53.7908C42.2256 53.4617 42.6639 53.2769 43.1209 53.2769H51.1654C52.0014 53.2277 52.7872 52.8549 53.362 52.2349C53.9368 51.6149 54.257 50.7946 54.257 49.9421C54.257 49.0895 53.9368 48.2692 53.362 47.6492C52.7872 47.0292 52.0014 46.6564 51.1654 46.6072H46.3643L47.3877 47.6475C47.5511 47.8087 47.6814 48.0014 47.7711 48.2143C47.8608 48.4272 47.9081 48.6561 47.9102 48.8878C47.9124 49.1194 47.8693 49.3492 47.7835 49.5638C47.6977 49.7784 47.5709 49.9735 47.4105 50.1377C47.25 50.302 47.0592 50.4323 46.8489 50.5208C46.6386 50.6094 46.4132 50.6546 46.1857 50.6538C45.9581 50.653 45.733 50.6062 45.5234 50.5161C45.3137 50.426 45.1238 50.2944 44.9645 50.129L41.0024 46.1046C40.8427 45.9421 40.7161 45.7492 40.6297 45.5368C40.5432 45.3245 40.4988 45.0969 40.4988 44.867C40.4988 44.6372 40.5432 44.4096 40.6297 44.1972C40.7161 43.9849 40.8427 43.792 41.0024 43.6295L44.9567 39.5956C45.1159 39.4326 45.3051 39.3032 45.5134 39.2147C45.7217 39.1262 45.9451 39.0804 46.1709 39.0798C46.3966 39.0792 46.6203 39.1239 46.829 39.2113C47.0378 39.2987 47.2276 39.4271 47.3877 39.5892C47.5477 39.7513 47.6748 39.9439 47.7617 40.156C47.8487 40.3681 47.8937 40.5956 47.8943 40.8254C47.8948 41.0552 47.851 41.2829 47.7651 41.4955C47.6793 41.7081 47.5531 41.9013 47.3939 42.0643L46.3815 43.0966H51.1716C52.4964 43.1117 53.7874 43.5239 54.8835 44.2815C55.9796 45.0392 56.8322 46.1088 57.3349 47.3568C57.8375 48.6048 57.9679 49.9759 57.7098 51.2989C57.4517 52.622 56.8166 53.8383 55.8836 54.796H55.8774Z" fill="#6e6e6e"/>
</g>
<defs>
<filter id="filter0_dd_363_341" x="0.569985" y="0.24186" width="72.3005" height="73.2575" filterUnits="userSpaceOnUse" color-interpolation-filters="sRGB">
<feFlood flood-opacity="0" result="BackgroundImageFix"/>
<feColorMatrix in="SourceAlpha" type="matrix" values="0 0 0 0 0 0 0 0 0 0 0 0 0 0 0 0 0 0 127 0" result="hardAlpha"/>
<feOffset dx="1.19633" dy="1.19633"/>
<feGaussianBlur stdDeviation="1.65152"/>
<feColorMatrix type="matrix" values="0 0 0 0 0.835529 0 0 0 0 0.835294 0 0 0 0 0.847059 0 0 0 0.4 0"/>
<feBlend mode="normal" in2="BackgroundImageFix" result="effect1_dropShadow_363_341"/>
<feColorMatrix in="SourceAlpha" type="matrix" values="0 0 0 0 0 0 0 0 0 0 0 0 0 0 0 0 0 0 127 0" result="hardAlpha"/>
<feOffset dx="-1.79449" dy="-1.79449"/>
<feGaussianBlur stdDeviation="1.98183"/>
<feColorMatrix type="matrix" values="0 0 0 0 1 0 0 0 0 1 0 0 0 0 1 0 0 0 1 0"/>
<feBlend mode="normal" in2="effect1_dropShadow_363_341" result="effect2_dropShadow_363_341"/>
<feBlend mode="normal" in="SourceGraphic" in2="effect2_dropShadow_363_341" result="shape"/>
</filter>
</defs>
</svg>
