<svg width="71" height="71" viewBox="0 0 71 71" fill="none" xmlns="http://www.w3.org/2000/svg">
<g clip-path="url(#clip0_68_1244)">
<path d="M35.1313 0C28.183 0 21.3907 2.06041 15.6134 5.92068C9.83609 9.78095 5.33322 15.2677 2.67422 21.6871C0.0152218 28.1065 -0.680494 35.1702 0.675053 41.985C2.0306 48.7998 5.37653 55.0596 10.2897 59.9728C15.2029 64.886 21.4627 68.2319 28.2775 69.5875C35.0923 70.943 42.156 70.2473 48.5754 67.5883C54.9948 64.9293 60.4816 60.4264 64.3418 54.6491C68.2021 48.8718 70.2625 42.0796 70.2625 35.1313C70.2606 25.8144 66.5587 16.8798 59.9707 10.2918C53.3827 3.70383 44.4481 0.00190469 35.1313 0Z" fill="#00A886"/>
<path d="M35.1308 2.08398C41.667 2.08398 48.0565 4.0222 53.4912 7.65354C58.9259 11.2849 63.1617 16.4462 65.663 22.4849C68.1643 28.5236 68.8188 35.1684 67.5436 41.5791C66.2685 47.9897 63.121 53.8783 58.4991 58.5001C53.8773 63.1219 47.9888 66.2694 41.5781 67.5446C35.1675 68.8197 28.5227 68.1653 22.484 65.664C16.4453 63.1627 11.2839 58.9268 7.65257 53.4922C4.02123 48.0575 2.08301 41.668 2.08301 35.1318C2.08301 26.367 5.56482 17.9611 11.7625 11.7635C17.9602 5.5658 26.366 2.08398 35.1308 2.08398Z" fill="white"/>
<path d="M65.4486 35.1313C65.4557 41.1377 63.6806 47.0112 60.348 52.0084C57.0155 57.0055 52.2752 60.9016 46.7274 63.2035C41.1795 65.5053 35.0734 66.1094 29.182 64.9394C23.2906 63.7693 17.8788 60.8777 13.6316 56.6305C9.38441 52.3833 6.49277 46.9715 5.32271 41.0801C4.15265 35.1887 4.75679 29.0826 7.05864 23.5347C9.36049 17.9869 13.2566 13.2466 18.2537 9.91405C23.2508 6.58147 29.1244 4.80639 35.1308 4.8135C43.171 4.8154 50.8813 8.0102 56.5666 13.6955C62.2519 19.3807 65.4467 27.0911 65.4486 35.1313Z" fill="#00A886"/>
<path d="M16.0205 32.186C15.8781 31.8664 15.6464 31.5947 15.3532 31.4035C15.0601 31.2124 14.7181 31.1099 14.3681 31.1084C14.1677 31.0882 13.9653 31.1105 13.774 31.1736C13.5828 31.2367 13.4069 31.3394 13.2579 31.4749C13.1088 31.6103 12.99 31.7757 12.9089 31.9601C12.8279 32.1445 12.7866 32.3438 12.7876 32.5453V32.6171C12.7835 32.8393 12.842 33.0581 12.9563 33.2487C13.0706 33.4392 13.2362 33.5938 13.4342 33.6947C13.9479 34.0295 14.5035 34.2952 15.0866 34.485C16.6671 35.2034 17.2418 35.9219 17.2418 37.1432C17.2362 37.9417 16.9165 38.7059 16.3518 39.2706C15.7872 39.8353 15.023 40.155 14.2244 40.1606H14.1526C13.434 40.1942 12.7296 39.953 12.1825 39.486C11.6354 39.0189 11.2866 38.3611 11.207 37.6461L12.2128 37.3587C12.2888 37.7081 12.4095 38.0461 12.572 38.3645C12.723 38.5721 12.9133 38.7479 13.1322 38.8819C13.3511 39.016 13.5943 39.1055 13.8478 39.1456C14.1013 39.1856 14.3602 39.1753 14.6097 39.1152C14.8593 39.0552 15.0945 38.9466 15.3021 38.7956C15.5435 38.6244 15.741 38.3984 15.8784 38.1361C16.0158 37.8739 16.0891 37.5829 16.0924 37.2869C16.0964 36.9995 16.0256 36.7159 15.8871 36.464C15.7486 36.2122 15.547 36.0006 15.3021 35.85C14.7575 35.5059 14.1799 35.2171 13.5779 34.9879C12.141 34.4132 11.6381 33.6947 11.6381 32.6171C11.638 32.2808 11.7053 31.9478 11.8361 31.6379C11.967 31.3281 12.1586 31.0476 12.3998 30.8132C12.6409 30.5787 12.9267 30.395 13.2401 30.273C13.5535 30.1509 13.8882 30.093 14.2244 30.1026H14.3681C14.8854 30.0989 15.3937 30.2377 15.8372 30.5039C16.2808 30.77 16.6425 31.1531 16.8826 31.6113L16.0205 32.186Z" fill="white"/>
<path d="M21.2651 31.2519V34.1256H25.0728V35.1314H21.2651V38.9391H25.2165V39.9449H20.1875V30.2461H25.2165V31.2519H21.2651Z" fill="white"/>
<path d="M29.815 38.9391H32.4731V39.9449H28.7373V30.2461H29.815V38.9391Z" fill="white"/>
<path d="M36.4243 31.2519V34.1256H40.232V35.1314H36.4243V38.9391H40.3038V39.9449H35.3467V30.2461H40.3038V31.2519H36.4243Z" fill="white"/>
<path d="M50.7929 32.4011C50.4132 31.9999 49.9569 31.6787 49.451 31.4566C48.9451 31.2345 48.3998 31.116 47.8474 31.108C46.8067 31.1487 45.8219 31.5901 45.099 32.3398C44.376 33.0896 43.9708 34.0897 43.9678 35.1312C43.9602 36.1691 44.3642 37.1677 45.0913 37.9083C45.8185 38.6489 46.8095 39.0712 47.8474 39.0825C48.4013 39.0838 48.9494 38.9695 49.4566 38.7468C49.9638 38.5241 50.419 38.198 50.7929 37.7894V39.0825C49.9316 39.7007 48.9069 40.0506 47.8474 40.0883C46.5136 40.0883 45.2344 39.5585 44.2913 38.6154C43.3482 37.6723 42.8184 36.3931 42.8184 35.0593C42.8184 33.7256 43.3482 32.4464 44.2913 31.5033C45.2344 30.5602 46.5136 30.0303 47.8474 30.0303C48.8832 30.0084 49.896 30.3376 50.7211 30.9643L50.7929 32.4011Z" fill="white"/>
<path d="M56.6842 39.9449H55.6066V31.2519H53.3076V30.2461H59.0551V31.2519H56.6842V39.9449Z" fill="white"/>
</g>
<defs>
<clipPath id="clip0_68_1244">
<rect width="70.2625" height="70.2625" fill="white"/>
</clipPath>
</defs>
</svg>
