<svg width="22" height="23" viewBox="0 0 22 23" fill="none" xmlns="http://www.w3.org/2000/svg">
<g clip-path="url(#clip0_68_1539)">
<path d="M13.7451 14.7881V19.1C13.4877 19.1776 13.2253 19.243 12.9581 19.2964V21.3704C12.9581 21.5282 12.894 21.6795 12.7798 21.7911C12.6657 21.9028 12.5109 21.9656 12.3494 21.9657H10.0516C9.89 21.9657 9.73504 21.903 9.62078 21.7913C9.50653 21.6797 9.44234 21.5283 9.44234 21.3704V19.2973C8.37681 19.0826 7.36271 18.6721 6.45394 18.0876L4.95221 19.555C4.8379 19.6665 4.68301 19.729 4.52153 19.729C4.36004 19.729 4.20515 19.6665 4.09084 19.555L2.46807 17.9669C2.35401 17.8552 2.28995 17.7038 2.28995 17.546C2.28995 17.3882 2.35401 17.2369 2.46807 17.1252L3.9693 15.6602C3.37165 14.772 2.95172 13.7811 2.73175 12.7401H0.609232C0.447654 12.7401 0.292693 12.6774 0.17844 12.5657C0.0641868 12.4541 0 12.3027 0 12.1448V9.89999C0 9.74211 0.0641868 9.59069 0.17844 9.47904C0.292693 9.3674 0.447654 9.30468 0.609232 9.30468H2.73175C2.95172 8.26364 3.37165 7.27278 3.9693 6.38458L2.46807 4.91912C2.35401 4.80743 2.28995 4.65608 2.28995 4.49828C2.28995 4.34049 2.35401 4.18914 2.46807 4.07745L4.09336 2.48979C4.20767 2.37833 4.36255 2.31574 4.52404 2.31574C4.68552 2.31574 4.84041 2.37833 4.95472 2.48979L6.45645 3.95721C7.36446 3.373 8.37768 2.96248 9.44234 2.74745V0.673434C9.44234 0.515548 9.50653 0.364129 9.62078 0.252487C9.73504 0.140845 9.89 0.078125 10.0516 0.078125H12.3494C12.5022 0.0782322 12.6494 0.134448 12.7618 0.235624C12.8741 0.3368 12.9435 0.475549 12.9561 0.624357C12.493 0.988988 12.1103 1.44165 11.8314 1.95495C11.5525 2.46824 11.383 3.03151 11.3333 3.61065C11.2836 4.18979 11.3546 4.77277 11.5421 5.3243C11.7296 5.87584 12.0297 6.38446 12.4242 6.8194C11.741 6.70761 11.0403 6.75647 10.3802 6.96195C9.72013 7.16743 9.11965 7.52362 8.62848 8.001C8.13732 8.47839 7.76961 9.06324 7.55581 9.70713C7.34201 10.351 7.28827 11.0354 7.39904 11.7036C7.50981 12.3719 7.7819 13.0047 8.19277 13.5497C8.60365 14.0947 9.1415 14.5363 9.76177 14.8377C10.382 15.1392 11.0669 15.292 11.7596 15.2833C12.4523 15.2747 13.1329 15.1049 13.7451 14.7881Z" fill="#A1A8AE"/>
<path d="M15.5879 7.64355H19.5716V21.0741C19.5716 21.3387 19.464 21.5925 19.2726 21.7796C19.0811 21.9667 18.8215 22.0718 18.5507 22.0718H16.6093C16.3385 22.0718 16.0789 21.9667 15.8874 21.7796C15.696 21.5925 15.5884 21.3387 15.5884 21.0741V7.64355H15.5879Z" fill="#A1A8AE"/>
<path d="M21.9984 3.98004C21.9984 5.07779 21.5706 6.13434 20.802 6.93493C20.0333 7.73551 18.9815 8.22004 17.8604 8.29002C15.1286 8.45835 12.8755 6.13895 13.1894 3.48043C13.27 2.80352 13.5134 2.15486 13.8997 1.58746C14.2859 1.02006 14.8041 0.550034 15.4119 0.2158C15.4296 0.2061 15.4496 0.20106 15.4698 0.201174C15.4901 0.201288 15.51 0.206552 15.5276 0.21645C15.5452 0.226348 15.5598 0.24054 15.5701 0.257633C15.5804 0.274727 15.5859 0.294135 15.5862 0.313954V4.39818C15.5862 4.41941 15.5921 4.44024 15.6035 4.45835C15.6148 4.47645 15.6311 4.49113 15.6505 4.50075L17.5259 5.42439C17.5423 5.43238 17.5603 5.43654 17.5786 5.43654C17.5969 5.43654 17.615 5.43238 17.6314 5.42439L19.5068 4.50075C19.5261 4.49104 19.5423 4.47635 19.5536 4.45826C19.5649 4.44017 19.571 4.41939 19.5711 4.39818V0.315918C19.5713 0.296098 19.5769 0.27669 19.5872 0.259596C19.5974 0.242503 19.6121 0.228311 19.6296 0.218413C19.6472 0.208515 19.6671 0.203251 19.6874 0.203137C19.7077 0.203023 19.7277 0.208063 19.7453 0.217763C20.4288 0.593047 20.9978 1.13933 21.3937 1.80052C21.7897 2.46171 21.9984 3.21396 21.9984 3.98004Z" fill="#A1A8AE"/>
</g>
<defs>
<clipPath id="clip0_68_1539">
<rect width="22" height="21.995" fill="white" transform="translate(0 0.078125)"/>
</clipPath>
</defs>
</svg>
