<svg width="33" height="38" viewBox="0 0 33 38" fill="none" xmlns="http://www.w3.org/2000/svg">
<g clip-path="url(#clip0_520_1702)">
<path d="M16.9485 37.2323L16.5 37.3207L16.0514 37.2323C0.317108 31.8804 0.586243 19.1573 0.765664 9.8756C0.810519 8.9037 0.810519 7.97503 0.810519 7.04734C0.807275 6.87238 0.839838 6.69859 0.906265 6.53629C0.972692 6.37399 1.07162 6.22657 1.19713 6.10285C1.32265 5.97909 1.47218 5.88155 1.63679 5.81607C1.8014 5.75058 1.97771 5.71849 2.15518 5.72169C7.75913 5.72169 12.0174 4.13068 15.559 0.727552C15.8147 0.493247 16.151 0.363099 16.5001 0.363281C16.8493 0.363464 17.1854 0.493962 17.4409 0.728534C20.9825 4.13068 25.2457 5.72169 30.8447 5.72169C31.0222 5.71849 31.1985 5.75058 31.3631 5.81607C31.5277 5.88155 31.6772 5.97909 31.8028 6.10285C31.9283 6.22657 32.0272 6.37399 32.0936 6.53629C32.16 6.69859 32.1926 6.87238 32.1894 7.04734C32.1894 7.97503 32.1894 8.9037 32.2342 9.8756C32.4136 19.2035 32.6379 31.8804 16.9485 37.2323Z" fill="#ffffff"/>
<path d="M16.8791 34.4045L16.5004 34.4792L16.1206 34.4045C2.80652 29.8791 3.03379 19.1057 3.1863 11.2558C3.22318 10.4323 3.22317 9.64711 3.22317 8.86194C3.22047 8.71384 3.24807 8.56668 3.30432 8.42935C3.36057 8.29198 3.44431 8.16718 3.55056 8.06243C3.65681 7.95769 3.78338 7.87512 3.92271 7.81968C4.06204 7.76425 4.21127 7.73702 4.36151 7.73968C9.10324 7.73968 12.7066 6.39438 15.7039 3.51403C15.9204 3.31502 16.2054 3.20435 16.5014 3.20435C16.7973 3.20435 17.0823 3.31502 17.2988 3.51403C20.2951 6.39438 23.8995 7.73968 28.6402 7.73968C28.7904 7.73702 28.9397 7.76425 29.079 7.81968C29.2183 7.87512 29.3449 7.95769 29.4512 8.06243C29.5574 8.16718 29.6412 8.29198 29.6974 8.42935C29.7537 8.56668 29.7813 8.71384 29.7786 8.86194C29.7786 9.6481 29.7786 10.4343 29.8164 11.2558C29.966 19.146 30.1564 29.8791 16.8791 34.4045Z" stroke="#A1A8AE" stroke-width="1.49167" stroke-miterlimit="10"/>
<path d="M23.7172 15.0471L15.425 22.7417C15.1641 22.9671 14.8298 23.0927 14.483 23.0955H14.4391C14.259 23.0923 14.0818 23.0512 13.9191 22.9749C13.7565 22.8987 13.6123 22.789 13.4962 22.6533L9.32861 18.0964L11.3451 16.3276L14.6176 19.9076L21.8801 13.1013L23.7172 15.0471Z" fill="#A1A8AE"/>
</g>
<defs>
<clipPath id="clip0_520_1702">
<rect width="32" height="37.4085" fill="white" transform="translate(0.499512 0.0559082)"/>
</clipPath>
</defs>
</svg>
