<svg width="162" height="109" viewBox="0 0 162 109" fill="none" xmlns="http://www.w3.org/2000/svg">
<g clip-path="url(#clip0_468_4044)">
<path d="M162 53.9639C161.998 63.73 159.449 73.314 154.621 81.7011C149.793 90.0882 142.866 96.9662 134.575 101.607C126.283 106.248 116.935 108.478 107.52 108.063C98.1047 107.647 88.9734 104.601 81.0925 99.2463L80.4907 99.63C59.8936 84.0882 59.801 54.7793 59.801 54.7793H72.113L48.9702 21.2013L26.7068 54.7793H37.5839C37.8321 64.8242 40.1687 74.6953 44.4343 83.7187C48.6998 92.7422 54.7939 100.706 62.3005 107.065C58.9968 107.777 55.6307 108.131 52.2565 108.12C44.0889 108.168 36.0243 106.23 28.7099 102.463C21.3955 98.6965 15.0349 93.2051 10.1386 86.43C5.24228 79.6549 1.94656 71.7846 0.5159 63.4508C-0.91476 55.117 -0.440523 46.5516 1.90056 38.442C4.24164 30.3325 8.38437 22.9046 13.9963 16.7543C19.6083 10.6041 26.5332 5.90283 34.2153 3.02774C41.8975 0.152651 50.123 -0.816175 58.2317 0.199003C66.3405 1.21418 74.1068 4.1851 80.9073 8.87334L81.3239 8.6335C102.476 24.0314 102.569 53.9639 102.569 53.9639H90.257L113.4 87.5419L135.293 53.9639H124.555C124.312 43.7906 121.924 33.7956 117.558 24.6803C113.192 15.565 106.954 7.55026 99.2828 1.19836C102.66 0.438265 106.103 0.0364544 109.558 -0.000855386C123.414 -0.0391182 136.718 5.62192 146.55 15.7395C156.382 25.8572 161.939 39.6046 162 53.9639Z" fill="#A1A8AE" fill-opacity="0.2"/>
</g>
<defs>
<clipPath id="clip0_468_4044">
<rect width="162" height="108.313" fill="white"/>
</clipPath>
</defs>
</svg>
