<svg width="22" height="23" viewBox="0 0 22 23" fill="none" xmlns="http://www.w3.org/2000/svg">
<g clip-path="url(#clip0_518_2411)">
<path d="M18.7773 0.568359H3.22266C1.44283 0.568359 0 2.01119 0 3.79102V19.3457C0 21.1255 1.44283 22.5684 3.22266 22.5684H18.7773C20.5572 22.5684 22 21.1255 22 19.3457V3.79102C22 2.01119 20.5572 0.568359 18.7773 0.568359Z" fill="#00A886"/>
<path d="M16.35 9.2277C16.8945 8.83784 17.3635 8.35211 17.7341 7.79427C17.2278 8.01524 16.6924 8.16212 16.1442 8.2304C16.7224 7.88746 17.1547 7.34422 17.3589 6.70372C16.8176 7.02472 16.2255 7.25084 15.608 7.37231C15.2295 6.9679 14.7381 6.68669 14.1976 6.56523C13.6572 6.44378 13.0928 6.48769 12.5776 6.69127C12.0625 6.89485 11.6205 7.24868 11.3091 7.70677C10.9977 8.16486 10.8313 8.70603 10.8316 9.25993C10.8294 9.47163 10.8508 9.68292 10.8956 9.88985C9.79682 9.83601 8.72179 9.55087 7.74079 9.05307C6.75978 8.55528 5.89489 7.85603 5.20265 7.00106C4.84717 7.60852 4.73704 8.32879 4.89477 9.01472C5.05249 9.70065 5.46617 10.3005 6.05128 10.6916C5.6147 10.6797 5.18736 10.5632 4.80519 10.3518V10.3818C4.80589 11.0195 5.02622 11.6374 5.4291 12.1316C5.83199 12.6258 6.39282 12.9661 7.01722 13.0953C6.78102 13.1579 6.53752 13.1885 6.29319 13.1864C6.11784 13.1894 5.94266 13.1736 5.77069 13.1391C5.94921 13.6872 6.29318 14.1664 6.75525 14.5109C7.21732 14.8554 7.7748 15.0482 8.35097 15.0629C7.37329 15.8271 6.16774 16.2418 4.92679 16.2406C4.70607 16.242 4.48548 16.2294 4.26636 16.2028C5.52903 17.0163 7.00022 17.4467 8.50222 17.442C13.3753 17.442 16.5511 13.3768 16.3513 9.2277H16.35Z" fill="white"/>
</g>
<defs>
<clipPath id="clip0_518_2411">
<rect width="22" height="22" fill="white" transform="translate(0 0.568359)"/>
</clipPath>
</defs>
</svg>
