<svg width="22" height="23" viewBox="0 0 22 23" fill="none" xmlns="http://www.w3.org/2000/svg">
<g clip-path="url(#clip0_505_1114)">
<path d="M16.35 9.22624C16.8945 8.83638 17.3635 8.35065 17.7341 7.7928C17.2278 8.01377 16.6924 8.16066 16.1442 8.22893C16.7224 7.886 17.1547 7.34275 17.3589 6.70225C16.8176 7.02325 16.2255 7.24937 15.608 7.37085C15.2295 6.96643 14.7381 6.68522 14.1976 6.56377C13.6572 6.44231 13.0928 6.48623 12.5776 6.68981C12.0625 6.89339 11.6205 7.24722 11.3091 7.70531C10.9977 8.1634 10.8313 8.70456 10.8316 9.25847C10.8294 9.47017 10.8508 9.68146 10.8956 9.88839C9.79682 9.83454 8.72179 9.5494 7.74079 9.05161C6.75978 8.55381 5.89489 7.85457 5.20265 6.9996C4.84717 7.60706 4.73704 8.32733 4.89477 9.01326C5.05249 9.69918 5.46617 10.299 6.05128 10.6902C5.6147 10.6783 5.18736 10.5617 4.80519 10.3503V10.3804C4.80589 11.018 5.02622 11.6359 5.4291 12.1301C5.83199 12.6243 6.39282 12.9647 7.01722 13.0939C6.78102 13.1564 6.53752 13.187 6.29319 13.1849C6.11784 13.188 5.94266 13.1721 5.77069 13.1377C5.94921 13.6857 6.29318 14.1649 6.75525 14.5094C7.21732 14.8539 7.7748 15.0468 8.35097 15.0614C7.37329 15.8257 6.16774 16.2403 4.92679 16.2392C4.70607 16.2405 4.48548 16.2279 4.26636 16.2014C5.52903 17.0148 7.00022 17.4452 8.50222 17.4406C13.3753 17.4406 16.5511 13.3753 16.3513 9.22624H16.35Z" fill="white"/>
</g>
<defs>
<clipPath id="clip0_505_1114">
<rect width="22" height="22" fill="white" transform="translate(0 0.567383)"/>
</clipPath>
</defs>
</svg>
