<svg width="44" height="45" viewBox="0 0 44 45" fill="none" xmlns="http://www.w3.org/2000/svg">
<g clip-path="url(#clip0_446_4102)">
<path d="M26.3992 0.0996094H17.5992C9.10859 0.0996094 2.19922 7.00898 2.19922 15.4996V22.0996C2.19922 28.0637 5.63672 33.4691 10.9992 36.0215V43.3691C10.9992 44.0051 11.7984 44.3402 12.2539 43.8848L18.6391 37.4996H26.3992C34.8898 37.4996 41.7992 30.5902 41.7992 22.0996V15.4996C41.7992 7.00898 34.8898 0.0996094 26.3992 0.0996094Z" fill="#665CAC"/>
<path d="M13.1992 36.0215C7.83672 33.4777 4.39922 28.0637 4.39922 22.0996V15.4996C4.39922 7.00898 11.3086 0.0996094 19.7992 0.0996094H17.5992C9.10859 0.0996094 2.19922 7.00898 2.19922 15.4996V22.0996C2.19922 28.0637 5.63672 33.4691 10.9992 36.0215V43.3691C10.9992 44.0051 11.7984 44.3402 12.2539 43.8848L13.1992 42.9395V36.0215Z" fill="#665CAC"/>
<path d="M33.0777 27.4366L32.416 23.8616C32.3645 23.5694 32.1324 23.3374 31.8402 23.2772L26.6582 22.2374C26.4176 22.1858 26.1684 22.2632 25.9965 22.435L23.891 24.5405C20.3418 22.9507 18.3738 20.9741 16.6379 17.2702L18.7348 15.1733C18.9067 15.0014 18.984 14.7522 18.9324 14.5116L17.8926 9.32956C17.8324 9.03737 17.6004 8.80534 17.3082 8.75378L13.7332 8.09206C13.6387 8.07487 13.5356 8.07487 13.441 8.10065C12.4957 8.31549 11.6363 8.78815 10.9488 9.47565C9.76291 10.6616 9.30744 12.3889 9.634 14.4772C10.184 17.9835 11.9027 22.8647 15.0738 26.0444L15.1168 26.0874C18.2965 29.2585 23.1777 30.9772 26.684 31.5272C27.1223 31.596 27.552 31.6303 27.9559 31.6303C29.477 31.6303 30.7488 31.1491 31.6856 30.2124C32.3731 29.5249 32.8457 28.6655 33.0606 27.7202C33.0863 27.6342 33.0949 27.5311 33.0777 27.4366Z" fill="white"/>
<path d="M23.4687 12.5703C23.0648 12.5703 22.7383 12.8969 22.7383 13.3008C22.7383 13.7047 23.0648 14.0312 23.4687 14.0312C25.0844 14.0312 26.3992 15.3461 26.3992 16.9617C26.3992 17.357 26.7344 17.6922 27.1297 17.6922C27.525 17.6922 27.8602 17.357 27.8602 16.9617C27.8687 14.5469 25.8922 12.5703 23.4687 12.5703Z" fill="white"/>
<path d="M23.4688 9.63184C23.1938 9.63184 22.9274 9.64902 22.6524 9.6748C22.2485 9.71777 21.9563 10.0787 22.0079 10.4826C22.0594 10.8865 22.4118 11.1787 22.8157 11.1271C23.0305 11.1014 23.2539 11.0928 23.4688 11.0928C26.7 11.0928 29.3383 13.7225 29.3383 16.9623C29.3383 17.1771 29.3297 17.4006 29.304 17.6154C29.261 18.0107 29.5532 18.3803 29.9485 18.4232C30.3438 18.4662 30.7133 18.174 30.7563 17.7787C30.7821 17.5123 30.7993 17.2373 30.7993 16.9623C30.7993 12.9232 27.5079 9.63184 23.4688 9.63184Z" fill="white"/>
<path d="M23.4691 6.69922C23.2113 6.69922 22.9449 6.70781 22.6785 6.725C22.2746 6.75937 21.9738 7.11172 21.9996 7.51563C22.034 7.91953 22.3863 8.22031 22.7902 8.19453C23.0137 8.17734 23.2457 8.16875 23.4691 8.16875C28.3246 8.16875 32.2691 12.1133 32.2691 16.9688C32.2691 17.6563 32.1918 18.3352 32.0371 18.9969C31.9511 19.375 32.1832 19.7703 32.5527 19.8734C32.948 19.9852 33.3691 19.7359 33.4636 19.332C33.6441 18.5586 33.7386 17.7594 33.7386 16.9602C33.7386 11.3055 29.1324 6.69922 23.4691 6.69922Z" fill="white"/>
</g>
<defs>
<clipPath id="clip0_446_4102">
<rect width="44" height="44" fill="white" transform="translate(0 0.0996094)"/>
</clipPath>
</defs>
</svg>
