<svg width="21" height="21" viewBox="0 0 21 21" fill="none" xmlns="http://www.w3.org/2000/svg">
<g clip-path="url(#clip0_375_180)">
<path d="M11 1.5H3.5C2.39543 1.5 1.5 2.39543 1.5 3.5V18.5C1.5 19.6046 2.39543 20.5 3.5 20.5H11" stroke="#1D252D" stroke-width="1.4"/>
<path d="M6.00502 10.505C5.73166 10.7784 5.73166 11.2216 6.00502 11.495L10.4598 15.9497C10.7332 16.2231 11.1764 16.2231 11.4497 15.9497C11.7231 15.6764 11.7231 15.2332 11.4497 14.9598L7.48995 11L11.4497 7.0402C11.7231 6.76684 11.7231 6.32362 11.4497 6.05025C11.1764 5.77689 10.7332 5.77689 10.4598 6.05025L6.00502 10.505ZM19.5 10.3L6.5 10.3L6.5 11.7L19.5 11.7L19.5 10.3Z" fill="black"/>
</g>
<defs>
<clipPath id="clip0_375_180">
<rect width="21" height="21" fill="white"/>
</clipPath>
</defs>
</svg>
