<svg width="56" height="30" viewBox="0 0 56 30" fill="none" xmlns="http://www.w3.org/2000/svg">
<path d="M20.2285 23.1719L23.0222 7.17188H27.3872L24.6809 23.1719H20.2285Z" fill="#3C58BF"/>
<path d="M20.2285 23.1719L23.8079 7.17188H27.3872L24.6809 23.1719H20.2285Z" fill="#293688"/>
<path d="M40.4821 7.34978C39.6091 6.99423 38.2123 6.63867 36.4663 6.63867C32.1012 6.63867 28.9583 8.86089 28.9583 12.0609C28.9583 14.4609 31.1409 15.7053 32.8869 16.5053C34.6329 17.3053 35.1567 17.8387 35.1567 18.5498C35.1567 19.6164 33.7599 20.1498 32.5377 20.1498C30.7917 20.1498 29.8314 19.8831 28.3472 19.2609L27.7361 18.9942L27.125 22.6387C28.1726 23.0831 30.0933 23.5276 32.1012 23.5276C36.7282 23.5276 39.7837 21.3053 39.7837 17.9276C39.7837 16.0609 38.6488 14.6387 36.0298 13.4831C34.4583 12.6831 33.498 12.2387 33.498 11.4387C33.498 10.7276 34.2837 10.0164 36.0298 10.0164C37.5139 10.0164 38.5615 10.2831 39.3472 10.6387L39.7837 10.8164L40.4821 7.34978Z" fill="#3C58BF"/>
<path d="M40.4821 7.34978C39.6091 6.99423 38.2123 6.63867 36.4663 6.63867C32.1012 6.63867 29.744 8.86089 29.744 12.0609C29.744 14.4609 31.1409 15.7053 32.8869 16.5053C34.6329 17.3053 35.1567 17.8387 35.1567 18.5498C35.1567 19.6164 33.7599 20.1498 32.5377 20.1498C30.7917 20.1498 29.8314 19.8831 28.3472 19.2609L27.7361 18.9942L27.125 22.6387C28.1726 23.0831 30.0933 23.5276 32.1012 23.5276C36.7282 23.5276 39.7837 21.3053 39.7837 17.9276C39.7837 16.0609 38.6488 14.6387 36.0298 13.4831C34.4583 12.6831 33.498 12.2387 33.498 11.4387C33.498 10.7276 34.2837 10.0164 36.0298 10.0164C37.5139 10.0164 38.5615 10.2831 39.3472 10.6387L39.7837 10.8164L40.4821 7.34978Z" fill="#293688"/>
<path d="M47.9913 7.17188C46.9437 7.17188 46.1579 7.26076 45.7214 8.32743L39.1738 23.1719H43.8881L44.7611 20.5052H50.3484L50.8722 23.1719H55.0627L51.396 7.17188H47.9913ZM45.9833 17.8385C46.2452 17.0385 47.7294 13.1274 47.7294 13.1274C47.7294 13.1274 48.0786 12.1497 48.3405 11.5274L48.6024 13.0385C48.6024 13.0385 49.4754 17.0385 49.65 17.9274H45.9833V17.8385Z" fill="#3C58BF"/>
<path d="M49.0389 7.17188C47.9913 7.17188 47.2056 7.26076 46.7691 8.32743L39.1738 23.1719H43.8881L44.7611 20.5052H50.3484L50.8722 23.1719H55.0627L51.396 7.17188H49.0389ZM45.9833 17.8385C46.3326 16.9497 47.7294 13.1274 47.7294 13.1274C47.7294 13.1274 48.0786 12.1497 48.3405 11.5274L48.6024 13.0385C48.6024 13.0385 49.4754 17.0385 49.65 17.9274H45.9833V17.8385Z" fill="#293688"/>
<path d="M12.197 18.3718L11.7605 16.0607C10.9748 13.3941 8.44306 10.4607 5.64941 9.03852L9.57798 23.2607H14.2923L21.3637 7.26074H16.6494L12.197 18.3718Z" fill="#3C58BF"/>
<path d="M12.197 18.3718L11.7605 16.0607C10.9748 13.3941 8.44306 10.4607 5.64941 9.03852L9.57798 23.2607H14.2923L21.3637 7.26074H17.5224L12.197 18.3718Z" fill="#293688"/>
<path d="M0.0625 7.17188L0.848214 7.34965C6.43552 8.68299 10.2768 12.0608 11.7609 16.0608L10.1895 8.50521C9.92758 7.43854 9.14186 7.17188 8.18155 7.17188H0.0625Z" fill="#FFBC00"/>
<path d="M0.0625 7.17188C5.6498 8.50521 10.2768 11.9719 11.7609 15.9719L10.2768 9.66076C10.0149 8.5941 9.14186 7.97188 8.18155 7.97188L0.0625 7.17188Z" fill="#F7981D"/>
<path d="M0.0625 7.17188C5.6498 8.50521 10.2768 11.9719 11.7609 15.9719L10.7133 12.5052C10.4514 11.4385 10.1022 10.3719 8.87996 9.92743L0.0625 7.17188Z" fill="#ED7C00"/>
<path d="M16.5617 17.8391L13.5935 14.8169L12.1966 18.1946L11.8474 15.9724C11.0617 13.3058 8.52998 10.3724 5.73633 8.9502L9.6649 23.1724H14.3792L16.5617 17.8391Z" fill="#051244"/>
<path d="M24.6809 23.1728L20.9269 19.2617L20.2285 23.1728H24.6809Z" fill="#051244"/>
<path d="M34.7202 17.6611C35.0694 18.0167 35.2441 18.2834 35.1567 18.6389C35.1567 19.7056 33.7599 20.2389 32.5377 20.2389C30.7917 20.2389 29.8314 19.9722 28.3472 19.35L27.7361 19.0834L27.125 22.7278C28.1726 23.1722 30.0933 23.6167 32.1012 23.6167C34.8948 23.6167 37.1647 22.8167 38.4742 21.3945L34.7202 17.6611Z" fill="#051244"/>
<path d="M39.7832 23.1728H43.8864L44.7594 20.5061H50.3467L50.8705 23.1728H55.061L53.5769 16.6839L48.3388 11.5283L48.6007 12.9505C48.6007 12.9505 49.4737 16.9505 49.6483 17.8394H45.9816C46.3308 16.9505 47.7276 13.1283 47.7276 13.1283C47.7276 13.1283 48.0769 12.1505 48.3388 11.5283" fill="#051244"/>
</svg>
