<svg width="45" height="44" viewBox="0 0 45 44" fill="none" xmlns="http://www.w3.org/2000/svg">
<g clip-path="url(#clip0_446_4126)">
<path d="M22.3512 0H22.3402C10.21 0 0.345703 9.867 0.345703 22C0.345703 26.8125 1.8967 31.273 4.53395 34.8947L1.7922 43.0677L10.2485 40.3645C13.7272 42.669 17.877 44 22.3512 44C34.4815 44 44.3457 34.1302 44.3457 22C44.3457 9.86975 34.4815 0 22.3512 0Z" fill="#4CAF50"/>
<path d="M35.1532 31.0679C34.6225 32.5666 32.516 33.8096 30.8357 34.1726C29.6862 34.4174 28.1847 34.6126 23.1302 32.5171C16.665 29.8386 12.5015 23.2689 12.177 22.8426C11.8662 22.4164 9.56445 19.3639 9.56445 16.2069C9.56445 13.0499 11.1677 11.5126 11.814 10.8526C12.3447 10.3109 13.222 10.0634 14.0635 10.0634C14.3357 10.0634 14.5805 10.0771 14.8005 10.0881C15.4467 10.1156 15.7712 10.1541 16.1975 11.1744C16.7282 12.4531 18.0207 15.6101 18.1747 15.9346C18.3315 16.2591 18.4882 16.6991 18.2682 17.1254C18.062 17.5654 17.8805 17.7606 17.556 18.1346C17.2315 18.5086 16.9235 18.7946 16.599 19.1961C16.302 19.5454 15.9665 19.9194 16.3405 20.5656C16.7145 21.1981 18.007 23.3074 19.91 25.0014C22.3657 27.1876 24.3567 27.8861 25.069 28.1831C25.5997 28.4031 26.2322 28.3509 26.62 27.9384C27.1122 27.4076 27.72 26.5276 28.3387 25.6614C28.7787 25.0399 29.3342 24.9629 29.9172 25.1829C30.5112 25.3891 33.6545 26.9429 34.3007 27.2646C34.947 27.5891 35.3732 27.7431 35.53 28.0154C35.684 28.2876 35.684 29.5664 35.1532 31.0679Z" fill="#FAFAFA"/>
</g>
<defs>
<clipPath id="clip0_446_4126">
<rect width="44" height="44" fill="white" transform="translate(0.345703)"/>
</clipPath>
</defs>
</svg>
