<svg width="46" height="70" viewBox="0 0 46 70" fill="none" xmlns="http://www.w3.org/2000/svg">
<g clip-path="url(#clip0_68_1202)">
<path d="M38.1899 63.8759C33.8175 67.9349 28.8717 70 23.4241 70H22.564C17.1164 70 12.1706 67.9349 7.79823 63.8759C-6.75251 50.2747 2.27898 33.3978 9.01676 24.5676C14.3927 17.4466 19.1951 8.04679 21.5605 3.06205L22.9941 0L24.4276 3.06205C26.793 8.04679 31.5955 17.4466 36.9714 24.5676C43.7092 33.3978 52.7407 50.2747 38.1899 63.8759Z" fill="#A1A8AE"/>
<path d="M21.9196 28.7696C21.4447 28.7625 20.9826 28.6157 20.5918 28.3477C20.2009 28.0797 19.8988 27.7026 19.7237 27.2641C19.5486 26.8255 19.5082 26.3453 19.6078 25.884C19.7074 25.4226 19.9425 25.001 20.2833 24.6725C20.624 24.3439 21.0552 24.123 21.5223 24.0379C21.9894 23.9528 22.4715 24.0071 22.9074 24.1941C23.3434 24.3811 23.7138 24.6924 23.9718 25.0885C24.2297 25.4847 24.3637 25.9479 24.3566 26.4196C24.3225 27.0441 24.0527 27.6328 23.601 28.0684C23.1493 28.504 22.5489 28.7544 21.9196 28.7696ZM21.9196 22.7879C21.1996 22.788 20.4958 22.9993 19.8963 23.3953C19.2967 23.7913 18.8283 24.3544 18.5496 25.0139C18.2709 25.6733 18.1945 26.3999 18.3298 27.1024C18.4652 27.8048 18.8063 28.452 19.3104 28.9626C19.8145 29.4732 20.4591 29.8246 21.1635 29.9727C21.8678 30.1207 22.6004 30.0589 23.2695 29.7949C23.9386 29.5309 24.5144 29.0765 24.9245 28.4887C25.3347 27.9009 25.561 27.2059 25.5752 26.4908C25.5948 26.0054 25.5143 25.521 25.3385 25.0676C25.1626 24.6142 24.8953 24.2014 24.5528 23.8545C24.2104 23.5076 23.8001 23.2341 23.3472 23.0506C22.8944 22.8672 22.4085 22.7778 21.9196 22.7879Z" fill="white"/>
<path d="M25.5753 39.6648C24.8523 39.6648 24.1455 39.4518 23.5444 39.0527C22.9432 38.6536 22.4747 38.0864 22.198 37.4228C21.9213 36.7592 21.8489 36.029 21.99 35.3245C22.131 34.62 22.4792 33.9729 22.9904 33.465C23.5017 32.9571 24.153 32.6112 24.8621 32.4711C25.5713 32.3309 26.3063 32.4029 26.9743 32.6777C27.6422 32.9526 28.2132 33.4181 28.6148 34.0153C29.0165 34.6126 29.2309 35.3147 29.2309 36.033C29.2347 36.511 29.1428 36.985 28.9604 37.4273C28.7781 37.8696 28.5089 38.2715 28.1687 38.6095C27.8285 38.9475 27.424 39.2149 26.9788 39.396C26.5335 39.5772 26.0564 39.6686 25.5753 39.6648ZM25.5753 31.2619C24.6113 31.2619 23.6689 31.5459 22.8674 32.078C22.0658 32.6101 21.4411 33.3663 21.0722 34.2512C20.7033 35.136 20.6068 36.1096 20.7948 37.0489C20.9829 37.9882 21.4471 38.8511 22.1288 39.5283C22.8104 40.2055 23.6789 40.6667 24.6244 40.8535C25.5699 41.0403 26.5499 40.9445 27.4406 40.578C28.3312 40.2114 29.0924 39.5908 29.628 38.7945C30.1636 37.9982 30.4495 37.0619 30.4495 36.1042C30.4552 35.4667 30.333 34.8345 30.0901 34.2444C29.8472 33.6544 29.4884 33.1183 29.0346 32.6675C28.5809 32.2167 28.0413 31.8602 27.4473 31.6189C26.8534 31.3776 26.217 31.2562 25.5753 31.2619Z" fill="white"/>
<path d="M14.6083 46.9987C13.6301 46.9987 12.6739 46.7106 11.8606 46.1707C11.0472 45.6307 10.4133 44.8634 10.039 43.9655C9.66462 43.0677 9.56668 42.0798 9.75752 41.1266C9.94835 40.1735 10.4194 39.298 11.1111 38.6108C11.8028 37.9236 12.684 37.4557 13.6434 37.2661C14.6028 37.0765 15.5973 37.1738 16.501 37.5457C17.4047 37.9176 18.1771 38.5474 18.7206 39.3554C19.2641 40.1634 19.5541 41.1134 19.5541 42.0852C19.5589 42.7318 19.4342 43.3728 19.1874 43.9711C18.9405 44.5694 18.5764 45.1129 18.1162 45.5702C17.6559 46.0274 17.1088 46.3891 16.5066 46.6344C15.9044 46.8796 15.2591 47.0035 14.6083 46.9987ZM14.6083 36.1035C13.4033 36.1035 12.2253 36.4585 11.2234 37.1236C10.2215 37.7887 9.44055 38.7341 8.97941 39.8401C8.51827 40.9461 8.39761 42.1631 8.6327 43.3373C8.86778 44.5114 9.44805 45.5899 10.3001 46.4365C11.1522 47.283 12.2378 47.8595 13.4197 48.093C14.6015 48.3266 15.8266 48.2067 16.9399 47.7486C18.0532 47.2904 19.0047 46.5146 19.6742 45.5192C20.3436 44.5238 20.701 43.3536 20.701 42.1564C20.7019 41.3613 20.545 40.5738 20.2391 39.839C19.9333 39.1042 19.4845 38.4365 18.9186 37.8743C18.3526 37.312 17.6806 36.8662 16.941 36.5624C16.2014 36.2585 15.4087 36.1026 14.6083 36.1035Z" fill="white"/>
<path d="M28.657 59.1052C27.3244 59.1052 26.0217 58.7126 24.9137 57.9771C23.8057 57.2415 22.9421 56.1961 22.4321 54.973C21.9222 53.7498 21.7887 52.4039 22.0487 51.1055C22.3087 49.807 22.9504 48.6143 23.8927 47.6781C24.835 46.742 26.0355 46.1045 27.3425 45.8462C28.6495 45.5879 30.0043 45.7205 31.2355 46.2271C32.4666 46.7337 33.5189 47.5917 34.2593 48.6925C34.9996 49.7933 35.3948 51.0875 35.3948 52.4114C35.3725 54.1798 34.6555 55.8695 33.3967 57.1201C32.1379 58.3707 30.4371 59.083 28.657 59.1052ZM28.657 44.5782C27.0936 44.5853 25.5672 45.0518 24.2702 45.9192C22.9732 46.7865 21.9636 48.0158 21.3685 49.4521C20.7735 50.8885 20.6197 52.4677 20.9264 53.9908C21.2332 55.5138 21.9868 56.9126 23.0923 58.011C24.1979 59.1093 25.6059 59.858 27.1389 60.1627C28.672 60.4675 30.2616 60.3147 31.7074 59.7235C33.1532 59.1324 34.3905 58.1293 35.2636 56.8408C36.1366 55.5522 36.6062 54.0358 36.6133 52.4826C36.6181 51.4432 36.4155 50.4133 36.0174 49.4521C35.6192 48.491 35.0333 47.6178 34.2936 46.8828C33.5538 46.1479 32.6748 45.5658 31.7074 45.1703C30.7399 44.7747 29.7032 44.5735 28.657 44.5782Z" fill="white"/>
</g>
<defs>
<clipPath id="clip0_68_1202">
<rect width="45.9889" height="70" fill="white"/>
</clipPath>
</defs>
</svg>
