<svg width="59" height="52" viewBox="0 0 59 52" fill="none" xmlns="http://www.w3.org/2000/svg">
<g clip-path="url(#clip0_332_157)">
<path fill-rule="evenodd" clip-rule="evenodd" d="M38.5811 49.4564V51.1099H20.209V49.4564C20.2099 49.0178 20.3845 48.5975 20.6946 48.2874C21.0047 47.9773 21.4251 47.8027 21.8636 47.8018H36.9287C37.367 47.803 37.7869 47.9778 38.0966 48.2879C38.4063 48.598 38.5805 49.0181 38.5811 49.4564Z" fill="#00A886"/>
<path d="M34.1789 40.499H24.6094V46.3563H34.1789V40.499Z" fill="#00A886"/>
<path fill-rule="evenodd" clip-rule="evenodd" d="M49.8913 4.82267C49.8913 23.7 40.6949 39.0579 29.3938 39.0579C18.0927 39.0579 8.89746 23.6977 8.89746 4.82267C8.89746 3.21511 8.96521 1.60756 9.1007 0H49.6869C49.8224 1.59493 49.8913 3.21511 49.8913 4.82267Z" fill="#00A886"/>
<path fill-rule="evenodd" clip-rule="evenodd" d="M38.3754 14.0391L34.1143 17.7985L35.3544 23.3399C35.3855 23.4776 35.3756 23.6213 35.326 23.7534C35.2764 23.8855 35.1891 24.0001 35.075 24.0832C34.9609 24.1662 34.825 24.2141 34.6841 24.2207C34.5431 24.2274 34.4033 24.1926 34.2819 24.1207L29.3949 21.2226L24.5068 24.1139C24.3854 24.1861 24.2454 24.2212 24.1042 24.2147C23.9631 24.2082 23.8269 24.1604 23.7127 24.0773C23.5984 23.9942 23.511 23.8794 23.4613 23.7471C23.4116 23.6148 23.4019 23.4708 23.4332 23.333L24.6745 17.7985L20.4133 14.0448C20.3073 13.9515 20.231 13.8293 20.1937 13.6931C20.1564 13.557 20.1597 13.4129 20.2033 13.2786C20.2469 13.1443 20.3288 13.0257 20.4389 12.9374C20.5491 12.8492 20.6827 12.795 20.8232 12.7817L26.4772 12.2501L28.7301 7.03815C28.7862 6.90874 28.8789 6.79856 28.9968 6.72117C29.1148 6.64377 29.2527 6.60254 29.3938 6.60254C29.5348 6.60254 29.6728 6.64377 29.7907 6.72117C29.9086 6.79856 30.0014 6.90874 30.0575 7.03815L32.3104 12.2501L37.9655 12.7817C38.1474 12.8003 38.3158 12.8863 38.4374 13.0229C38.5631 13.1662 38.6271 13.3534 38.6155 13.5437C38.6039 13.734 38.5176 13.912 38.3754 14.0391Z" fill="white"/>
<path fill-rule="evenodd" clip-rule="evenodd" d="M32.6099 17.6917L33.5802 22.0183L29.7623 19.7597C29.6504 19.6943 29.5232 19.6598 29.3937 19.6598C29.2641 19.6598 29.1369 19.6943 29.0251 19.7597L25.2083 22.0183L26.1797 17.6917C26.2074 17.5651 26.2006 17.4333 26.1603 17.3102C26.1199 17.187 26.0473 17.0769 25.9501 16.9912L22.6201 14.0598L27.0352 13.6441C27.1643 13.632 27.2879 13.5854 27.3929 13.5093C27.4979 13.4331 27.5806 13.3302 27.6323 13.2112L29.3948 9.14062L31.1551 13.2112C31.2059 13.3301 31.2878 13.4332 31.3923 13.5094C31.4968 13.5856 31.62 13.6321 31.7487 13.6441L36.1695 14.0598L32.8396 16.9947C32.7428 17.08 32.6705 17.1895 32.6302 17.312C32.5898 17.4345 32.5828 17.5656 32.6099 17.6917Z" fill="#00A886"/>
<path fill-rule="evenodd" clip-rule="evenodd" d="M58.791 9.38801C58.791 19.209 52.7673 28.0368 43.2207 32.5678C43.8618 31.7142 44.4596 30.8289 45.012 29.9154C48.9471 23.4404 51.1735 14.9272 51.3274 5.83301H58.5155C58.699 7.00911 58.7911 8.19767 58.791 9.38801Z" fill="#00A886"/>
<path fill-rule="evenodd" clip-rule="evenodd" d="M15.5715 32.5685C6.02145 28.0375 0 19.2097 0 9.38869C0.00082343 8.19713 0.0906371 7.00729 0.268692 5.8291H7.46366C7.61867 14.9187 9.84514 23.4364 13.7791 29.9115C14.3313 30.8269 14.9295 31.7137 15.5715 32.5685Z" fill="#00A886"/>
</g>
<defs>
<clipPath id="clip0_332_157">
<rect width="58.7884" height="51.11" fill="white"/>
</clipPath>
</defs>
</svg>
