<svg width="21" height="21" viewBox="0 0 21 21" fill="none" xmlns="http://www.w3.org/2000/svg">
<g clip-path="url(#clip0_170_8303)">
<path d="M11 1.5H3.5C2.39543 1.5 1.5 2.39543 1.5 3.5V18.5C1.5 19.6046 2.39543 20.5 3.5 20.5H11" stroke="#1D252D" stroke-width="1.4"/>
<path d="M19.995 11.495C20.2683 11.2216 20.2683 10.7784 19.995 10.505L15.5402 6.05025C15.2668 5.77689 14.8236 5.77689 14.5503 6.05025C14.2769 6.32362 14.2769 6.76684 14.5503 7.0402L18.5101 11L14.5503 14.9598C14.2769 15.2332 14.2769 15.6764 14.5503 15.9497C14.8236 16.2231 15.2668 16.2231 15.5402 15.9497L19.995 11.495ZM6.5 11.7H19.5V10.3H6.5V11.7Z" fill="black"/>
</g>
<defs>
<clipPath id="clip0_170_8303">
<rect width="21" height="21" fill="white"/>
</clipPath>
</defs>
</svg>
