<?xml version="1.0" encoding="UTF-8" standalone="no"?>
<svg
   width="26"
   height="25"
   viewBox="0 0 26 25"
   fill="none"
   version="1.1"
   id="svg146"
   sodipodi:docname="basket.svg"
   inkscape:version="1.2.1 (9c6d41e410, 2022-07-14)"
   xmlns:inkscape="http://www.inkscape.org/namespaces/inkscape"
   xmlns:sodipodi="http://sodipodi.sourceforge.net/DTD/sodipodi-0.dtd"
   xmlns="http://www.w3.org/2000/svg"
   xmlns:svg="http://www.w3.org/2000/svg">
  <sodipodi:namedview
     id="namedview148"
     pagecolor="#ffffff"
     bordercolor="#000000"
     borderopacity="0.25"
     inkscape:showpageshadow="2"
     inkscape:pageopacity="0.0"
     inkscape:pagecheckerboard="0"
     inkscape:deskcolor="#d1d1d1"
     showgrid="false"
     inkscape:zoom="11.780399"
     inkscape:cx="24.617163"
     inkscape:cy="3.0134803"
     inkscape:window-width="1920"
     inkscape:window-height="991"
     inkscape:window-x="-9"
     inkscape:window-y="1271"
     inkscape:window-maximized="1"
     inkscape:current-layer="svg146" />
  <g
     clip-path="url(#clip0_750_1191)"
     id="g139"
     transform="translate(-26.050421,-5.3421369)">
    <path
       d="m 13.4739,15.9824 c 0,-0.4288 -0.3367,-0.7763 -0.7521,-0.7763 -0.4153,0 -0.7521,0.3475 -0.7521,0.7763 v 5.4861 c 0,0.4287 0.3368,0.7763 0.7521,0.7763 0.4154,0 0.7521,-0.3476 0.7521,-0.7763 z"
       fill="#ffffff"
       id="path127" />
    <path
       d="M 7.56559,15.8119 C 7.45808,15.3977 7.04567,15.152 6.64445,15.2629 6.24322,15.3739 6.00512,15.7996 6.11263,16.2137 l 1.37566,5.2992 c 0.1075,0.4141 0.51991,0.6599 0.92113,0.5489 0.40123,-0.111 0.63933,-0.5367 0.53182,-0.9508 z"
       fill="#ffffff"
       id="path133" />
  </g>
  <defs
     id="defs144">
    <clipPath
       id="clip0_750_1191">
      <rect
         width="25"
         height="25"
         fill="white"
         transform="translate(0.107422 0.323242)"
         id="rect141" />
    </clipPath>
  </defs>
  <path
     style="stroke-width:0.03;fill-opacity:1;stroke-dasharray:none"
     d="M 1.1261778,10.771216 C 0.68689106,10.653169 0.30068243,10.265213 0.18153106,9.8222947 0.13845092,9.6621543 0.13228104,9.5099025 0.14044881,8.8085234 L 0.15006002,7.9831933 0.26016328,7.7580216 C 0.43525288,7.3999472 0.70292368,7.1599334 1.0621172,7.0389298 1.2352642,6.9806008 1.3137318,6.9777911 2.7695487,6.9777911 h 1.5259441 l 0.076453,-0.082533 C 4.4139949,6.8498649 5.5393565,5.4284214 6.8727491,3.7364946 8.2061417,2.0445678 9.3323529,0.62141612 9.3754406,0.57393523 9.5746843,0.35437624 9.9286354,0.28733871 10.206208,0.41658971 10.564856,0.58359297 10.737687,1.0495206 10.574595,1.4097114 10.552385,1.4587621 9.563798,2.7282699 8.3777347,4.2308397 l -2.156479,2.7319454 3.2894322,0.00764 c 1.8091871,0.0042 4.7668521,0.0042 6.5725871,0 l 3.283154,-0.00764 -2.146172,-2.7160864 C 16.039862,2.7528511 15.048933,1.4765906 15.018193,1.4105642 c -0.06966,-0.1496291 -0.07503,-0.45434292 -0.01073,-0.60870703 0.161823,-0.38844855 0.623999,-0.56539916 0.994513,-0.38076385 0.106205,0.0529242 0.20127,0.13729973 0.313516,0.27826589 0.0886,0.11127083 1.24047,1.56943789 2.559707,3.24037129 l 2.398614,3.0380606 h 1.342222 c 1.253428,0 1.354965,0.00394 1.534832,0.059491 0.480396,0.1483791 0.846289,0.5948635 0.922741,1.1259832 0.03865,0.2685342 0.0392,1.198521 8.64e-4,1.4636519 -0.05972,0.4129738 -0.342969,0.8357208 -0.684506,1.0216088 -0.338289,0.184119 0.57926,0.17099 -11.798738,0.168827 -9.8489442,-0.0017 -11.3218292,-0.0076 -11.4650555,-0.04614 z"
     id="path1054" />
  <path
     style="fill-opacity:1;stroke-width:0.00090036;stroke-dasharray:none"
     d="M 4.0097467,24.215634 C 3.8373193,24.129709 3.6968438,23.965148 3.6439984,23.787174 3.6057637,23.658406 1.4879155,12.998532 1.4984064,12.987655 c 0.004,-0.0041 5.064216,-0.0041 11.2449216,0 l 11.237647,0.0075 -1.067742,5.376724 c -0.587259,2.957197 -1.092102,5.430744 -1.121876,5.496769 -0.06777,0.15028 -0.238334,0.318723 -0.384331,0.379543 -0.09986,0.0416 -1.011133,0.04648 -8.675079,0.04648 H 4.168448 Z m 8.9743693,-2.007617 c 0.156665,-0.05338 0.333077,-0.213808 0.425999,-0.387397 l 0.06528,-0.121941 0.0081,-2.905795 c 0.0054,-1.930064 -0.0023,-2.944455 -0.02292,-3.020928 -0.01705,-0.06332 -0.07471,-0.180039 -0.128134,-0.259369 -0.335728,-0.498542 -1.135933,-0.378429 -1.327827,0.199311 -0.03989,0.120095 -0.04468,0.509162 -0.03775,3.062991 l 0.0079,2.925421 0.07516,0.146045 c 0.173742,0.33758 0.562791,0.488201 0.934162,0.361662 z m 4.638651,-0.03941 c 0.132418,-0.06756 0.327163,-0.268718 0.370504,-0.382714 0.07241,-0.190466 1.415741,-5.419165 1.430433,-5.567749 0.02111,-0.213481 -0.04572,-0.424855 -0.186198,-0.588978 -0.347752,-0.40627 -1.058752,-0.300812 -1.26187,0.187165 -0.06517,0.156555 -1.454027,5.547926 -1.454027,5.644334 0,0.314868 0.240527,0.653807 0.529414,0.746023 0.181517,0.05794 0.413855,0.04247 0.571744,-0.03808 z M 8.5571456,22.019561 c 0.142939,-0.07292 0.2998781,-0.242217 0.3649913,-0.393729 0.1072995,-0.249673 0.091837,-0.32479 -0.660232,-3.207415 C 7.486608,15.446763 7.5059166,15.504761 7.2364268,15.338148 7.0494778,15.222566 6.7743322,15.197484 6.5660312,15.277035 6.2814298,15.385725 6.077431,15.690437 6.077431,16.006854 c 0,0.191072 1.3964369,5.566138 1.4872572,5.724644 0.080117,0.139826 0.2316752,0.265579 0.3961011,0.328658 0.2020616,0.08649 0.4242411,-0.02888 0.5963563,-0.04059 z"
     id="path2654"
     sodipodi:nodetypes="cscccsssscccsccccsccsccssscssssscsssssscc" />
</svg>
