<svg width="26" height="25" viewBox="0 0 26 25" fill="none" xmlns="http://www.w3.org/2000/svg">
<g clip-path="url(#clip0_750_1191)">
<path d="M21.1288 24.323H4.34255C4.16799 24.3231 3.99877 24.261 3.86351 24.1471C3.72824 24.0332 3.63523 23.8746 3.60022 23.6981L1.46875 12.9619H24.0033L21.8711 23.6981C21.8361 23.8746 21.7431 24.0332 21.6078 24.1471C21.4726 24.261 21.3034 24.3231 21.1288 24.323Z" fill="#00A886"/>
<path d="M13.4739 15.9824C13.4739 15.5536 13.1372 15.2061 12.7218 15.2061C12.3065 15.2061 11.9697 15.5536 11.9697 15.9824V21.4685C11.9697 21.8972 12.3065 22.2448 12.7218 22.2448C13.1372 22.2448 13.4739 21.8972 13.4739 21.4685V15.9824Z" fill="white"/>
<path d="M10.4848 1.59044C10.7472 1.25809 10.6989 0.769103 10.377 0.498245C10.055 0.227387 9.58121 0.277229 9.3188 0.609571L3.14185 8.43243C2.87943 8.76477 2.92772 9.25376 3.24971 9.52462C3.57169 9.79548 4.04545 9.74564 4.30786 9.4133L10.4848 1.59044Z" fill="#00A886"/>
<path d="M21.2778 9.41231C21.5402 9.74465 22.014 9.79449 22.3359 9.52364C22.6579 9.25278 22.7062 8.76379 22.4438 8.43144L16.2668 0.608583C16.0044 0.276241 15.5307 0.226399 15.2087 0.497257C14.8867 0.768116 14.8384 1.25711 15.1008 1.58945L21.2778 9.41231Z" fill="#00A886"/>
<path d="M7.56559 15.8119C7.45808 15.3977 7.04567 15.152 6.64445 15.2629C6.24322 15.3739 6.00512 15.7996 6.11263 16.2137L7.48829 21.5129C7.59579 21.927 8.0082 22.1728 8.40942 22.0618C8.81065 21.9508 9.04875 21.5251 8.94124 21.111L7.56559 15.8119Z" fill="white"/>
<path d="M19.395 16.3582C19.5025 15.9441 19.2644 15.5184 18.8632 15.4075C18.462 15.2965 18.0496 15.5423 17.9421 15.9564L16.5664 21.2555C16.4589 21.6697 16.697 22.0953 17.0982 22.2063C17.4994 22.3173 17.9119 22.0715 18.0194 21.6574L19.395 16.3582Z" fill="white"/>
<path d="M23.7536 6.95215H1.46121C0.713535 6.95215 0.107422 7.57776 0.107422 8.34948V9.4363C0.107422 10.208 0.713535 10.8336 1.46121 10.8336H23.7536C24.5013 10.8336 25.1074 10.208 25.1074 9.4363V8.34948C25.1074 7.57776 24.5013 6.95215 23.7536 6.95215Z" fill="#00A886"/>
</g>
<defs>
<clipPath id="clip0_750_1191">
<rect width="25" height="24" fill="white" transform="translate(0.107422 0.323242)"/>
</clipPath>
</defs>
</svg>
