<svg width="37" height="36" viewBox="0 0 37 36" fill="none" xmlns="http://www.w3.org/2000/svg">
<g clip-path="url(#clip0_1102_657)">
<path d="M12.8249 34.177C14.4751 34.177 15.8129 32.8294 15.8129 31.1671C15.8129 29.5048 14.4751 28.1572 12.8249 28.1572C11.1747 28.1572 9.83691 29.5048 9.83691 31.1671C9.83691 32.8294 11.1747 34.177 12.8249 34.177Z" fill="white" stroke="#6E6E6E" stroke-width="2.82662" stroke-miterlimit="10"/>
<path d="M29.2565 34.177C30.9068 34.177 32.2445 32.8294 32.2445 31.1671C32.2445 29.5048 30.9068 28.1572 29.2565 28.1572C27.6063 28.1572 26.2686 29.5048 26.2686 31.1671C26.2686 32.8294 27.6063 34.177 29.2565 34.177Z" fill="white" stroke="#6E6E6E" stroke-width="2.82662" stroke-miterlimit="10"/>
<path d="M6.85059 6.33789L11.3322 23.6424H30.7501L34.486 6.33789H6.85059Z" fill="#6E6E6E" stroke="#6E6E6E" stroke-width="2.82662"/>
<path d="M6.84963 6.33771L5.356 1.82324H0.12793" fill="white"/>
<path d="M6.84963 6.33771L5.356 1.82324H0.12793" stroke="#6E6E6E" stroke-width="2.82662"/>
</g>
<defs>
<clipPath id="clip0_1102_657">
<rect width="37" height="35.8064" fill="white" transform="translate(0 0.0966797)"/>
</clipPath>
</defs>
</svg>
