<svg width="37" height="36" viewBox="0 0 37 36" fill="none" xmlns="http://www.w3.org/2000/svg">
<g clip-path="url(#clip0_1124_460)">
<path d="M12.8249 34.176C14.4751 34.176 15.8129 32.8285 15.8129 31.1661C15.8129 29.5038 14.4751 28.1562 12.8249 28.1562C11.1747 28.1562 9.83691 29.5038 9.83691 31.1661C9.83691 32.8285 11.1747 34.176 12.8249 34.176Z" fill="white" stroke="#00A886" stroke-width="2.82662" stroke-miterlimit="10"/>
<path d="M29.2565 34.176C30.9068 34.176 32.2445 32.8285 32.2445 31.1661C32.2445 29.5038 30.9068 28.1562 29.2565 28.1562C27.6063 28.1562 26.2686 29.5038 26.2686 31.1661C26.2686 32.8285 27.6063 34.176 29.2565 34.176Z" fill="white" stroke="#00A886" stroke-width="2.82662" stroke-miterlimit="10"/>
<path d="M6.8501 6.33789L11.3317 23.6424H30.7496L34.4855 6.33789H6.8501Z" fill="#00A886" stroke="#00A886" stroke-width="2.82662"/>
<path d="M6.85011 6.33771L5.35649 1.82324H0.128418" fill="white"/>
<path d="M6.85011 6.33771L5.35649 1.82324H0.128418" stroke="#00A886" stroke-width="2.82662"/>
</g>
<defs>
<clipPath id="clip0_1124_460">
<rect width="37" height="35.8064" fill="white" transform="translate(0 0.0966797)"/>
</clipPath>
</defs>
</svg>
