<svg width="86" height="61" viewBox="0 0 86 61" fill="none" xmlns="http://www.w3.org/2000/svg">
<g filter="url(#filter0_dd_363_315)">
<path d="M67.3561 42.1367C66.1092 42.1365 64.8903 42.524 63.8534 43.2502C62.8166 43.9765 62.0084 45.0089 61.531 46.217C61.0537 47.425 60.9287 48.7543 61.1718 50.0368C61.4149 51.3193 62.0152 52.4974 62.8967 53.4222C63.7783 54.3469 64.9016 54.9767 66.1245 55.2319C67.3474 55.4871 68.615 55.3562 69.767 54.8559C70.919 54.3555 71.9036 53.5082 72.5963 52.4209C73.2891 51.3337 73.6589 50.0555 73.6589 48.7479C73.6568 46.9954 72.9922 45.3152 71.8107 44.0759C70.6291 42.8366 69.0272 42.1392 67.3561 42.1367ZM67.3561 50.6917C66.9891 50.6919 66.6304 50.5781 66.3251 50.3644C66.0199 50.1508 65.782 49.847 65.6414 49.4915C65.5009 49.136 65.4641 48.7448 65.5356 48.3674C65.6071 47.9899 65.7838 47.6432 66.0433 47.3711C66.3028 47.099 66.6334 46.9137 66.9933 46.8387C67.3532 46.7636 67.7262 46.8023 68.0652 46.9497C68.4042 47.0971 68.6939 47.3466 68.8976 47.6667C69.1013 47.9868 69.2099 48.363 69.2096 48.7479C69.2089 49.2632 69.0134 49.7572 68.666 50.1216C68.3185 50.4859 67.8475 50.691 67.3561 50.6917Z" fill="#6E6E6E"/>
<path d="M66.7524 14.7393H55.8569C55.4643 14.7403 55.0882 14.9047 54.8111 15.1963C54.534 15.4879 54.3786 15.8829 54.3789 16.2946V46.6308C54.3789 47.0433 54.5352 47.4389 54.8133 47.7305C55.0914 48.0222 55.4686 48.1861 55.862 48.1861H57.4297C57.7864 48.1903 58.1326 48.0592 58.4044 47.8168C58.6763 47.5745 58.8554 47.2373 58.9089 46.8673C59.4908 42.1906 63.0479 39.2897 67.351 39.2897C71.6541 39.2897 75.2112 42.1906 75.7932 46.8673C75.8464 47.2374 76.0254 47.5748 76.2973 47.8172C76.5692 48.0595 76.9156 48.1906 77.2724 48.1861H78.849C79.2423 48.1857 79.6193 48.0217 79.8974 47.7301C80.1754 47.4385 80.3318 47.0431 80.3321 46.6308V31.4593C80.3325 31.0943 80.2104 30.7407 79.9873 30.4605L67.8894 15.2971C67.7503 15.1226 67.5764 14.9822 67.38 14.8858C67.1835 14.7894 66.9693 14.7394 66.7524 14.7393ZM57.3451 27.1818V19.4052C57.3449 19.2009 57.3831 18.9986 57.4576 18.8098C57.5321 18.621 57.6413 18.4495 57.7791 18.3051C57.9168 18.1606 58.0804 18.046 58.2604 17.9679C58.4404 17.8898 58.6333 17.8497 58.8281 17.8499H65.3655C65.5828 17.8501 65.7975 17.9003 65.9944 17.9969C66.1913 18.0935 66.3656 18.2342 66.505 18.4091L72.6834 26.1857C72.8643 26.413 72.9797 26.6897 73.0159 26.9834C73.0521 27.277 73.0078 27.5754 72.888 27.8435C72.7683 28.1116 72.5781 28.3384 72.3398 28.4971C72.1015 28.6559 71.8249 28.7401 71.5426 28.7398H58.8281C58.6331 28.74 58.44 28.6998 58.2598 28.6216C58.0796 28.5433 57.9159 28.4285 57.7782 28.2837C57.6404 28.139 57.5312 27.9672 57.4569 27.7781C57.3826 27.589 57.3446 27.3864 57.3451 27.1818Z" fill="#6E6E6E"/>
<path d="M7.9069 48.1802H11.7037C12.0604 48.1851 12.4067 48.0543 12.6786 47.8122C12.9505 47.57 13.1297 47.2328 13.1829 46.8628C13.7649 42.1848 17.3232 39.2852 21.6263 39.2852C25.9294 39.2852 29.4865 42.1861 30.0684 46.8628C30.1217 47.2328 30.3008 47.57 30.5727 47.8122C30.8446 48.0543 31.191 48.1851 31.5477 48.1802H50.1752C50.5682 48.1813 50.9456 48.0189 51.2246 47.7286C51.5036 47.4383 51.6614 47.0438 51.6634 46.6316V7.74185C51.6632 7.5372 51.6246 7.33459 51.5497 7.14562C51.4748 6.95665 51.3651 6.78502 51.2268 6.64056C51.0886 6.4961 50.9246 6.38164 50.7441 6.30374C50.5637 6.22583 50.3704 6.186 50.1752 6.18653H7.9069C7.7121 6.18635 7.51917 6.22646 7.33916 6.30456C7.15915 6.38266 6.99559 6.49722 6.85784 6.64168C6.72009 6.78614 6.61085 6.95767 6.53638 7.14645C6.46191 7.33523 6.42366 7.53755 6.42383 7.74185V46.6316C6.42519 47.0431 6.58208 47.4371 6.8601 47.7275C7.13812 48.0178 7.51457 48.1806 7.9069 48.1802Z" fill="#6E6E6E"/>
<path d="M21.6217 42.1367C20.3749 42.1365 19.1559 42.524 18.119 43.2502C17.0822 43.9765 16.274 45.0089 15.7966 46.217C15.3193 47.425 15.1943 48.7543 15.4374 50.0368C15.6805 51.3193 16.2808 52.4974 17.1624 53.4222C18.0439 54.3469 19.1672 54.9767 20.3901 55.2319C21.613 55.4871 22.8806 55.3562 24.0326 54.8559C25.1846 54.3555 26.1692 53.5082 26.862 52.4209C27.5547 51.3337 27.9245 50.0555 27.9245 48.7479C27.9224 46.9954 27.2578 45.3152 26.0763 44.0759C24.8948 42.8366 23.2928 42.1392 21.6217 42.1367ZM21.6217 50.6917C21.2548 50.6919 20.896 50.5781 20.5908 50.3644C20.2856 50.1508 20.0476 49.847 19.9071 49.4915C19.7665 49.136 19.7297 48.7448 19.8012 48.3674C19.8727 47.9899 20.0494 47.6432 20.3089 47.3711C20.5684 47.099 20.899 46.9137 21.2589 46.8387C21.6188 46.7636 21.9919 46.8023 22.3308 46.9497C22.6698 47.0971 22.9595 47.3466 23.1632 47.6667C23.3669 47.9868 23.4755 48.363 23.4752 48.7479C23.4749 49.2633 23.2795 49.7575 22.932 50.1219C22.5845 50.4864 22.1132 50.6913 21.6217 50.6917Z" fill="#6E6E6E"/>
</g>
<defs>
<filter id="filter0_dd_363_315" x="-3.23438" y="-2.17676" width="91.9544" height="64.6116" filterUnits="userSpaceOnUse" color-interpolation-filters="sRGB">
<feFlood flood-opacity="0" result="BackgroundImageFix"/>
<feColorMatrix in="SourceAlpha" type="matrix" values="0 0 0 0 0 0 0 0 0 0 0 0 0 0 0 0 0 0 127 0" result="hardAlpha"/>
<feOffset dx="1.2833" dy="1.2833"/>
<feGaussianBlur stdDeviation="1.77159"/>
<feColorMatrix type="matrix" values="0 0 0 0 0.835529 0 0 0 0 0.835294 0 0 0 0 0.847059 0 0 0 0.4 0"/>
<feBlend mode="normal" in2="BackgroundImageFix" result="effect1_dropShadow_363_315"/>
<feColorMatrix in="SourceAlpha" type="matrix" values="0 0 0 0 0 0 0 0 0 0 0 0 0 0 0 0 0 0 127 0" result="hardAlpha"/>
<feOffset dx="-1.92495" dy="-1.92495"/>
<feGaussianBlur stdDeviation="2.12591"/>
<feColorMatrix type="matrix" values="0 0 0 0 1 0 0 0 0 1 0 0 0 0 1 0 0 0 1 0"/>
<feBlend mode="normal" in2="effect1_dropShadow_363_315" result="effect2_dropShadow_363_315"/>
<feBlend mode="normal" in="SourceGraphic" in2="effect2_dropShadow_363_315" result="shape"/>
</filter>
</defs>
</svg>
