<svg width="19" height="18" viewBox="0 0 19 18" fill="none" xmlns="http://www.w3.org/2000/svg">
<g clip-path="url(#clip0_68_1500)">
<path d="M9.68164 18C14.6522 18 18.6816 13.9706 18.6816 9C18.6816 4.02944 14.6522 0 9.68164 0C4.71108 0 0.681641 4.02944 0.681641 9C0.681641 13.9706 4.71108 18 9.68164 18Z" fill="#00A886"/>
<path fill-rule="evenodd" clip-rule="evenodd" d="M14.4906 5.78095C14.8316 6.12335 14.8305 6.67737 14.4881 7.0184L9.26356 12.2222C8.92163 12.5628 8.36853 12.5622 8.0273 12.221L5.29531 9.48862C4.95362 9.14688 4.95365 8.59286 5.29539 8.25117C5.63712 7.90947 6.19115 7.90951 6.53284 8.25125L8.64733 10.366L13.2531 5.77849C13.5955 5.43746 14.1496 5.43856 14.4906 5.78095Z" fill="white"/>
</g>
<defs>
<clipPath id="clip0_68_1500">
<rect width="18" height="18" fill="white" transform="translate(0.681641)"/>
</clipPath>
</defs>
</svg>
