<svg width="73" height="74" viewBox="0 0 73 74" fill="none" xmlns="http://www.w3.org/2000/svg">
<g clip-path="url(#clip0_462_3681)">
<path d="M67.5679 69.4141V46.5976H42.9936V69.4141H38.7162V42.3202H53.1421V17.926H48.3336V8.36881H42.8923V0.691406H38.615V8.36881H33.1737V17.926H28.3651V69.4141H24.0877V27.4833H5.43208V69.4141H0V73.6914H73V69.4141H67.5679ZM43.3935 23.2059H47.6709V27.4833H43.3935V23.2059ZM43.3935 32.7631H47.6709V37.0404H43.3935V32.7631ZM16.8041 67.7366H12.5268V63.4593H16.8041V67.7366ZM16.8041 57.5045H12.5268V53.2272H16.8041V57.5045ZM16.8041 47.2725H12.5268V42.9952H16.8041V47.2725ZM16.8041 37.0404H12.5268V32.7631H16.8041V37.0404ZM38.1137 37.0404H33.8364V32.7631H38.1137V37.0404ZM38.1137 27.4833H33.8364V23.2059H38.1137V27.4833ZM38.6149 13.6486H42.8922V17.926H38.6149V13.6486ZM52.6109 69.4141H48.3336V52.2477H52.6109V69.4141ZM62.2281 69.4141H57.9507V52.2477H62.2281V69.4141Z" fill="#A1A8AE"/>
</g>
<defs>
<clipPath id="clip0_462_3681">
<rect width="73" height="73" fill="white" transform="translate(0 0.689453)"/>
</clipPath>
</defs>
</svg>
