<svg width="34" height="25" viewBox="0 0 34 25" fill="none" xmlns="http://www.w3.org/2000/svg">
<g clip-path="url(#clip0_750_1165)">
<path d="M31.9059 0.383789H1.36257C0.69634 0.383789 0.15625 0.923879 0.15625 1.59011V2.38748C0.15625 3.05371 0.69634 3.5938 1.36257 3.5938H31.9059C32.5721 3.5938 33.1122 3.05371 33.1122 2.38748V1.59011C33.1122 0.923879 32.5721 0.383789 31.9059 0.383789Z" fill="#A1A8AE"/>
<path d="M0.156571 14.9888V17.6993C0.147914 18.5827 0.314429 19.459 0.646493 20.2777C0.978556 21.0963 1.46958 21.841 2.09119 22.4687C2.71279 23.0965 3.45265 23.5948 4.268 23.9348C5.08334 24.2749 5.958 24.45 6.84143 24.45C7.72485 24.45 8.59951 24.2749 9.41486 23.9348C10.2302 23.5948 10.9701 23.0965 11.5917 22.4687C12.2133 21.841 12.7043 21.0963 13.0364 20.2777C13.3684 19.459 13.5349 18.5827 13.5263 17.6993V14.9888H0.156571Z" fill="#A1A8AE"/>
<path d="M20.2454 14.9888V17.6993C20.2368 18.5827 20.4033 19.459 20.7354 20.2777C21.0674 21.0963 21.5584 21.841 22.1801 22.4687C22.8017 23.0965 23.5415 23.5948 24.3569 23.9348C25.1722 24.2749 26.0469 24.45 26.9303 24.45C27.8137 24.45 28.6884 24.2749 29.5037 23.9348C30.3191 23.5948 31.0589 23.0965 31.6805 22.4687C32.3021 21.841 32.7932 21.0963 33.1252 20.2777C33.4573 19.459 33.6238 18.5827 33.6151 17.6993V14.9888H20.2454Z" fill="#A1A8AE"/>
<path d="M1.57987 13.6252H0.177734L6.78202 1.54395L7.89397 2.18595L1.57987 13.6252Z" fill="#A1A8AE"/>
<path d="M12.1126 13.6252H13.5141L6.9098 1.54395L5.79785 2.18595L12.1126 13.6252Z" fill="#A1A8AE"/>
<path d="M21.6824 13.6252H20.2803L26.8846 1.54395L27.9965 2.18595L21.6824 13.6252Z" fill="#A1A8AE"/>
<path d="M32.2161 13.6252H33.6176L27.0133 1.54395L25.9014 2.18595L32.2161 13.6252Z" fill="#A1A8AE"/>
</g>
<defs>
<clipPath id="clip0_750_1165">
<rect width="33.4612" height="24" fill="white" transform="translate(0.15625 0.383789)"/>
</clipPath>
</defs>
</svg>
