<svg width="21" height="21" viewBox="0 0 21 21" fill="none" xmlns="http://www.w3.org/2000/svg">
<g clip-path="url(#clip0_462_2903)">
<path d="M1.5 10L1.5 17.5C1.5 18.6046 2.39543 19.5 3.5 19.5L18.5 19.5C19.6046 19.5 20.5 18.6046 20.5 17.5L20.5 10" stroke="#1D252D" stroke-width="1.4"/>
<path d="M10.505 15.495C10.7784 15.7683 11.2216 15.7683 11.495 15.495L15.9497 11.0402C16.2231 10.7668 16.2231 10.3236 15.9497 10.0503C15.6764 9.77688 15.2332 9.77688 14.9598 10.0503L11 14.0101L7.0402 10.0503C6.76684 9.77689 6.32362 9.77689 6.05025 10.0503C5.77689 10.3236 5.77689 10.7668 6.05025 11.0402L10.505 15.495ZM10.3 3.0598e-08L10.3 15L11.7 15L11.7 -3.0598e-08L10.3 3.0598e-08Z" fill="black"/>
</g>
<defs>
<clipPath id="clip0_462_2903">
<rect width="21" height="21" fill="white" transform="translate(0 21) rotate(-90)"/>
</clipPath>
</defs>
</svg>
