<svg width="14" height="14" viewBox="0 0 14 14" fill="none" xmlns="http://www.w3.org/2000/svg">
<g clip-path="url(#clip0_612_3312)">
<path d="M7 2.82715C4.32515 2.82715 1.89946 4.29058 0.109543 6.66759C-0.0365143 6.86233 -0.0365143 7.1344 0.109543 7.32914C1.89946 9.70901 4.32515 11.1724 7 11.1724C9.67485 11.1724 12.1005 9.70901 13.8905 7.33201C14.0365 7.13726 14.0365 6.8652 13.8905 6.67045C12.1005 4.29058 9.67485 2.82715 7 2.82715ZM7.19188 9.93812C5.41628 10.0498 3.94998 8.58638 4.06168 6.80792C4.15332 5.34162 5.34182 4.15312 6.80812 4.06147C8.58372 3.94978 10.05 5.41322 9.93832 7.19168C9.84382 8.65511 8.65531 9.84362 7.19188 9.93812ZM7.1031 8.58065C6.14657 8.64079 5.35614 7.85323 5.41915 6.8967C5.46783 6.10627 6.10934 5.46763 6.89977 5.41608C7.8563 5.35594 8.64672 6.1435 8.58372 7.10003C8.53217 7.89332 7.89066 8.53197 7.1031 8.58065Z" fill="white"/>
</g>
<defs>
<clipPath id="clip0_612_3312">
<rect width="14" height="14" fill="white"/>
</clipPath>
</defs>
</svg>
