<svg width="22" height="23" viewBox="0 0 22 23" fill="none" xmlns="http://www.w3.org/2000/svg">
<g clip-path="url(#clip0_518_2407)">
<path d="M8.30504 8.295C8.7937 8.29769 9.2751 8.41345 9.71156 8.63321C10.148 8.85297 10.5277 9.17076 10.8209 9.56172L12.0966 8.27695C11.3335 7.2848 9.86524 6.49805 8.30504 6.49805C5.57395 6.49805 3.33398 8.70836 3.33398 11.4395C3.33398 14.1705 5.57395 16.3809 8.30504 16.3809C9.38069 16.3817 10.4272 16.031 11.2851 15.3823C12.1431 14.7335 12.7656 13.8221 13.0578 12.787C13.1846 12.3491 13.2481 11.8953 13.2464 11.4395V10.9904H8.75449V12.787H11.1354C10.883 13.3243 10.4827 13.7787 9.98149 14.097C9.48026 14.4152 8.89876 14.5841 8.30504 14.5839C6.57125 14.5839 5.13051 13.1732 5.13051 11.4395C5.13051 9.70566 6.57125 8.295 8.30504 8.295Z" fill="white"/>
<path d="M17.2891 9.19336H15.4926V10.5409H14.1447V12.3378H15.4926V13.6853H17.2891V12.3378H18.6667V10.5409H17.2891V9.19336Z" fill="white"/>
</g>
<defs>
<clipPath id="clip0_518_2407">
<rect width="22" height="22" fill="white" transform="translate(0 0.568359)"/>
</clipPath>
</defs>
</svg>
