<svg width="18" height="31" viewBox="0 0 18 31" fill="none" xmlns="http://www.w3.org/2000/svg">
<g clip-path="url(#clip0_823_1249)">
<path d="M7.53067 0.551284C7.53067 0.426036 7.48057 0.300788 7.38038 0.20059C7.28018 0.100392 7.15493 0.050293 7.02968 0.050293H6.05275C5.9275 0.050293 5.80225 0.100392 5.70206 0.20059C5.60186 0.300788 5.55176 0.426036 5.55176 0.551284V14.3035H7.50562V0.551284H7.53067Z" />
<path d="M8.4826 18.3862C7.80626 19.263 7.40547 20.3902 7.40547 21.3922V27.7297H0.64209L1.56892 19.0876C1.56892 18.9123 1.64407 18.7369 1.76932 18.6117C1.89457 18.4864 2.06991 18.4113 2.24526 18.4113H8.4826V18.3862Z" />
<path d="M4.32388 16.6581H8.75765C8.8328 16.6581 8.8829 16.6331 8.933 16.583C8.9831 16.5329 9.00815 16.4828 9.00815 16.4076V15.1802C9.00815 15.0549 8.95805 14.9297 8.85785 14.8295C8.75765 14.7293 8.63241 14.6792 8.50716 14.6792H4.54933C4.42408 14.6792 4.29884 14.7293 4.19864 14.8295C4.09844 14.9297 4.04834 15.0549 4.04834 15.1802V16.4076C4.04834 16.4828 4.07339 16.5329 4.12349 16.583C4.19864 16.6331 4.24874 16.6581 4.32388 16.6581Z" />
<path d="M13.292 14.7294H14.9203V15.005C14.9203 15.0801 14.9453 15.1553 14.9954 15.2054C15.0455 15.2555 15.1207 15.2805 15.1958 15.2805H16.5485C16.6236 15.2805 16.6988 15.2555 16.7489 15.2054C16.799 15.1553 16.824 15.0801 16.824 15.005V13.3517C16.824 13.2765 16.799 13.2264 16.7489 13.1763C16.6988 13.1262 16.6487 13.1012 16.5735 13.0761L10.0106 12.2495C9.93541 12.2495 9.86026 12.2746 9.81016 12.2996C9.76006 12.3497 9.70996 12.3998 9.70996 12.475V14.4288C9.70996 14.504 9.73501 14.5791 9.78511 14.6292C9.83521 14.6793 9.91036 14.7044 9.98551 14.7044H11.6137V15.531H13.2419L13.292 14.7294Z" />
<path d="M14.394 17.0841V16.1823C14.394 16.1071 14.369 16.032 14.3189 15.9819C14.2688 15.9318 14.1936 15.9067 14.1185 15.9067H13.2919H11.6636H10.837C10.7619 15.9067 10.6867 15.9318 10.6366 15.9819C10.5865 16.032 10.5615 16.1071 10.5615 16.1823V17.0841C8.85809 17.7604 7.83105 19.7644 7.83105 21.3675V28.7321C7.83105 28.8073 7.8561 28.8824 7.9062 28.9325C7.9563 28.9826 8.03145 29.0077 8.1066 29.0077H16.8489C16.924 29.0077 16.9992 28.9826 17.0493 28.9325C17.0994 28.8824 17.1244 28.8073 17.1244 28.7321V21.3675C17.1244 19.7644 16.0974 17.7604 14.394 17.0841Z" />
<path d="M12.4653 21.1668C13.9933 21.1668 15.2458 22.4192 15.2458 23.9473C15.2458 25.4753 13.9933 26.7278 12.4653 26.7278C10.9373 26.7278 9.68483 25.4753 9.68483 23.9473C9.68483 22.4192 10.9373 21.1668 12.4653 21.1668ZM12.4653 20.791C10.7119 20.791 9.30908 22.1938 9.30908 23.9473C9.30908 25.7007 10.7119 27.1035 12.4653 27.1035C14.2188 27.1035 15.6216 25.7007 15.6216 23.9473C15.6216 22.1938 14.2188 20.791 12.4653 20.791Z" />
<path d="M12.4652 29.9092C15.0203 29.9092 17.0994 29.4083 17.0994 28.782C17.0994 28.1558 15.0203 27.6548 12.4652 27.6548C9.91017 27.6548 7.83105 28.1558 7.83105 28.782C7.83105 29.4083 9.91017 29.9092 12.4652 29.9092Z" />
<path d="M9.91022 17.184C9.50943 17.3844 9.13369 17.6599 8.83309 17.9856H2.67091C2.64586 17.9856 2.59576 17.9856 2.57071 17.9605C2.54566 17.9605 2.52061 17.9355 2.49556 17.9104C2.44546 17.8603 2.42041 17.8102 2.42041 17.7351C2.42041 17.6599 2.44546 17.6098 2.49556 17.5597C2.64586 17.4094 2.8212 17.2341 2.99655 17.0838C3.04665 17.0337 3.09675 17.0337 3.14685 17.0337H9.63468C9.68478 17.0337 9.75993 17.0587 9.78498 17.0838L9.91022 17.184Z" />
<path d="M6.05235 26.7783C6.52829 26.7783 6.97918 26.7783 7.43008 26.8034V28.632C6.97918 28.657 6.52829 28.657 6.05235 28.657C3.0965 28.657 0.716797 28.2312 0.716797 27.7052C0.716797 27.7052 0.716797 27.7052 0.716797 27.6801C0.741846 27.1791 3.12155 26.7783 6.05235 26.7783Z" />
<path d="M10.1857 25.7261H7.83105V26.1018H10.1857V25.7261Z" />
<path d="M17.1247 25.7261H14.77V26.1018H17.1247V25.7261Z" />
<path d="M9.98532 22.2695H7.83105V22.6453H9.98532V22.2695Z" />
<path d="M17.1243 22.2695H14.9951V22.6453H17.1243V22.2695Z" />
</g>
<defs>
<clipPath id="clip0_823_1249">
<rect width="16.7832" height="30.0595"  transform="translate(0.441406)"/>
</clipPath>
</defs>
</svg>
