<svg width="30" height="35" viewBox="0 0 30 35" fill="none" xmlns="http://www.w3.org/2000/svg">
<g clip-path="url(#clip0_567_965)">
<path d="M5.71659 25.1068L11.2155 15.3243C11.2155 15.3243 10.6657 14.8543 10.4687 14.565C9.98874 13.8589 9.45592 12.1795 9.37226 11.3292C9.1217 8.79628 12.2655 6.10111 15.9536 4.68701C20.037 3.12331 24.5338 3.40335 25.8407 5.8082C26.1387 6.35575 26.56 7.55138 26.6407 8.16907C26.9863 10.8071 23.9213 13.6601 19.9825 15.168C18.5561 15.7253 17.057 16.0744 15.5311 16.2044L15.5095 16.2065C15.0507 16.8101 14.3886 17.8009 13.684 18.8896L13.6773 18.9081L13.6798 18.901L8.81666 26.7886C8.77012 26.8656 8.70645 26.9309 8.63059 26.9794C8.55473 27.0278 8.46872 27.0582 8.37924 27.068L6.60847 29.7044C6.37706 30.0924 5.74314 30.0509 5.08454 29.6944C4.42594 29.3379 4.03455 28.7792 4.22527 28.4321L5.73775 25.6859C5.73775 25.6859 5.62486 25.2772 5.71531 25.1103" />
<path d="M13.5002 13.2432C13.2396 12.4996 13.5257 11.6136 14.3055 10.753C15.0852 9.89236 16.2768 9.13758 17.6504 8.65864C18.2482 8.44605 18.8659 8.29387 19.494 8.20438C21.5846 7.92131 23.3337 8.46036 23.7528 9.66214C24.2922 11.2058 22.4311 13.2647 19.601 14.2511C16.771 15.2375 14.0396 14.7869 13.4966 13.242L13.5002 13.2432ZM19.6252 14.3215C22.4914 13.3204 24.3729 11.2192 23.82 9.63586C23.2672 8.05256 20.4862 7.5799 17.6208 8.58131C16.2359 9.06409 15.0373 9.81631 14.2455 10.6964C13.4537 11.5765 13.1599 12.4975 13.4295 13.2682C13.8604 14.5031 15.6489 15.0624 17.7757 14.7727C18.4068 14.6851 19.0276 14.5344 19.6287 14.3228" />
<path d="M19.6252 14.3215C22.4914 13.3204 24.3729 11.2192 23.82 9.63586C23.2672 8.05256 20.4862 7.5799 17.6208 8.58131C16.2359 9.06409 15.0373 9.81631 14.2455 10.6964C13.4537 11.5765 13.1599 12.4975 13.4295 13.2682C13.8604 14.5031 15.6489 15.0624 17.7757 14.7727C18.4068 14.6851 19.0276 14.5344 19.6287 14.3228M13.5002 13.2432C13.2396 12.4996 13.5257 11.6136 14.3055 10.753C15.0852 9.89236 16.2768 9.13758 17.6504 8.65864C18.2482 8.44605 18.8659 8.29387 19.494 8.20438C21.5846 7.92131 23.3337 8.46036 23.7528 9.66214C24.2922 11.2058 22.4311 13.2647 19.601 14.2511C16.771 15.2375 14.0396 14.7869 13.4966 13.242L13.5002 13.2432Z" stroke="white" stroke-width="0.0607181"/>
<path d="M19.4425 13.7981C18.3689 14.1734 17.2796 14.2994 16.3775 14.1535C15.4754 14.0077 14.883 13.6166 14.6835 13.0412C14.4841 12.4659 14.7084 11.791 15.319 11.1224C15.9297 10.4537 16.8676 9.86916 17.9394 9.49031C18.4145 9.32377 18.9049 9.20464 19.4034 9.13464C21.0248 8.91468 22.3797 9.32146 22.6996 10.2437C23.1141 11.4309 21.6534 13.0251 19.444 13.7967L19.4425 13.7981ZM22.7675 10.2236C22.3393 8.99769 20.1624 8.64017 17.9125 9.42487C16.8277 9.80101 15.8845 10.3866 15.2618 11.0747C14.6391 11.7629 14.402 12.4758 14.6103 13.0732C14.8186 13.6707 15.4423 14.0822 16.3642 14.2312C16.9014 14.3105 17.4473 14.311 17.9847 14.2325C18.4885 14.1632 18.9841 14.0436 19.464 13.8755C21.7131 13.0905 23.1941 11.454 22.7659 10.228" />
<path d="M22.7675 10.2236C22.3393 8.99769 20.1624 8.64017 17.9125 9.42487C16.8277 9.80101 15.8845 10.3866 15.2618 11.0747C14.6391 11.7629 14.402 12.4758 14.6103 13.0732C14.8186 13.6707 15.4423 14.0822 16.3642 14.2312C16.9014 14.3105 17.4473 14.311 17.9847 14.2325C18.4885 14.1632 18.9841 14.0436 19.464 13.8755C21.7131 13.0905 23.1941 11.454 22.7659 10.228M19.4425 13.7981C18.3689 14.1734 17.2796 14.2994 16.3775 14.1535C15.4754 14.0077 14.883 13.6166 14.6835 13.0412C14.4841 12.4659 14.7084 11.791 15.319 11.1224C15.9297 10.4537 16.8676 9.86916 17.9394 9.49031C18.4145 9.32377 18.9049 9.20464 19.4034 9.13464C21.0248 8.91468 22.3797 9.32146 22.6996 10.2437C23.1141 11.4309 21.6534 13.0251 19.444 13.7967L19.4425 13.7981Z" stroke="white" stroke-width="0.0607181"/>
<path d="M19.2521 13.3472C17.6732 13.8221 16.1797 13.515 15.9226 12.6633C15.7997 12.2549 15.9781 11.7801 16.4264 11.3258C16.8747 10.8714 17.5523 10.4865 18.3176 10.2537C18.587 10.1719 18.8624 10.1118 19.1413 10.0739C20.3857 9.90384 21.4348 10.2362 21.6462 10.9372C21.903 11.7898 20.8269 12.8698 19.2486 13.3459L19.2521 13.3472ZM21.7212 10.9168C21.4496 10.023 19.9167 9.69568 18.2994 10.1835C17.5183 10.4185 16.8348 10.8063 16.3732 11.2726C15.9116 11.739 15.7207 12.2481 15.8514 12.6842C16.0738 13.4209 17.1604 13.7729 18.4451 13.5986C18.7256 13.5605 19.0025 13.4999 19.2732 13.4175C20.8914 12.93 21.99 11.8075 21.7215 10.9159" />
<path d="M21.7212 10.9168C21.4496 10.023 19.9167 9.69568 18.2994 10.1835C17.5183 10.4185 16.8348 10.8063 16.3732 11.2726C15.9116 11.739 15.7207 12.2481 15.8514 12.6842C16.0738 13.4209 17.1604 13.7729 18.4451 13.5986C18.7256 13.5605 19.0025 13.4999 19.2732 13.4175C20.8914 12.93 21.99 11.8075 21.7215 10.9159M19.2521 13.3472C17.6732 13.8221 16.1797 13.515 15.9226 12.6633C15.7997 12.2549 15.9781 11.7801 16.4264 11.3258C16.8747 10.8714 17.5523 10.4865 18.3176 10.2537C18.587 10.1719 18.8624 10.1118 19.1413 10.0739C20.3857 9.90384 21.4348 10.2362 21.6462 10.9372C21.903 11.7898 20.8269 12.8698 19.2486 13.3459L19.2521 13.3472Z" stroke="white" stroke-width="0.0607181"/>
<path d="M20.4461 10.9002C20.4888 11.0151 20.4548 11.1499 20.3399 11.2801C20.2141 11.418 20.0565 11.5231 19.8808 11.5863C19.7863 11.6227 19.6879 11.6483 19.5877 11.6627C19.3033 11.7015 19.0686 11.6252 19.0038 11.4506C18.9166 11.2202 19.164 10.9194 19.5701 10.7619C19.9762 10.6043 20.3574 10.6712 20.4461 10.9002ZM20.3726 11.0862C20.3934 11.0356 20.3948 10.9792 20.3765 10.9276C20.3398 10.8318 20.2241 10.7728 20.0715 10.7631C20.1105 10.7853 20.1406 10.8201 20.157 10.8618C20.2172 11.0188 20.0522 11.2212 19.783 11.3222C19.721 11.3463 19.6565 11.3632 19.5907 11.3726C19.497 11.3911 19.4 11.3841 19.3099 11.3521C19.2834 11.3416 19.2592 11.3258 19.2388 11.3058C19.2185 11.2858 19.2023 11.2619 19.1913 11.2355C19.176 11.192 19.1757 11.1447 19.1905 11.101C19.0849 11.2137 19.0353 11.3338 19.0709 11.4302C19.1413 11.6139 19.4989 11.6553 19.8546 11.5162C20.0185 11.4576 20.1655 11.3599 20.283 11.2316C20.3211 11.1887 20.3515 11.1395 20.3726 11.0862Z"  stroke="white" stroke-width="0.0607181"/>
<path d="M19.7545 11.2571C19.6245 11.3162 19.4772 11.3247 19.3413 11.281C19.3069 11.2673 19.2791 11.2408 19.2638 11.2071C19.2562 11.1737 19.2576 11.139 19.2679 11.1064C19.2781 11.0738 19.2969 11.0445 19.3222 11.0216C19.3976 10.9392 19.492 10.8766 19.5972 10.8392C19.654 10.8173 19.7129 10.8018 19.7731 10.7928C19.9288 10.7718 20.0582 10.8069 20.0905 10.8902C20.1327 11.0039 19.9793 11.1718 19.7545 11.2571Z" />
<path d="M18.0879 11.8962C18.1315 12.0114 18.0966 12.1458 17.9817 12.276C17.8561 12.4139 17.6988 12.5191 17.5234 12.5826C17.4293 12.6184 17.3315 12.6435 17.2318 12.6575C17.1473 12.6714 17.0612 12.6736 16.9761 12.664C16.8056 12.6408 16.6876 12.5662 16.6437 12.4518C16.5583 12.23 16.7903 11.9416 17.1731 11.7825C17.1847 11.7778 17.1961 11.771 17.2087 11.7666L17.2245 11.7614C17.6256 11.6119 18.0011 11.6728 18.0879 11.8962ZM18.0183 11.9236C17.9952 11.8812 17.9621 11.8452 17.9218 11.8187C17.8814 11.7923 17.8352 11.7762 17.7871 11.772C17.8214 11.7953 17.8478 11.8285 17.8629 11.8671C17.8773 11.9175 17.8776 11.9708 17.8638 12.0213C17.85 12.0719 17.8226 12.1176 17.7846 12.1537C17.692 12.2556 17.5757 12.3331 17.4461 12.3796C17.3756 12.4068 17.3021 12.4255 17.2272 12.4352C17.0177 12.4645 16.8399 12.4068 16.7882 12.2757C16.7739 12.235 16.7716 12.1911 16.7815 12.1491C16.7477 12.1849 16.7236 12.2287 16.7113 12.2763C16.699 12.324 16.699 12.374 16.7113 12.4217C16.7444 12.5083 16.84 12.5679 16.9835 12.5862C17.1561 12.5995 17.3295 12.5746 17.4913 12.5131C17.6532 12.4516 17.7994 12.3552 17.9197 12.2306C18.0184 12.1174 18.0518 12.0093 18.0183 11.9236Z"  stroke="white" stroke-width="0.0607181"/>
<path d="M17.7916 12C17.7767 12.0378 17.7552 12.0727 17.7283 12.1032C17.6433 12.195 17.5377 12.2653 17.4202 12.3083C17.1673 12.4053 16.9113 12.3768 16.8618 12.2476C16.8124 12.1183 16.9426 11.9788 17.1455 11.8716C17.1754 11.8576 17.2057 11.8428 17.237 11.8303C17.3007 11.806 17.3668 11.789 17.4343 11.7797C17.6111 11.7555 17.7577 11.7978 17.7919 11.8898C17.8056 11.9252 17.8055 11.9646 17.7916 12Z" />
<path d="M20.088 12.4093C20.1761 12.64 19.9278 12.9404 19.5226 13.0983C19.4278 13.1355 19.3291 13.1613 19.2283 13.1753C18.9447 13.2144 18.7101 13.1381 18.6444 12.9632C18.5572 12.7327 18.8046 12.432 19.2107 12.2744C19.6168 12.1168 20.0031 12.1806 20.088 12.4093ZM20.0187 12.4358C19.9942 12.3921 19.9592 12.3552 19.9168 12.3285C19.8744 12.3018 19.826 12.2862 19.7761 12.283C19.8112 12.3062 19.8386 12.3394 19.8548 12.3782C19.9194 12.5478 19.7397 12.7687 19.4442 12.882C19.3765 12.9081 19.3061 12.9266 19.2344 12.937C19.1729 12.9456 19.1106 12.946 19.049 12.9382C18.9984 12.9364 18.9493 12.9209 18.9068 12.8934C18.8643 12.8659 18.83 12.8274 18.8077 12.782C18.7928 12.7407 18.7907 12.696 18.8016 12.6535C18.7652 12.6902 18.7387 12.7355 18.7248 12.7853C18.7109 12.8351 18.71 12.8876 18.7222 12.9378C18.7927 13.1214 19.1506 13.162 19.506 13.0237C19.8613 12.8855 20.0888 12.6203 20.0187 12.4358Z"  stroke="white" stroke-width="0.0607181"/>
<path d="M19.4149 12.8123C19.3013 12.8588 19.1781 12.8768 19.056 12.8648C19.017 12.8699 18.9775 12.8617 18.9439 12.8416C18.9102 12.8214 18.8842 12.7906 18.8702 12.7539C18.8562 12.7173 18.8549 12.6769 18.8667 12.6395C18.8784 12.602 18.9023 12.5696 18.9347 12.5474C19.0177 12.4571 19.1212 12.388 19.2365 12.346C19.2988 12.3228 19.3634 12.3063 19.4293 12.2968C19.6019 12.273 19.7456 12.3123 19.7825 12.4052C19.8289 12.5344 19.6618 12.7182 19.4149 12.8123Z"  stroke="white" stroke-width="0.0607181"/>
<path d="M5.4209 25.5254C5.4209 25.5254 5.54339 26.7913 8.4135 27.3033" stroke="white" stroke-width="0.37365"/>
<path d="M18.4575 8.19757C18.622 8.15149 18.7265 8.01145 18.691 7.88477C18.6555 7.7581 18.4934 7.69276 18.329 7.73884C18.1645 7.78491 18.06 7.92496 18.0955 8.05163C18.131 8.17831 18.2931 8.24365 18.4575 8.19757Z" />
<path d="M17.0747 8.61554C17.2391 8.56946 17.3437 8.42942 17.3082 8.30274C17.2727 8.17606 17.1106 8.11073 16.9462 8.1568C16.7817 8.20288 16.6772 8.34292 16.7127 8.4696C16.7482 8.59628 16.9103 8.66161 17.0747 8.61554Z" />
<path d="M13.0757 14.0355C13.2401 13.9894 13.3446 13.8493 13.3091 13.7227C13.2736 13.596 13.1116 13.5306 12.9471 13.5767C12.7827 13.6228 12.6782 13.7628 12.7137 13.8895C12.7492 14.0162 12.9113 14.0815 13.0757 14.0355Z" />
<path d="M13.7056 14.7366C13.87 14.6906 13.9745 14.5505 13.939 14.4238C13.9035 14.2972 13.7415 14.2318 13.577 14.2779C13.4126 14.324 13.3081 14.464 13.3436 14.5907C13.3791 14.7174 13.5411 14.7827 13.7056 14.7366Z" />
<path d="M14.6345 15.078C14.7601 15.0428 14.84 14.9357 14.8129 14.8389C14.7857 14.742 14.6618 14.692 14.5362 14.7272C14.4105 14.7625 14.3306 14.8695 14.3577 14.9664C14.3849 15.0633 14.5088 15.1133 14.6345 15.078Z" />
<path d="M15.5388 15.3085C15.6644 15.2733 15.7443 15.1662 15.7172 15.0693C15.69 14.9725 15.5661 14.9225 15.4405 14.9577C15.3148 14.9929 15.2349 15.1 15.262 15.1969C15.2892 15.2938 15.4131 15.3437 15.5388 15.3085Z" />
<path d="M16.3246 15.2873C16.4251 15.2591 16.489 15.1738 16.4674 15.0965C16.4458 15.0193 16.3468 14.9795 16.2464 15.0077C16.1459 15.0358 16.082 15.1212 16.1036 15.1984C16.1252 15.2756 16.2242 15.3154 16.3246 15.2873Z" />
<path d="M15.7925 9.28936C15.9569 9.24329 16.0614 9.10324 16.0259 8.97657C15.9904 8.84989 15.8284 8.78456 15.6639 8.83063C15.4995 8.87671 15.395 9.01675 15.4305 9.14343C15.466 9.2701 15.6281 9.33544 15.7925 9.28936Z" />
<path d="M14.5972 9.94366C14.7616 9.89759 14.8661 9.75754 14.8306 9.63087C14.7951 9.50419 14.6331 9.43885 14.4686 9.48493C14.3042 9.53101 14.1997 9.67105 14.2352 9.79773C14.2707 9.9244 14.4327 9.98974 14.5972 9.94366Z" />
<path d="M13.686 10.8284C13.8505 10.7824 13.955 10.6423 13.9195 10.5156C13.884 10.389 13.7219 10.3236 13.5575 10.3697C13.3931 10.4158 13.2885 10.5558 13.324 10.6825C13.3595 10.8092 13.5216 10.8745 13.686 10.8284Z" />
<path d="M13.0913 11.6839C13.2557 11.6378 13.3603 11.4978 13.3248 11.3711C13.2893 11.2444 13.1272 11.1791 12.9628 11.2252C12.7983 11.2712 12.6938 11.4113 12.7293 11.538C12.7648 11.6646 12.9269 11.73 13.0913 11.6839Z" />
<path d="M12.8189 12.5023C12.9833 12.4562 13.0878 12.3161 13.0523 12.1895C13.0168 12.0628 12.8547 11.9974 12.6903 12.0435C12.5259 12.0896 12.4214 12.2296 12.4569 12.3563C12.4923 12.483 12.6544 12.5483 12.8189 12.5023Z" />
<path d="M12.7788 13.3284C12.9432 13.2824 13.0478 13.1423 13.0123 13.0156C12.9768 12.889 12.8147 12.8236 12.6503 12.8697C12.4858 12.9158 12.3813 13.0558 12.4168 13.1825C12.4523 13.3092 12.6144 13.3745 12.7788 13.3284Z" />
<path d="M19.8755 8.00421C20.0399 7.95813 20.1444 7.81809 20.1089 7.69141C20.0734 7.56474 19.9114 7.4994 19.7469 7.54548C19.5825 7.59155 19.478 7.7316 19.5135 7.85827C19.549 7.98495 19.7111 8.05029 19.8755 8.00421Z" />
<path d="M21.2339 7.95147C21.3983 7.9054 21.5028 7.76535 21.4673 7.63868C21.4318 7.512 21.2698 7.44666 21.1053 7.49274C20.9409 7.53882 20.8364 7.67886 20.8719 7.80554C20.9074 7.93221 21.0695 7.99755 21.2339 7.95147Z" />
<path d="M22.436 8.14093C22.6005 8.09485 22.705 7.95481 22.6695 7.82813C22.634 7.70146 22.4719 7.63612 22.3075 7.6822C22.1431 7.72827 22.0385 7.86832 22.074 7.99499C22.1095 8.12167 22.2716 8.187 22.436 8.14093Z" />
<path d="M23.4019 8.55304C23.5663 8.50696 23.6708 8.36692 23.6353 8.24024C23.5998 8.11357 23.4377 8.04823 23.2733 8.0943C23.1089 8.14038 23.0044 8.28043 23.0399 8.4071C23.0754 8.53378 23.2374 8.59911 23.4019 8.55304Z" />
<path d="M24.0835 9.10772C24.2479 9.06165 24.3525 8.9216 24.317 8.79493C24.2815 8.66825 24.1194 8.60291 23.955 8.64899C23.7905 8.69507 23.686 8.83511 23.7215 8.96179C23.757 9.08846 23.9191 9.1538 24.0835 9.10772Z" />
<path d="M24.4468 9.78155C24.6112 9.73547 24.7157 9.59543 24.6802 9.46876C24.6447 9.34208 24.4827 9.27674 24.3182 9.32282C24.1538 9.3689 24.0493 9.50894 24.0848 9.63562C24.1203 9.76229 24.2824 9.82763 24.4468 9.78155Z" />
<path d="M24.4898 10.5569C24.6542 10.5109 24.7587 10.3708 24.7232 10.2441C24.6877 10.1175 24.5256 10.0521 24.3612 10.0982C24.1968 10.1443 24.0923 10.2843 24.1278 10.411C24.1632 10.5377 24.3253 10.603 24.4898 10.5569Z" />
<path d="M24.1866 11.4116C24.3207 11.374 24.406 11.2598 24.377 11.1564C24.3481 11.0531 24.2159 10.9998 24.0817 11.0374C23.9476 11.075 23.8623 11.1892 23.8913 11.2926C23.9202 11.3959 24.0525 11.4492 24.1866 11.4116Z" />
<path d="M23.5821 12.2671C23.7162 12.2295 23.8015 12.1152 23.7725 12.0119C23.7436 11.9086 23.6114 11.8553 23.4772 11.8929C23.3431 11.9305 23.2578 12.0447 23.2868 12.148C23.3158 12.2514 23.448 12.3046 23.5821 12.2671Z" />
<path d="M22.7437 13.0277C22.848 12.9985 22.9144 12.9099 22.892 12.83C22.8696 12.75 22.7668 12.7089 22.6625 12.7381C22.5582 12.7673 22.4918 12.8559 22.5142 12.9358C22.5366 13.0158 22.6394 13.0569 22.7437 13.0277Z" />
<path d="M21.647 13.7816C21.7513 13.7524 21.8177 13.6639 21.7953 13.5839C21.7729 13.5039 21.6702 13.4628 21.5658 13.492C21.4615 13.5212 21.3951 13.6098 21.4175 13.6897C21.4399 13.7697 21.5427 13.8109 21.647 13.7816Z" />
<path d="M20.5636 14.2967C20.645 14.2738 20.6969 14.2046 20.6793 14.142C20.6618 14.0794 20.5815 14.0472 20.5001 14.07C20.4186 14.0928 20.3668 14.1621 20.3843 14.2247C20.4018 14.2873 20.4821 14.3195 20.5636 14.2967Z" />
<path d="M19.1672 14.7667C19.2484 14.744 19.3 14.675 19.2826 14.6127C19.2651 14.5503 19.1852 14.5182 19.104 14.5409C19.0228 14.5636 18.9712 14.6326 18.9886 14.6949C19.0061 14.7573 19.0861 14.7894 19.1672 14.7667Z" />
<path d="M17.8723 15.0597C17.9535 15.037 18.0051 14.968 17.9877 14.9056C17.9702 14.8433 17.8902 14.8111 17.8091 14.8339C17.7279 14.8566 17.6763 14.9256 17.6937 14.9879C17.7112 15.0503 17.7911 15.0824 17.8723 15.0597Z" />
<path d="M17.1223 15.2101C17.2035 15.1874 17.2551 15.1184 17.2377 15.056C17.2202 14.9937 17.1403 14.9615 17.0591 14.9842C16.9779 15.007 16.9263 15.0759 16.9437 15.1383C16.9612 15.2007 17.0411 15.2328 17.1223 15.2101Z" />
<path d="M20.48 8.82257C20.6444 8.77649 20.7489 8.63645 20.7134 8.50977C20.6779 8.3831 20.5159 8.31776 20.3514 8.36384C20.187 8.40991 20.0825 8.54996 20.118 8.67663C20.1535 8.80331 20.3156 8.86865 20.48 8.82257Z" />
<path d="M18.9038 8.9378C19.0682 8.89173 19.1728 8.75168 19.1373 8.62501C19.1018 8.49833 18.9397 8.43299 18.7753 8.47907C18.6108 8.52515 18.5063 8.66519 18.5418 8.79187C18.5773 8.91854 18.7394 8.98388 18.9038 8.9378Z" />
<path d="M21.7642 8.98858C21.9286 8.94251 22.0331 8.80246 21.9976 8.67579C21.9621 8.54911 21.8 8.48377 21.6356 8.52985C21.4712 8.57593 21.3667 8.71597 21.4022 8.84265C21.4377 8.96932 21.5997 9.03466 21.7642 8.98858Z" />
<path d="M22.7261 9.42218C22.8905 9.3761 22.995 9.23606 22.9595 9.10938C22.924 8.98271 22.762 8.91737 22.5975 8.96345C22.4331 9.00952 22.3286 9.14957 22.3641 9.27624C22.3996 9.40292 22.5616 9.46825 22.7261 9.42218Z" />
<path d="M23.3384 10.0452C23.5028 9.99915 23.6073 9.8591 23.5718 9.73243C23.5363 9.60575 23.3743 9.54041 23.2098 9.58649C23.0454 9.63257 22.9409 9.77261 22.9764 9.89929C23.0119 10.026 23.174 10.0913 23.3384 10.0452Z" />
<path d="M23.3911 10.9085C23.5555 10.8624 23.6601 10.7224 23.6246 10.5957C23.5891 10.469 23.427 10.4037 23.2626 10.4498C23.0981 10.4958 22.9936 10.6359 23.0291 10.7626C23.0646 10.8892 23.2267 10.9546 23.3911 10.9085Z" />
<path d="M23.0556 11.7373C23.1798 11.7025 23.2586 11.5966 23.2318 11.5007C23.2049 11.4048 23.0825 11.3553 22.9583 11.3901C22.8341 11.4249 22.7552 11.5308 22.782 11.6267C22.8089 11.7226 22.9314 11.7721 23.0556 11.7373Z" />
<path d="M22.2595 12.6499C22.3623 12.6211 22.4278 12.5337 22.4056 12.4547C22.3835 12.3757 22.2822 12.335 22.1794 12.3638C22.0765 12.3927 22.0111 12.48 22.0332 12.559C22.0554 12.638 22.1567 12.6787 22.2595 12.6499Z" />
<path d="M17.561 9.38116C17.7255 9.33508 17.83 9.19504 17.7945 9.06837C17.759 8.94169 17.5969 8.87635 17.4325 8.92243C17.2681 8.96851 17.1635 9.10855 17.199 9.23523C17.2345 9.3619 17.3966 9.42724 17.561 9.38116Z" />
<path d="M16.1694 10.0901C16.3339 10.0441 16.4384 9.90403 16.4029 9.77735C16.3674 9.65067 16.2053 9.58534 16.0409 9.63141C15.8765 9.67749 15.7719 9.81753 15.8074 9.94421C15.8429 10.0709 16.005 10.1362 16.1694 10.0901Z" />
<path d="M15.0835 10.8792C15.2479 10.8331 15.3525 10.6931 15.317 10.5664C15.2815 10.4397 15.1194 10.3744 14.955 10.4205C14.7905 10.4666 14.686 10.6066 14.7215 10.7333C14.757 10.8599 14.9191 10.9253 15.0835 10.8792Z" />
<path d="M14.2915 11.8421C14.4559 11.796 14.5605 11.656 14.525 11.5293C14.4895 11.4026 14.3274 11.3373 14.163 11.3834C13.9985 11.4294 13.894 11.5695 13.9295 11.6962C13.965 11.8228 14.1271 11.8882 14.2915 11.8421Z" />
<path d="M13.9995 12.7523C14.1639 12.7062 14.2685 12.5661 14.233 12.4395C14.1975 12.3128 14.0354 12.2474 13.871 12.2935C13.7065 12.3396 13.602 12.4796 13.6375 12.6063C13.673 12.733 13.8351 12.7983 13.9995 12.7523Z" />
<path d="M14.1756 13.5472C14.3113 13.5092 14.3975 13.3939 14.3683 13.2895C14.339 13.1852 14.2054 13.1315 14.0698 13.1695C13.9342 13.2075 13.8479 13.3228 13.8771 13.4272C13.9064 13.5315 14.04 13.5853 14.1756 13.5472Z" />
<path d="M14.8299 14.2347C14.9656 14.1967 15.0518 14.0814 15.0226 13.977C14.9933 13.8727 14.8597 13.819 14.7241 13.857C14.5885 13.895 14.5022 14.0103 14.5314 14.1147C14.5607 14.219 14.6943 14.2728 14.8299 14.2347Z" />
<path d="M15.8822 14.6248C15.995 14.5932 16.0667 14.4971 16.0423 14.4102C16.018 14.3232 15.9068 14.2784 15.794 14.31C15.6813 14.3416 15.6096 14.4377 15.634 14.5246C15.6583 14.6115 15.7695 14.6564 15.8822 14.6248Z" />
<path d="M17.0824 14.7029C17.1952 14.6713 17.2669 14.5752 17.2425 14.4883C17.2181 14.4014 17.107 14.3565 16.9942 14.3881C16.8815 14.4197 16.8098 14.5158 16.8341 14.6027C16.8585 14.6897 16.9697 14.7345 17.0824 14.7029Z" />
<path d="M18.4301 14.4974C18.5201 14.4722 18.5773 14.3958 18.5579 14.3268C18.5386 14.2577 18.45 14.2222 18.3601 14.2473C18.2702 14.2725 18.213 14.3489 18.2323 14.418C18.2517 14.487 18.3402 14.5226 18.4301 14.4974Z" />
<path d="M19.8714 14.0419C19.9514 14.0195 20.0022 13.9513 19.9849 13.8897C19.9677 13.8281 19.8889 13.7964 19.8089 13.8188C19.7289 13.8412 19.6781 13.9093 19.6953 13.9709C19.7126 14.0325 19.7914 14.0643 19.8714 14.0419Z" />
<path d="M21.2005 13.4169C21.2805 13.3945 21.3313 13.3263 21.314 13.2647C21.2968 13.2031 21.218 13.1714 21.138 13.1938C21.058 13.2162 21.0072 13.2843 21.0244 13.3459C21.0417 13.4075 21.1205 13.4393 21.2005 13.4169Z" />
<path d="M21.0757 9.90265C21.2401 9.85657 21.3446 9.71653 21.3091 9.58985C21.2736 9.46317 21.1116 9.39784 20.9471 9.44391C20.7827 9.48999 20.6782 9.63003 20.7137 9.75671C20.7492 9.88339 20.9113 9.94872 21.0757 9.90265Z" />
<path d="M22.0171 10.3792C22.1815 10.3331 22.286 10.1931 22.2505 10.0664C22.215 9.93974 22.053 9.8744 21.8885 9.92048C21.7241 9.96655 21.6196 10.1066 21.6551 10.2333C21.6906 10.3599 21.8527 10.4253 22.0171 10.3792Z" />
<path d="M22.3062 11.2151C22.4706 11.1691 22.5751 11.029 22.5396 10.9024C22.5041 10.7757 22.342 10.7103 22.1776 10.7564C22.0132 10.8025 21.9087 10.9425 21.9442 11.0692C21.9797 11.1959 22.1417 11.2612 22.3062 11.2151Z" />
<path d="M19.686 9.7796C19.8505 9.73352 19.955 9.59348 19.9195 9.4668C19.884 9.34013 19.7219 9.27479 19.5575 9.32087C19.3931 9.36694 19.2885 9.50699 19.324 9.63366C19.3595 9.76034 19.5216 9.82568 19.686 9.7796Z" />
<path d="M18.0786 10.1546C18.243 10.1085 18.3476 9.96848 18.3121 9.8418C18.2766 9.71513 18.1145 9.64979 17.9501 9.69587C17.7856 9.74194 17.6811 9.88199 17.7166 10.0087C17.7521 10.1353 17.9142 10.2007 18.0786 10.1546Z" />
<path d="M16.605 10.8558C16.7694 10.8097 16.8739 10.6697 16.8384 10.543C16.8029 10.4163 16.6409 10.351 16.4764 10.397C16.312 10.4431 16.2075 10.5832 16.243 10.7098C16.2785 10.8365 16.4406 10.9018 16.605 10.8558Z" />
<path d="M15.5913 11.7523C15.7557 11.7062 15.8603 11.5661 15.8248 11.4395C15.7893 11.3128 15.6272 11.2474 15.4628 11.2935C15.2983 11.3396 15.1938 11.4796 15.2293 11.6063C15.2648 11.733 15.4269 11.7983 15.5913 11.7523Z" />
<path d="M15.2261 12.764C15.3905 12.7179 15.495 12.5779 15.4595 12.4512C15.424 12.3245 15.262 12.2592 15.0975 12.3052C14.9331 12.3513 14.8286 12.4914 14.8641 12.618C14.8996 12.7447 15.0616 12.8101 15.2261 12.764Z" />
<path d="M15.5415 13.5921C15.7059 13.546 15.8105 13.406 15.775 13.2793C15.7395 13.1526 15.5774 13.0873 15.413 13.1334C15.2485 13.1794 15.144 13.3195 15.1795 13.4462C15.215 13.5728 15.3771 13.6382 15.5415 13.5921Z" />
<path d="M16.5649 14.0804C16.7294 14.0343 16.8339 13.8943 16.7984 13.7676C16.7629 13.6409 16.6008 13.5756 16.4364 13.6216C16.272 13.6677 16.1674 13.8078 16.2029 13.9344C16.2384 14.0611 16.4005 14.1265 16.5649 14.0804Z" />
<path d="M17.923 14.0541C18.0154 14.0282 18.0741 13.9496 18.0542 13.8786C18.0343 13.8076 17.9433 13.771 17.8509 13.7969C17.7585 13.8228 17.6997 13.9013 17.7196 13.9724C17.7395 14.0434 17.8306 14.08 17.923 14.0541Z" />
<path d="M20.9562 12.9877C21.0486 12.9618 21.1074 12.8832 21.0874 12.8122C21.0675 12.7412 20.9765 12.7046 20.8841 12.7305C20.7917 12.7564 20.7329 12.8349 20.7528 12.906C20.7727 12.977 20.8638 13.0136 20.9562 12.9877Z" />
<path d="M21.9142 12.081C22.0066 12.0551 22.0654 11.9765 22.0455 11.9055C22.0255 11.8344 21.9345 11.7978 21.8421 11.8237C21.7497 11.8496 21.6909 11.9282 21.7108 11.9992C21.7308 12.0703 21.8218 12.1069 21.9142 12.081Z" />
<path d="M26.2982 7.77783C27.3003 10.3155 24.4964 13.1669 20.05 14.9227C15.6037 16.6786 11.1703 16.5548 10.1684 14.0162C9.16657 11.4777 12.2763 8.29905 16.7233 6.54146C21.1703 4.78388 25.296 5.24017 26.2982 7.77783Z" stroke="white" stroke-width="0.37365"/>
</g>
<defs>
<clipPath id="clip0_567_965">
<rect width="15.9231" height="30.4113"  transform="translate(13.0674 0.271484) rotate(19.9659)"/>
</clipPath>
</defs>
</svg>
