<svg width="29" height="28" viewBox="0 0 29 28" fill="none" xmlns="http://www.w3.org/2000/svg">
<g clip-path="url(#clip0_824_1393)">
<path d="M5.2529 7.55052C5.17292 7.48754 5.0969 7.41971 5.02526 7.3474C3.62441 5.94655 3.87306 3.43204 5.57859 1.74402C7.28412 0.0560057 9.79863 -0.210154 11.182 1.18719C11.2543 1.25883 11.3221 1.33485 11.3851 1.41482C11.2212 1.27957 11.0124 1.21082 10.8002 1.22221C9.92121 1.22221 8.48534 2.0347 7.17205 3.34799C5.50855 5.01149 4.65053 6.88162 5.2529 7.55052Z" />
<path d="M5.87986 7.52232C5.77016 7.52657 5.66099 7.50498 5.56117 7.45928C5.52841 7.44689 5.49859 7.4278 5.47362 7.40325L5.4491 7.37523C5.01834 6.89544 5.70126 5.19341 7.37526 3.52291C8.601 2.29717 9.98083 1.47417 10.8143 1.47417C10.9503 1.46649 11.0851 1.50204 11.1996 1.57573L11.2591 1.62827L11.2941 1.6773C11.2959 1.68537 11.2959 1.69374 11.2941 1.70181V1.72633C11.5638 2.30417 10.8774 3.90114 9.30493 5.47709C8.1002 6.69932 6.71337 7.52232 5.87986 7.52232Z"/>
<path d="M9.53968 3.78921C9.55032 3.82879 9.55008 3.8705 9.53898 3.90995C9.52789 3.9494 9.50635 3.98512 9.47664 4.01335C9.4035 4.09496 9.31065 4.15645 9.20698 4.19195C9.15132 4.21244 9.09387 4.22768 9.03537 4.23748C8.98532 4.24289 8.93483 4.24289 8.88478 4.23748C8.84394 4.23538 8.80436 4.22264 8.76995 4.20052C8.73555 4.17841 8.70753 4.14769 8.68866 4.11141C8.63963 3.98183 8.77622 3.81373 9.00035 3.71917H9.02136C9.26651 3.62111 9.48714 3.65613 9.53968 3.78921ZM9.49765 3.80672C9.48589 3.78045 9.46633 3.75844 9.44162 3.74368C9.41785 3.72712 9.38998 3.71743 9.36107 3.71567C9.38184 3.729 9.39779 3.74864 9.4066 3.7717C9.41701 3.80116 9.41701 3.8333 9.4066 3.86276C9.39835 3.89195 9.38266 3.9185 9.36107 3.9398C9.30658 4.00001 9.23798 4.04574 9.16145 4.07288C9.12025 4.09033 9.07648 4.10098 9.03187 4.1044C8.9093 4.12191 8.80423 4.1044 8.77622 4.01335C8.7674 3.98842 8.7674 3.96123 8.77622 3.9363C8.75563 3.95781 8.74113 3.9844 8.73419 4.01335C8.72722 4.04093 8.72722 4.06981 8.73419 4.0974C8.7517 4.14993 8.80773 4.18495 8.89529 4.19546C8.99639 4.20316 9.09795 4.18882 9.19297 4.15343C9.28792 4.11579 9.37385 4.0585 9.44512 3.98533C9.49765 3.91879 9.51866 3.85575 9.49765 3.80672Z"  stroke="white" stroke-width="0.0350211"/>
<path d="M9.36459 3.85223C9.35634 3.8739 9.3445 3.89403 9.32957 3.91177C9.27811 3.96407 9.216 4.00468 9.14746 4.03084C8.99687 4.09038 8.84628 4.07287 8.81826 3.99582C8.79025 3.91877 8.86729 3.83823 8.98636 3.77519L9.0389 3.75067C9.07605 3.7364 9.1149 3.72698 9.15447 3.72266C9.25953 3.72266 9.34358 3.72266 9.36459 3.78569C9.37156 3.80733 9.37156 3.8306 9.36459 3.85223Z" />
<path d="M8.82846 4.90635C8.84122 4.94576 8.84204 4.98807 8.83082 5.02795C8.81961 5.06782 8.79685 5.1035 8.76542 5.13048C8.65051 5.2564 8.49362 5.3361 8.32416 5.35462C8.27434 5.36339 8.22338 5.36339 8.17356 5.35462C8.13315 5.3545 8.0936 5.34292 8.05951 5.32122C8.02541 5.29952 7.99817 5.2686 7.98095 5.23205C7.92842 5.09897 8.065 4.93086 8.29264 4.83631C8.29264 4.83631 8.29264 4.83631 8.31365 4.83631C8.5588 4.74175 8.77943 4.77677 8.82846 4.90635ZM8.78994 4.90635C8.77486 4.8813 8.75455 4.85979 8.7304 4.84331C8.7076 4.82793 8.68085 4.81942 8.65335 4.8188C8.67282 4.83268 8.6875 4.85225 8.69538 4.87483C8.70405 4.90337 8.70405 4.93384 8.69538 4.96238C8.68688 4.99328 8.66989 5.02119 8.64635 5.04293C8.59186 5.10314 8.52326 5.14887 8.44673 5.17601C8.40571 5.1902 8.36352 5.20075 8.32065 5.20753C8.19458 5.20753 8.09302 5.19002 8.0615 5.11297C8.05459 5.08895 8.05459 5.06346 8.0615 5.03943C8.04104 5.05965 8.02651 5.08508 8.01947 5.11297C8.01249 5.14174 8.01249 5.17176 8.01947 5.20053C8.03584 5.22889 8.05929 5.25251 8.08753 5.26908C8.11577 5.28566 8.14783 5.29462 8.18057 5.29508C8.28171 5.30409 8.38356 5.28971 8.47825 5.25306C8.57372 5.21807 8.65995 5.16178 8.7304 5.08846C8.75285 5.06785 8.76999 5.04212 8.78036 5.01346C8.79072 4.9848 8.79401 4.95406 8.78994 4.92386V4.90635Z"  stroke="white" stroke-width="0.0350211"/>
<path d="M8.65365 4.96942C8.64546 4.99219 8.63363 5.01348 8.61863 5.03246C8.56777 5.08548 8.50549 5.1262 8.43652 5.15153C8.28593 5.20757 8.13534 5.19006 8.10733 5.11651C8.07931 5.04297 8.15635 4.95892 8.27543 4.89588L8.32796 4.87136C8.36551 4.85758 8.40417 4.84703 8.44353 4.83984C8.54859 4.83984 8.63614 4.83984 8.65365 4.90638C8.65887 4.91607 8.66159 4.9269 8.66159 4.9379C8.66159 4.9489 8.65887 4.95973 8.65365 4.96942Z" />
<path d="M8.39417 4.19883C8.4052 4.23838 8.40515 4.2802 8.39404 4.31972C8.38292 4.35925 8.36116 4.39496 8.33113 4.42296C8.25678 4.50399 8.1644 4.56638 8.06147 4.60507C8.00619 4.62603 7.94856 4.64014 7.88986 4.6471C7.84005 4.65587 7.78909 4.65587 7.73927 4.6471C7.6987 4.64569 7.65921 4.63362 7.62478 4.6121C7.59035 4.59059 7.5622 4.56038 7.54316 4.52453C7.49413 4.39145 7.63071 4.22334 7.85484 4.12879H7.87586C8.121 4.03423 8.34164 4.06925 8.39417 4.19883ZM8.35214 4.21634C8.33835 4.19145 8.31921 4.16992 8.29611 4.1533C8.27134 4.13881 8.24398 4.1293 8.21556 4.12528C8.23633 4.13862 8.25229 4.15826 8.26109 4.18132C8.2715 4.21078 8.2715 4.24292 8.26109 4.27237C8.25375 4.30295 8.23797 4.33086 8.21556 4.35292C8.16043 4.41238 8.09203 4.45798 8.01594 4.486C7.97373 4.5002 7.93038 4.51075 7.88636 4.51752C7.76379 4.53503 7.65872 4.51752 7.63071 4.42296C7.62185 4.39925 7.62185 4.37313 7.63071 4.34942C7.61025 4.36964 7.59572 4.39507 7.58868 4.42296C7.5817 4.45173 7.5817 4.48175 7.58868 4.51052C7.60361 4.53933 7.62625 4.56344 7.65408 4.58013C7.68191 4.59683 7.71383 4.60546 7.74628 4.60507C7.84851 4.61231 7.95111 4.59799 8.04746 4.56305C8.14277 4.52609 8.22883 4.46871 8.29961 4.39495C8.35214 4.32841 8.37316 4.26537 8.35214 4.21634Z"  stroke="white" stroke-width="0.0350211"/>
<path d="M8.21926 4.2619C8.21111 4.28442 8.19794 4.30478 8.18074 4.32144C8.13231 4.3765 8.07093 4.41863 8.00213 4.44401C7.85154 4.50005 7.70095 4.48254 7.67293 4.40899C7.64492 4.33545 7.71846 4.2514 7.84104 4.18836L7.89357 4.16384C7.93112 4.15006 7.96978 4.13951 8.00914 4.13232C8.1142 4.13232 8.19825 4.13232 8.21926 4.19886C8.2262 4.2193 8.2262 4.24146 8.21926 4.2619Z"/>
<path d="M8.1351 3.47768C8.1732 3.47162 8.20751 3.45116 8.23097 3.42054C8.25443 3.38991 8.26524 3.35145 8.26117 3.31308C8.26135 3.27714 8.25024 3.24205 8.22941 3.21277C8.20858 3.18348 8.17908 3.16147 8.14507 3.14985C8.11106 3.13822 8.07426 3.13757 8.03986 3.14798C8.00546 3.1584 7.97519 3.17935 7.95334 3.20788C7.93148 3.23641 7.91914 3.27109 7.91805 3.30701C7.91696 3.34294 7.92717 3.3783 7.94725 3.40811C7.96733 3.43791 7.99627 3.46066 8.02997 3.47315C8.06367 3.48563 8.10044 3.48722 8.1351 3.47768Z" />
<path d="M7.74315 3.84159C7.77886 3.83639 7.81106 3.81726 7.83272 3.78838C7.85437 3.75951 7.86372 3.72324 7.85871 3.6875C7.84023 3.65794 7.81266 3.63518 7.78014 3.62262C7.74762 3.61007 7.7119 3.60841 7.67835 3.61788C7.6448 3.62735 7.61523 3.64745 7.59408 3.67516C7.57293 3.70287 7.56133 3.73669 7.56104 3.77155C7.57633 3.80461 7.60389 3.83041 7.63789 3.84349C7.67189 3.85656 7.70964 3.85588 7.74315 3.84159Z"/>
<path d="M8.60086 3.082C8.63896 3.07593 8.67328 3.05548 8.69674 3.02485C8.7202 2.99422 8.73101 2.95576 8.72694 2.9174C8.71153 2.88171 8.68262 2.85357 8.64653 2.83913C8.61043 2.8247 8.57009 2.82513 8.53432 2.84035C8.5145 2.84058 8.49499 2.84536 8.47731 2.85431C8.45962 2.86326 8.44422 2.87615 8.4323 2.89199C8.42038 2.90783 8.41225 2.9262 8.40854 2.94567C8.40483 2.96514 8.40564 2.98521 8.4109 3.00432C8.41616 3.02343 8.42574 3.04108 8.4389 3.05591C8.45205 3.07074 8.46844 3.08236 8.48679 3.08986C8.50513 3.09736 8.52496 3.10055 8.54474 3.09919C8.56451 3.09783 8.58372 3.09195 8.60086 3.082Z"/>
<path d="M9.08066 2.7349C9.1014 2.73517 9.12192 2.73058 9.14058 2.72151C9.15923 2.71244 9.17551 2.69913 9.1881 2.68265C9.2007 2.66617 9.20927 2.64698 9.21313 2.6266C9.21699 2.60622 9.21603 2.58522 9.21034 2.56527C9.20464 2.54533 9.19436 2.52699 9.18031 2.51172C9.16627 2.49646 9.14885 2.48469 9.12945 2.47735C9.11004 2.47002 9.08919 2.46732 9.06856 2.46947C9.04793 2.47162 9.02809 2.47857 9.01062 2.48975C8.97185 2.49582 8.93697 2.51678 8.91342 2.54818C8.88987 2.57958 8.87951 2.61893 8.88455 2.65785C8.90134 2.6932 8.93096 2.72083 8.96738 2.73514C9.0038 2.74944 9.0443 2.74936 9.08066 2.7349Z" />
<path d="M9.50465 2.47611C9.5254 2.47638 9.54591 2.47179 9.56457 2.46272C9.58322 2.45365 9.5995 2.44034 9.61209 2.42386C9.62469 2.40738 9.63326 2.38819 9.63712 2.36781C9.64098 2.34743 9.64003 2.32643 9.63433 2.30648C9.62863 2.28654 9.61835 2.2682 9.6043 2.25293C9.59026 2.23767 9.57284 2.2259 9.55344 2.21856C9.53403 2.21123 9.51319 2.20853 9.49256 2.21068C9.47192 2.21283 9.45208 2.21978 9.43461 2.23096C9.34706 2.25548 9.29103 2.32902 9.31204 2.39556C9.31934 2.41354 9.33012 2.4299 9.34378 2.4437C9.35743 2.45749 9.37367 2.46845 9.39158 2.47594C9.40948 2.48342 9.42869 2.48729 9.4481 2.48732C9.46751 2.48735 9.48673 2.48354 9.50465 2.47611Z" />
<path d="M10.0017 2.21302C10.0893 2.1885 10.1453 2.11496 10.1243 2.04842C10.1171 2.03044 10.1062 2.01411 10.0925 2.00042C10.0788 1.98673 10.0624 1.97597 10.0444 1.96877C10.0264 1.96157 10.0072 1.95809 9.9878 1.95853C9.96842 1.95898 9.94933 1.96335 9.93168 1.97137C9.84413 1.99589 9.7881 2.06943 9.80911 2.13597C9.82522 2.17106 9.85419 2.19862 9.89003 2.21295C9.92588 2.22729 9.96586 2.22732 10.0017 2.21302Z"/>
<path d="M10.5165 2.02742C10.604 2.0029 10.6601 1.92936 10.639 1.86282C10.6208 1.82968 10.5919 1.80368 10.557 1.78902C10.5221 1.77435 10.4833 1.77188 10.4468 1.78201C10.4104 1.79214 10.3784 1.81427 10.3561 1.84482C10.3338 1.87537 10.3224 1.91256 10.3239 1.95037C10.34 1.98546 10.3689 2.01301 10.4048 2.02735C10.4406 2.04169 10.4806 2.04171 10.5165 2.02742Z" />
<path d="M10.9894 2.00994C11.0665 1.98892 11.1155 1.92589 11.098 1.86635C11.0842 1.83639 11.0595 1.81282 11.0289 1.80046C10.9983 1.7881 10.9642 1.78786 10.9334 1.79981C10.8564 1.82082 10.8073 1.88736 10.8248 1.9434C10.838 1.97395 10.8626 1.99809 10.8934 2.01055C10.9243 2.02301 10.9588 2.02279 10.9894 2.00994Z" />
<path d="M10.3449 2.58804C10.3596 2.58811 10.374 2.58479 10.3872 2.57834C10.4003 2.57188 10.4117 2.56246 10.4206 2.55082C10.4295 2.53918 10.4355 2.52565 10.4383 2.51127C10.441 2.4969 10.4404 2.48208 10.4365 2.46799C10.4325 2.45389 10.4254 2.44091 10.4156 2.43005C10.4057 2.4192 10.3935 2.41077 10.3799 2.40544C10.3663 2.4001 10.3516 2.398 10.337 2.3993C10.3224 2.4006 10.3084 2.40527 10.2959 2.41293C10.2329 2.43044 10.1908 2.48297 10.2048 2.532C10.2164 2.55768 10.2374 2.57788 10.2636 2.58833C10.2897 2.59879 10.3189 2.59868 10.3449 2.58804Z"/>
<path d="M9.74249 3.17963C9.77011 3.17449 9.79466 3.15885 9.81098 3.13599C9.82731 3.11314 9.83414 3.08484 9.83004 3.05705C9.81858 3.03226 9.7979 3.0129 9.7724 3.0031C9.7469 2.99329 9.71859 2.9938 9.69346 3.00452C9.66626 3.00962 9.64191 3.02461 9.6251 3.04659C9.60829 3.06858 9.6002 3.096 9.60241 3.12359C9.61459 3.14869 9.6357 3.16835 9.66161 3.17871C9.68751 3.18908 9.71636 3.1894 9.74249 3.17963Z" />
<path d="M9.83028 2.73505C9.84374 2.734 9.85679 2.72997 9.86849 2.72326C9.8802 2.71655 9.89026 2.70731 9.89796 2.69623C9.90566 2.68515 9.9108 2.6725 9.91301 2.65919C9.91522 2.64587 9.91444 2.63224 9.91074 2.61926C9.90703 2.60629 9.90048 2.5943 9.89158 2.58416C9.88267 2.57403 9.87162 2.566 9.85923 2.56066C9.84684 2.55532 9.83341 2.5528 9.81993 2.55328C9.80644 2.55376 9.79323 2.55724 9.78125 2.56345C9.71822 2.58096 9.67619 2.63349 9.6902 2.68252C9.70298 2.707 9.72434 2.72589 9.75019 2.73559C9.77604 2.74528 9.80456 2.74509 9.83028 2.73505Z"/>
<path d="M10.2888 3.02896C10.3034 3.02903 10.3179 3.02571 10.331 3.01925C10.3441 3.0128 10.3556 3.00338 10.3645 2.99174C10.3733 2.9801 10.3794 2.96656 10.3821 2.95219C10.3849 2.93782 10.3843 2.923 10.3803 2.90891C10.3764 2.89481 10.3692 2.88183 10.3594 2.87097C10.3496 2.86012 10.3374 2.85169 10.3238 2.84635C10.3101 2.84102 10.2954 2.83892 10.2809 2.84022C10.2663 2.84152 10.2522 2.84619 10.2398 2.85385C10.1767 2.87136 10.1347 2.92389 10.1487 2.97292C10.1602 2.9986 10.1813 3.0188 10.2074 3.02925C10.2335 3.0397 10.2627 3.0396 10.2888 3.02896Z"/>
<path d="M7.35059 5.69079C7.37793 5.68648 7.40245 5.67155 7.41885 5.64926C7.43524 5.62696 7.44217 5.5991 7.43815 5.57172C7.42732 5.5463 7.40692 5.52616 7.38135 5.51567C7.35579 5.50519 7.32712 5.50519 7.30156 5.51569C7.27423 5.52001 7.2497 5.53493 7.23331 5.55723C7.21692 5.57952 7.20998 5.60738 7.21401 5.63476C7.22483 5.66019 7.24524 5.68032 7.2708 5.69081C7.29637 5.7013 7.32503 5.70129 7.35059 5.69079Z" />
<path d="M6.74809 6.27545C6.81112 6.25794 6.85315 6.20541 6.83914 6.15638C6.82761 6.1307 6.80656 6.1105 6.78042 6.10005C6.75429 6.0896 6.72511 6.0897 6.69906 6.10034C6.68442 6.10027 6.66997 6.10359 6.65684 6.11005C6.6437 6.1165 6.63225 6.12592 6.62337 6.13756C6.6145 6.1492 6.60845 6.16274 6.60569 6.17711C6.60294 6.19148 6.60356 6.2063 6.60751 6.22039C6.61145 6.23449 6.61862 6.24747 6.62843 6.25833C6.63825 6.26918 6.65045 6.27761 6.66408 6.28294C6.67771 6.28828 6.69239 6.29038 6.70697 6.28908C6.72154 6.28778 6.73562 6.28311 6.74809 6.27545Z"/>
<path d="M6.83598 5.83453C6.86318 5.82943 6.88753 5.81444 6.90434 5.79246C6.92115 5.77047 6.92924 5.74305 6.92703 5.71546C6.9155 5.68978 6.89445 5.66959 6.86831 5.65913C6.84218 5.64868 6.81301 5.64878 6.78695 5.65943C6.77231 5.65935 6.75786 5.66267 6.74473 5.66913C6.73159 5.67559 6.72014 5.685 6.71126 5.69664C6.70239 5.70828 6.69634 5.72182 6.69358 5.73619C6.69083 5.75057 6.69145 5.76538 6.6954 5.77948C6.69934 5.79357 6.70651 5.80655 6.71632 5.81741C6.72614 5.82826 6.73834 5.83669 6.75197 5.84203C6.7656 5.84736 6.78028 5.84946 6.79486 5.84816C6.80943 5.84686 6.82351 5.8422 6.83598 5.83453Z"/>
<path d="M7.27735 6.12504C7.30468 6.12072 7.32921 6.10579 7.3456 6.0835C7.362 6.0612 7.36893 6.03334 7.3649 6.00596C7.3649 5.96044 7.29136 5.93592 7.22832 5.95343C7.20099 5.95775 7.17646 5.97268 7.16007 5.99497C7.14368 6.01726 7.13674 6.04513 7.14077 6.0725C7.14608 6.08509 7.15387 6.09648 7.16369 6.10599C7.1735 6.11549 7.18513 6.12292 7.19789 6.12782C7.21064 6.13273 7.22425 6.13501 7.2379 6.13453C7.25156 6.13405 7.26497 6.13082 7.27735 6.12504Z" />
<path d="M10.9581 2.45837C11.0316 2.43736 11.0806 2.37082 11.0631 2.31479C11.0456 2.25875 10.9756 2.22723 10.8985 2.24825C10.8817 2.24908 10.8653 2.2537 10.8505 2.26176C10.8357 2.26983 10.8229 2.28113 10.813 2.29482C10.8032 2.30851 10.7966 2.32425 10.7937 2.34086C10.7908 2.35746 10.7916 2.37451 10.7962 2.39073C10.8008 2.40695 10.809 2.42192 10.8202 2.43453C10.8314 2.44715 10.8453 2.45707 10.8608 2.46358C10.8764 2.47008 10.8932 2.47299 10.91 2.47209C10.9269 2.47118 10.9433 2.4665 10.9581 2.45837Z"/>
<path d="M10.8005 2.93446C10.8337 2.92925 10.8635 2.91138 10.8838 2.88459C10.904 2.85781 10.9131 2.82421 10.909 2.79087C10.8946 2.76065 10.8692 2.73701 10.838 2.72467C10.8069 2.71234 10.7722 2.71222 10.7409 2.72433C10.6674 2.74534 10.6184 2.81188 10.6359 2.86792C10.649 2.89847 10.6737 2.92261 10.7045 2.93507C10.7353 2.94753 10.7698 2.94731 10.8005 2.93446Z"/>
<path d="M10.5689 3.41443C10.5858 3.4136 10.6022 3.40898 10.617 3.40091C10.6318 3.39285 10.6446 3.38155 10.6544 3.36786C10.6643 3.35416 10.6709 3.33843 10.6738 3.32182C10.6767 3.30521 10.6758 3.28817 10.6712 3.27195C10.6666 3.25573 10.6584 3.24075 10.6473 3.22814C10.6361 3.21553 10.6222 3.2056 10.6066 3.1991C10.5911 3.1926 10.5743 3.18969 10.5574 3.19059C10.5406 3.19149 10.5242 3.19618 10.5094 3.2043C10.4762 3.2095 10.4464 3.22738 10.4261 3.25417C10.4059 3.28095 10.3968 3.31455 10.4008 3.34789C10.4153 3.37811 10.4407 3.40175 10.4719 3.41408C10.503 3.42642 10.5377 3.42654 10.5689 3.41443Z" />
<path d="M10.2892 3.83468C10.3627 3.81367 10.4117 3.74712 10.3942 3.69109C10.3811 3.66054 10.3564 3.6364 10.3256 3.62394C10.2948 3.61147 10.2603 3.61169 10.2296 3.62455C10.1964 3.62975 10.1666 3.64763 10.1463 3.67442C10.1261 3.7012 10.117 3.7348 10.1211 3.76814C10.1355 3.79836 10.1609 3.822 10.1921 3.83433C10.2232 3.84667 10.2579 3.84679 10.2892 3.83468Z" />
<path d="M9.98099 4.28994C10.0138 4.28395 10.0431 4.26587 10.0632 4.23928C10.0833 4.2127 10.0927 4.17953 10.0896 4.14635C10.0757 4.11554 10.0504 4.09135 10.019 4.07892C9.98763 4.06649 9.95262 4.06681 9.92145 4.07981C9.88851 4.08499 9.85896 4.103 9.83927 4.12991C9.81958 4.15682 9.81135 4.19043 9.81639 4.2234C9.8302 4.25336 9.85492 4.27692 9.8855 4.28929C9.91609 4.30165 9.95024 4.30188 9.98099 4.28994Z" />
<path d="M9.58856 4.77312C9.6656 4.75211 9.71463 4.68907 9.69712 4.62953C9.68331 4.59957 9.6586 4.57601 9.62801 4.56364C9.59742 4.55128 9.56328 4.55105 9.53252 4.56299C9.45548 4.58401 9.40645 4.64704 9.42396 4.70658C9.43708 4.73714 9.46173 4.76127 9.49256 4.77373C9.52339 4.7862 9.55789 4.78598 9.58856 4.77312Z" />
<path d="M9.07392 5.31972C9.10671 5.31373 9.13606 5.29566 9.15616 5.26907C9.17627 5.24248 9.18566 5.20932 9.18248 5.17614C9.16866 5.14533 9.14335 5.12113 9.11196 5.1087C9.08056 5.09628 9.04555 5.0966 9.01438 5.1096C8.94084 5.13061 8.89181 5.19365 8.90932 5.24968C8.91548 5.26512 8.92464 5.27919 8.93626 5.29108C8.94789 5.30297 8.96175 5.31244 8.97705 5.31895C8.99234 5.32546 9.00878 5.32888 9.02541 5.32901C9.04203 5.32914 9.05852 5.32599 9.07392 5.31972Z" />
<path d="M8.64667 5.7328C8.67985 5.7276 8.70971 5.70972 8.72996 5.68293C8.75021 5.65615 8.75927 5.62255 8.75524 5.58921C8.74075 5.55899 8.71539 5.53535 8.68422 5.52301C8.65306 5.51068 8.61839 5.51056 8.58714 5.52267C8.51359 5.54368 8.46456 5.61022 8.48207 5.66626C8.49519 5.69681 8.51985 5.72095 8.55067 5.73341C8.5815 5.74587 8.61601 5.74565 8.64667 5.7328Z" />
<path d="M8.08972 6.19519C8.16327 6.17418 8.2123 6.10764 8.19479 6.0516C8.17728 5.99557 8.10723 5.96405 8.03019 5.98506C7.95314 6.00608 7.90761 6.06911 7.92512 6.12515C7.93129 6.14059 7.94044 6.15466 7.95207 6.16655C7.96369 6.17844 7.97755 6.18791 7.99285 6.19442C8.00815 6.20093 8.02458 6.20435 8.04121 6.20448C8.05783 6.20461 8.07432 6.20146 8.08972 6.19519Z" />
<path d="M7.59589 6.53111C7.6284 6.52591 7.65771 6.50854 7.67787 6.48253C7.69803 6.45651 7.70754 6.42379 7.70446 6.39102C7.69128 6.35958 7.66625 6.3346 7.63479 6.32149C7.60332 6.30838 7.56796 6.3082 7.53636 6.32098C7.46281 6.34199 7.41378 6.40853 7.43129 6.46457C7.44441 6.49512 7.46907 6.51926 7.49989 6.53172C7.53072 6.54418 7.56523 6.54396 7.59589 6.53111Z" />
<path d="M7.10908 6.8467C7.18612 6.82219 7.23165 6.75915 7.21764 6.70312C7.21116 6.68756 7.20163 6.67345 7.18961 6.66164C7.17759 6.64982 7.16332 6.64054 7.14765 6.63434C7.13197 6.62813 7.11522 6.62514 7.09837 6.62552C7.08151 6.62591 7.06491 6.62967 7.04954 6.63658C6.97599 6.65759 6.92697 6.72063 6.94448 6.77666C6.95765 6.80726 6.9821 6.8316 7.01275 6.84464C7.0434 6.85769 7.0779 6.85842 7.10908 6.8467Z" />
<path d="M6.67109 7.06727C6.70426 7.06207 6.73412 7.04419 6.75437 7.01741C6.77462 6.99062 6.78369 6.95702 6.77965 6.92368C6.76516 6.89346 6.7398 6.86982 6.70864 6.85749C6.67747 6.84515 6.6428 6.84503 6.61155 6.85714C6.53801 6.87816 6.48898 6.9447 6.50649 7.00073C6.5196 7.03129 6.54426 7.05542 6.57509 7.06788C6.60592 7.08035 6.64042 7.08013 6.67109 7.06727Z" />
<path d="M6.19485 7.22841C6.22764 7.22242 6.25699 7.20435 6.2771 7.17776C6.2972 7.15117 6.30659 7.11801 6.30342 7.08483C6.28959 7.05402 6.26429 7.02982 6.23289 7.0174C6.20149 7.00497 6.16648 7.00529 6.13532 7.01829C6.10238 7.02346 6.07283 7.04148 6.05314 7.06839C6.03345 7.0953 6.02522 7.12891 6.03025 7.16187C6.04407 7.19183 6.06878 7.2154 6.09937 7.22776C6.12995 7.24013 6.1641 7.24036 6.19485 7.22841Z" />
<path d="M5.76776 7.22823C5.8448 7.20722 5.89383 7.14068 5.87632 7.08465C5.86321 7.05409 5.83855 7.02995 5.80772 7.01749C5.77689 7.00503 5.74239 7.00525 5.71172 7.01811C5.63468 7.03912 5.58565 7.10216 5.60316 7.16169C5.61697 7.19165 5.64169 7.21522 5.67227 7.22758C5.70286 7.23994 5.73701 7.24018 5.76776 7.22823Z" />
<path d="M5.76776 6.84656C5.8448 6.82204 5.89383 6.759 5.87632 6.70297C5.87022 6.68753 5.86103 6.6735 5.84934 6.66171C5.83764 6.64993 5.82368 6.64064 5.80828 6.63442C5.79289 6.6282 5.7764 6.62517 5.7598 6.62551C5.7432 6.62586 5.72684 6.62957 5.71172 6.63643C5.63468 6.65744 5.58565 6.72048 5.60316 6.77651C5.61633 6.80711 5.64078 6.83145 5.67143 6.84449C5.70208 6.85754 5.73658 6.85827 5.76776 6.84656Z" />
<path d="M5.87275 6.42275C5.94979 6.39823 5.99532 6.3352 5.98131 6.27916C5.96749 6.24835 5.94218 6.22416 5.91078 6.21173C5.87939 6.1993 5.84438 6.19962 5.81321 6.21262C5.73967 6.23364 5.69064 6.29667 5.70815 6.35271C5.71431 6.36815 5.72347 6.38222 5.73509 6.39411C5.74672 6.40599 5.76058 6.41547 5.77587 6.42198C5.79117 6.42849 5.80761 6.43191 5.82423 6.43204C5.84086 6.43217 5.85735 6.42901 5.87275 6.42275Z" />
<path d="M6.05487 5.99874C6.13191 5.97773 6.18094 5.91119 6.16343 5.85515C6.15032 5.8246 6.12566 5.80046 6.09483 5.788C6.064 5.77554 6.0295 5.77576 5.99883 5.78861C5.92179 5.80963 5.87276 5.87266 5.89027 5.9287C5.90344 5.95929 5.92789 5.98364 5.95854 5.99668C5.98919 6.00972 6.02369 6.01046 6.05487 5.99874Z" />
<path d="M6.31433 5.57507C6.38788 5.55406 6.43691 5.48752 6.4194 5.43149C6.40189 5.37545 6.33184 5.34393 6.2548 5.36495C6.17775 5.38596 6.13222 5.449 6.14973 5.50503C6.1559 5.52047 6.16505 5.53454 6.17668 5.54643C6.1883 5.55832 6.20216 5.56779 6.21746 5.5743C6.23276 5.58081 6.24919 5.58423 6.26582 5.58436C6.28244 5.5845 6.29893 5.58134 6.31433 5.57507Z" />
<path d="M6.56952 5.15157C6.60231 5.14558 6.63166 5.12751 6.65176 5.10092C6.67186 5.07433 6.68126 5.04117 6.67808 5.00799C6.66496 4.97743 6.64031 4.95329 6.60948 4.94083C6.57865 4.92837 6.54415 4.92859 6.51348 4.94145C6.43644 4.96246 6.38741 5.0255 6.40492 5.08153C6.41809 5.11212 6.44254 5.13647 6.47319 5.14951C6.50384 5.16255 6.53834 5.16329 6.56952 5.15157Z" />
<path d="M6.9166 4.71017C6.99014 4.68915 7.03917 4.62261 7.02166 4.56658C7.00855 4.53602 6.98389 4.51189 6.95306 4.49942C6.92223 4.48696 6.88773 4.48718 6.85706 4.50004C6.82389 4.50524 6.79403 4.52312 6.77378 4.5499C6.75353 4.57669 6.74446 4.61029 6.7485 4.64363C6.76299 4.67385 6.78835 4.69749 6.81952 4.70982C6.85068 4.72216 6.88535 4.72228 6.9166 4.71017Z" />
<path d="M7.35078 4.23767C7.36761 4.23684 7.38405 4.23222 7.39885 4.22416C7.41365 4.21609 7.42645 4.20479 7.43628 4.1911C7.44611 4.1774 7.45273 4.16167 7.45564 4.14506C7.45854 4.12846 7.45766 4.11141 7.45307 4.09519C7.44847 4.07897 7.44028 4.064 7.42909 4.05138C7.41791 4.03877 7.40402 4.02884 7.38847 4.02234C7.37291 4.01584 7.35609 4.01293 7.33926 4.01383C7.32242 4.01473 7.30601 4.01942 7.29124 4.02754C7.21769 4.04856 7.16866 4.1151 7.18618 4.17113C7.20369 4.22716 7.27373 4.25868 7.35078 4.23767Z" />
<path d="M11.1083 1.93675C11.1923 2.46207 10.59 3.8384 9.14008 5.28827C7.78476 6.64359 6.49949 7.25996 5.88312 7.25996C5.81359 7.26448 5.74399 7.25248 5.67999 7.22494H5.65548C5.39282 6.93076 5.91814 5.38283 7.57113 3.72283C8.92645 2.36751 10.2082 1.75114 10.8281 1.75114C10.89 1.7496 10.9516 1.75909 11.0102 1.77915L11.0978 1.95426L11.1083 1.93675Z" stroke="white" stroke-width="0.0350211" stroke-miterlimit="10"/>
<path d="M6.43668 0.609292C6.02586 0.84986 5.64997 1.14562 5.31951 1.48832C4.9574 1.84599 4.65052 2.25555 4.40896 2.70355L4.05875 2.35334C3.88852 2.18209 3.79297 1.95043 3.79297 1.70895C3.79297 1.46748 3.88852 1.23582 4.05875 1.06457L4.82921 0.294102C5.00047 0.12387 5.23213 0.0283203 5.4736 0.0283203C5.71507 0.0283203 5.94673 0.12387 6.11799 0.294102L6.43668 0.609292Z" />
<path d="M2.71035 13.763H1.39355L1.4706 1.55469H2.78389L2.71035 13.763Z" />
<path d="M2.78399 0.0595703V1.77911H1.4707V1.37286C1.4707 1.02456 1.60907 0.690514 1.85536 0.444224C2.10165 0.197935 2.43569 0.0595703 2.78399 0.0595703Z" />
<path d="M3.95388 1.22928H2.78418V0.0595703H5.11659L3.95388 1.22928Z" />
<path d="M13.3743 12.8771C11.394 12.5674 9.39349 12.4047 7.38918 12.3903C3.05356 12.3903 1.27099 13.2903 1.18344 13.8577C1.18666 13.9892 1.21586 14.1188 1.26935 14.239C1.32284 14.3592 1.39957 14.4676 1.49512 14.5581C5.61156 14.2007 9.74376 14.0569 13.8751 14.1273C13.7455 13.8752 13.5564 13.4304 13.3743 12.8771ZM13.3743 12.8771C11.394 12.5674 9.39349 12.4047 7.38918 12.3903C3.05356 12.3903 1.27099 13.2903 1.18344 13.8577C1.18666 13.9892 1.21586 14.1188 1.26935 14.239C1.32284 14.3592 1.39957 14.4676 1.49512 14.5581C5.61156 14.2007 9.74376 14.0569 13.8751 14.1273C13.7455 13.8752 13.5564 13.4304 13.3743 12.8771ZM13.3743 12.8771C11.394 12.5674 9.39349 12.4047 7.38918 12.3903C3.05356 12.3903 1.27099 13.2903 1.18344 13.8577C1.18666 13.9892 1.21586 14.1188 1.26935 14.239C1.32284 14.3592 1.39957 14.4676 1.49512 14.5581C5.61156 14.2007 9.74376 14.0569 13.8751 14.1273C13.7455 13.8752 13.5564 13.4304 13.3743 12.8771ZM13.3743 12.8771C11.394 12.5674 9.39349 12.4047 7.38918 12.3903C3.05356 12.3903 1.27099 13.2903 1.18344 13.8577C1.18666 13.9892 1.21586 14.1188 1.26935 14.239C1.32284 14.3592 1.39957 14.4676 1.49512 14.5581C5.61156 14.2007 9.74376 14.0569 13.8751 14.1273C13.7455 13.8752 13.5564 13.4304 13.3743 12.8771ZM21.6147 15.9239C21.5657 15.8644 21.5132 15.8083 21.4572 15.7523L21.3591 15.6508C20.9584 15.8128 20.5257 15.8799 20.0948 15.8469C19.7106 15.7589 19.374 15.5287 19.1528 15.2025C19.081 15.1113 19.0155 15.0153 18.9566 14.9153L18.6555 15.0939C18.3183 15.2973 17.9164 15.3649 17.5313 15.283C16.9149 15.1289 16.4491 14.3235 16.4141 14.2569H16.3896C14.4004 14.3445 13.693 15.4126 13.4934 15.8259C13.6525 15.952 13.795 16.0979 13.9171 16.2601C14.3096 16.7156 14.5472 17.2839 14.5956 17.8831C14.6441 18.4824 14.5009 19.0815 14.1868 19.5941C14.1868 19.5941 14.1868 19.5941 14.1658 19.6186C16.6426 20.0901 19.1566 20.3398 21.6778 20.3646C22.4202 20.3646 23.0786 20.3366 23.681 20.291C23.1207 18.2108 22.4132 16.831 21.6147 15.9239ZM20.1509 17.1812C20.0619 17.3129 19.9323 17.412 19.7818 17.4632C19.6313 17.5144 19.4682 17.515 19.3174 17.4648L17.1145 16.7364C16.9633 16.6868 16.8325 16.5891 16.7421 16.4582C16.6517 16.3273 16.6066 16.1704 16.6137 16.0115L16.4877 15.0204C16.7304 15.3152 17.0581 15.528 17.4262 15.6297C17.4838 15.6451 17.5423 15.6568 17.6013 15.6648C18.0321 15.7097 18.4659 15.6139 18.8376 15.3916C19.081 15.7498 19.4354 16.018 19.8462 16.1551L20.0178 16.1936C20.3971 16.2405 20.7821 16.2035 21.1455 16.085L20.1509 17.1812ZM25.5161 15.4301C24.9102 15.1149 24.2378 14.8067 23.5094 14.5091L22.8965 14.2744L22.7249 14.2079C22.7107 14.2706 22.6931 14.3326 22.6724 14.3935L22.6129 14.481L22.4623 14.6456C22.7739 14.7612 23.0786 14.8838 23.3693 14.9959C23.3693 15.0694 23.3518 15.1499 23.3448 15.234C23.3378 15.3181 23.3238 15.4336 23.3203 15.5387C22.9315 15.3741 22.5218 15.2095 22.084 15.0484L21.8039 15.3531C22.7424 16.3267 23.5759 17.8536 24.1888 20.2385C26.7033 19.9829 27.7995 19.349 27.88 18.9007C27.892 18.8275 27.8835 18.7523 27.8555 18.6836C27.6594 18.1022 26.6228 17.2092 24.7701 16.2706C24.8822 16.1656 25.0013 16.0465 25.1204 15.9204L25.1519 15.8854C27.3687 17.0306 28.5594 18.1968 28.3983 19.0583C28.2964 19.3637 28.0824 19.619 27.7995 19.7727C27.1201 20.242 25.9118 20.5852 24.2974 20.7638L23.765 20.8129C23.1102 20.8689 22.3957 20.8969 21.6358 20.8969C19.0033 20.8701 16.3788 20.6041 13.7945 20.1019L13.6019 20.0494C13.4559 20.1171 13.2971 20.1529 13.1361 20.1545C13.0167 20.1563 12.898 20.1362 12.7859 20.0949C12.7356 20.1878 12.6719 20.2727 12.5968 20.3471C12.947 20.4241 13.3358 20.5012 13.7105 20.5712C17.5628 21.2962 21.149 21.5238 23.8666 21.3032L24.3919 21.2541C25.4724 21.1703 26.5345 20.9272 27.5438 20.5327C28.3808 20.1825 28.8991 19.6922 29.0077 19.1073C29.2388 17.9867 27.887 16.6664 25.5161 15.4371V15.4301ZM13.4864 16.5893C13.4129 16.4922 13.3309 16.402 13.2412 16.3197C13.1119 16.1988 12.9641 16.0995 12.8034 16.0255C12.6768 15.9693 12.542 15.9338 12.4042 15.9204C11.872 15.9064 11.3525 16.0842 10.9403 16.4212C10.3555 16.817 9.45192 17.6154 9.42741 18.1337C9.42311 18.192 9.43524 18.2502 9.46243 18.3018C9.71908 17.8419 10.0787 17.4475 10.5131 17.1497L10.8142 17.5979C10.4168 17.8602 10.0955 18.2226 9.88268 18.6486C9.86145 18.709 9.84506 18.7711 9.83365 18.8342C9.81413 18.9514 9.82375 19.0717 9.86167 19.1844C9.89205 19.2726 9.93834 19.3545 9.99825 19.426C10.0718 19.4856 10.3695 19.6992 10.5901 19.5836C10.5849 19.5172 10.5849 19.4504 10.5901 19.384C10.6088 19.2079 10.65 19.0349 10.7127 18.8692C10.9457 18.2945 11.2855 17.7693 11.7143 17.3213L11.9804 17.5804L12.089 17.6855C11.9115 17.8772 11.7488 18.0821 11.6022 18.2983C11.4598 18.5094 11.3423 18.7362 11.252 18.9743C11.2423 18.9946 11.2341 19.0157 11.2275 19.0373C11.1728 19.1819 11.142 19.3345 11.1364 19.4891C11.1294 19.6698 11.1865 19.8471 11.2975 19.9899C11.5364 20.1077 11.8093 20.1375 12.068 20.0739C12.2042 20.0177 12.3133 19.9111 12.3727 19.7762L12.4042 19.7132C12.3992 19.7089 12.3945 19.7042 12.3902 19.6992C12.3387 19.5545 12.3196 19.4003 12.3342 19.2474C12.3919 18.7938 12.5294 18.3539 12.7404 17.9481L13.2132 18.1828C13.0193 18.5528 12.9003 18.9574 12.863 19.3735C12.8612 19.4271 12.8695 19.4806 12.8875 19.5311C12.8919 19.5478 12.9003 19.5631 12.9119 19.5759C12.9234 19.5887 12.9379 19.5985 12.954 19.6046C13.0499 19.6412 13.1537 19.652 13.2551 19.636C13.3564 19.62 13.4519 19.5778 13.5319 19.5136C13.6177 19.4524 13.6944 19.3793 13.7595 19.2964C13.791 19.2439 14.6035 18.0252 13.4864 16.5893ZM16.288 13.4094L16.225 12.9191V12.8596L16.2425 12.3623L15.9413 12.3027L15.4265 12.2012L15.311 12.1802C14.5475 12.0366 13.798 11.914 13.0626 11.8054C6.05837 10.8073 0.412973 11.5428 0.0172343 13.644C-0.0400765 14.0005 0.0319685 14.3657 0.220357 14.6737C1.1274 16.3547 4.68555 18.2283 9.47293 19.5836C9.37088 19.4136 9.31196 19.2213 9.30133 19.0233C7.4935 18.5152 5.7353 17.8447 4.04816 17.0201C2.43369 16.1971 1.32352 15.3496 0.864745 14.6141C0.687861 14.3679 0.610327 14.064 0.647614 13.7631C0.864745 12.6109 3.50884 11.865 7.38567 11.865C9.33187 11.8784 11.2746 12.0305 13.1992 12.3202C13.2552 12.5164 13.3147 12.702 13.3708 12.8771C11.3905 12.5674 9.38999 12.4047 7.38567 12.3903C3.05356 12.3903 1.27099 13.2903 1.18344 13.8577C1.18666 13.9892 1.21586 14.1188 1.26935 14.239C1.32284 14.3592 1.39957 14.4676 1.49512 14.5581C1.88386 15.0764 2.76639 15.7768 4.29331 16.5473C5.78385 17.2806 7.33382 17.8862 8.9266 18.3579C8.90616 18.2743 8.8979 18.1882 8.90209 18.1022C8.94762 17.1567 10.4535 16.113 10.6251 16.001C11.142 15.5835 11.7929 15.3682 12.4567 15.3951C12.6555 15.4158 12.8496 15.469 13.0311 15.5527C13.2688 15.0899 13.6223 14.6966 14.0572 14.411C14.2883 14.5266 14.516 14.411 14.7121 14.1553C14.7452 14.1166 14.7756 14.0757 14.8031 14.0328C15.2925 13.8569 15.8067 13.7599 16.3266 13.7456L16.288 13.4094ZM13.3778 12.8771C11.3975 12.5674 9.39699 12.4047 7.39268 12.3903C3.05356 12.3903 1.27099 13.2903 1.18344 13.8577C1.18666 13.9892 1.21586 14.1188 1.26935 14.239C1.32284 14.3592 1.39957 14.4676 1.49512 14.5581C5.61156 14.2007 9.74376 14.0569 13.8751 14.1273C13.7455 13.8752 13.5564 13.4304 13.3743 12.8771H13.3778ZM13.3778 12.8771C11.3975 12.5674 9.39699 12.4047 7.39268 12.3903C3.05356 12.3903 1.27099 13.2903 1.18344 13.8577C1.18666 13.9892 1.21586 14.1188 1.26935 14.239C1.32284 14.3592 1.39957 14.4676 1.49512 14.5581C5.61156 14.2007 9.74376 14.0569 13.8751 14.1273C13.7455 13.8752 13.5564 13.4304 13.3743 12.8771H13.3778ZM13.3778 12.8771C11.3975 12.5674 9.39699 12.4047 7.39268 12.3903C3.05356 12.3903 1.27099 13.2903 1.18344 13.8577C1.18666 13.9892 1.21586 14.1188 1.26935 14.239C1.32284 14.3592 1.39957 14.4676 1.49512 14.5581C5.61156 14.2007 9.74376 14.0569 13.8751 14.1273C13.7455 13.8752 13.5564 13.4304 13.3743 12.8771H13.3778Z" />
<path d="M27.8558 18.6697C27.6597 18.0884 26.623 17.1953 24.7704 16.2568C24.8825 16.1517 25.0016 16.0326 25.1206 15.9066C24.5523 15.6597 23.9672 15.4537 23.3696 15.2902C23.3696 15.3882 23.3486 15.4898 23.3451 15.5949C22.9563 15.4303 22.5466 15.2657 22.1088 15.1046L21.8286 15.4093C22.7672 16.3828 23.6007 17.9098 24.2136 20.2947C26.7036 19.983 27.7997 19.3491 27.8803 18.9009C27.8782 18.8233 27.87 18.746 27.8558 18.6697ZM14.5478 14.1485L13.8753 14.1275C9.73819 14.0564 5.60013 14.2002 1.47788 14.5582C1.88412 15.0766 2.76665 15.777 4.29357 16.5474C5.78411 17.2807 7.33408 17.8864 8.92687 18.358C8.90642 18.2744 8.89816 18.1883 8.90235 18.1024C8.94788 17.1568 10.4538 16.1132 10.6254 16.0011C11.1422 15.5837 11.7932 15.3684 12.457 15.3953C12.6558 15.4159 12.8498 15.4692 13.0313 15.5528C13.269 15.09 13.6225 14.6967 14.0575 14.4112C14.2886 14.5267 14.5162 14.4112 14.7124 14.1555L14.5478 14.1485ZM21.6185 15.9241C21.5695 15.8645 21.517 15.8085 21.4609 15.7525L21.3629 15.6509C20.9611 15.8134 20.5272 15.8806 20.0951 15.847C19.7109 15.7591 19.3743 15.5288 19.153 15.2026C19.0813 15.1114 19.0157 15.0155 18.9569 14.9155L18.6557 15.0941C18.3186 15.2975 17.9167 15.3651 17.5316 15.2832C16.9152 15.1291 16.4494 14.3236 16.4144 14.2571H16.3899C14.4007 14.3446 13.6932 15.4128 13.4936 15.826C13.6528 15.9521 13.7952 16.098 13.9174 16.2603C14.3098 16.7157 14.5474 17.2841 14.5959 17.8833C14.6444 18.4825 14.5012 19.0817 14.187 19.5943C14.187 19.5943 14.187 19.5943 14.166 19.6188C16.6429 20.0903 19.1568 20.3399 21.678 20.3647C22.4205 20.3647 23.0789 20.3367 23.6813 20.2912C23.1209 18.2109 22.4135 16.8311 21.615 15.9241H21.6185ZM20.1546 17.1813C20.0657 17.3131 19.9361 17.4121 19.7856 17.4633C19.6351 17.5146 19.472 17.5151 19.3211 17.465L17.1183 16.7366C16.9671 16.687 16.8363 16.5893 16.7459 16.4584C16.6554 16.3275 16.6103 16.1706 16.6175 16.0116L16.4914 15.0205C16.7341 15.3154 17.0619 15.5282 17.43 15.6299C17.4876 15.6453 17.546 15.657 17.6051 15.6649C18.0359 15.7099 18.4696 15.6141 18.8413 15.3918C19.0848 15.7499 19.4391 16.0182 19.8499 16.1552L20.0216 16.1937C20.3997 16.2402 20.7834 16.2031 21.1457 16.0852L20.1546 17.1813ZM24.3221 20.75L23.7898 20.799C23.1349 20.855 22.4205 20.8831 21.6605 20.8831C19.0281 20.8563 16.4036 20.5902 13.8193 20.0881L13.6022 20.0496C13.4561 20.1172 13.2974 20.153 13.1364 20.1546C13.017 20.1565 12.8983 20.1363 12.7862 20.0951C12.7358 20.1879 12.6721 20.2729 12.5971 20.3472C12.4987 20.4508 12.3793 20.532 12.2469 20.5854C12.1099 20.6349 11.9653 20.6598 11.8196 20.6589C11.5518 20.6522 11.2883 20.5902 11.0456 20.4768L10.9896 20.4558L10.9196 20.3998C10.8398 20.3106 10.7716 20.2118 10.7164 20.1056C10.6956 20.1089 10.6743 20.1089 10.6534 20.1056C10.5918 20.1223 10.5282 20.1306 10.4643 20.1301C10.1582 20.1101 9.86794 19.9866 9.6413 19.7799L9.60627 19.7449C9.55758 19.6858 9.51422 19.6225 9.4767 19.5558C9.37464 19.3858 9.31573 19.1934 9.30509 18.9954C7.49727 18.4873 5.73906 17.8168 4.05193 16.9922C2.43395 16.1972 1.32378 15.3497 0.865007 14.6143L0.224121 14.6738C0.252138 14.9645 1.07864 23.1384 9.21054 26.3534C9.49421 26.4689 9.78838 26.574 10.0931 26.672C11.7265 27.1984 13.422 27.5081 15.1361 27.5931C17.2644 27.8101 19.4141 27.5345 21.4189 26.7876C21.7224 26.6685 22.0271 26.532 22.3329 26.3779C24.3186 25.3728 26.2728 23.6112 27.5616 20.5434C27.6687 20.2953 27.7508 20.0372 27.8067 19.7729C27.1273 20.2422 25.9191 20.5854 24.3221 20.75ZM13.4866 16.5895C13.4132 16.4924 13.3311 16.4021 13.2415 16.3198C13.1122 16.199 12.9644 16.0997 12.8037 16.0256C12.6771 15.9694 12.5423 15.934 12.4045 15.9206C11.8722 15.9066 11.3527 16.0843 10.9406 16.4214C10.3557 16.8171 9.45218 17.6156 9.42767 18.1339C9.42337 18.1921 9.4355 18.2504 9.46269 18.302C9.71934 17.842 10.0789 17.4477 10.5133 17.1498L10.8145 17.5981C10.4171 17.8604 10.0958 18.2228 9.88294 18.6487C9.86171 18.7092 9.84532 18.7713 9.83391 18.8343C9.81439 18.9516 9.82402 19.0719 9.86193 19.1845C9.89231 19.2728 9.9386 19.3547 9.99851 19.4262C10.0721 19.4857 10.3697 19.6993 10.5904 19.5838C10.5851 19.5173 10.5851 19.4506 10.5904 19.3842C10.6091 19.208 10.6503 19.035 10.7129 18.8693C10.9459 18.2947 11.2858 17.7694 11.7145 17.3214L11.9807 17.5806L12.0893 17.6856C11.9118 17.8774 11.7491 18.0822 11.6025 18.2985C11.4601 18.5095 11.3425 18.7363 11.2523 18.9744C11.2426 18.9948 11.2344 19.0159 11.2278 19.0374C11.173 19.1821 11.1423 19.3347 11.1367 19.4892C11.1297 19.6699 11.1867 19.8473 11.2978 19.99C11.5367 20.1079 11.8096 20.1377 12.0683 20.0741C12.2044 20.0179 12.3136 19.9112 12.3729 19.7764L12.4045 19.7134C12.3994 19.709 12.3948 19.7044 12.3905 19.6993C12.339 19.5547 12.3199 19.4004 12.3344 19.2476C12.3921 18.7939 12.5297 18.354 12.7407 17.9483L13.2134 18.1829C13.0195 18.5529 12.9005 18.9576 12.8632 19.3736C12.8614 19.4273 12.8698 19.4807 12.8878 19.5312C12.8922 19.5479 12.9006 19.5633 12.9121 19.5761C12.9237 19.5888 12.9382 19.5987 12.9543 19.6048C13.0502 19.6413 13.154 19.6521 13.2553 19.6362C13.3567 19.6202 13.4521 19.578 13.5321 19.5137C13.618 19.4526 13.6946 19.3794 13.7598 19.2966C13.7913 19.2441 14.6038 18.0253 13.4866 16.5895Z" />
<path d="M16.2848 13.3953C15.9346 13.3183 15.5844 13.2482 15.2342 13.1817L15.1326 13.1607C14.5443 13.0521 13.9594 12.9505 13.3816 12.863C13.3255 12.6879 13.266 12.5128 13.21 12.3062C13.8789 12.4042 14.5548 12.5198 15.2342 12.6564L15.3953 12.6879L16.1973 12.849H16.2358V12.9085L16.2848 13.3953Z" />
<path d="M10.0043 27.2622C10.1942 26.7944 10.0996 26.3144 9.79316 26.19C9.4867 26.0656 9.08436 26.344 8.89452 26.8117C8.70468 27.2795 8.79922 27.7595 9.10568 27.8839C9.41215 28.0083 9.81448 27.7299 10.0043 27.2622Z" />
<path d="M22.4128 27.8891C22.7193 27.7647 22.8138 27.2847 22.624 26.8169C22.4341 26.3492 22.0318 26.0708 21.7253 26.1952C21.4188 26.3196 21.3243 26.7996 21.5142 27.2674C21.704 27.7351 22.1063 28.0135 22.4128 27.8891Z" />
<path d="M17.9938 6.00612V6.02713L17.8677 6.22325L17.6365 6.20224H17.556L17.3529 6.26177L17.2548 6.32481L17.0972 6.40886C16.6064 6.81386 16.2019 7.31332 15.9077 7.87761C15.6135 8.4419 15.4357 9.05952 15.3847 9.69384C15.3847 9.69384 15.4722 11.3819 15.4582 12.2084C15.4612 12.3371 15.4542 12.4659 15.4372 12.5936C15.4372 12.6251 15.4372 12.6601 15.4127 12.6986C15.3726 12.8704 15.32 13.039 15.2551 13.203C15.1506 13.4984 15.0094 13.7796 14.8349 14.04C14.8073 14.0829 14.7769 14.1238 14.7438 14.1625C14.5477 14.4007 14.32 14.5338 14.0889 14.4182C14.0557 14.4061 14.0249 14.3883 13.9978 14.3657C13.9978 14.3657 13.9558 14.2816 13.8893 14.1345C13.7772 13.8824 13.5881 13.4341 13.406 12.8843C13.35 12.7092 13.2904 12.5341 13.2344 12.3274C13.1784 12.1208 13.1433 11.9772 13.1013 11.8126C12.632 9.80591 12.653 7.25987 15.5178 6.74857C15.7624 6.67799 15.9976 6.57804 16.2182 6.45089C16.4487 6.22693 16.7344 6.06784 17.0462 5.98974C17.358 5.91164 17.6848 5.91729 17.9938 6.00612Z" />
<path d="M25.516 15.437C25.3934 15.5736 25.2708 15.7066 25.1658 15.8257L25.1342 15.8607C25.0082 15.9903 24.8891 16.1094 24.784 16.2109C24.3288 16.6417 23.9961 16.9114 23.9961 16.9114C23.4322 17.0199 23.3202 16.2425 23.3482 15.5561C23.3482 15.451 23.3482 15.3494 23.3727 15.2514C23.3972 15.1533 23.3727 15.0868 23.3972 15.0132C23.4147 14.9035 23.4381 14.7948 23.4672 14.6875C23.4842 14.6312 23.5053 14.5762 23.5303 14.5229C23.7999 13.875 24.77 12.096 24.77 12.096C25.1221 11.1674 25.1723 10.1515 24.9136 9.19272C24.9136 9.17171 24.9136 9.17171 24.9136 9.15072C24.9153 9.14378 24.9153 9.13659 24.9136 9.12968C24.8519 8.8878 24.7651 8.65304 24.6545 8.42926L24.5459 8.28567L24.4653 8.14208L24.2972 8.002L24.0031 7.89343L23.975 7.63428C24.1115 7.65315 24.2454 7.68722 24.3743 7.73584C24.6123 7.83581 24.8279 7.98245 25.0084 8.16711C25.1888 8.35177 25.3305 8.5707 25.4249 8.81099C25.5653 9.02196 25.7325 9.21385 25.9222 9.38183C28.4998 11.252 26.9483 13.8365 25.516 15.437Z" />
<path d="M24.9139 9.19273C24.9139 9.17173 24.9139 9.17173 24.9139 9.15073C24.9155 9.1438 24.9155 9.1366 24.9139 9.12969C24.8633 8.64408 24.6884 8.1797 24.406 7.78138C23.9895 7.18385 23.3652 6.76306 22.655 6.60117L19.7763 5.92526C19.1768 5.78389 18.5481 5.83536 17.9797 6.07235C17.859 6.12248 17.742 6.18099 17.6295 6.24746C17.2788 6.44729 16.9734 6.71754 16.7323 7.0412C16.4912 7.36486 16.3197 7.73492 16.2286 8.12809L15.8119 9.90016C15.6204 10.7144 15.6728 11.567 15.9625 12.3516C16.0286 12.5409 16.1094 12.7248 16.2041 12.9015L16.2391 12.968V12.9085L16.2426 12.3621V12.2711C16.2635 12.2055 16.288 12.1412 16.3162 12.0785C16.3407 12.0189 16.3687 11.9629 16.3967 11.9069C16.4346 11.8321 16.4767 11.7596 16.5228 11.6897C16.541 11.6606 16.5608 11.6325 16.5823 11.6057C16.6072 11.5681 16.6341 11.5318 16.6629 11.4971C16.7665 11.368 16.884 11.2506 17.0131 11.1469C17.043 11.1193 17.0746 11.0936 17.1077 11.0699C17.2633 10.9508 17.4326 10.8509 17.612 10.7722C17.7153 10.7232 17.8232 10.6845 17.9341 10.6566C17.987 10.6357 18.0423 10.6215 18.0987 10.6146L18.2668 10.5831L18.2003 10.5551C18.2003 10.5551 19.8673 10.2854 19.4506 8.34522C19.5356 8.35922 19.6166 8.39152 19.688 8.43989C19.7593 8.48827 19.8193 8.55156 19.8638 8.62539C20.0109 8.87054 19.9829 7.92497 19.9829 7.92497L20.4452 8.1421C20.5571 7.83263 20.6208 7.50783 20.6343 7.17902C20.5747 6.9759 20.9845 7.61678 20.9109 7.96699C20.9109 7.96699 21.2612 7.1545 21.5763 7.23155C21.5763 7.23155 21.1281 7.95999 21.2261 8.48881C21.2261 8.48881 21.5168 8.3032 21.6254 8.38024C21.6254 8.38024 21.2752 8.73045 21.3102 9.01412C21.3102 9.01412 21.6814 8.85653 21.776 8.9721C21.8705 9.08767 20.3751 9.74957 21.9441 11.7002C22.0052 11.7497 22.0615 11.8048 22.1122 11.8648C22.1488 11.8996 22.1827 11.9371 22.2137 11.9769L22.2978 12.0855C22.3258 12.1205 22.3503 12.159 22.3748 12.194C22.5675 12.4814 22.6981 12.8058 22.7584 13.1465C22.8187 13.4872 22.8073 13.8367 22.725 14.1727C22.7108 14.2355 22.6932 14.2974 22.6725 14.3583L22.613 14.4459C22.7112 14.3822 22.8059 14.3132 22.8966 14.2393C23.6648 13.6376 24.2037 12.791 24.4236 11.8403L24.8368 10.0683C24.9055 9.78181 24.9315 9.48678 24.9139 9.19273ZM18.3194 10.1418C18.1925 10.1425 18.0682 10.1055 17.9624 10.0355C17.8565 9.9655 17.7738 9.86565 17.7248 9.74861C17.6757 9.63157 17.6625 9.5026 17.6869 9.37805C17.7112 9.2535 17.772 9.13898 17.8615 9.049C17.951 8.95902 18.0651 8.89763 18.1896 8.87261C18.314 8.8476 18.443 8.86009 18.5603 8.90849C18.6776 8.95689 18.7779 9.03903 18.8485 9.1445C18.9191 9.24997 18.9568 9.37401 18.9568 9.50092C18.9568 9.67029 18.8897 9.83277 18.7703 9.95286C18.6509 10.0729 18.4887 10.1409 18.3194 10.1418ZM22.2523 11.0068C22.1256 11.0061 22.0021 10.968 21.8972 10.8971C21.7922 10.8263 21.7106 10.7259 21.6627 10.6088C21.6147 10.4916 21.6025 10.3629 21.6276 10.2388C21.6527 10.1147 21.714 10.0008 21.8038 9.91154C21.8936 9.82226 22.0078 9.76157 22.132 9.73712C22.2562 9.71268 22.3849 9.72557 22.5018 9.77418C22.6187 9.82279 22.7186 9.90493 22.7889 10.0102C22.8591 10.1156 22.8966 10.2393 22.8966 10.3659C22.8966 10.4504 22.8799 10.534 22.8475 10.612C22.8151 10.69 22.7676 10.7608 22.7077 10.8204C22.6478 10.8799 22.5767 10.927 22.4986 10.959C22.4204 10.991 22.3367 11.0073 22.2523 11.0068Z" />
<path d="M22.0349 11.8372C22.0034 11.7986 21.9719 11.7636 21.9438 11.7251C21.9789 11.7706 22.0069 11.8021 22.0349 11.8372Z" />
<path d="M21.6149 15.9238C21.4854 15.9763 21.3278 16.0323 21.1527 16.0849C20.7871 16.2043 20.3996 16.2414 20.018 16.1934L19.8464 16.1549C19.4356 16.0179 19.0812 15.7496 18.8378 15.3914C18.466 15.6137 18.0323 15.7096 17.6015 15.6646C17.5425 15.6567 17.484 15.645 17.4264 15.6296C17.0583 15.5278 16.7306 15.3151 16.4878 15.0202C16.385 14.9034 16.2957 14.7754 16.2217 14.6385L16.3933 14.2638C16.4283 14.3303 16.8941 15.1358 17.5105 15.2899C17.8945 15.3716 18.2952 15.304 18.6311 15.1008L19.0444 13.5984L18.9708 13.5773C18.8907 13.5539 18.8166 13.5133 18.7537 13.4583C18.6228 13.3563 18.5353 13.2087 18.5086 13.045V12.9014L18.421 12.0854C18.4115 12.0006 18.4232 11.9148 18.4551 11.8357C18.4869 11.7565 18.538 11.6865 18.6036 11.632C18.6693 11.5775 18.7474 11.5401 18.8311 11.5233C18.9148 11.5065 19.0013 11.5107 19.0829 11.5356L20.5783 11.9909C20.6545 12.0202 20.7227 12.0672 20.7773 12.1279C20.8319 12.1886 20.8714 12.2613 20.8925 12.3402C20.9137 12.419 20.9159 12.5018 20.8991 12.5817C20.8822 12.6615 20.8467 12.7363 20.7954 12.7999L20.3086 13.3952L20.1861 13.5423C20.1088 13.6328 20.0082 13.7003 19.8951 13.7374C19.7821 13.7744 19.661 13.7796 19.5452 13.7524L19.1319 15.2058L19.0934 15.2303H19.1214V15.1988C19.3496 15.533 19.6987 15.7653 20.095 15.8467C20.532 15.8814 20.971 15.813 21.3768 15.6471L21.4748 15.7487C21.5134 15.8082 21.5659 15.8642 21.6149 15.9238Z" />
<path d="M19.1315 15.2095V15.241H19.1035L19.1315 15.2095Z"/>
<path d="M12.4426 6.6188C12.4756 6.66257 12.4925 6.71639 12.4904 6.77118C12.4884 6.82596 12.4674 6.87835 12.4312 6.91951C12.395 6.96066 12.3457 6.98806 12.2916 6.99708C12.2376 7.0061 12.182 6.99619 12.1344 6.96901C12.108 6.94277 12.0866 6.9119 12.0714 6.87796L11.8647 6.42969L12.341 6.55576C12.3795 6.5682 12.4144 6.58984 12.4426 6.6188Z" />
<path d="M11.2205 8.20888C11.2489 8.22704 11.2731 8.25112 11.2914 8.27946C11.3096 8.30781 11.3216 8.33976 11.3264 8.37314C11.3312 8.40652 11.3288 8.44055 11.3192 8.4729C11.3097 8.50525 11.2933 8.53516 11.2712 8.56061C11.249 8.58605 11.2217 8.60642 11.191 8.62034C11.1602 8.63425 11.1269 8.64138 11.0932 8.64124C11.0594 8.64109 11.0261 8.63368 10.9955 8.6195C10.9649 8.60533 10.9377 8.58472 10.9158 8.55909C10.8857 8.53619 10.8636 8.5043 10.8528 8.46804L10.6392 8.03027L11.1154 8.15985C11.1543 8.16637 11.1906 8.18332 11.2205 8.20888Z" />
<path d="M12.3025 2.90677C12.3205 2.92192 12.3353 2.94048 12.3461 2.96136C12.3569 2.98225 12.3634 3.00506 12.3654 3.02848C12.3673 3.05191 12.3646 3.07549 12.3574 3.09787C12.3503 3.12026 12.3387 3.141 12.3235 3.15892C12.3087 3.1773 12.2902 3.19248 12.2693 3.20354C12.2484 3.21461 12.2255 3.22132 12.2019 3.22328C12.1784 3.22525 12.1547 3.22242 12.1322 3.21497C12.1098 3.20752 12.0891 3.1956 12.0714 3.17993C12.0491 3.16276 12.0322 3.13971 12.0223 3.11339L11.8647 2.76318L12.215 2.86124C12.2478 2.8679 12.2782 2.88367 12.3025 2.90677Z" />
<path d="M10.3313 5.71907C10.3428 5.73018 10.352 5.7435 10.3583 5.75825C10.3646 5.77299 10.3678 5.78885 10.3678 5.80487C10.3678 5.82089 10.3646 5.83675 10.3583 5.85149C10.352 5.86624 10.3428 5.87956 10.3313 5.89067C10.3108 5.91561 10.2812 5.93144 10.2491 5.93472C10.217 5.938 10.1848 5.92846 10.1597 5.90818C10.1439 5.89522 10.1318 5.87831 10.1247 5.85915L10.0161 5.62451L10.2893 5.69105C10.3047 5.69802 10.3189 5.70748 10.3313 5.71907Z" />
<path d="M10.8702 6.74165C10.8908 6.75665 10.908 6.77571 10.9209 6.79764C10.9337 6.81958 10.9419 6.84392 10.945 6.86917C10.9481 6.89441 10.9459 6.92001 10.9387 6.94439C10.9314 6.96876 10.9192 6.99139 10.9029 7.01087C10.8865 7.03034 10.8664 7.04625 10.8436 7.0576C10.8209 7.06896 10.796 7.07552 10.7706 7.07687C10.7452 7.07823 10.7198 7.07435 10.696 7.06548C10.6722 7.05661 10.6504 7.04294 10.6321 7.02532C10.6086 7.00571 10.5905 6.98039 10.5796 6.95177L10.4185 6.60156L10.7932 6.70312C10.8221 6.70799 10.849 6.7214 10.8702 6.74165Z" />
<path d="M9.11902 6.94792C9.13722 6.95923 9.15279 6.97428 9.16471 6.99209C9.17662 7.00989 9.1846 7.03003 9.18811 7.05116C9.19162 7.0723 9.19058 7.09394 9.18506 7.11463C9.17954 7.13533 9.16967 7.15462 9.1561 7.1712C9.14254 7.18778 9.12559 7.20127 9.10639 7.21078C9.0872 7.22029 9.06619 7.22559 9.04478 7.22634C9.02337 7.22708 9.00205 7.22325 8.98224 7.2151C8.96243 7.20694 8.94459 7.19466 8.9299 7.17906C8.91063 7.16351 8.89608 7.14289 8.88788 7.11952L8.7583 6.83936L9.05948 6.9199C9.08141 6.92396 9.10191 6.93361 9.11902 6.94792Z" />
<path d="M9.37503 8.46772C9.39352 8.48291 9.40876 8.50166 9.41987 8.52285C9.43097 8.54405 9.4377 8.56725 9.43966 8.5911C9.44162 8.61495 9.43877 8.63894 9.43127 8.66167C9.42378 8.68439 9.4118 8.70537 9.39604 8.72338C9.36469 8.76064 9.31996 8.78409 9.27148 8.78868C9.223 8.79327 9.17466 8.77862 9.13688 8.74789C9.11633 8.72779 9.0997 8.70404 9.08785 8.67785L8.92676 8.32764L9.29798 8.4292C9.32693 8.43406 9.35377 8.44748 9.37503 8.46772Z" />
<path d="M7.56106 7.95649C7.58406 7.97398 7.60266 7.9966 7.61538 8.02255C7.62809 8.0485 7.63457 8.07706 7.63431 8.10595C7.63404 8.13484 7.62703 8.16328 7.61384 8.18898C7.60064 8.21469 7.58163 8.23696 7.55831 8.25402C7.53499 8.27109 7.50801 8.28247 7.47951 8.28727C7.45102 8.29206 7.4218 8.29014 7.39418 8.28165C7.36656 8.27316 7.3413 8.25834 7.32042 8.23837C7.29953 8.2184 7.2836 8.19383 7.27389 8.16662L7.11279 7.81641L7.48402 7.91446C7.51264 7.92224 7.53903 7.93663 7.56106 7.95649Z" />
<path d="M11.3082 4.6859C11.3452 4.71835 11.3681 4.76393 11.372 4.81297C11.3759 4.86201 11.3606 4.91064 11.3292 4.94856C11.3137 4.96715 11.2947 4.98247 11.2732 4.99362C11.2517 5.00476 11.2282 5.01151 11.2041 5.01347C11.1799 5.01542 11.1557 5.01255 11.1326 5.00501C11.1096 4.99748 11.0884 4.98543 11.0701 4.96957C11.0474 4.95056 11.0294 4.9266 11.0175 4.89953L10.8564 4.54932L11.2312 4.65088C11.2592 4.65658 11.2855 4.66855 11.3082 4.6859Z" />
<path d="M13.2311 4.83979C13.2516 4.85479 13.2688 4.87385 13.2817 4.89579C13.2946 4.91772 13.3028 4.94207 13.3058 4.96731C13.3089 4.99255 13.3067 5.01816 13.2995 5.04253C13.2923 5.06691 13.2801 5.08954 13.2637 5.10901C13.2474 5.12849 13.2272 5.14439 13.2045 5.15575C13.1817 5.1671 13.1569 5.17366 13.1315 5.17502C13.1061 5.17637 13.0807 5.17249 13.0568 5.16363C13.033 5.15476 13.0113 5.14109 12.9929 5.12346C12.9694 5.10386 12.9513 5.07853 12.9404 5.04992L12.7793 4.69971L13.154 4.80127C13.1825 4.80763 13.2089 4.82086 13.2311 4.83979Z" />
</g>
<defs>
<clipPath id="clip0_824_1393">
<rect width="29" height="28" />
</clipPath>
</defs>
</svg>
