<svg width="30" height="33" viewBox="0 0 30 33" fill="none" xmlns="http://www.w3.org/2000/svg">
<g clip-path="url(#clip0_567_922)">
<path d="M25.0689 10.221C24.1064 11.8578 21.4489 12.5463 19.7509 11.7625L19.1824 11.4184L19.1784 11.4162L8.54662 23.057L4.5474 27.2148C2.4204 27.7498 1.30909 25.379 1.30909 25.379L4.28814 19.9175L13.3291 7.83839C13.3291 7.83839 16.9161 2.64465 19.8975 2.76335C22.8451 2.88157 25.024 6.31586 25.0743 6.3953C25.7905 7.41652 25.8325 8.92237 25.0689 10.221Z" fill="#A1A8AE"/>
<path d="M24.8768 10.5473C23.8128 12.3567 20.9426 13.1454 19.2962 12.212C17.8354 11.384 17.3864 9.47736 18.4499 7.66874C19.5135 5.86011 22.2353 4.68333 24.1573 5.77288C25.6181 6.60094 25.9403 8.73863 24.8768 10.5473Z" fill="white"/>
<path d="M24.8781 10.545C23.8128 12.3568 20.9435 13.1459 19.2964 12.2122C17.8351 11.3838 17.3842 9.48117 18.4495 7.66943C19.5149 5.85769 22.2329 4.68199 24.1546 5.77132C25.6181 6.60099 25.941 8.7374 24.8781 10.545Z" fill="#A1A8AE"/>
<path d="M21.9907 8.05275C22.0654 8.03245 22.114 7.97061 22.0992 7.91461C22.0844 7.85861 22.0118 7.82967 21.9371 7.84997C21.8623 7.87027 21.8137 7.93211 21.8285 7.98811C21.8433 8.04411 21.9159 8.07305 21.9907 8.05275Z" fill="white"/>
<path d="M22.4057 7.39845C22.4804 7.37816 22.529 7.31631 22.5143 7.26031C22.4995 7.20432 22.4269 7.17538 22.3521 7.19567C22.2774 7.21597 22.2288 7.27782 22.2436 7.33381C22.2584 7.38981 22.331 7.41875 22.4057 7.39845Z" fill="white"/>
<path d="M22.769 7.98439C22.8437 7.96409 22.8923 7.90225 22.8775 7.84625C22.8627 7.79025 22.7902 7.76131 22.7154 7.78161C22.6407 7.80191 22.5921 7.86375 22.6069 7.91975C22.6217 7.97575 22.6942 8.00469 22.769 7.98439Z" fill="white"/>
<path d="M23.4672 8.30275C23.542 8.28245 23.5906 8.22061 23.5758 8.16461C23.561 8.10861 23.4884 8.07967 23.4137 8.09997C23.3389 8.12027 23.2903 8.18211 23.3051 8.23811C23.3199 8.2941 23.3925 8.32305 23.4672 8.30275Z" fill="white"/>
<path d="M24.2446 8.19923C24.3193 8.17894 24.3679 8.11709 24.3531 8.06109C24.3383 8.0051 24.2657 7.97616 24.191 7.99645C24.1163 8.01675 24.0677 8.0786 24.0824 8.13459C24.0972 8.19059 24.1698 8.21953 24.2446 8.19923Z" fill="white"/>
<path d="M23.8149 8.9297C23.8896 8.90941 23.9382 8.84756 23.9234 8.79156C23.9086 8.73557 23.8361 8.70663 23.7613 8.72692C23.6866 8.74722 23.638 8.80907 23.6528 8.86506C23.6676 8.92106 23.7401 8.95 23.8149 8.9297Z" fill="white"/>
<path d="M23.0776 9.3965C23.1523 9.3762 23.2009 9.31435 23.1861 9.25836C23.1713 9.20236 23.0988 9.17342 23.024 9.19372C22.9493 9.21402 22.9007 9.27586 22.9155 9.33186C22.9302 9.38785 23.0028 9.4168 23.0776 9.3965Z" fill="white"/>
<path d="M23.7524 9.64845C23.8271 9.62816 23.8757 9.56631 23.8609 9.51031C23.8461 9.45432 23.7736 9.42538 23.6988 9.44567C23.6241 9.46597 23.5755 9.52782 23.5903 9.58381C23.6051 9.63981 23.6776 9.66875 23.7524 9.64845Z" fill="white"/>
<path d="M24.1176 10.2207C24.1924 10.2004 24.241 10.1386 24.2262 10.0826C24.2114 10.0266 24.1388 9.99764 24.064 10.0179C23.9893 10.0382 23.9407 10.1001 23.9555 10.1561C23.9703 10.2121 24.0429 10.241 24.1176 10.2207Z" fill="white"/>
<path d="M22.6596 10.1094C22.7344 10.0891 22.783 10.0272 22.7682 9.97125C22.7534 9.91525 22.6808 9.88631 22.606 9.90661C22.5313 9.92691 22.4827 9.98875 22.4975 10.0447C22.5123 10.1007 22.5849 10.1297 22.6596 10.1094Z" fill="white"/>
<path d="M22.5844 10.7754C22.6592 10.7551 22.7078 10.6933 22.693 10.6373C22.6782 10.5813 22.6056 10.5523 22.5308 10.5726C22.4561 10.5929 22.4075 10.6548 22.4223 10.7108C22.4371 10.7668 22.5097 10.7957 22.5844 10.7754Z" fill="white"/>
<path d="M23.3256 10.3281C23.4004 10.3078 23.449 10.246 23.4342 10.19C23.4194 10.134 23.3468 10.1051 23.2721 10.1254C23.1973 10.1457 23.1487 10.2075 23.1635 10.2635C23.1783 10.3195 23.2509 10.3484 23.3256 10.3281Z" fill="white"/>
<path d="M22.7719 8.78517C22.8467 8.76487 22.8953 8.70303 22.8805 8.64703C22.8657 8.59103 22.7931 8.56209 22.7183 8.58239C22.6436 8.60269 22.595 8.66453 22.6098 8.72053C22.6246 8.77653 22.6972 8.80547 22.7719 8.78517Z" fill="white"/>
<path d="M21.9086 8.91017C21.9834 8.88987 22.032 8.82803 22.0172 8.77203C22.0024 8.71603 21.9298 8.68709 21.8551 8.70739C21.7803 8.72769 21.7317 8.78953 21.7465 8.84553C21.7613 8.90153 21.8339 8.93047 21.9086 8.91017Z" fill="white"/>
<path d="M21.2563 8.53908C21.331 8.51878 21.3796 8.45693 21.3648 8.40094C21.35 8.34494 21.2775 8.316 21.2027 8.3363C21.128 8.35659 21.0794 8.41844 21.0942 8.47444C21.109 8.53043 21.1815 8.55937 21.2563 8.53908Z" fill="white"/>
<path d="M20.3891 8.55861C20.4638 8.53831 20.5124 8.47646 20.4977 8.42047C20.4829 8.36447 20.4103 8.33553 20.3355 8.35583C20.2608 8.37612 20.2122 8.43797 20.227 8.49397C20.2418 8.54996 20.3144 8.5789 20.3891 8.55861Z" fill="white"/>
<path d="M20.7944 9.21291C20.8691 9.19261 20.9177 9.13076 20.9029 9.07477C20.8881 9.01877 20.8155 8.98983 20.7408 9.01013C20.6661 9.03042 20.6175 9.09227 20.6323 9.14826C20.647 9.20426 20.7196 9.2332 20.7944 9.21291Z" fill="white"/>
<path d="M20.7495 9.92189C20.8242 9.90159 20.8728 9.83975 20.858 9.78375C20.8432 9.72775 20.7706 9.69881 20.6959 9.71911C20.6211 9.73941 20.5725 9.80125 20.5873 9.85725C20.6021 9.91325 20.6747 9.94219 20.7495 9.92189Z" fill="white"/>
<path d="M20.2534 10.5469C20.3281 10.5266 20.3767 10.4647 20.3619 10.4087C20.3471 10.3528 20.2745 10.3238 20.1998 10.3441C20.125 10.3644 20.0764 10.4263 20.0912 10.4822C20.106 10.5382 20.1786 10.5672 20.2534 10.5469Z" fill="white"/>
<path d="M21.059 10.5449C21.1338 10.5246 21.1824 10.4628 21.1676 10.4068C21.1528 10.3508 21.0802 10.3219 21.0055 10.3422C20.9307 10.3625 20.8821 10.4243 20.8969 10.4803C20.9117 10.5363 20.9843 10.5652 21.059 10.5449Z" fill="white"/>
<path d="M21.7485 10.8652C21.8232 10.845 21.8718 10.7831 21.857 10.7271C21.8422 10.6711 21.7697 10.6422 21.6949 10.6625C21.6202 10.6828 21.5716 10.7446 21.5864 10.8006C21.6011 10.8566 21.6737 10.8855 21.7485 10.8652Z" fill="white"/>
<path d="M22.1537 11.3945C22.2285 11.3742 22.2771 11.3124 22.2623 11.2564C22.2475 11.2004 22.1749 11.1715 22.1002 11.1918C22.0254 11.2121 21.9768 11.2739 21.9916 11.3299C22.0064 11.3859 22.079 11.4148 22.1537 11.3945Z" fill="white"/>
<path d="M21.8178 10.1211C21.8926 10.1008 21.9412 10.039 21.9264 9.98297C21.9116 9.92697 21.839 9.89803 21.7642 9.91833C21.6895 9.93862 21.6409 10.0005 21.6557 10.0565C21.6705 10.1125 21.7431 10.1414 21.8178 10.1211Z" fill="white"/>
<path d="M21.5004 9.55812C21.5752 9.53782 21.6238 9.47598 21.609 9.41998C21.5942 9.36398 21.5216 9.33504 21.4469 9.35534C21.3721 9.37564 21.3235 9.43748 21.3383 9.49348C21.3531 9.54948 21.4257 9.57842 21.5004 9.55812Z" fill="white"/>
<path d="M24.3903 10.2899C23.6748 11.5066 21.6778 12.0011 20.5107 11.3394C19.4755 10.7526 19.1316 9.44561 19.8475 8.22807C20.5634 7.01054 22.4475 6.24939 23.8115 7.02264C24.8466 7.60944 25.1062 9.07233 24.3903 10.2899Z" stroke="white" stroke-width="0.36669" stroke-miterlimit="10"/>
<path d="M20.5193 7.59399L20.7915 7.8096L21.6164 7.30655L21.5756 6.96328" stroke="white" stroke-width="0.183345" stroke-miterlimit="10"/>
<path d="M23.0375 6.86763L22.9589 7.24399L23.8354 7.65771L24.1078 7.27588" stroke="white" stroke-width="0.183345" stroke-miterlimit="10"/>
<path d="M24.6785 8.3583L24.3068 8.51032L24.2176 9.51772L24.6602 9.60649" stroke="white" stroke-width="0.183345" stroke-miterlimit="10"/>
<path d="M24.0238 10.6887L23.5941 10.4452L22.6423 11.0488L22.6563 11.3634" stroke="white" stroke-width="0.183345" stroke-miterlimit="10"/>
<path d="M21.2699 11.5308L21.4881 11.1598L20.6202 10.7208L20.2483 11.0431" stroke="white" stroke-width="0.183345" stroke-miterlimit="10"/>
<path d="M19.4916 10.0271L20.0874 9.90657L20.0992 8.90513L19.6844 8.74791" stroke="white" stroke-width="0.183345" stroke-miterlimit="10"/>
<path d="M4.48828 19.873C4.48828 19.873 4.63565 22.347 8.84813 23.176" stroke="white" stroke-width="0.36669" stroke-miterlimit="10"/>
</g>
<defs>
<clipPath id="clip0_567_922">
<rect width="13" height="30" fill="white" transform="matrix(0.869944 0.493151 -0.506881 0.862016 16 0)"/>
</clipPath>
</defs>
</svg>
