<svg width="17" height="29" viewBox="0 0 17 29" fill="none" xmlns="http://www.w3.org/2000/svg">
<g clip-path="url(#clip0_823_1224)">
<path d="M3.09456 6.70865L3.71747 1.03351C3.70142 0.899753 3.73292 0.764607 3.80646 0.651728C4.2227 0.031682 5.79577 -0.180741 7.39182 0.16947C8.48264 0.404858 9.30937 0.855539 9.55911 1.34354C9.62533 1.46846 9.64854 1.61172 9.62513 1.75116C11.5972 2.12146 14.3616 2.64391 14.5482 2.67549C14.6201 2.68705 14.6875 2.7178 14.7434 2.76448C14.8684 2.90604 14.946 3.08308 14.9656 3.2709C14.9851 3.45872 14.9456 3.64797 14.8525 3.81224C14.8121 3.90975 14.7504 3.99699 14.6719 4.06753C14.5935 4.13807 14.5002 4.19012 14.3989 4.21986C14.3684 4.22267 14.3376 4.22267 14.307 4.21986C14.2671 4.21665 14.2276 4.20895 14.1894 4.1969L13.5349 4.06772L9.43854 3.34146L8.86443 7.47223C5.48001 8.58601 3.23522 6.86367 3.14049 6.78616L3.10317 6.83209C3.0934 6.79172 3.09049 6.74999 3.09456 6.70865Z" />
<path d="M16.351 19.787C16.5318 20.1516 15.6678 20.8434 14.7119 21.3458C14.2738 21.5822 13.808 21.7635 13.3254 21.8854C13.1873 21.9204 13.0458 21.9397 12.9034 21.9429C12.7053 21.9429 12.5762 21.8883 12.5216 21.7821L12.3924 21.5237C12.3322 21.5237 12.3637 21.4893 12.3006 21.4893L12.2604 21.4376C12.2512 21.4218 12.2453 21.4042 12.2432 21.386C12.2432 21.3429 12.2432 21.0989 12.757 20.6511C13.7904 19.7325 15.6649 19.1986 15.9749 19.2789C16.0869 19.3134 16.1357 19.4655 16.1357 19.4655L16.3424 19.7727L16.351 19.787Z" />
<path d="M12.3178 20.1603C11.8442 20.5823 11.6031 20.9641 11.5858 21.3085L11.5657 21.2913L8.14976 18.0131L7.50388 27.8621C7.50388 28.5654 5.59781 28.9902 3.75203 28.9902C1.90624 28.9902 0.00878906 28.5654 0.00878906 27.8563L3.0229 7.50391C4.10295 8.16409 5.3453 8.51095 6.61112 8.50574C7.34413 8.50365 8.07304 8.39635 8.77554 8.1871C8.67068 9.51777 9.00331 10.8463 9.72283 11.9705C9.83479 12.0653 9.941 12.1686 10.0443 12.2748L16.2993 18.5643L16.4027 18.6934C16.4027 18.6934 16.4027 18.6934 16.4199 18.7164C16.4337 18.7395 16.4434 18.7647 16.4486 18.791C16.3642 18.7221 16.2665 18.6712 16.1615 18.6418C15.53 18.4437 13.3886 19.2044 12.3178 20.1603Z" />
</g>
<defs>
<clipPath id="clip0_823_1224">
<rect width="16.4484" height="28.99" fill="white"/>
</clipPath>
</defs>
</svg>
