<svg width="175" height="39" viewBox="0 0 175 39" fill="none" xmlns="http://www.w3.org/2000/svg">
<g clip-path="url(#clip0_375_492)">
<path d="M9.0459 38.1282C6.67292 38.2065 4.36515 37.3272 2.62178 35.6806C1.75341 34.8461 1.07091 33.8305 0.620604 32.7027C0.1703 31.5749 -0.0372708 30.3614 0.0119785 29.1444C-0.0349743 27.9338 0.17382 26.7271 0.62416 25.6063C1.0745 24.4855 1.75582 23.477 2.62178 22.6493C4.36687 21.004 6.67225 20.1207 9.0459 20.1879C10.4487 20.1226 11.8427 20.4465 13.0798 21.1254C14.317 21.8044 15.351 22.8129 16.0723 24.044L13.061 25.7122C12.6399 25.04 12.0659 24.4817 11.388 24.085C10.675 23.6552 9.86037 23.433 9.03252 23.4424C8.32344 23.4224 7.61825 23.5558 6.9632 23.8339C6.30815 24.112 5.71804 24.5284 5.23158 25.0559C4.72825 25.6041 4.33656 26.2491 4.07923 26.9533C3.82191 27.6575 3.70409 28.407 3.73262 29.1581C3.70409 29.9092 3.82191 30.6586 4.07923 31.3628C4.33656 32.0671 4.72825 32.712 5.23158 33.2603C5.71955 33.7895 6.31184 34.2069 6.96934 34.4851C7.62684 34.7632 8.3346 34.8957 9.0459 34.8738C9.75104 34.8733 10.4499 34.7388 11.107 34.4773C11.6789 34.2737 12.2063 33.9578 12.6595 33.5474V31.428H8.17597V28.2009H16.2061V34.8601C15.3181 35.9054 14.2171 36.7396 12.9801 37.3041C11.7432 37.8687 10.4004 38.1499 9.0459 38.1282Z" fill="#1D252D"/>
<path d="M31.6507 37.7859H19.6055V20.4609H31.6507V23.7153H23.2592V27.38H31.4633V30.6207H23.2592V34.5451H31.6507V37.7859Z" fill="#1D252D"/>
<path d="M50.1606 37.7859H46.6808L38.6507 26.4775V37.7859H35.0371V20.4609H38.6908L46.547 31.4001V20.4609H50.1606V37.7859Z" fill="#1D252D"/>
<path d="M57.6282 37.7859H54.0146V20.4609H57.6282V37.7859Z" fill="#1D252D"/>
<path d="M74.8671 36.1587C74.0871 36.8517 73.1806 37.3801 72.1997 37.7134C71.2189 38.0466 70.1831 38.1782 69.1523 38.1004C68.1204 38.1778 67.0837 38.0449 66.1026 37.7092C65.1215 37.3735 64.2156 36.8418 63.4375 36.145C62.7779 35.4504 62.2653 34.6246 61.9314 33.7189C61.5976 32.8132 61.4497 31.8471 61.4969 30.8805V20.4609H65.164V30.7574C65.136 31.3002 65.2139 31.8432 65.3931 32.3549C65.5723 32.8667 65.8493 33.3369 66.2079 33.7384C66.5971 34.1208 67.0597 34.4167 67.5665 34.6073C68.0733 34.798 68.6132 34.8792 69.1523 34.846C69.6894 34.8798 70.2274 34.7988 70.7321 34.6081C71.2368 34.4174 71.697 34.1211 72.0833 33.7384C72.4395 33.3358 72.714 32.8651 72.8909 32.3534C73.0678 31.8417 73.1436 31.2993 73.1138 30.7574V20.4609H76.7943V30.8532C76.8472 31.8254 76.7034 32.7983 76.3718 33.7111C76.0402 34.624 75.528 35.4572 74.8671 36.1587Z" fill="#1D252D"/>
<path d="M86.6707 38.1004C85.3552 38.1728 84.0392 37.9674 82.8049 37.4968C81.5706 37.0263 80.4446 36.3008 79.4971 35.3656L81.4511 32.5624C82.1333 33.3135 82.9625 33.9098 83.8847 34.3126C84.8069 34.7154 85.8017 34.9158 86.8045 34.9007C87.5871 34.9478 88.3644 34.7421 89.0262 34.3127C89.2587 34.171 89.4519 33.971 89.5877 33.7318C89.7236 33.4925 89.7974 33.2218 89.8024 32.9453C89.7934 32.7036 89.7217 32.4686 89.5947 32.2644C89.4678 32.0602 89.29 31.8941 89.0797 31.783C88.5239 31.4459 87.911 31.2186 87.2729 31.113C86.478 30.9545 85.6918 30.7537 84.9174 30.5113C84.1143 30.2673 83.3275 29.9704 82.5619 29.6225C81.7925 29.2682 81.1423 28.6902 80.6925 27.9606C80.2426 27.2311 80.0131 26.3824 80.0324 25.5203C80.0245 24.7984 80.1783 24.0842 80.4822 23.4324C80.7861 22.7807 81.232 22.2086 81.7857 21.76C83.1156 20.6912 84.7801 20.1518 86.4699 20.2422C88.8975 20.1425 91.2681 21.0103 93.0814 22.6625L91.0739 25.3973C89.7526 24.0848 87.9781 23.3576 86.1353 23.3735C85.509 23.3343 84.8864 23.497 84.3553 23.8384C84.1549 23.9799 83.9923 24.1704 83.8824 24.3925C83.7726 24.6146 83.7189 24.8613 83.7263 25.1101C83.74 25.3366 83.8148 25.5549 83.9423 25.7407C84.0699 25.9265 84.2452 26.0727 84.449 26.163C85.0114 26.4799 85.6223 26.6972 86.2558 26.8057C87.0475 26.9644 87.8295 27.1698 88.5979 27.421C89.3965 27.6762 90.1788 27.9822 90.94 28.3372C91.7041 28.6986 92.3495 29.2783 92.7984 30.0062C93.2472 30.7341 93.4803 31.5791 93.4695 32.4394C93.4941 33.2 93.3505 33.9565 93.0492 34.6526C92.748 35.3486 92.2969 35.9663 91.7297 36.4595C90.2945 37.6164 88.4961 38.1997 86.6707 38.1004Z" fill="#1D252D"/>
<path d="M103.962 37.7859H100.389V23.7153H95.3701V20.4609H108.901V23.7153H103.962V37.7859Z" fill="#1D252D"/>
<path d="M125.082 36.1587C123.438 37.4265 121.434 38.1124 119.374 38.1124C117.314 38.1124 115.31 37.4265 113.666 36.1587C113.006 35.4641 112.494 34.6382 112.16 33.7326C111.826 32.8269 111.678 31.8608 111.725 30.8942V20.4609H115.379V30.7574C115.357 31.2998 115.44 31.8414 115.623 32.3507C115.807 32.8601 116.088 33.3271 116.45 33.7247C116.839 34.1071 117.302 34.403 117.808 34.5937C118.315 34.7843 118.855 34.8655 119.394 34.8323C119.933 34.8681 120.474 34.788 120.981 34.5972C121.488 34.4065 121.951 34.1092 122.339 33.7247C122.695 33.3222 122.969 32.8514 123.146 32.3397C123.323 31.828 123.399 31.2856 123.369 30.7438V20.4609H127.023V30.8532C127.074 31.8263 126.928 32.7998 126.594 33.7127C126.26 34.6256 125.745 35.4583 125.082 36.1587Z" fill="#1D252D"/>
<path d="M137.555 37.7858H130.863V20.4609H137.555C139.942 20.3614 142.272 21.2204 144.046 22.8538C144.879 23.659 145.533 24.637 145.964 25.7219C146.396 26.8069 146.595 27.9737 146.549 29.1439C146.595 30.3108 146.397 31.4743 145.968 32.5567C145.538 33.6391 144.888 34.6154 144.059 35.4202C142.277 37.0459 139.942 37.8949 137.555 37.7858ZM137.555 34.5451C138.273 34.5811 138.991 34.4608 139.66 34.1921C140.329 33.9233 140.934 33.5123 141.436 32.9863C142.385 31.9445 142.898 30.5662 142.868 29.1439C142.941 27.7114 142.461 26.307 141.53 25.2331C141.019 24.7113 140.405 24.3062 139.729 24.0445C139.053 23.7829 138.33 23.6707 137.609 23.7153H134.53V34.5451H137.555Z" fill="#1D252D"/>
<path d="M153.241 37.7859H149.627V20.4609H153.241V37.7859Z" fill="#1D252D"/>
<path d="M165.139 38.101C163.969 38.14 162.804 37.936 161.713 37.5011C160.623 37.0663 159.63 36.4097 158.795 35.5713C157.968 34.7334 157.319 33.7302 156.888 32.6244C156.458 31.5186 156.255 30.334 156.293 29.1445C156.255 27.955 156.458 26.7704 156.888 25.6646C157.319 24.5588 157.968 23.5556 158.795 22.7177C160.526 21.084 162.796 20.1768 165.152 20.1768C167.509 20.1768 169.779 21.084 171.51 22.7177C172.334 23.5568 172.981 24.5605 173.409 25.6662C173.838 26.772 174.038 27.956 173.999 29.1445C174.039 30.3363 173.837 31.5235 173.406 32.6318C172.975 33.7401 172.325 34.7455 171.496 35.585C170.657 36.4201 169.661 37.0734 168.569 37.5057C167.477 37.9381 166.31 38.1405 165.139 38.101ZM161.418 33.2194C161.904 33.7296 162.484 34.1352 163.126 34.4122C163.767 34.6892 164.456 34.8319 165.152 34.8319C165.849 34.8319 166.538 34.6892 167.179 34.4122C167.821 34.1352 168.401 33.7296 168.886 33.2194C169.858 32.089 170.366 30.62 170.305 29.1172C170.366 27.6143 169.858 26.1453 168.886 25.015C168.401 24.5047 167.821 24.0991 167.179 23.8221C166.538 23.5451 165.849 23.4024 165.152 23.4024C164.456 23.4024 163.767 23.5451 163.126 23.8221C162.484 24.0991 161.904 24.5047 161.418 25.015C160.454 26.1488 159.952 27.6166 160.013 29.1172C159.952 30.6177 160.454 32.0855 161.418 33.2194Z" fill="#1D252D"/>
<path d="M94.4734 9.24848H93.6972V8.19558C93.4463 8.55931 93.1165 8.85882 92.7335 9.07071C92.1873 9.37347 91.5569 9.47878 90.9447 9.36957C90.3325 9.26036 89.7744 8.94303 89.3609 8.46906C88.8063 7.75679 88.5254 6.86203 88.5712 5.95305C88.5267 5.04423 88.8074 4.14991 89.3609 3.43703C89.772 2.94089 90.3426 2.61058 90.9705 2.50534C91.5983 2.40009 92.2424 2.5268 92.7871 2.86273C93.1781 3.08024 93.513 3.38956 93.7641 3.76521V0.12793H94.4734V9.24848ZM91.6361 8.76989C92.0732 8.7702 92.5027 8.65225 92.8808 8.42804C93.2157 8.2226 93.4961 7.93615 93.6972 7.59392V4.32584C93.4787 3.97057 93.1745 3.67863 92.8138 3.47806C92.4363 3.25261 92.0065 3.13458 91.5692 3.13621C91.2527 3.12433 90.9381 3.19015 90.6516 3.32814C90.3652 3.46613 90.1153 3.67228 89.923 3.9293C89.4997 4.51334 89.2827 5.22674 89.3073 5.95305C89.2805 6.67964 89.4978 7.39375 89.923 7.9768C90.1226 8.24277 90.3835 8.4543 90.6823 8.59264C90.9811 8.73099 91.3087 8.79187 91.6361 8.76989Z" fill="#1D252D"/>
<path d="M97.3241 1.60523C97.2577 1.61307 97.1904 1.60744 97.1261 1.58867C97.0618 1.5699 97.0018 1.53835 96.9494 1.49584C96.8982 1.44679 96.8575 1.38746 96.8299 1.32157C96.8023 1.25568 96.7883 1.18465 96.7888 1.11297C96.7792 1.03221 96.7887 0.950278 96.8167 0.874105C96.8446 0.797933 96.8902 0.729772 96.9494 0.675402C96.999 0.62623 97.0577 0.587613 97.122 0.561793C97.1863 0.535972 97.255 0.523462 97.3241 0.524988C97.3955 0.521604 97.4667 0.533207 97.5335 0.559079C97.6002 0.584951 97.6611 0.624541 97.7123 0.675402C97.7618 0.722867 97.8016 0.77999 97.8291 0.8434C97.8567 0.906809 97.8716 0.975222 97.8729 1.0446C97.8747 1.11694 97.8621 1.18891 97.8359 1.25612C97.8096 1.32333 97.7703 1.38437 97.7202 1.43554C97.6701 1.48671 97.6103 1.52693 97.5446 1.55375C97.4788 1.58058 97.4083 1.59344 97.3375 1.59156L97.3241 1.60523ZM97.7123 9.24899H97.0163V2.64446H97.7123V9.24899Z" fill="#1D252D"/>
<path d="M102.745 11.9288C102.26 11.9441 101.775 11.8747 101.313 11.7236C100.884 11.5495 100.5 11.2783 100.189 10.9306L100.59 10.3562C100.837 10.6663 101.154 10.9104 101.514 11.0673C101.906 11.2212 102.325 11.2955 102.745 11.2861C103.311 11.3073 103.865 11.1232 104.311 10.7665C104.527 10.5715 104.696 10.3282 104.806 10.0554C104.915 9.78265 104.961 9.48785 104.94 9.19396V8.14106C104.692 8.51442 104.362 8.82345 103.976 9.04354C103.569 9.28066 103.106 9.39891 102.638 9.38539C102.243 9.39512 101.852 9.31558 101.491 9.15246C101.13 8.98935 100.809 8.74669 100.55 8.44189C99.9965 7.73442 99.7155 6.84423 99.7605 5.93955C99.7168 5.03504 99.9976 4.14529 100.55 3.43721C100.807 3.12991 101.128 2.88468 101.489 2.71917C101.85 2.55366 102.242 2.47199 102.638 2.48003C103.083 2.47784 103.522 2.58923 103.915 2.80413C104.308 3.01903 104.641 3.33063 104.886 3.71069V2.64412H105.596V9.19396C105.63 9.58038 105.575 9.96956 105.435 10.3304C105.296 10.6913 105.076 11.0139 104.793 11.2724C104.202 11.7206 103.481 11.9519 102.745 11.9288ZM102.745 8.74272C103.212 8.7364 103.667 8.59408 104.057 8.3325C104.417 8.13192 104.722 7.83999 104.94 7.48471V4.32602C104.722 3.97075 104.417 3.67881 104.057 3.47823C103.679 3.25279 103.249 3.13476 102.812 3.13638C102.496 3.12564 102.181 3.19196 101.895 3.32986C101.609 3.46777 101.359 3.6733 101.166 3.92948C100.741 4.51252 100.523 5.22663 100.55 5.95322C100.521 6.68011 100.739 7.39495 101.166 7.97697C101.362 8.22814 101.613 8.42843 101.899 8.5615C102.185 8.69458 102.498 8.75667 102.812 8.74272H102.745Z" fill="#1D252D"/>
<path d="M108.419 1.60523C108.308 1.60426 108.2 1.56582 108.112 1.49584C108.06 1.44679 108.02 1.38746 107.992 1.32157C107.964 1.25568 107.95 1.18465 107.951 1.11297C107.941 1.03221 107.951 0.950278 107.979 0.874105C108.007 0.797933 108.052 0.729772 108.112 0.675402C108.195 0.591446 108.303 0.538477 108.419 0.524988C108.491 0.521604 108.562 0.533207 108.629 0.559079C108.695 0.584951 108.756 0.624541 108.807 0.675402C108.857 0.722867 108.897 0.77999 108.924 0.8434C108.952 0.906809 108.967 0.975222 108.968 1.0446C108.97 1.11694 108.957 1.18891 108.931 1.25612C108.905 1.32333 108.865 1.38437 108.815 1.43554C108.765 1.48671 108.706 1.52693 108.64 1.55375C108.574 1.58058 108.504 1.59344 108.433 1.59156L108.419 1.60523ZM108.767 9.24899H108.071V2.64446H108.767V9.24899Z" fill="#1D252D"/>
<path d="M112.743 9.41245C111.895 9.41245 111.471 8.93386 111.471 7.97669V3.27284H110.4V2.64383H111.471V0.838867H112.18V2.64383H113.519V3.27284H112.18V7.86729C112.18 8.46895 112.403 8.76978 112.85 8.76978C112.985 8.77393 113.12 8.74796 113.245 8.69366C113.37 8.63936 113.481 8.55802 113.572 8.45528L113.84 9.00223C113.541 9.28106 113.147 9.42844 112.743 9.41245Z" fill="#1D252D"/>
<path d="M120.157 9.24842H119.461V8.469C119.184 8.77936 118.844 9.02448 118.465 9.1874C118.086 9.35031 117.677 9.42712 117.266 9.4125C116.685 9.41783 116.123 9.20355 115.687 8.81085C115.461 8.61229 115.282 8.36387 115.164 8.08436C115.046 7.80484 114.991 7.50152 115.004 7.19732C114.99 6.89622 115.042 6.59562 115.158 6.31839C115.274 6.04117 115.45 5.79461 115.674 5.59746C116.115 5.21687 116.676 5.01279 117.253 5.02316C117.664 5.00668 118.074 5.08264 118.453 5.24567C118.832 5.4087 119.172 5.65483 119.448 5.96666V4.59926C119.455 4.38811 119.413 4.17821 119.328 3.98604C119.242 3.79387 119.113 3.62466 118.953 3.49167C118.598 3.20985 118.157 3.06462 117.708 3.08145C117.319 3.07742 116.935 3.16256 116.583 3.33059C116.231 3.49862 115.92 3.74525 115.674 4.0523L115.285 3.56004C115.602 3.20627 115.989 2.92657 116.421 2.74011C116.853 2.55365 117.319 2.46485 117.788 2.4798C118.398 2.45449 118.997 2.64264 119.488 3.01308C119.711 3.20678 119.886 3.45114 120 3.72659C120.114 4.00204 120.163 4.30091 120.144 4.59926L120.157 9.24842ZM117.48 8.85187C117.853 8.87241 118.225 8.80115 118.565 8.64409C118.905 8.48703 119.203 8.24878 119.434 7.94939V6.49995C119.207 6.20359 118.913 5.96708 118.578 5.8101C118.243 5.65313 117.876 5.58022 117.507 5.59746C117.265 5.57907 117.022 5.61076 116.792 5.69064C116.562 5.77052 116.35 5.89696 116.169 6.06238C116.011 6.21154 115.886 6.39378 115.802 6.5967C115.719 6.79963 115.68 7.01847 115.687 7.23834C115.681 7.45605 115.721 7.67253 115.804 7.87308C115.887 8.07364 116.012 8.25356 116.169 8.40063C116.351 8.56297 116.564 8.68649 116.793 8.76397C117.023 8.84145 117.266 8.87133 117.507 8.85187H117.48Z" fill="#1D252D"/>
<path d="M123.355 9.24848H122.659V0.12793H123.355V9.24848Z" fill="#1D252D"/>
<path d="M134.464 9.24842H133.768V8.46901C133.491 8.77937 133.151 9.02449 132.772 9.1874C132.393 9.35031 131.984 9.42712 131.573 9.41251C130.992 9.41655 130.43 9.20243 129.994 8.81085C129.768 8.61229 129.589 8.36388 129.471 8.08436C129.352 7.80484 129.298 7.50153 129.311 7.19732C129.296 6.89622 129.349 6.59563 129.465 6.3184C129.581 6.04117 129.757 5.79461 129.98 5.59747C130.421 5.21688 130.982 5.0128 131.56 5.02316C131.971 5.00669 132.38 5.08265 132.76 5.24568C133.139 5.40871 133.478 5.65483 133.754 5.96667V4.59927C133.761 4.38811 133.72 4.17822 133.634 3.98605C133.548 3.79388 133.42 3.62466 133.259 3.49168C132.908 3.21186 132.473 3.06669 132.028 3.08146C131.639 3.07743 131.255 3.16257 130.903 3.3306C130.551 3.49863 130.24 3.74526 129.994 4.05231L129.605 3.56004C129.918 3.20308 130.302 2.9193 130.732 2.72813C131.161 2.53696 131.626 2.44292 132.095 2.45245C132.704 2.42714 133.304 2.61529 133.795 2.98574C134.018 3.17943 134.193 3.4238 134.307 3.69924C134.421 3.97469 134.47 4.27357 134.45 4.57192L134.464 9.24842ZM131.787 8.85188C132.16 8.87357 132.532 8.80283 132.872 8.64569C133.213 8.48854 133.511 8.24965 133.741 7.94939V6.49995C133.514 6.20274 133.221 5.96561 132.885 5.80854C132.55 5.65148 132.182 5.57909 131.814 5.59747C131.572 5.57908 131.328 5.61077 131.098 5.69065C130.868 5.77053 130.656 5.89696 130.475 6.06238C130.317 6.21154 130.192 6.39379 130.109 6.59671C130.026 6.79963 129.987 7.01848 129.994 7.23835C129.988 7.45606 130.028 7.67254 130.111 7.87309C130.194 8.07364 130.318 8.25356 130.475 8.40064C130.658 8.56297 130.87 8.68649 131.1 8.76397C131.33 8.84145 131.573 8.87134 131.814 8.85188H131.787Z" fill="#1D252D"/>
<path d="M139.536 11.9285C139.051 11.9438 138.567 11.8745 138.104 11.7234C137.675 11.5497 137.291 11.2785 136.98 10.9303L137.381 10.356C137.624 10.6647 137.936 10.9087 138.291 11.0671C138.688 11.2224 139.111 11.2967 139.536 11.2858C140.102 11.3071 140.656 11.123 141.102 10.7662C141.318 10.5713 141.487 10.3279 141.597 10.0552C141.706 9.78242 141.752 9.48762 141.731 9.19372V8.14083C141.483 8.51385 141.153 8.8228 140.767 9.04331C140.361 9.28108 139.897 9.39939 139.429 9.38516C139.034 9.39489 138.643 9.31534 138.282 9.15223C137.921 8.98911 137.6 8.74646 137.341 8.44165C136.787 7.73419 136.507 6.844 136.552 5.93932C136.508 5.0348 136.789 4.14505 137.341 3.43698C137.597 3.13148 137.915 2.88732 138.274 2.72188C138.632 2.55643 139.022 2.47378 139.416 2.4798C139.861 2.4776 140.3 2.589 140.693 2.80389C141.085 3.01879 141.419 3.33039 141.664 3.71046V2.64389H142.373V9.19372C142.406 9.58125 142.349 9.97113 142.207 10.3321C142.065 10.693 141.843 11.015 141.557 11.2722C140.974 11.7145 140.262 11.9455 139.536 11.9285ZM139.536 8.74248C139.973 8.74411 140.403 8.62607 140.781 8.40063C141.141 8.20006 141.446 7.90812 141.664 7.55285V4.32579C141.446 3.97051 141.141 3.67857 140.781 3.478C140.403 3.25256 139.973 3.13452 139.536 3.13615C139.22 3.12427 138.905 3.19009 138.619 3.32808C138.332 3.46608 138.082 3.67223 137.89 3.92924C137.465 4.51229 137.247 5.2264 137.274 5.95299C137.245 6.67988 137.463 7.39472 137.89 7.97674C138.092 8.23771 138.355 8.44398 138.653 8.57747C138.952 8.71097 139.278 8.76763 139.603 8.74248H139.536Z" fill="#1D252D"/>
<path d="M147.794 9.41227C147.361 9.42794 146.929 9.34951 146.528 9.18215C146.126 9.0148 145.764 8.76233 145.465 8.44142C145.16 8.10583 144.923 7.71212 144.766 7.28276C144.61 6.8534 144.538 6.39681 144.555 5.93908C144.533 5.03786 144.849 4.16204 145.438 3.49144C145.713 3.16579 146.054 2.90619 146.438 2.73125C146.822 2.5563 147.24 2.47036 147.66 2.47956C148.083 2.45963 148.504 2.53929 148.892 2.71238C149.279 2.88547 149.622 3.14736 149.895 3.47776C150.453 4.1844 150.743 5.07281 150.712 5.9801V6.17154H145.358C145.373 6.86642 145.635 7.53203 146.094 8.04487C146.323 8.29448 146.601 8.49086 146.911 8.62064C147.22 8.75041 147.553 8.81055 147.888 8.79694C148.268 8.79498 148.644 8.71257 148.992 8.5549C149.34 8.39723 149.652 8.16771 149.908 7.88078L150.27 8.3457C149.951 8.688 149.567 8.95941 149.141 9.14293C148.715 9.32646 148.256 9.41815 147.794 9.41227ZM150.016 5.59723C150.014 4.96294 149.796 4.34904 149.4 3.86063C149.192 3.60132 148.928 3.39562 148.628 3.26021C148.328 3.1248 148.001 3.06348 147.673 3.08122C147.356 3.06833 147.039 3.13076 146.749 3.2636C146.459 3.39644 146.203 3.59611 146.001 3.84696C145.594 4.33355 145.359 4.94471 145.331 5.58356L150.016 5.59723Z" fill="#1D252D"/>
<path d="M157.939 9.24854H157.243V4.77714C157.267 4.54614 157.244 4.31249 157.175 4.09114C157.106 3.8698 156.992 3.66566 156.841 3.49179C156.513 3.22347 156.097 3.09164 155.677 3.12259C155.259 3.12755 154.849 3.24045 154.486 3.45077C154.124 3.6422 153.812 3.91872 153.576 4.25753V9.24854H152.88V2.644H153.576V3.6422C153.867 3.30961 154.216 3.03593 154.606 2.83544C155.014 2.5992 155.476 2.47661 155.945 2.47991C156.223 2.45163 156.504 2.48869 156.766 2.58827C157.028 2.68785 157.264 2.84731 157.456 3.05446C157.649 3.26161 157.792 3.51097 157.876 3.78347C157.959 4.05598 157.981 4.34441 157.939 4.62673V9.24854Z" fill="#1D252D"/>
<path d="M163.185 9.41279C162.759 9.42692 162.335 9.34476 161.944 9.1722C161.553 8.99964 161.204 8.74093 160.923 8.41458C160.336 7.73208 160.025 6.84743 160.053 5.93959C160.023 5.03132 160.334 4.14568 160.923 3.4646C161.204 3.13825 161.553 2.87955 161.944 2.70699C162.335 2.53442 162.759 2.45227 163.185 2.4664C163.626 2.45458 164.063 2.55009 164.461 2.74504C164.859 2.94 165.206 3.22881 165.473 3.58767L164.991 4.02524C164.795 3.73411 164.531 3.49777 164.222 3.33776C163.913 3.17775 163.571 3.09913 163.225 3.10908C162.888 3.09395 162.553 3.15754 162.245 3.29499C161.936 3.43244 161.663 3.64013 161.445 3.90217C160.987 4.4704 160.749 5.19041 160.776 5.92592C160.751 6.66106 160.989 7.3802 161.445 7.94967C161.661 8.215 161.934 8.42584 162.242 8.56577C162.551 8.7057 162.887 8.77095 163.225 8.75643C163.572 8.76363 163.915 8.68239 164.223 8.52004C164.532 8.35769 164.796 8.11937 164.991 7.8266L165.473 8.26417C165.21 8.62889 164.864 8.92359 164.466 9.12347C164.068 9.32336 163.628 9.42258 163.185 9.41279Z" fill="#1D252D"/>
<path d="M166.932 11.8325L167.053 11.1761C167.23 11.2536 167.422 11.2909 167.615 11.2855C167.821 11.2935 168.023 11.2309 168.19 11.1078C168.379 10.9377 168.522 10.7212 168.605 10.4787L169.114 9.30279L166.37 2.64355H167.146L169.502 8.41398L171.831 2.64355H172.66L169.314 10.6975C169.205 11.0559 168.987 11.3689 168.69 11.5905C168.394 11.8121 168.036 11.9304 167.668 11.9282C167.42 11.9355 167.171 11.9032 166.932 11.8325Z" fill="#1D252D"/>
</g>
<defs>
<clipPath id="clip0_375_492">
<rect width="174" height="38" fill="white" transform="translate(0.0117188 0.12793)"/>
</clipPath>
</defs>
</svg>
