<svg width="41" height="41" viewBox="0 0 41 41" fill="none" xmlns="http://www.w3.org/2000/svg">
<g clip-path="url(#clip0_492_781)">
<path d="M19.6074 0.115234H20.1586C19.9749 0.115234 19.7912 0.117597 19.6074 0.122321V0.115234Z" fill="white"/>
<path d="M20.7099 0.115234V0.122321C20.5272 0.117597 20.3435 0.115234 20.1587 0.115234H20.7099Z" fill="white"/>
<path d="M34.8049 6.40896L34.7986 6.41526C34.5451 6.14858 34.2852 5.88872 34.019 5.63569L34.0253 5.62939L34.8049 6.40896Z" fill="white"/>
<path d="M34.7699 34.1725L33.9903 34.9521L33.9824 34.9442C34.2502 34.6922 34.5108 34.4331 34.7643 34.167L34.7699 34.1725Z" fill="white"/>
<path d="M19.6074 40.4248C19.7901 40.4295 19.9738 40.4319 20.1586 40.4319H19.6074V40.4248Z" fill="white"/>
<path d="M20.7099 40.4248V40.4319H20.1587C20.344 40.4319 20.5277 40.4295 20.7099 40.4248Z" fill="white"/>
<path d="M5.52054 34.1323C5.58432 34.1993 5.6481 34.2662 5.71267 34.3323L5.5166 34.1363L5.52054 34.1323Z" fill="white"/>
<path d="M6.29951 34.9138V34.9201L6.10107 34.7217C6.16486 34.7847 6.23258 34.8492 6.29951 34.9138Z" fill="white"/>
<path d="M0 20.5776C0 20.6603 0 20.7422 0.00472462 20.8249H0V20.5776Z" fill="white"/>
<path d="M0.00716603 19.7222C0.00716603 19.8048 0.00716603 19.8867 0.00244141 19.9694V19.7222H0.00716603Z" fill="white"/>
<path d="M6.26508 5.66743L6.09814 5.82492L6.26193 5.66113L6.26508 5.66743Z" fill="white"/>
<path fill-rule="evenodd" clip-rule="evenodd" d="M4.05554 20.2734C4.05554 11.3942 11.2795 4.17028 20.1586 4.17028C29.0401 4.17028 36.2617 11.3942 36.2617 20.2734C36.2617 29.1525 29.0354 36.3765 20.1586 36.3765C11.2818 36.3765 4.05554 29.1525 4.05554 20.2734ZM20.7098 3.07732V0.12207C25.6747 0.252244 30.4154 2.21643 34.0175 5.6357L31.9284 7.7232C28.8848 4.8518 24.8924 3.19847 20.7098 3.07732ZM20.7098 37.4694C24.8752 37.3483 28.8523 35.7076 31.8914 32.8566L33.9805 34.9441C30.3832 38.3435 25.6575 40.2951 20.7098 40.4247V37.4694ZM0.00732422 20.8246H2.96494C3.08626 25.0065 4.73927 28.9982 7.61003 32.0416L5.51938 34.1323C2.10049 30.53 0.136847 25.7893 0.00732422 20.8246ZM5.48789 6.44913L7.57774 8.54056C4.72676 11.5797 3.08606 15.5568 2.96494 19.7222H0.00732422C0.136183 14.7736 2.08787 10.047 5.48789 6.44913ZM6.29973 34.9134L8.39117 32.8228C11.4341 35.6939 15.4255 37.3475 19.6074 37.4694V40.4255C14.6427 40.2961 9.90187 38.3324 6.29973 34.9134ZM8.35573 7.75785L6.26509 5.6672C9.87111 2.22839 14.6263 0.252128 19.6074 0.12207V3.07732C15.4087 3.19977 11.4025 4.86625 8.35573 7.75785ZM32.6765 32.0849C35.57 29.0358 37.2368 25.0263 37.3578 20.8246L40.3099 20.8112C40.1852 25.7993 38.2085 30.5624 34.7648 34.1732L32.6765 32.0849ZM34.7987 6.41448C38.2131 10.0128 40.1758 14.7469 40.3091 19.7056L37.3562 19.719C37.2343 15.5375 35.5811 11.5464 32.7104 8.50355L34.7987 6.41448ZM11.84 19.2593V16.6357H10.2852V23.7227H11.84V20.136C11.8987 20.0502 11.9756 19.9815 12.0707 19.93C12.1846 19.8685 12.3322 19.8378 12.5137 19.8378C12.6644 19.8378 12.792 19.8608 12.8966 19.907C13.0012 19.95 13.0812 20.0285 13.1365 20.1423C13.195 20.253 13.2242 20.4099 13.2242 20.6129V23.7227H14.7883V20.6221C14.7883 20.2592 14.7468 19.9516 14.6637 19.6993C14.5838 19.4471 14.4684 19.2426 14.3177 19.0857C14.1701 18.9288 13.9932 18.815 13.7871 18.7443C13.5841 18.6735 13.3596 18.6382 13.1135 18.6382C12.8397 18.6382 12.5906 18.6981 12.366 18.8181C12.1648 18.9256 11.9894 19.0727 11.84 19.2593ZM18.3164 23.2749C18.2644 23.3392 18.2065 23.4008 18.1426 23.4597C18.0288 23.5642 17.8889 23.6504 17.7228 23.718C17.5567 23.7826 17.3552 23.8149 17.1183 23.8149C16.8107 23.8149 16.5278 23.7519 16.2694 23.6258C16.0141 23.4997 15.8095 23.3243 15.6557 23.0998C15.5019 22.8722 15.425 22.6107 15.425 22.3154C15.425 22.057 15.4712 21.8263 15.5635 21.6233C15.6588 21.4203 15.8018 21.2481 15.9925 21.1066C16.1833 20.9651 16.4263 20.8574 16.7215 20.7836C17.0168 20.7098 17.3644 20.6729 17.7643 20.6729H18.2441V20.4099C18.2441 20.2684 18.2241 20.1469 18.1841 20.0454C18.1442 19.9439 18.0811 19.8654 17.995 19.8101C17.9088 19.7516 17.7935 19.7224 17.6489 19.7224C17.532 19.7224 17.4321 19.7424 17.349 19.7824C17.266 19.8224 17.2029 19.8824 17.1599 19.9623C17.1168 20.0423 17.0953 20.1438 17.0953 20.2669H15.5404C15.5404 20.0362 15.5911 19.8224 15.6926 19.6255C15.7972 19.4256 15.9449 19.2518 16.1356 19.1042C16.3294 18.9565 16.5601 18.8427 16.8277 18.7627C17.0983 18.6797 17.3998 18.6382 17.732 18.6382C18.1288 18.6382 18.4825 18.7043 18.7932 18.8365C19.1069 18.9688 19.3545 19.1672 19.536 19.4317C19.7175 19.6932 19.8082 20.0223 19.8082 20.4191V22.4631C19.8082 22.7891 19.8267 23.0367 19.8636 23.2059C19.9005 23.372 19.9528 23.5181 20.0205 23.6442V23.7227H18.461C18.4003 23.5963 18.3521 23.447 18.3164 23.2749ZM18.2441 22.306C18.2333 22.3258 18.221 22.3458 18.2072 22.3662C18.1426 22.4615 18.0488 22.543 17.9258 22.6107C17.8058 22.6753 17.6597 22.7076 17.4874 22.7076C17.3921 22.7076 17.306 22.6876 17.2291 22.6476C17.1522 22.6076 17.0907 22.5523 17.0445 22.4815C17.0014 22.4077 16.9799 22.3246 16.9799 22.2324C16.9799 22.137 16.9922 22.0463 17.0168 21.9602C17.0445 21.874 17.0876 21.7971 17.146 21.7295C17.2075 21.6587 17.2875 21.6033 17.3859 21.5634C17.4874 21.5234 17.6105 21.5034 17.7551 21.5034H18.2441V22.306ZM22.1982 20.1884V23.7227H20.6433V18.7304H22.1013L22.1542 19.3118C22.1626 19.3009 22.1711 19.2901 22.1798 19.2795C22.3489 19.0703 22.5504 18.9119 22.7842 18.8043C23.021 18.6935 23.284 18.6382 23.5732 18.6382C23.8039 18.6382 24.0146 18.672 24.2053 18.7397C24.399 18.8073 24.5651 18.9165 24.7036 19.0672C24.8451 19.218 24.9527 19.4179 25.0265 19.667C25.1034 19.9131 25.1419 20.2176 25.1419 20.5806V23.7227H23.5778V20.576C23.5778 20.376 23.5501 20.2238 23.4947 20.1192C23.4394 20.0116 23.3594 19.9377 23.2548 19.8977C23.1502 19.8578 23.0226 19.8378 22.8719 19.8378C22.7119 19.8378 22.5766 19.8685 22.4658 19.93C22.3551 19.9916 22.2659 20.0777 22.1982 20.1884ZM28.5331 22.0986C28.5915 22.1601 28.6208 22.2339 28.6208 22.32C28.6208 22.4123 28.5962 22.4938 28.5469 22.5646C28.4977 22.6322 28.4254 22.6861 28.3301 22.7261C28.2378 22.766 28.1209 22.786 27.9794 22.786C27.8256 22.786 27.6903 22.763 27.5734 22.7168C27.4565 22.6707 27.3627 22.5984 27.292 22.5C27.2243 22.4015 27.1874 22.2754 27.1812 22.1216H25.7325C25.7325 22.3892 25.8155 22.6538 25.9816 22.9152C26.1508 23.1736 26.3999 23.3889 26.7291 23.5612C27.0582 23.7303 27.4611 23.8149 27.9379 23.8149C28.2732 23.8149 28.5746 23.7765 28.8422 23.6996C29.1098 23.6227 29.339 23.515 29.5297 23.3766C29.7204 23.2351 29.8665 23.0721 29.968 22.8875C30.0695 22.6999 30.1203 22.4954 30.1203 22.2739C30.1203 21.9202 30.028 21.6387 29.8434 21.4296C29.662 21.2204 29.4251 21.0589 29.1329 20.9451C28.8407 20.8313 28.5269 20.7436 28.1917 20.6821C28.044 20.6544 27.9179 20.6237 27.8133 20.5898C27.7087 20.5529 27.6226 20.5129 27.555 20.4699C27.4873 20.4237 27.4365 20.3745 27.4027 20.3222C27.3719 20.2669 27.3566 20.2053 27.3566 20.1377C27.3566 20.0423 27.3827 19.9593 27.435 19.8885C27.4873 19.8178 27.5565 19.7624 27.6426 19.7224C27.7318 19.6824 27.8302 19.6624 27.9379 19.6624C28.0917 19.6624 28.2147 19.687 28.307 19.7363C28.3993 19.7824 28.4654 19.8501 28.5054 19.9393C28.5485 20.0285 28.57 20.1361 28.57 20.2622H30.1249C30.1249 19.9423 30.0357 19.6609 29.8573 19.4179C29.682 19.1718 29.4313 18.9811 29.1052 18.8458C28.7792 18.7074 28.3916 18.6382 27.9425 18.6382C27.6165 18.6382 27.3258 18.6812 27.0705 18.7673C26.8152 18.8504 26.5983 18.9657 26.4199 19.1134C26.2446 19.2579 26.1108 19.4256 26.0185 19.6163C25.9293 19.8039 25.8847 20.0039 25.8847 20.2161C25.8847 20.4345 25.9293 20.6283 26.0185 20.7975C26.1108 20.9666 26.2369 21.1127 26.3969 21.2358C26.5568 21.3588 26.7429 21.4634 26.9551 21.5495C27.1705 21.6356 27.3996 21.7048 27.6426 21.7571C27.8979 21.8125 28.0963 21.8679 28.2378 21.9232C28.3793 21.9755 28.4777 22.034 28.5331 22.0986Z" fill="#00A886"/>
</g>
<defs>
<clipPath id="clip0_492_781">
<rect width="40.3097" height="40.3168" fill="white" transform="translate(0 0.115234)"/>
</clipPath>
</defs>
</svg>
