<svg width="35" height="32" viewBox="0 0 35 32" fill="none" xmlns="http://www.w3.org/2000/svg">
<g clip-path="url(#clip0_520_1751)">
<path d="M24.6711 6.18477L21.6634 1.03206C21.5926 0.910649 21.4985 0.804479 21.3864 0.719704C21.2743 0.634929 21.1466 0.573234 21.0105 0.538193C20.8744 0.503152 20.7327 0.495461 20.5936 0.515567C20.4545 0.535672 20.3208 0.583174 20.2002 0.655321L11.0054 6.17582L24.6711 6.18477Z"/>
<path d="M4.45485 7.58889C4.07915 7.58889 3.71884 7.43965 3.45317 7.17398C3.18751 6.90832 3.03826 6.54801 3.03826 6.1723C3.03826 5.7966 3.18751 5.43628 3.45317 5.17062C3.71884 4.90496 4.07915 4.75571 4.45485 4.75571H9.22903L13.9611 1.92163H4.45485C3.45274 1.92345 2.48356 2.27963 1.71876 2.92717C0.953962 3.57472 0.442826 4.47189 0.275774 5.45998C0.236857 5.57574 0.213095 5.69606 0.205078 5.81793V27.4221C0.208383 28.5482 0.657187 29.6272 1.45346 30.4235C2.24973 31.2197 3.32876 31.6685 4.45485 31.6719H28.5387C29.2895 31.6697 30.0089 31.3706 30.5397 30.8397C31.0706 30.3088 31.3698 29.5894 31.3719 28.8387V26.0055H27.83C26.1392 26.0055 24.5176 25.3338 23.3221 24.1383C22.1265 22.9427 21.4549 21.3212 21.4549 19.6304C21.4549 17.9396 22.1265 16.3181 23.3221 15.1225C24.5176 13.9269 26.1392 13.2553 27.83 13.2553H31.3719V10.4221C31.3695 9.6714 31.0703 8.95214 30.5395 8.42132C30.0086 7.89051 29.2894 7.59125 28.5387 7.58889H4.45485ZM27.1221 4.75571C27.1224 4.0706 26.8742 3.40865 26.4234 2.89272C25.9726 2.37679 25.35 2.04192 24.671 1.95027L27.1221 6.17588V4.75571Z"/>
<path d="M33.1462 15.3806H27.8298C26.7024 15.3806 25.6213 15.8285 24.8241 16.6256C24.0269 17.4228 23.5791 18.5039 23.5791 19.6313C23.5791 20.7586 24.0269 21.8398 24.8241 22.637C25.6213 23.4341 26.7024 23.882 27.8298 23.882H33.1462C33.4271 23.8808 33.6961 23.7685 33.8945 23.5696C34.0928 23.3708 34.2044 23.1015 34.2049 22.8206V16.4428C34.2046 16.1618 34.0932 15.8923 33.8948 15.6933C33.6964 15.4942 33.4273 15.3818 33.1462 15.3806ZM27.8334 21.047C27.5532 21.047 27.2793 20.9639 27.0463 20.8082C26.8134 20.6526 26.6318 20.4313 26.5246 20.1725C26.4174 19.9136 26.3893 19.6288 26.444 19.354C26.4986 19.0792 26.6336 18.8268 26.8317 18.6287C27.0298 18.4306 27.2822 18.2957 27.557 18.241C27.8318 18.1864 28.1166 18.2144 28.3755 18.3216C28.6343 18.4288 28.8555 18.6104 29.0112 18.8434C29.1669 19.0763 29.2499 19.3502 29.2499 19.6304C29.2499 19.8167 29.2132 20.0012 29.1418 20.1733C29.0704 20.3454 28.9657 20.5018 28.8338 20.6333C28.7018 20.7649 28.5453 20.8692 28.373 20.9402C28.2007 21.0112 28.0161 21.0475 27.8298 21.047H27.8334Z"/>
</g>
<defs>
<clipPath id="clip0_520_1751">
<rect width="34" height="31.1668" fill="white" transform="translate(0.205078 0.505859)"/>
</clipPath>
</defs>
</svg>
