<svg width="83" height="36" viewBox="0 0 83 36" fill="none" xmlns="http://www.w3.org/2000/svg">
<g clip-path="url(#clip0_68_1263)">
<path d="M80.1859 6.42627e-05H2.60019C2.24668 0.00265808 1.89733 0.0766779 1.57314 0.217679C1.24895 0.358679 0.956605 0.563752 0.713662 0.820577C0.470719 1.0774 0.282193 1.38068 0.159406 1.7122C0.0366194 2.04372 -0.0178937 2.39663 -0.000858837 2.74975V5.3508L2.74882 16.5725C3.1204 17.9845 3.93788 19.3222 5.34988 19.3222H77.3619C78.8482 19.3222 79.5913 17.9845 79.9629 16.5725L82.7126 5.3508V2.74975C82.7448 2.39944 82.7032 2.04627 82.5906 1.71299C82.4781 1.37971 82.2969 1.07371 82.0589 0.814679C81.8209 0.555651 81.5312 0.349343 81.2086 0.209041C80.886 0.0687381 80.5376 -0.00244821 80.1859 6.42627e-05Z" fill="#A1A8AE"/>
<path d="M80.261 4.75585C80.3572 4.76211 80.4492 4.79744 80.5249 4.85716C80.6005 4.91688 80.6562 4.99817 80.6846 5.09027L77.935 15.8735C77.8515 16.2939 77.6651 16.6872 77.3925 17.018H5.44735C5.18439 16.6895 5.0058 16.3017 4.92714 15.8884L2.22948 5.09027C2.26099 4.99863 2.31855 4.91818 2.39512 4.85877C2.47168 4.79937 2.56392 4.7636 2.66051 4.75585H80.261ZM80.261 3.26953H2.67537C2.1659 3.27906 1.67995 3.48569 1.31963 3.846C0.959319 4.20632 0.752689 4.69227 0.743164 5.20174L3.49285 16.2748C3.79011 17.3152 4.31032 18.5043 5.42506 18.5043H77.437C78.5518 18.5043 79.072 17.2409 79.3693 16.2748L82.1933 5.20174C82.1837 4.69227 81.9771 4.20632 81.6168 3.846C81.2565 3.48569 80.7705 3.27906 80.261 3.26953Z" fill="white"/>
<path d="M12.634 28.3145L9.5127 31.733L12.634 35.1515V33.2193H32.1047V30.2467H12.634V28.3145Z" fill="#A1A8AE"/>
<path d="M70.2286 28.3145L73.3499 31.733L70.2286 35.1515V33.2193H50.6836V30.2467H70.2286V28.3145Z" fill="#A1A8AE"/>
<path d="M6.68865 6.83671C6.76297 7.13398 6.31707 7.35692 5.72255 7.35692C5.12802 7.35692 4.60781 7.13398 4.53349 6.83671C4.45918 6.53945 4.90507 6.24219 5.4996 6.24219C6.09412 6.24219 6.61434 6.53945 6.68865 6.83671Z" fill="white"/>
<path d="M10.6272 6.31738C10.0327 6.31738 9.66113 6.54033 9.66113 6.91191C9.66113 7.28349 10.2557 7.43212 10.8502 7.43212C11.4447 7.43212 11.8163 7.20917 11.8163 6.91191C11.8163 6.61465 11.2218 6.31738 10.6272 6.31738Z" fill="white"/>
<path d="M15.8287 6.31738C15.2342 6.31738 14.7883 6.54033 14.8626 6.91191C14.9369 7.28349 15.4571 7.43212 15.9773 7.43212C16.4975 7.43212 17.0178 7.20917 16.9434 6.91191C16.8691 6.61465 16.3489 6.31738 15.8287 6.31738Z" fill="white"/>
<path d="M20.9566 6.31738C20.3621 6.31738 19.9162 6.54033 19.9905 6.91191C20.0648 7.28349 20.5107 7.43212 21.1053 7.43212C21.6998 7.43212 22.1457 7.20917 22.1457 6.91191C22.1457 6.61465 21.5512 6.31738 20.9566 6.31738Z" fill="white"/>
<path d="M26.0846 6.31738C25.49 6.31738 25.0441 6.54033 25.1185 6.91191C25.1928 7.28349 25.6387 7.43212 26.2332 7.43212C26.8277 7.43212 27.2736 7.20917 27.2736 6.91191C27.2736 6.61465 26.6791 6.31738 26.0846 6.31738Z" fill="white"/>
<path d="M31.2123 6.31738C30.6178 6.31738 30.1719 6.54033 30.1719 6.91191C30.1719 7.28349 30.6921 7.43212 31.2866 7.43212C31.8811 7.43212 32.327 7.20917 32.327 6.91191C32.327 6.61465 31.8068 6.31738 31.2123 6.31738Z" fill="white"/>
<path d="M36.4144 6.31738C35.8199 6.31738 35.374 6.54033 35.374 6.91191C35.374 7.28349 35.8942 7.43212 36.4144 7.43212C36.9347 7.43212 37.4549 7.20917 37.4549 6.91191C37.4549 6.61465 36.9347 6.31738 36.4144 6.31738Z" fill="white"/>
<path d="M41.5424 6.31738C42.1369 6.31738 42.5828 6.54033 42.5828 6.91191C42.5828 7.28349 42.1369 7.50643 41.5424 7.50643C40.9478 7.50643 40.502 7.28349 40.502 6.91191C40.502 6.54033 40.9478 6.31738 41.5424 6.31738Z" fill="white"/>
<path d="M46.6703 6.31738C46.0758 6.31738 45.6299 6.54033 45.6299 6.91191C45.6299 7.28349 46.0758 7.43212 46.6703 7.43212C47.2648 7.43212 47.7107 7.20917 47.7107 6.91191C47.7107 6.61465 47.2648 6.31738 46.6703 6.31738Z" fill="white"/>
<path d="M51.7976 6.31738C51.2031 6.31738 50.7572 6.54033 50.6829 6.91191C50.6086 7.28349 51.1288 7.43212 51.7233 7.43212C52.3178 7.43212 52.7637 7.20917 52.838 6.91191C52.9124 6.61465 52.3921 6.31738 51.7976 6.31738Z" fill="white"/>
<path d="M56.9998 6.31738C56.4053 6.31738 55.9594 6.54033 55.885 6.91191C55.8107 7.28349 56.3309 7.43212 56.8512 7.43212C57.3714 7.43212 57.8916 7.20917 57.9659 6.91191C58.0402 6.61465 57.52 6.31738 56.9998 6.31738Z" fill="white"/>
<path d="M62.1284 6.31738C61.5339 6.31738 61.0137 6.54033 61.0137 6.91191C61.0137 7.28349 61.3853 7.43212 61.9798 7.43212C62.5743 7.43212 63.0945 7.20917 63.0945 6.91191C63.0945 6.61465 62.7229 6.31738 62.1284 6.31738Z" fill="white"/>
<path d="M67.2554 6.31738C66.6608 6.31738 66.1406 6.54033 66.1406 6.91191C66.1406 7.28349 66.5122 7.43212 67.1067 7.43212C67.7013 7.43212 68.2215 7.20917 68.2215 6.91191C68.2215 6.61465 67.8499 6.31738 67.2554 6.31738Z" fill="white"/>
<path d="M72.3837 6.31738C71.7892 6.31738 71.2689 6.54033 71.1946 6.91191C71.1203 7.28349 71.5662 7.43212 72.1607 7.43212C72.7553 7.43212 73.2755 7.20917 73.3498 6.91191C73.4241 6.61465 72.9782 6.31738 72.3837 6.31738Z" fill="white"/>
<path d="M77.5858 6.31738C76.9913 6.31738 76.4711 6.54033 76.3968 6.91191C76.3225 7.28349 76.7684 7.43212 77.3629 7.43212C77.9574 7.43212 78.4776 7.20917 78.5519 6.91191C78.6262 6.61465 78.106 6.31738 77.5858 6.31738Z" fill="white"/>
<path d="M6.09359 9.06641C5.49907 9.06641 5.12749 9.28935 5.20181 9.58662C5.27612 9.88388 5.79633 10.1068 6.31654 10.1068C6.83675 10.1068 7.28265 9.88388 7.20833 9.58662C7.13402 9.28935 6.68812 9.06641 6.09359 9.06641Z" fill="white"/>
<path d="M11.1477 9.06641C10.5532 9.06641 10.1816 9.28935 10.1816 9.58662C10.1816 9.88388 10.7762 10.1068 11.2964 10.1068C11.8166 10.1068 12.2625 9.88388 12.2625 9.58662C12.2625 9.28935 11.7423 9.06641 11.1477 9.06641Z" fill="white"/>
<path d="M16.2005 9.06641C15.606 9.06641 15.2344 9.28935 15.2344 9.58662C15.2344 9.88388 15.7546 10.1068 16.3491 10.1068C16.9436 10.1068 17.3152 9.88388 17.3152 9.58662C17.3152 9.28935 16.795 9.06641 16.2005 9.06641Z" fill="white"/>
<path d="M21.2545 9.06641C20.66 9.06641 20.2141 9.28935 20.2884 9.58662C20.3627 9.88388 20.8086 10.1068 21.4031 10.1068C21.9976 10.1068 22.3692 9.88388 22.3692 9.58662C22.3692 9.28935 21.849 9.06641 21.2545 9.06641Z" fill="white"/>
<path d="M26.3824 9.06641C25.7879 9.06641 25.342 9.28935 25.4163 9.58662C25.4906 9.88388 25.9365 10.1068 26.4567 10.1068C26.9769 10.1068 27.4971 9.88388 27.4228 9.58662C27.3485 9.28935 26.9026 9.06641 26.3824 9.06641Z" fill="white"/>
<path d="M31.435 9.06641C30.8404 9.06641 30.3945 9.28935 30.3945 9.58662C30.3945 9.88388 30.9147 10.1068 31.435 10.1068C31.9552 10.1068 32.4754 9.88388 32.4754 9.58662C32.4754 9.28935 31.9552 9.06641 31.435 9.06641Z" fill="white"/>
<path d="M36.4887 9.06641C35.8941 9.06641 35.4482 9.28935 35.4482 9.58662C35.4482 9.88388 35.9685 10.1068 36.4887 10.1068C37.0089 10.1068 37.5291 9.88388 37.5291 9.58662C37.5291 9.28935 37.0089 9.06641 36.4887 9.06641Z" fill="white"/>
<path d="M41.5424 9.06641C42.1369 9.06641 42.5828 9.28935 42.5828 9.58662C42.5828 9.88388 42.1369 10.1068 41.5424 10.1068C40.9478 10.1068 40.502 9.88388 40.502 9.58662C40.502 9.28935 40.9478 9.06641 41.5424 9.06641Z" fill="white"/>
<path d="M46.5961 9.06641C46.0016 9.06641 45.5557 9.28935 45.5557 9.58662C45.5557 9.88388 46.0016 10.1068 46.5961 10.1068C47.1906 10.1068 47.6365 9.88388 47.6365 9.58662C47.6365 9.28935 47.1906 9.06641 46.5961 9.06641Z" fill="white"/>
<path d="M51.6498 9.06641C51.0553 9.06641 50.6094 9.28935 50.6094 9.58662C50.6094 9.88388 51.0553 10.1068 51.5755 10.1068C52.0957 10.1068 52.6159 9.88388 52.6159 9.58662C52.6159 9.28935 52.2443 9.06641 51.6498 9.06641Z" fill="white"/>
<path d="M56.7025 9.06641C56.108 9.06641 55.6621 9.28935 55.6621 9.58662C55.6621 9.88388 56.108 10.1068 56.6282 10.1068C57.1484 10.1068 57.6686 9.88388 57.7429 9.58662C57.8173 9.28935 57.2971 9.06641 56.7025 9.06641Z" fill="white"/>
<path d="M61.7566 9.06641C61.1621 9.06641 60.7162 9.28935 60.6419 9.58662C60.5676 9.88388 61.0135 10.1068 61.608 10.1068C62.2025 10.1068 62.6484 9.88388 62.7227 9.58662C62.7971 9.28935 62.3512 9.06641 61.7566 9.06641Z" fill="white"/>
<path d="M66.8103 9.06641C66.2158 9.06641 65.7699 9.28935 65.6956 9.58662C65.6213 9.88388 66.0672 10.1068 66.6617 10.1068C67.2562 10.1068 67.7021 9.88388 67.7764 9.58662C67.8508 9.28935 67.4049 9.06641 66.8103 9.06641Z" fill="white"/>
<path d="M71.8628 9.06641C71.2683 9.06641 70.748 9.28935 70.748 9.58662C70.748 9.88388 71.1196 10.1068 71.7142 10.1068C72.3087 10.1068 72.8289 9.88388 72.8289 9.58662C72.8289 9.28935 72.4573 9.06641 71.8628 9.06641Z" fill="white"/>
<path d="M76.9165 9.06641C76.322 9.06641 75.8018 9.28935 75.8018 9.58662C75.8018 9.88388 76.1733 10.1068 76.6935 10.1068C77.2138 10.1068 77.8083 9.88388 77.8083 9.58662C77.9569 9.36367 77.511 9.06641 76.9165 9.06641Z" fill="white"/>
<path d="M6.68832 11.8164C6.0938 11.8164 5.72222 12.0394 5.79653 12.3366C5.87085 12.6339 6.39106 12.8568 6.91127 12.8568C7.43148 12.8568 7.87737 12.6339 7.80306 12.3366C7.72874 12.0394 7.20853 11.8164 6.68832 11.8164Z" fill="white"/>
<path d="M11.6678 11.8164C11.0733 11.8164 10.7017 12.0394 10.776 12.3366C10.8503 12.6339 11.2962 12.8568 11.8908 12.8568C12.4853 12.8568 12.8569 12.6339 12.7826 12.3366C12.7082 12.0394 12.2623 11.8164 11.6678 11.8164Z" fill="white"/>
<path d="M16.6468 11.8164C16.0522 11.8164 15.6807 12.0394 15.6807 12.3366C15.6807 12.6339 16.2009 12.8568 16.7954 12.8568C17.3899 12.8568 17.7615 12.6339 17.7615 12.3366C17.7615 12.0394 17.2413 11.8164 16.6468 11.8164Z" fill="white"/>
<path d="M21.6263 11.8164C21.0317 11.8164 20.6602 12.0394 20.6602 12.3366C20.6602 12.6339 21.1804 12.8568 21.7006 12.8568C22.2208 12.8568 22.6667 12.6339 22.6667 12.3366C22.6667 12.0394 22.1465 11.8164 21.6263 11.8164Z" fill="white"/>
<path d="M26.6048 11.8164C26.0103 11.8164 25.6387 12.0394 25.6387 12.3366C25.6387 12.6339 26.1589 12.8568 26.6791 12.8568C27.1993 12.8568 27.6452 12.6339 27.6452 12.3366C27.6452 12.0394 27.125 11.8164 26.6048 11.8164Z" fill="white"/>
<path d="M31.5846 11.8164C30.99 11.8164 30.5441 12.0394 30.6185 12.3366C30.6928 12.6339 31.1387 12.8568 31.6589 12.8568C32.1791 12.8568 32.625 12.6339 32.625 12.3366C32.625 12.0394 32.1048 11.8164 31.5846 11.8164Z" fill="white"/>
<path d="M36.5629 11.8164C35.9684 11.8164 35.5225 12.0394 35.5225 12.3366C35.5225 12.6339 35.9684 12.8568 36.5629 12.8568C37.1574 12.8568 37.529 12.6339 37.529 12.3366C37.529 12.0394 37.0831 11.8164 36.5629 11.8164Z" fill="white"/>
<path d="M41.5424 11.8164C42.1369 11.8164 42.5828 12.0394 42.5828 12.3366C42.5828 12.6339 42.1369 12.8568 41.5424 12.8568C40.9478 12.8568 40.502 12.6339 40.502 12.3366C40.502 12.0394 40.9478 11.8164 41.5424 11.8164Z" fill="white"/>
<path d="M46.5219 11.8164C45.9273 11.8164 45.4814 12.0394 45.4814 12.3366C45.4814 12.6339 45.9273 12.8568 46.5219 12.8568C47.1164 12.8568 47.5623 12.6339 47.5623 12.3366C47.5623 12.0394 47.0421 11.8164 46.5219 11.8164Z" fill="white"/>
<path d="M51.5004 11.8164C50.9059 11.8164 50.46 12.0394 50.46 12.3366C50.46 12.6339 50.9059 12.8568 51.4261 12.8568C51.9463 12.8568 52.4665 12.6339 52.4665 12.3366C52.4665 12.0394 52.0206 11.8164 51.5004 11.8164Z" fill="white"/>
<path d="M56.4799 11.8164C55.8853 11.8164 55.4395 12.0394 55.4395 12.3366C55.4395 12.6339 55.8854 12.8568 56.4056 12.8568C56.9258 12.8568 57.446 12.6339 57.446 12.3366C57.446 12.0394 57.0001 11.8164 56.4799 11.8164Z" fill="white"/>
<path d="M61.4594 11.8164C60.8648 11.8164 60.4189 12.0394 60.4189 12.3366C60.4189 12.6339 60.7905 12.8568 61.385 12.8568C61.9796 12.8568 62.4255 12.6339 62.4998 12.3366C62.4255 12.0394 61.9796 11.8164 61.4594 11.8164Z" fill="white"/>
<path d="M66.4383 11.8164C65.8437 11.8164 65.3978 12.0394 65.3235 12.3366C65.2492 12.6339 65.6951 12.8568 66.2896 12.8568C66.8842 12.8568 67.3301 12.6339 67.4044 12.3366C67.4787 12.0394 66.9585 11.8164 66.4383 11.8164Z" fill="white"/>
<path d="M71.4178 11.8164C70.8233 11.8164 70.3774 12.0394 70.3031 12.3366C70.2287 12.6339 70.6746 12.8568 71.1948 12.8568C71.7151 12.8568 72.2353 12.6339 72.3096 12.3366C72.3839 12.0394 71.938 11.8164 71.4178 11.8164Z" fill="white"/>
<path d="M76.3221 11.8164C75.7276 11.8164 75.2817 12.0394 75.2074 12.3366C75.133 12.6339 75.5789 12.8568 76.0991 12.8568C76.6194 12.8568 77.1396 12.6339 77.2139 12.3366C77.2882 12.0394 76.9166 11.8164 76.3221 11.8164Z" fill="white"/>
<path d="M7.20852 14.417C6.68831 14.417 6.24241 14.6399 6.31673 14.9372C6.39104 15.2345 6.91125 15.4574 7.43146 15.4574C7.95167 15.4574 8.39757 15.2345 8.32325 14.9372C8.24894 14.6399 7.80304 14.417 7.20852 14.417Z" fill="white"/>
<path d="M12.188 14.417C11.6678 14.417 11.2219 14.6399 11.2962 14.9372C11.3705 15.2345 11.8164 15.4574 12.411 15.4574C13.0055 15.4574 13.3771 15.2345 13.3027 14.9372C13.2284 14.6399 12.7082 14.417 12.188 14.417Z" fill="white"/>
<path d="M17.0184 14.417C16.4239 14.417 16.0523 14.6399 16.1266 14.9372C16.2009 15.2345 16.6468 15.4574 17.167 15.4574C17.6872 15.4574 18.1331 15.2345 18.0588 14.9372C17.9845 14.6399 17.6129 14.417 17.0184 14.417Z" fill="white"/>
<path d="M21.9231 14.417C21.4029 14.417 20.957 14.6399 20.957 14.9372C20.957 15.2345 21.4772 15.4574 21.9975 15.4574C22.5177 15.4574 22.9636 15.2345 22.9636 14.9372C22.9636 14.6399 22.5177 14.417 21.9231 14.417Z" fill="white"/>
<path d="M26.8284 14.417C26.2339 14.417 25.8623 14.6399 25.8623 14.9372C25.8623 15.2345 26.3825 15.4574 26.9027 15.4574C27.4229 15.4574 27.8688 15.2345 27.8688 14.9372C27.8688 14.6399 27.4229 14.417 26.8284 14.417Z" fill="white"/>
<path d="M31.7327 14.417C31.2125 14.417 30.7666 14.6399 30.7666 14.9372C30.7666 15.2345 31.2125 15.4574 31.807 15.4574C32.4015 15.4574 32.7731 15.2345 32.7731 14.9372C32.7731 14.6399 32.2529 14.417 31.7327 14.417Z" fill="white"/>
<path d="M36.638 14.417C36.0435 14.417 35.6719 14.6399 35.6719 14.9372C35.6719 15.2345 36.1178 15.4574 36.7123 15.4574C37.3068 15.4574 37.6784 15.2345 37.6784 14.9372C37.6784 14.6399 37.1582 14.417 36.638 14.417Z" fill="white"/>
<path d="M41.5423 14.417C42.0625 14.417 42.5084 14.6399 42.5084 14.9372C42.5084 15.2345 42.0625 15.4574 41.5423 15.4574C41.0221 15.4574 40.5762 15.2345 40.5762 14.9372C40.5762 14.6399 40.9478 14.417 41.5423 14.417Z" fill="white"/>
<path d="M46.4476 14.417C45.9274 14.417 45.4072 14.6399 45.4072 14.9372C45.4072 15.2345 45.8531 15.4574 46.3733 15.4574C46.8935 15.4574 47.3394 15.2345 47.4138 14.9372C47.4881 14.6399 46.9679 14.417 46.4476 14.417Z" fill="white"/>
<path d="M51.3519 14.417C50.7574 14.417 50.3115 14.6399 50.3115 14.9372C50.3115 15.2345 50.7574 15.4574 51.2776 15.4574C51.7978 15.4574 52.3181 15.2345 52.3181 14.9372C52.3181 14.6399 51.8722 14.417 51.3519 14.417Z" fill="white"/>
<path d="M56.183 14.417C55.6628 14.417 55.1426 14.6399 55.1426 14.9372C55.1426 15.2345 55.5142 15.4574 56.1087 15.4574C56.7032 15.4574 57.1491 15.2345 57.1491 14.9372C57.1491 14.6399 56.7775 14.417 56.183 14.417Z" fill="white"/>
<path d="M61.0873 14.417C60.5671 14.417 60.0469 14.6399 60.0469 14.9372C60.0469 15.2345 60.4185 15.4574 61.013 15.4574C61.6075 15.4574 62.0534 15.2345 62.0534 14.9372C62.0534 14.6399 61.6818 14.417 61.0873 14.417Z" fill="white"/>
<path d="M65.9926 14.417C65.4724 14.417 64.9521 14.6399 64.9521 14.9372C64.9521 15.2345 65.3237 15.4574 65.8439 15.4574C66.3641 15.4574 66.8844 15.2345 66.8844 14.9372C66.8844 14.6399 66.5871 14.417 65.9926 14.417Z" fill="white"/>
<path d="M70.8973 14.417C70.3771 14.417 69.8569 14.6399 69.7825 14.9372C69.7082 15.2345 70.1541 15.4574 70.6743 15.4574C71.1945 15.4574 71.7148 15.2345 71.7891 14.9372C71.8634 14.6399 71.4175 14.417 70.8973 14.417Z" fill="white"/>
<path d="M75.8016 14.417C75.2814 14.417 74.7612 14.6399 74.6868 14.9372C74.6125 15.2345 75.0584 15.4574 75.5786 15.4574C76.0988 15.4574 76.6191 15.2345 76.6934 14.9372C76.7677 14.6399 76.3218 14.417 75.8016 14.417Z" fill="white"/>
</g>
<defs>
<clipPath id="clip0_68_1263">
<rect width="82.7283" height="35.1514" fill="white"/>
</clipPath>
</defs>
</svg>
