<svg width="23" height="24" viewBox="0 0 23 24" fill="none" xmlns="http://www.w3.org/2000/svg">
<g clip-path="url(#clip0_750_1182)">
<path d="M11.1343 12.9527C14.9402 12.9527 18.0254 10.0531 18.0254 6.47635C18.0254 2.89956 14.9402 0 11.1343 0C7.32843 0 4.24316 2.89956 4.24316 6.47635C4.24316 10.0531 7.32843 12.9527 11.1343 12.9527Z" fill="#A1A8AE"/>
<path d="M22.1074 19.741V23.055C22.1074 23.1791 22.0814 23.3019 22.0309 23.4166C21.9803 23.5312 21.9063 23.6354 21.8129 23.7232C21.7195 23.8109 21.6087 23.8805 21.4867 23.928C21.3647 23.9755 21.2339 24 21.1019 24H1.11295C0.846267 24 0.590507 23.9004 0.401934 23.7232C0.213361 23.546 0.107422 23.3056 0.107422 23.055V19.7481C0.107452 19.0384 0.325978 18.3439 0.736637 17.7484C1.1473 17.1528 1.73254 16.6817 2.42177 16.3918L6.14878 14.8247C6.4944 14.6796 6.86867 14.6046 7.24721 14.6045H8.98844C9.03844 14.6045 9.0864 14.6232 9.12175 14.6564C9.15711 14.6896 9.17697 14.7347 9.17697 14.7817C9.17688 14.875 9.18441 14.9681 9.19952 15.0603C9.26984 15.4954 9.50378 15.8924 9.8589 16.1793C10.214 16.4662 10.6668 16.6239 11.1351 16.6239C11.6034 16.6239 12.0561 16.4662 12.4113 16.1793C12.7664 15.8924 13.0003 15.4954 13.0707 15.0603C13.0858 14.9681 13.0933 14.875 13.0932 14.7817C13.0934 14.7347 13.1133 14.6898 13.1486 14.6566C13.1839 14.6234 13.2318 14.6047 13.2817 14.6045H15.012C15.3932 14.6043 15.7699 14.6805 16.1173 14.8279L19.8026 16.3886C20.4895 16.6795 21.0724 17.1506 21.4812 17.7453C21.8901 18.34 22.1075 19.033 22.1074 19.741Z" fill="#A1A8AE"/>
<path d="M9.17676 15.0604V14.7817C9.17666 14.875 9.1842 14.9682 9.1993 15.0604H9.17676Z" fill="#A1A8AE"/>
<path d="M13.0703 15.0604C13.0854 14.9682 13.093 14.875 13.0929 14.7817V15.0604H13.0703Z" fill="#A1A8AE"/>
</g>
<defs>
<clipPath id="clip0_750_1182">
<rect width="22" height="24" fill="white" transform="translate(0.107422)"/>
</clipPath>
</defs>
</svg>
