<svg width="22" height="25" viewBox="0 0 22 25" fill="none" xmlns="http://www.w3.org/2000/svg">
<g clip-path="url(#clip0_505_1117)">
<path d="M20.7852 7.12609H17.2652V0H4.78261V7.12609H1.21478C0.892602 7.12609 0.583618 7.25407 0.355802 7.48189C0.127986 7.7097 5.97789e-10 8.01869 5.97789e-10 8.34087L5.97789e-10 16.9496C-5.00954e-06 17.1086 0.031483 17.2662 0.0926481 17.413C0.153813 17.5599 0.243445 17.6931 0.356375 17.8052C0.469305 17.9172 0.603298 18.0058 0.750628 18.0658C0.897958 18.1258 1.05571 18.156 1.21478 18.1548H3.97913V16.1461H4.78261V24.047H17.313V16.1461H18.0687V18.1261H20.833C21.146 18.1161 21.4428 17.9848 21.6606 17.7598C21.8784 17.5349 22.0002 17.234 22 16.9209V8.31217C21.9925 7.99499 21.8612 7.69333 21.6342 7.47168C21.4072 7.25004 21.1025 7.126 20.7852 7.12609ZM16.0026 20.9096L14.587 22.8226H5.97826V16.127H16.0217L16.0026 20.9096ZM16.0026 7.12609H5.97826V1.24348H16.0217L16.0026 7.12609Z" fill="#00A886"/>
<path d="M14.1374 19.8956H8.10172C7.75834 19.8956 7.47998 20.174 7.47998 20.5174C7.47998 20.8607 7.75834 21.1391 8.10172 21.1391H14.1374C14.4807 21.1391 14.7591 20.8607 14.7591 20.5174C14.7591 20.174 14.4807 19.8956 14.1374 19.8956Z" fill="#00A886"/>
<path d="M14.1374 17.3513H8.10172C7.75834 17.3513 7.47998 17.6297 7.47998 17.9731C7.47998 18.3164 7.75834 18.5948 8.10172 18.5948H14.1374C14.4807 18.5948 14.7591 18.3164 14.7591 17.9731C14.7591 17.6297 14.4807 17.3513 14.1374 17.3513Z" fill="#00A886"/>
</g>
<defs>
<clipPath id="clip0_505_1117">
<rect width="22" height="24.0565" fill="white"/>
</clipPath>
</defs>
</svg>
