<svg width="58" height="68" viewBox="0 0 58 68" fill="none" xmlns="http://www.w3.org/2000/svg">
<g filter="url(#filter0_dd_363_328)">
<path d="M30.2912 63.1263L29.6155 63.2616L28.9399 63.1263C5.23971 54.9405 5.6451 35.4802 5.91535 21.2837C5.98292 19.7971 5.98292 18.3767 5.98292 16.9578C5.97803 16.6902 6.02708 16.4243 6.12714 16.1761C6.2272 15.9279 6.37621 15.7024 6.56527 15.5132C6.75433 15.3239 6.97956 15.1747 7.22751 15.0745C7.47546 14.9744 7.74103 14.9253 8.00836 14.9302C16.4494 14.9302 22.8636 12.4967 28.1982 7.29154C28.5834 6.93316 29.0899 6.7341 29.6158 6.73438C30.1417 6.73465 30.648 6.93425 31.0329 7.29304C36.3675 12.4967 42.7891 14.9302 51.2227 14.9302C51.49 14.9253 51.7556 14.9744 52.0035 15.0745C52.2515 15.1747 52.4767 15.3239 52.6658 15.5132C52.8548 15.7024 53.0038 15.9279 53.1039 16.1761C53.204 16.4243 53.253 16.6902 53.2481 16.9578C53.2481 18.3767 53.2481 19.7971 53.3157 21.2837C53.5859 35.5509 53.9238 54.9405 30.2912 63.1263Z" fill="#00a886"/>
<path d="M30.1866 58.8024L29.6161 58.9166L29.044 58.8024C8.98935 51.8807 9.33168 35.4025 9.5614 23.396C9.61695 22.1364 9.61695 20.9354 9.61695 19.7345C9.61288 19.5079 9.65445 19.2829 9.73918 19.0728C9.82391 18.8627 9.95005 18.6718 10.1101 18.5116C10.2701 18.3514 10.4608 18.2251 10.6706 18.1403C10.8805 18.0555 11.1053 18.0139 11.3316 18.018C18.4739 18.018 23.9016 15.9602 28.4164 11.5547C28.7425 11.2503 29.1717 11.0811 29.6176 11.0811C30.0634 11.0811 30.4927 11.2503 30.8187 11.5547C35.3321 15.9602 40.7612 18.018 47.9021 18.018C48.1284 18.0139 48.3532 18.0555 48.563 18.1403C48.7729 18.2251 48.9635 18.3514 49.1236 18.5116C49.2836 18.6718 49.4098 18.8627 49.4945 19.0728C49.5792 19.2829 49.6208 19.5079 49.6167 19.7345C49.6167 20.9369 49.6167 22.1394 49.6738 23.396C49.899 35.4641 50.1858 51.8807 30.1866 58.8024Z" stroke="white" stroke-width="0.778714" stroke-miterlimit="10"/>
<path d="M40.4857 29.1948L27.9953 40.9639C27.6024 41.3087 27.0989 41.5007 26.5764 41.505H26.5104C26.2391 41.5002 25.9721 41.4373 25.7271 41.3207C25.4821 41.204 25.2649 41.0363 25.09 40.8287L18.8125 33.8589L21.8499 31.1533L26.7791 36.6291L37.7186 26.2188L40.4857 29.1948Z" fill="white"/>
</g>
<defs>
<filter id="filter0_dd_363_328" x="-1.4493" y="-0.842854" width="60.6965" height="70.4084" filterUnits="userSpaceOnUse" color-interpolation-filters="sRGB">
<feFlood flood-opacity="0" result="BackgroundImageFix"/>
<feColorMatrix in="SourceAlpha" type="matrix" values="0 0 0 0 0 0 0 0 0 0 0 0 0 0 0 0 0 0 127 0" result="hardAlpha"/>
<feOffset dx="1.21393" dy="1.21393"/>
<feGaussianBlur stdDeviation="1.67582"/>
<feColorMatrix type="matrix" values="0 0 0 0 0.835529 0 0 0 0 0.835294 0 0 0 0 0.847059 0 0 0 0.4 0"/>
<feBlend mode="normal" in2="BackgroundImageFix" result="effect1_dropShadow_363_328"/>
<feColorMatrix in="SourceAlpha" type="matrix" values="0 0 0 0 0 0 0 0 0 0 0 0 0 0 0 0 0 0 127 0" result="hardAlpha"/>
<feOffset dx="-1.82089" dy="-1.82089"/>
<feGaussianBlur stdDeviation="2.01098"/>
<feColorMatrix type="matrix" values="0 0 0 0 1 0 0 0 0 1 0 0 0 0 1 0 0 0 1 0"/>
<feBlend mode="normal" in2="effect1_dropShadow_363_328" result="effect2_dropShadow_363_328"/>
<feBlend mode="normal" in="SourceGraphic" in2="effect2_dropShadow_363_328" result="shape"/>
</filter>
</defs>
</svg>
