<svg width="72" height="72" viewBox="0 0 72 72" fill="none" xmlns="http://www.w3.org/2000/svg">
<g clip-path="url(#clip0_68_1216)">
<path d="M71.1951 40.8161C71.1854 48.9101 67.9607 56.6687 62.2305 62.3852C56.5003 68.1016 48.7339 71.3076 40.6399 71.2978C32.546 71.2881 24.7873 68.0634 19.0709 62.3332C13.3545 56.603 10.1485 48.8367 10.1582 40.7427C10.1582 39.9347 10.1582 39.1268 10.2317 38.3188L21.6899 30.4597L22.5713 29.8721L23.5261 30.4597L45.1938 45.2231L29.8428 22.6005L38.2161 10.261C39.024 10.261 39.832 10.1875 40.6399 10.1875C48.7456 10.2224 56.5083 13.4629 62.2331 19.2014C67.9578 24.9399 71.1797 32.7104 71.1951 40.8161Z" fill="#A1A8AE"/>
<path d="M40.5664 68.3599C36.9386 68.3637 33.3456 67.652 29.9932 66.2655C26.6408 64.879 23.5948 62.8449 21.0295 60.2796C18.4642 57.7143 16.4301 54.6683 15.0436 51.3159C13.6571 47.9635 12.9454 44.3705 12.9492 40.7427C12.962 39.1935 13.0847 37.6471 13.3165 36.1153L22.5712 29.8721L45.1938 45.2231L29.8427 22.6005L36.0125 13.4928C43.2396 12.2655 50.6583 13.9595 56.6364 18.202C62.6146 22.4446 66.6625 28.8882 67.8898 36.1153C69.117 43.3425 67.423 50.7611 63.1805 56.7393C58.9379 62.7174 52.4943 66.7654 45.2672 67.9926C43.7107 68.2243 42.14 68.3471 40.5664 68.3599Z" fill="#A1A8AE"/>
<path d="M0 45.2452L15.4245 22.6226L0 0L21.7412 14.7634L22.6226 15.351L45.2452 0L29.8941 22.6226L45.2452 45.2452L23.5774 30.4817L22.6226 29.8941L21.7412 30.4817L0 45.2452Z" fill="#A1A8AE"/>
<path d="M40.6693 30.4589C40.6685 30.8963 40.5811 31.3292 40.4122 31.7326C40.2433 32.136 39.9961 32.5019 39.6851 32.8093C39.1925 33.2981 38.5664 33.6303 37.8855 33.7642L34.5068 28.4905C34.6065 28.3521 34.717 28.222 34.8374 28.1012C35.1457 27.7823 35.5139 27.5274 35.9209 27.3511C36.3279 27.1747 36.7657 27.0805 37.2092 27.0736C37.6528 27.0668 38.0933 27.1476 38.5055 27.3113C38.9177 27.475 39.2936 27.7185 39.6116 28.0277C39.9448 28.3391 40.2105 28.7155 40.3925 29.1337C40.5744 29.5519 40.6686 30.0029 40.6693 30.4589Z" fill="white"/>
<path d="M36.8941 54.1838C36.2704 53.9366 35.734 53.5101 35.3526 52.9581C34.9712 52.4062 34.762 51.7535 34.7514 51.0827C34.7408 50.4119 34.9293 49.753 35.2931 49.1892C35.6568 48.6255 36.1795 48.1823 36.7951 47.9155C37.4107 47.6488 38.0916 47.5705 38.7517 47.6905C39.4117 47.8106 40.0214 48.1236 40.5036 48.5901C40.9859 49.0565 41.319 49.6555 41.4609 50.3112C41.6029 50.9669 41.5473 51.65 41.3011 52.2741C41.1383 52.6897 40.8948 53.069 40.5848 53.3902C40.2748 53.7114 39.9044 53.9681 39.4948 54.1456C39.0852 54.323 38.6446 54.4178 38.1983 54.4244C37.752 54.4309 37.3087 54.3492 36.8941 54.1838Z" fill="white"/>
<path d="M49.0862 26.0524C48.5114 25.711 48.0508 25.2069 47.7627 24.6037C47.4745 24.0005 47.3717 23.3254 47.4674 22.6638C47.563 22.0022 47.8528 21.3839 48.3 20.887C48.7472 20.3901 49.3317 20.0371 49.9796 19.8725C50.6276 19.708 51.3097 19.7393 51.9398 19.9626C52.5699 20.1859 53.1196 20.591 53.5193 21.1268C53.9191 21.6626 54.1509 22.3049 54.1855 22.9725C54.2201 23.6401 54.0558 24.3029 53.7136 24.8772C53.4887 25.2601 53.1901 25.5946 52.8351 25.8613C52.4801 26.128 52.0757 26.3216 51.6453 26.4309C51.2149 26.5402 50.7671 26.563 50.3278 26.4981C49.8885 26.4331 49.4665 26.2816 49.0862 26.0524Z" fill="white"/>
<path d="M28.6673 61.235C28.0925 60.8937 27.6319 60.3895 27.3437 59.7863C27.0555 59.1831 26.9528 58.508 27.0484 57.8464C27.1441 57.1848 27.4338 56.5665 27.881 56.0696C28.3282 55.5727 28.9128 55.2197 29.5607 55.0551C30.2086 54.8906 30.8908 54.9219 31.5209 55.1452C32.151 55.3685 32.7007 55.7736 33.1004 56.3094C33.5001 56.8452 33.732 57.4875 33.7665 58.1551C33.8011 58.8227 33.6369 59.4856 33.2946 60.0598C33.0698 60.4427 32.7712 60.7772 32.4162 61.0439C32.0611 61.3106 31.6567 61.5042 31.2263 61.6135C30.7959 61.7228 30.3481 61.7457 29.9089 61.6807C29.4696 61.6157 29.0476 61.4642 28.6673 61.235Z" fill="white"/>
<path d="M47.6173 37.07C46.9775 36.8668 46.4123 36.4784 45.9933 35.954C45.5742 35.4295 45.3202 34.7925 45.2632 34.1236C45.2063 33.4547 45.349 32.784 45.6733 32.1962C45.9977 31.6085 46.4891 31.1301 47.0854 30.8217C47.6816 30.5133 48.356 30.3887 49.0231 30.4636C49.6902 30.5385 50.3201 30.8096 50.8331 31.2426C51.3461 31.6756 51.7192 32.2511 51.9051 32.8961C52.091 33.5412 52.0813 34.2269 51.8774 34.8665C51.7536 35.2982 51.543 35.7 51.2584 36.0474C50.9738 36.3948 50.6213 36.6804 50.2224 36.8867C49.8236 37.093 49.3868 37.2157 48.9388 37.2472C48.4908 37.2787 48.0412 37.2184 47.6173 37.07Z" fill="white"/>
<path d="M46.1483 47.2803C45.9735 46.6261 45.9966 45.9348 46.2147 45.2937C46.4328 44.6527 46.8362 44.0908 47.3738 43.6791C47.9114 43.2673 48.559 43.0243 49.2347 42.9807C49.9104 42.9372 50.5839 43.095 51.1699 43.4342C51.7559 43.7735 52.2281 44.279 52.5268 44.8867C52.8255 45.4944 52.9372 46.177 52.8478 46.8482C52.7584 47.5194 52.472 48.149 52.0247 48.6574C51.5774 49.1658 50.9893 49.53 50.335 49.7041C49.46 49.903 48.5423 49.7637 47.7658 49.3141C46.9893 48.8646 46.4115 48.1381 46.1483 47.2803Z" fill="white"/>
<path d="M28.0796 38.9063C28.6171 38.4995 29.2632 38.2613 29.9361 38.2217C30.609 38.1821 31.2785 38.343 31.8599 38.6839C32.4414 39.0248 32.9087 39.5305 33.2028 40.137C33.4969 40.7435 33.6045 41.4236 33.5121 42.0913C33.4196 42.759 33.1313 43.3843 32.6834 43.8881C32.2356 44.3919 31.6485 44.7516 30.9963 44.9217C30.344 45.0918 29.656 45.0646 29.0192 44.8437C28.3824 44.6228 27.8254 44.218 27.4186 43.6805C26.888 42.9544 26.6604 42.0505 26.7838 41.1597C26.9071 40.2689 27.3718 39.4609 28.0796 38.9063Z" fill="white"/>
<path d="M42.4759 57.5631C43.1447 57.49 43.8201 57.6169 44.4168 57.9278C45.0134 58.2386 45.5045 58.7195 45.8278 59.3095C46.1511 59.8995 46.2921 60.5721 46.2331 61.2423C46.174 61.9125 45.9175 62.5501 45.4959 63.0745C45.0744 63.5988 44.5068 63.9863 43.8649 64.188C43.2231 64.3897 42.5359 64.3965 41.8902 64.2075C41.2445 64.0185 40.6693 63.6422 40.2376 63.1263C39.8058 62.6104 39.5367 61.978 39.4644 61.3091C39.3774 60.415 39.6438 59.5224 40.2066 58.8223C40.7695 58.1222 41.584 57.6702 42.4759 57.5631Z" fill="white"/>
<path d="M37.9218 17.1657C38.5906 17.0925 39.2661 17.2194 39.8627 17.5303C40.4594 17.8412 40.9504 18.322 41.2738 18.912C41.5971 19.502 41.7381 20.1747 41.679 20.8449C41.6199 21.515 41.3634 22.1526 40.9419 22.677C40.5203 23.2013 39.9527 23.5889 39.3109 23.7906C38.6691 23.9923 37.9818 23.999 37.3361 23.81C36.6904 23.6211 36.1153 23.2448 35.6835 22.7288C35.2517 22.2129 34.9827 21.5805 34.9104 20.9116C34.8365 20.0202 35.1078 19.1345 35.6682 18.4374C36.2286 17.7402 37.0354 17.285 37.9218 17.1657Z" fill="white"/>
<path d="M52.0249 53.1559C52.5187 52.7058 53.1349 52.4123 53.7956 52.3124C54.4563 52.2125 55.1317 52.3107 55.7366 52.5947C56.3414 52.8787 56.8485 53.3356 57.1936 53.9077C57.5388 54.4798 57.7066 55.1414 57.6758 55.8089C57.645 56.4764 57.417 57.1197 57.0206 57.6576C56.6242 58.1955 56.0772 58.6037 55.4487 58.8308C54.8203 59.0578 54.1387 59.0934 53.49 58.9331C52.8414 58.7728 52.2548 58.4238 51.8045 57.9301C51.5045 57.6027 51.2722 57.2192 51.1208 56.8017C50.9694 56.3841 50.9021 55.9408 50.9225 55.4972C50.943 55.0536 51.0509 54.6184 51.2401 54.2166C51.4293 53.8148 51.696 53.4543 52.0249 53.1559Z" fill="white"/>
<path d="M57.1657 43.9009C57.3721 43.0362 57.9075 42.286 58.6582 41.8097C59.4089 41.3335 60.3157 41.1687 61.1859 41.3504C62.0561 41.5321 62.8212 42.046 63.3186 42.7828C63.816 43.5196 64.0065 44.4214 63.8497 45.2964C63.7606 45.7366 63.585 46.1547 63.3331 46.5265C63.0812 46.8983 62.7579 47.2164 62.3822 47.4624C62.0064 47.7084 61.5855 47.8773 61.144 47.9594C60.7024 48.0415 60.249 48.0351 59.8099 47.9406C58.9334 47.7381 58.1689 47.2048 57.6762 46.452C57.1835 45.6992 57.0006 44.7853 57.1657 43.9009Z" fill="white"/>
<path d="M17.2832 36.2627C17.421 35.6012 17.7519 34.9956 18.234 34.5222C18.7161 34.0489 19.3277 33.7292 19.9916 33.6035C20.6554 33.4779 21.3416 33.5519 21.9633 33.8163C22.5851 34.0807 23.1144 34.5236 23.4844 35.0889C23.8545 35.6542 24.0485 36.3165 24.042 36.9921C24.0355 37.6677 23.8288 38.3262 23.4481 38.8843C23.0673 39.4424 22.5295 39.875 21.9028 40.1274C21.2761 40.3799 20.5887 40.4408 19.9274 40.3024C19.0554 40.0918 18.2965 39.5567 17.8052 38.8062C17.314 38.0556 17.1273 37.1461 17.2832 36.2627Z" fill="white"/>
<path d="M56.1374 34.0583C55.8824 33.4404 55.8164 32.7607 55.9477 32.1053C56.0791 31.4499 56.402 30.8481 56.8754 30.3762C57.3489 29.9043 57.9517 29.5835 58.6076 29.4543C59.2635 29.3251 59.943 29.3934 60.56 29.6505C61.1771 29.9076 61.704 30.342 62.0741 30.8987C62.4442 31.4554 62.6409 32.1093 62.6392 32.7778C62.6375 33.4463 62.4376 34.0992 62.0647 34.654C61.6918 35.2089 61.1627 35.6406 60.5444 35.8946C60.135 36.0681 59.6951 36.1581 59.2505 36.1594C58.8059 36.1608 58.3655 36.0734 57.9551 35.9024C57.5447 35.7314 57.1725 35.4802 56.8604 35.1636C56.5483 34.8469 56.3025 34.4712 56.1374 34.0583Z" fill="white"/>
<path d="M18.7514 49.9973C18.4902 49.3728 18.4201 48.685 18.5498 48.0207C18.6795 47.3563 19.0033 46.7454 19.4802 46.2651C19.9571 45.7848 20.5657 45.4566 21.2291 45.3221C21.8924 45.1877 22.5808 45.2529 23.2071 45.5096C23.8334 45.7663 24.3695 46.2029 24.7477 46.7642C25.1259 47.3256 25.3292 47.9864 25.3318 48.6633C25.3345 49.3402 25.1364 50.0026 24.7626 50.5669C24.3888 51.1312 23.8561 51.572 23.2318 51.8335C22.8174 52.0103 22.3721 52.103 21.9216 52.1063C21.4711 52.1095 21.0245 52.0232 20.6076 51.8523C20.1907 51.6815 19.812 51.4295 19.4933 51.1111C19.1747 50.7926 18.9225 50.414 18.7514 49.9973Z" fill="white"/>
<path d="M39.523 9.75391L30.7972 22.7178L34.5064 28.4983L37.8851 33.772L45.2448 45.2449L23.0556 30.4741L9.62891 39.5966" stroke="white" stroke-width="1.469" stroke-miterlimit="10"/>
</g>
<defs>
<clipPath id="clip0_68_1216">
<rect width="71.195" height="71.2979" fill="white"/>
</clipPath>
</defs>
</svg>
