<svg width="94" height="94" viewBox="0 0 94 94" fill="none" xmlns="http://www.w3.org/2000/svg">
<circle cx="46.6667" cy="47.0026" r="46.6667" fill="white"/>
<circle cx="46.667" cy="47.002" r="41.0667" stroke="#f2f2f2" stroke-width="1.86667"/>
<g clip-path="url(#clip0_1206_1162)">
<path d="M25.5332 28.334V30.3955C25.5332 33.1624 29.9902 32.9454 33.0503 32.9454H61.3225C64.3826 32.9454 68.8396 33.2166 68.8396 30.3955V28.334H25.5332Z" fill="#A1A8AE"/>
<path d="M54.6032 37.3925C55.2645 37.3925 55.8006 36.9553 55.8006 36.416C55.8006 35.8767 55.2645 35.4395 54.6032 35.4395C53.9419 35.4395 53.4058 35.8767 53.4058 36.416C53.4058 36.9553 53.9419 37.3925 54.6032 37.3925Z" fill="#A1A8AE"/>
<path d="M49.6813 37.3925C50.3426 37.3925 50.8787 36.9553 50.8787 36.416C50.8787 35.8767 50.3426 35.4395 49.6813 35.4395C49.02 35.4395 48.4839 35.8767 48.4839 36.416C48.4839 36.9553 49.02 37.3925 49.6813 37.3925Z" fill="#A1A8AE"/>
<path d="M44.8253 37.3925C45.4867 37.3925 46.0228 36.9553 46.0228 36.416C46.0228 35.8767 45.4867 35.4395 44.8253 35.4395C44.164 35.4395 43.6279 35.8767 43.6279 36.416C43.6279 36.9553 44.164 37.3925 44.8253 37.3925Z" fill="#A1A8AE"/>
<path d="M39.902 37.3925C40.5633 37.3925 41.0994 36.9553 41.0994 36.416C41.0994 35.8767 40.5633 35.4395 39.902 35.4395C39.2407 35.4395 38.7046 35.8767 38.7046 36.416C38.7046 36.9553 39.2407 37.3925 39.902 37.3925Z" fill="#A1A8AE"/>
<path d="M54.6032 40.4863C55.2645 40.4863 55.8006 40.0491 55.8006 39.5097C55.8006 38.9704 55.2645 38.5332 54.6032 38.5332C53.9419 38.5332 53.4058 38.9704 53.4058 39.5097C53.4058 40.0491 53.9419 40.4863 54.6032 40.4863Z" fill="#A1A8AE"/>
<path d="M54.6032 43.5234C55.2645 43.5234 55.8006 43.0862 55.8006 42.5468C55.8006 42.0075 55.2645 41.5703 54.6032 41.5703C53.9419 41.5703 53.4058 42.0075 53.4058 42.5468C53.4058 43.0862 53.9419 43.5234 54.6032 43.5234Z" fill="#A1A8AE"/>
<path d="M54.6032 46.6171C55.2645 46.6171 55.8006 46.1799 55.8006 45.6406C55.8006 45.1013 55.2645 44.6641 54.6032 44.6641C53.9419 44.6641 53.4058 45.1013 53.4058 45.6406C53.4058 46.1799 53.9419 46.6171 54.6032 46.6171Z" fill="#A1A8AE"/>
<path d="M54.6032 49.707C55.2645 49.707 55.8006 49.2698 55.8006 48.7304C55.8006 48.1911 55.2645 47.7539 54.6032 47.7539C53.9419 47.7539 53.4058 48.1911 53.4058 48.7304C53.4058 49.2698 53.9419 49.707 54.6032 49.707Z" fill="#A1A8AE"/>
<path d="M54.6032 52.8007C55.2645 52.8007 55.8006 52.3635 55.8006 51.8242C55.8006 51.2849 55.2645 50.8477 54.6032 50.8477C53.9419 50.8477 53.4058 51.2849 53.4058 51.8242C53.4058 52.3635 53.9419 52.8007 54.6032 52.8007Z" fill="#A1A8AE"/>
<path d="M54.6032 55.8378C55.2645 55.8378 55.8006 55.4006 55.8006 54.8613C55.8006 54.322 55.2645 53.8848 54.6032 53.8848C53.9419 53.8848 53.4058 54.322 53.4058 54.8613C53.4058 55.4006 53.9419 55.8378 54.6032 55.8378Z" fill="#A1A8AE"/>
<path d="M54.6032 58.9316C55.2645 58.9316 55.8006 58.4944 55.8006 57.955C55.8006 57.4157 55.2645 56.9785 54.6032 56.9785C53.9419 56.9785 53.4058 57.4157 53.4058 57.955C53.4058 58.4944 53.9419 58.9316 54.6032 58.9316Z" fill="#A1A8AE"/>
<path d="M54.6032 62.0234C55.2645 62.0234 55.8006 61.5862 55.8006 61.0468C55.8006 60.5075 55.2645 60.0703 54.6032 60.0703C53.9419 60.0703 53.4058 60.5075 53.4058 61.0468C53.4058 61.5862 53.9419 62.0234 54.6032 62.0234Z" fill="#A1A8AE"/>
<path d="M34.9796 37.3925C35.641 37.3925 36.1771 36.9553 36.1771 36.416C36.1771 35.8767 35.641 35.4395 34.9796 35.4395C34.3183 35.4395 33.7822 35.8767 33.7822 36.416C33.7822 36.9553 34.3183 37.3925 34.9796 37.3925Z" fill="#A1A8AE"/>
<path d="M54.6032 65.0605C55.2645 65.0605 55.8006 64.6233 55.8006 64.084C55.8006 63.5446 55.2645 63.1074 54.6032 63.1074C53.9419 63.1074 53.4058 63.5446 53.4058 64.084C53.4058 64.6233 53.9419 65.0605 54.6032 65.0605Z" fill="#A1A8AE"/>
<path d="M49.6813 40.4863C50.3426 40.4863 50.8787 40.0491 50.8787 39.5097C50.8787 38.9704 50.3426 38.5332 49.6813 38.5332C49.02 38.5332 48.4839 38.9704 48.4839 39.5097C48.4839 40.0491 49.02 40.4863 49.6813 40.4863Z" fill="#A1A8AE"/>
<path d="M49.6813 43.5234C50.3426 43.5234 50.8787 43.0862 50.8787 42.5468C50.8787 42.0075 50.3426 41.5703 49.6813 41.5703C49.02 41.5703 48.4839 42.0075 48.4839 42.5468C48.4839 43.0862 49.02 43.5234 49.6813 43.5234Z" fill="#A1A8AE"/>
<path d="M49.6813 46.6171C50.3426 46.6171 50.8787 46.1799 50.8787 45.6406C50.8787 45.1013 50.3426 44.6641 49.6813 44.6641C49.02 44.6641 48.4839 45.1013 48.4839 45.6406C48.4839 46.1799 49.02 46.6171 49.6813 46.6171Z" fill="#A1A8AE"/>
<path d="M49.6813 49.707C50.3426 49.707 50.8787 49.2698 50.8787 48.7304C50.8787 48.1911 50.3426 47.7539 49.6813 47.7539C49.02 47.7539 48.4839 48.1911 48.4839 48.7304C48.4839 49.2698 49.02 49.707 49.6813 49.707Z" fill="#A1A8AE"/>
<path d="M49.6813 52.8007C50.3426 52.8007 50.8787 52.3635 50.8787 51.8242C50.8787 51.2849 50.3426 50.8477 49.6813 50.8477C49.02 50.8477 48.4839 51.2849 48.4839 51.8242C48.4839 52.3635 49.02 52.8007 49.6813 52.8007Z" fill="#A1A8AE"/>
<path d="M49.6813 55.8378C50.3426 55.8378 50.8787 55.4006 50.8787 54.8613C50.8787 54.322 50.3426 53.8848 49.6813 53.8848C49.02 53.8848 48.4839 54.322 48.4839 54.8613C48.4839 55.4006 49.02 55.8378 49.6813 55.8378Z" fill="#A1A8AE"/>
<path d="M49.6813 58.9316C50.3426 58.9316 50.8787 58.4944 50.8787 57.955C50.8787 57.4157 50.3426 56.9785 49.6813 56.9785C49.02 56.9785 48.4839 57.4157 48.4839 57.955C48.4839 58.4944 49.02 58.9316 49.6813 58.9316Z" fill="#A1A8AE"/>
<path d="M49.6813 62.0234C50.3426 62.0234 50.8787 61.5862 50.8787 61.0468C50.8787 60.5075 50.3426 60.0703 49.6813 60.0703C49.02 60.0703 48.4839 60.5075 48.4839 61.0468C48.4839 61.5862 49.02 62.0234 49.6813 62.0234Z" fill="#A1A8AE"/>
<path d="M49.6813 65.0605C50.3426 65.0605 50.8787 64.6233 50.8787 64.084C50.8787 63.5446 50.3426 63.1074 49.6813 63.1074C49.02 63.1074 48.4839 63.5446 48.4839 64.084C48.4839 64.6233 49.02 65.0605 49.6813 65.0605Z" fill="#A1A8AE"/>
<path d="M44.8253 40.4863C45.4867 40.4863 46.0228 40.0491 46.0228 39.5097C46.0228 38.9704 45.4867 38.5332 44.8253 38.5332C44.164 38.5332 43.6279 38.9704 43.6279 39.5097C43.6279 40.0491 44.164 40.4863 44.8253 40.4863Z" fill="#A1A8AE"/>
<path d="M44.8253 43.5234C45.4867 43.5234 46.0228 43.0862 46.0228 42.5468C46.0228 42.0075 45.4867 41.5703 44.8253 41.5703C44.164 41.5703 43.6279 42.0075 43.6279 42.5468C43.6279 43.0862 44.164 43.5234 44.8253 43.5234Z" fill="#A1A8AE"/>
<path d="M44.8253 46.6171C45.4867 46.6171 46.0228 46.1799 46.0228 45.6406C46.0228 45.1013 45.4867 44.6641 44.8253 44.6641C44.164 44.6641 43.6279 45.1013 43.6279 45.6406C43.6279 46.1799 44.164 46.6171 44.8253 46.6171Z" fill="#A1A8AE"/>
<path d="M44.8253 49.707C45.4867 49.707 46.0228 49.2698 46.0228 48.7304C46.0228 48.1911 45.4867 47.7539 44.8253 47.7539C44.164 47.7539 43.6279 48.1911 43.6279 48.7304C43.6279 49.2698 44.164 49.707 44.8253 49.707Z" fill="#A1A8AE"/>
<path d="M44.8253 52.8007C45.4867 52.8007 46.0228 52.3635 46.0228 51.8242C46.0228 51.2849 45.4867 50.8477 44.8253 50.8477C44.164 50.8477 43.6279 51.2849 43.6279 51.8242C43.6279 52.3635 44.164 52.8007 44.8253 52.8007Z" fill="#A1A8AE"/>
<path d="M44.8253 55.8378C45.4867 55.8378 46.0228 55.4006 46.0228 54.8613C46.0228 54.322 45.4867 53.8848 44.8253 53.8848C44.164 53.8848 43.6279 54.322 43.6279 54.8613C43.6279 55.4006 44.164 55.8378 44.8253 55.8378Z" fill="#A1A8AE"/>
<path d="M44.8253 58.9316C45.4867 58.9316 46.0228 58.4944 46.0228 57.955C46.0228 57.4157 45.4867 56.9785 44.8253 56.9785C44.164 56.9785 43.6279 57.4157 43.6279 57.955C43.6279 58.4944 44.164 58.9316 44.8253 58.9316Z" fill="#A1A8AE"/>
<path d="M44.8253 62.0234C45.4867 62.0234 46.0228 61.5862 46.0228 61.0468C46.0228 60.5075 45.4867 60.0703 44.8253 60.0703C44.164 60.0703 43.6279 60.5075 43.6279 61.0468C43.6279 61.5862 44.164 62.0234 44.8253 62.0234Z" fill="#A1A8AE"/>
<path d="M44.8253 65.0605C45.4867 65.0605 46.0228 64.6233 46.0228 64.084C46.0228 63.5446 45.4867 63.1074 44.8253 63.1074C44.164 63.1074 43.6279 63.5446 43.6279 64.084C43.6279 64.6233 44.164 65.0605 44.8253 65.0605Z" fill="#A1A8AE"/>
<path d="M39.902 40.4863C40.5633 40.4863 41.0994 40.0491 41.0994 39.5097C41.0994 38.9704 40.5633 38.5332 39.902 38.5332C39.2407 38.5332 38.7046 38.9704 38.7046 39.5097C38.7046 40.0491 39.2407 40.4863 39.902 40.4863Z" fill="#A1A8AE"/>
<path d="M39.902 43.5234C40.5633 43.5234 41.0994 43.0862 41.0994 42.5468C41.0994 42.0075 40.5633 41.5703 39.902 41.5703C39.2407 41.5703 38.7046 42.0075 38.7046 42.5468C38.7046 43.0862 39.2407 43.5234 39.902 43.5234Z" fill="#A1A8AE"/>
<path d="M39.902 46.6171C40.5633 46.6171 41.0994 46.1799 41.0994 45.6406C41.0994 45.1013 40.5633 44.6641 39.902 44.6641C39.2407 44.6641 38.7046 45.1013 38.7046 45.6406C38.7046 46.1799 39.2407 46.6171 39.902 46.6171Z" fill="#A1A8AE"/>
<path d="M39.902 49.707C40.5633 49.707 41.0994 49.2698 41.0994 48.7304C41.0994 48.1911 40.5633 47.7539 39.902 47.7539C39.2407 47.7539 38.7046 48.1911 38.7046 48.7304C38.7046 49.2698 39.2407 49.707 39.902 49.707Z" fill="#A1A8AE"/>
<path d="M39.902 52.8007C40.5633 52.8007 41.0994 52.3635 41.0994 51.8242C41.0994 51.2849 40.5633 50.8477 39.902 50.8477C39.2407 50.8477 38.7046 51.2849 38.7046 51.8242C38.7046 52.3635 39.2407 52.8007 39.902 52.8007Z" fill="#A1A8AE"/>
<path d="M39.902 55.8378C40.5633 55.8378 41.0994 55.4006 41.0994 54.8613C41.0994 54.322 40.5633 53.8848 39.902 53.8848C39.2407 53.8848 38.7046 54.322 38.7046 54.8613C38.7046 55.4006 39.2407 55.8378 39.902 55.8378Z" fill="#A1A8AE"/>
<path d="M39.902 58.9316C40.5633 58.9316 41.0994 58.4944 41.0994 57.955C41.0994 57.4157 40.5633 56.9785 39.902 56.9785C39.2407 56.9785 38.7046 57.4157 38.7046 57.955C38.7046 58.4944 39.2407 58.9316 39.902 58.9316Z" fill="#A1A8AE"/>
<path d="M39.902 62.0234C40.5633 62.0234 41.0994 61.5862 41.0994 61.0468C41.0994 60.5075 40.5633 60.0703 39.902 60.0703C39.2407 60.0703 38.7046 60.5075 38.7046 61.0468C38.7046 61.5862 39.2407 62.0234 39.902 62.0234Z" fill="#A1A8AE"/>
<path d="M39.902 65.0605C40.5633 65.0605 41.0994 64.6233 41.0994 64.084C41.0994 63.5446 40.5633 63.1074 39.902 63.1074C39.2407 63.1074 38.7046 63.5446 38.7046 64.084C38.7046 64.6233 39.2407 65.0605 39.902 65.0605Z" fill="#A1A8AE"/>
<path d="M34.9796 40.4863C35.641 40.4863 36.1771 40.0491 36.1771 39.5097C36.1771 38.9704 35.641 38.5332 34.9796 38.5332C34.3183 38.5332 33.7822 38.9704 33.7822 39.5097C33.7822 40.0491 34.3183 40.4863 34.9796 40.4863Z" fill="#A1A8AE"/>
<path d="M34.9796 43.5234C35.641 43.5234 36.1771 43.0862 36.1771 42.5468C36.1771 42.0075 35.641 41.5703 34.9796 41.5703C34.3183 41.5703 33.7822 42.0075 33.7822 42.5468C33.7822 43.0862 34.3183 43.5234 34.9796 43.5234Z" fill="#A1A8AE"/>
<path d="M34.9796 46.6171C35.641 46.6171 36.1771 46.1799 36.1771 45.6406C36.1771 45.1013 35.641 44.6641 34.9796 44.6641C34.3183 44.6641 33.7822 45.1013 33.7822 45.6406C33.7822 46.1799 34.3183 46.6171 34.9796 46.6171Z" fill="#A1A8AE"/>
<path d="M34.9796 49.707C35.641 49.707 36.1771 49.2698 36.1771 48.7304C36.1771 48.1911 35.641 47.7539 34.9796 47.7539C34.3183 47.7539 33.7822 48.1911 33.7822 48.7304C33.7822 49.2698 34.3183 49.707 34.9796 49.707Z" fill="#A1A8AE"/>
<path d="M34.9796 52.8007C35.641 52.8007 36.1771 52.3635 36.1771 51.8242C36.1771 51.2849 35.641 50.8477 34.9796 50.8477C34.3183 50.8477 33.7822 51.2849 33.7822 51.8242C33.7822 52.3635 34.3183 52.8007 34.9796 52.8007Z" fill="#A1A8AE"/>
<path d="M34.9796 55.8378C35.641 55.8378 36.1771 55.4006 36.1771 54.8613C36.1771 54.322 35.641 53.8848 34.9796 53.8848C34.3183 53.8848 33.7822 54.322 33.7822 54.8613C33.7822 55.4006 34.3183 55.8378 34.9796 55.8378Z" fill="#A1A8AE"/>
<path d="M34.9796 58.9316C35.641 58.9316 36.1771 58.4944 36.1771 57.955C36.1771 57.4157 35.641 56.9785 34.9796 56.9785C34.3183 56.9785 33.7822 57.4157 33.7822 57.955C33.7822 58.4944 34.3183 58.9316 34.9796 58.9316Z" fill="#A1A8AE"/>
<path d="M34.9796 62.0234C35.641 62.0234 36.1771 61.5862 36.1771 61.0468C36.1771 60.5075 35.641 60.0703 34.9796 60.0703C34.3183 60.0703 33.7822 60.5075 33.7822 61.0468C33.7822 61.5862 34.3183 62.0234 34.9796 62.0234Z" fill="#A1A8AE"/>
<path d="M34.9796 65.0605C35.641 65.0605 36.1771 64.6233 36.1771 64.084C36.1771 63.5446 35.641 63.1074 34.9796 63.1074C34.3183 63.1074 33.7822 63.5446 33.7822 64.084C33.7822 64.6233 34.3183 65.0605 34.9796 65.0605Z" fill="#A1A8AE"/>
<path d="M59.526 40.4863C60.1873 40.4863 60.7234 40.0491 60.7234 39.5097C60.7234 38.9704 60.1873 38.5332 59.526 38.5332C58.8647 38.5332 58.3286 38.9704 58.3286 39.5097C58.3286 40.0491 58.8647 40.4863 59.526 40.4863Z" fill="#A1A8AE"/>
<path d="M59.526 43.5234C60.1873 43.5234 60.7234 43.0862 60.7234 42.5468C60.7234 42.0075 60.1873 41.5703 59.526 41.5703C58.8647 41.5703 58.3286 42.0075 58.3286 42.5468C58.3286 43.0862 58.8647 43.5234 59.526 43.5234Z" fill="#A1A8AE"/>
<path d="M59.526 46.6171C60.1873 46.6171 60.7234 46.1799 60.7234 45.6406C60.7234 45.1013 60.1873 44.6641 59.526 44.6641C58.8647 44.6641 58.3286 45.1013 58.3286 45.6406C58.3286 46.1799 58.8647 46.6171 59.526 46.6171Z" fill="#A1A8AE"/>
<path d="M59.526 49.707C60.1873 49.707 60.7234 49.2698 60.7234 48.7304C60.7234 48.1911 60.1873 47.7539 59.526 47.7539C58.8647 47.7539 58.3286 48.1911 58.3286 48.7304C58.3286 49.2698 58.8647 49.707 59.526 49.707Z" fill="#A1A8AE"/>
<path d="M59.526 52.8007C60.1873 52.8007 60.7234 52.3635 60.7234 51.8242C60.7234 51.2849 60.1873 50.8477 59.526 50.8477C58.8647 50.8477 58.3286 51.2849 58.3286 51.8242C58.3286 52.3635 58.8647 52.8007 59.526 52.8007Z" fill="#A1A8AE"/>
<path d="M59.526 55.8378C60.1873 55.8378 60.7234 55.4006 60.7234 54.8613C60.7234 54.322 60.1873 53.8848 59.526 53.8848C58.8647 53.8848 58.3286 54.322 58.3286 54.8613C58.3286 55.4006 58.8647 55.8378 59.526 55.8378Z" fill="#A1A8AE"/>
<path d="M59.526 58.9316C60.1873 58.9316 60.7234 58.4944 60.7234 57.955C60.7234 57.4157 60.1873 56.9785 59.526 56.9785C58.8647 56.9785 58.3286 57.4157 58.3286 57.955C58.3286 58.4944 58.8647 58.9316 59.526 58.9316Z" fill="#A1A8AE"/>
<path d="M59.526 62.0234C60.1873 62.0234 60.7234 61.5862 60.7234 61.0468C60.7234 60.5075 60.1873 60.0703 59.526 60.0703C58.8647 60.0703 58.3286 60.5075 58.3286 61.0468C58.3286 61.5862 58.8647 62.0234 59.526 62.0234Z" fill="#A1A8AE"/>
<path d="M59.526 65.0605C60.1873 65.0605 60.7234 64.6233 60.7234 64.084C60.7234 63.5446 60.1873 63.1074 59.526 63.1074C58.8647 63.1074 58.3286 63.5446 58.3286 64.084C58.3286 64.6233 58.8647 65.0605 59.526 65.0605Z" fill="#A1A8AE"/>
<path d="M59.526 37.3925C60.1873 37.3925 60.7234 36.9553 60.7234 36.416C60.7234 35.8767 60.1873 35.4395 59.526 35.4395C58.8647 35.4395 58.3286 35.8767 58.3286 36.416C58.3286 36.9553 58.8647 37.3925 59.526 37.3925Z" fill="#A1A8AE"/>
</g>
<defs>
<clipPath id="clip0_1206_1162">
<rect width="43.3064" height="36.7284" fill="white" transform="translate(25.5332 28.334)"/>
</clipPath>
</defs>
</svg>
