<svg width="100" height="100" viewBox="0 0 100 100" fill="none" xmlns="http://www.w3.org/2000/svg">
<circle cx="50" cy="50" r="50" fill="white"/>
<circle cx="50" cy="50" r="44" stroke="#00A886" stroke-width="2"/>
<g clip-path="url(#clip0_1127_1166)">
<path d="M40.6649 37.7957C41.3671 37.7957 41.9363 37.2265 41.9363 36.5243C41.9363 35.8221 41.3671 35.2529 40.6649 35.2529C39.9628 35.2529 39.3936 35.8221 39.3936 36.5243C39.3936 37.2265 39.9628 37.7957 40.6649 37.7957Z" fill="#00A886"/>
<path d="M30 26V28.6134C30 32.4275 34.8029 32.0037 37.3457 32.0037H62.2786C65.5276 32.0037 70.048 32.2862 70.048 28.6134V26H30Z" fill="#00A886"/>
<path d="M46.9508 41.5388C48.0217 39.7894 48.6294 37.7962 48.7166 35.747V34.8994H47.2334V35.6764C47.2188 37.1615 46.8301 38.619 46.1033 39.9142C45.3764 38.619 44.9877 37.1615 44.9732 35.6764V34.8994H43.4193V35.6764C43.4625 37.7328 44.0736 39.7373 45.1851 41.4681C44.0457 43.4493 43.4147 45.6818 43.3486 47.9662C43.3464 50.3051 43.9813 52.6003 45.1851 54.6056C44.071 56.4392 43.4618 58.5348 43.4193 60.6799V61.81C43.4729 63.8648 44.0832 65.8665 45.1851 67.6018C44.0772 69.596 43.4484 71.8207 43.3486 74.0999H44.8319C44.9122 72.3901 45.3198 70.7117 46.0326 69.1557C46.7455 70.7117 47.1531 72.3901 47.2334 74.0999H48.7166C48.641 71.8169 48.0108 69.5866 46.8802 67.6018C47.9606 65.8568 48.5691 63.861 48.646 61.81V61.033V60.6799C48.5598 58.5417 47.9537 56.4568 46.8802 54.6056C48.0119 52.5701 48.6415 50.2939 48.7166 47.9662C48.6998 45.7063 48.0909 43.4902 46.9508 41.5388ZM47.2334 60.6799V61.033V61.81C47.2188 63.2951 46.8301 64.7527 46.1033 66.0479C45.3764 64.7527 44.9877 63.2951 44.9732 61.81V61.3862V60.6799C45.0217 59.1546 45.4076 57.659 46.1033 56.3007C46.7989 57.659 47.1849 59.1546 47.2334 60.6799ZM46.0326 53.0517C45.2538 51.4689 44.8433 49.7303 44.8319 47.9662C44.9122 46.2565 45.3198 44.5781 46.0326 43.022C46.7455 44.5781 47.1531 46.2565 47.2334 47.9662C47.2302 49.7312 46.8193 51.4717 46.0326 53.0517Z" fill="#00A886"/>
<path d="M55.0033 41.5388C56.0741 39.7894 56.6818 37.7962 56.769 35.747V34.8994H55.2858V35.6764C55.2712 37.1615 54.8826 38.619 54.1557 39.9142C53.4288 38.619 53.0401 37.1615 53.0256 35.6764V34.8994H51.5423V35.6764C51.5855 37.7328 52.1967 39.7373 53.3081 41.4681C52.1687 43.4493 51.5378 45.6818 51.4717 47.9662C51.4695 50.3051 52.1043 52.6003 53.3081 54.6056C52.1941 56.4392 51.5849 58.5348 51.5423 60.6799V61.81C51.596 63.8648 52.2062 65.8665 53.3081 67.6018C52.1907 69.5882 51.5839 71.821 51.5423 74.0999H53.0256C53.1058 72.3901 53.5135 70.7117 54.2263 69.1557C54.9392 70.7117 55.3468 72.3901 55.427 74.0999H56.9103C56.8347 71.8169 56.2044 69.5866 55.0739 67.6018C56.1543 65.8568 56.7628 63.861 56.8397 61.81V61.033V60.6799C56.7535 58.5417 56.1474 56.4568 55.0739 54.6056C56.2056 52.5701 56.8352 50.2939 56.9103 47.9662C56.7089 45.7181 56.0605 43.5329 55.0033 41.5388ZM55.2152 60.6799V61.033V61.81C55.2006 63.2951 54.8119 64.7527 54.085 66.0479C53.3582 64.7527 52.9695 63.2951 52.9549 61.81V61.3862V60.6799C53.0034 59.1546 53.3894 57.659 54.085 56.3007C54.7807 57.659 55.1667 59.1546 55.2152 60.6799ZM54.085 53.0517C53.3062 51.4689 52.8957 49.7303 52.8843 47.9662C52.9646 46.2565 53.3722 44.5781 54.085 43.022C54.7979 44.5781 55.2055 46.2565 55.2858 47.9662C55.2141 49.7225 54.8065 51.4488 54.085 53.0517Z" fill="#00A886"/>
<path d="M59.5946 37.7957C60.2968 37.7957 60.866 37.2265 60.866 36.5243C60.866 35.8221 60.2968 35.2529 59.5946 35.2529C58.8925 35.2529 58.3232 35.8221 58.3232 36.5243C58.3232 37.2265 58.8925 37.7957 59.5946 37.7957Z" fill="#00A886"/>
<path d="M59.5946 41.7507C60.2968 41.7507 60.866 41.1815 60.866 40.4794C60.866 39.7772 60.2968 39.208 59.5946 39.208C58.8925 39.208 58.3232 39.7772 58.3232 40.4794C58.3232 41.1815 58.8925 41.7507 59.5946 41.7507Z" fill="#00A886"/>
<path d="M59.5946 45.7771C60.2968 45.7771 60.866 45.2079 60.866 44.5057C60.866 43.8036 60.2968 43.2344 59.5946 43.2344C58.8925 43.2344 58.3232 43.8036 58.3232 44.5057C58.3232 45.2079 58.8925 45.7771 59.5946 45.7771Z" fill="#00A886"/>
<path d="M59.5946 49.8025C60.2968 49.8025 60.866 49.2333 60.866 48.5311C60.866 47.829 60.2968 47.2598 59.5946 47.2598C58.8925 47.2598 58.3232 47.829 58.3232 48.5311C58.3232 49.2333 58.8925 49.8025 59.5946 49.8025Z" fill="#00A886"/>
<path d="M59.5946 53.7586C60.2968 53.7586 60.866 53.1893 60.866 52.4872C60.866 51.785 60.2968 51.2158 59.5946 51.2158C58.8925 51.2158 58.3232 51.785 58.3232 52.4872C58.3232 53.1893 58.8925 53.7586 59.5946 53.7586Z" fill="#00A886"/>
<path d="M59.5946 57.7839C60.2968 57.7839 60.866 57.2147 60.866 56.5126C60.866 55.8104 60.2968 55.2412 59.5946 55.2412C58.8925 55.2412 58.3232 55.8104 58.3232 56.5126C58.3232 57.2147 58.8925 57.7839 59.5946 57.7839Z" fill="#00A886"/>
<path d="M59.5946 61.8103C60.2968 61.8103 60.866 61.2411 60.866 60.5389C60.866 59.8368 60.2968 59.2676 59.5946 59.2676C58.8925 59.2676 58.3232 59.8368 58.3232 60.5389C58.3232 61.2411 58.8925 61.8103 59.5946 61.8103Z" fill="#00A886"/>
<path d="M59.5946 65.8357C60.2968 65.8357 60.866 65.2665 60.866 64.5643C60.866 63.8622 60.2968 63.293 59.5946 63.293C58.8925 63.293 58.3232 63.8622 58.3232 64.5643C58.3232 65.2665 58.8925 65.8357 59.5946 65.8357Z" fill="#00A886"/>
<path d="M59.5946 69.7918C60.2968 69.7918 60.866 69.2225 60.866 68.5204C60.866 67.8182 60.2968 67.249 59.5946 67.249C58.8925 67.249 58.3232 67.8182 58.3232 68.5204C58.3232 69.2225 58.8925 69.7918 59.5946 69.7918Z" fill="#00A886"/>
<path d="M59.5946 73.8171C60.2968 73.8171 60.866 73.2479 60.866 72.5458C60.866 71.8436 60.2968 71.2744 59.5946 71.2744C58.8925 71.2744 58.3232 71.8436 58.3232 72.5458C58.3232 73.2479 58.8925 73.8171 59.5946 73.8171Z" fill="#00A886"/>
<path d="M40.6649 41.7507C41.3671 41.7507 41.9363 41.1815 41.9363 40.4794C41.9363 39.7772 41.3671 39.208 40.6649 39.208C39.9628 39.208 39.3936 39.7772 39.3936 40.4794C39.3936 41.1815 39.9628 41.7507 40.6649 41.7507Z" fill="#00A886"/>
<path d="M40.6649 45.7771C41.3671 45.7771 41.9363 45.2079 41.9363 44.5057C41.9363 43.8036 41.3671 43.2344 40.6649 43.2344C39.9628 43.2344 39.3936 43.8036 39.3936 44.5057C39.3936 45.2079 39.9628 45.7771 40.6649 45.7771Z" fill="#00A886"/>
<path d="M40.6649 49.8025C41.3671 49.8025 41.9363 49.2333 41.9363 48.5311C41.9363 47.829 41.3671 47.2598 40.6649 47.2598C39.9628 47.2598 39.3936 47.829 39.3936 48.5311C39.3936 49.2333 39.9628 49.8025 40.6649 49.8025Z" fill="#00A886"/>
<path d="M40.6649 53.7586C41.3671 53.7586 41.9363 53.1893 41.9363 52.4872C41.9363 51.785 41.3671 51.2158 40.6649 51.2158C39.9628 51.2158 39.3936 51.785 39.3936 52.4872C39.3936 53.1893 39.9628 53.7586 40.6649 53.7586Z" fill="#00A886"/>
<path d="M40.6649 57.7839C41.3671 57.7839 41.9363 57.2147 41.9363 56.5126C41.9363 55.8104 41.3671 55.2412 40.6649 55.2412C39.9628 55.2412 39.3936 55.8104 39.3936 56.5126C39.3936 57.2147 39.9628 57.7839 40.6649 57.7839Z" fill="#00A886"/>
<path d="M40.6649 61.8103C41.3671 61.8103 41.9363 61.2411 41.9363 60.5389C41.9363 59.8368 41.3671 59.2676 40.6649 59.2676C39.9628 59.2676 39.3936 59.8368 39.3936 60.5389C39.3936 61.2411 39.9628 61.8103 40.6649 61.8103Z" fill="#00A886"/>
<path d="M40.6649 65.8357C41.3671 65.8357 41.9363 65.2665 41.9363 64.5643C41.9363 63.8622 41.3671 63.293 40.6649 63.293C39.9628 63.293 39.3936 63.8622 39.3936 64.5643C39.3936 65.2665 39.9628 65.8357 40.6649 65.8357Z" fill="#00A886"/>
<path d="M40.6649 69.7918C41.3671 69.7918 41.9363 69.2225 41.9363 68.5204C41.9363 67.8182 41.3671 67.249 40.6649 67.249C39.9628 67.249 39.3936 67.8182 39.3936 68.5204C39.3936 69.2225 39.9628 69.7918 40.6649 69.7918Z" fill="#00A886"/>
<path d="M40.6649 73.8171C41.3671 73.8171 41.9363 73.2479 41.9363 72.5458C41.9363 71.8436 41.3671 71.2744 40.6649 71.2744C39.9628 71.2744 39.3936 71.8436 39.3936 72.5458C39.3936 73.2479 39.9628 73.8171 40.6649 73.8171Z" fill="#00A886"/>
</g>
<defs>
<clipPath id="clip0_1127_1166">
<rect width="40.048" height="48.1" fill="white" transform="translate(30 26)"/>
</clipPath>
</defs>
</svg>
