<svg width="100" height="100" viewBox="0 0 100 100" fill="none" xmlns="http://www.w3.org/2000/svg">
<circle cx="50" cy="50" r="50" fill="white"/>
<circle cx="50" cy="50" r="44" stroke="#F2F2F2" stroke-width="2"/>
<g clip-path="url(#clip0_1127_1165)">
<path d="M27 30V32.2088C27 35.1733 31.7754 34.9408 35.054 34.9408H65.3457C68.6243 34.9408 73.3997 35.2314 73.3997 32.2088V30H27Z"/>
<path d="M58.1472 39.7058C58.8558 39.7058 59.4301 39.2374 59.4301 38.6596C59.4301 38.0817 58.8558 37.6133 58.1472 37.6133C57.4387 37.6133 56.8643 38.0817 56.8643 38.6596C56.8643 39.2374 57.4387 39.7058 58.1472 39.7058Z"/>
<path d="M52.8728 39.7058C53.5813 39.7058 54.1557 39.2374 54.1557 38.6596C54.1557 38.0817 53.5813 37.6133 52.8728 37.6133C52.1642 37.6133 51.5898 38.0817 51.5898 38.6596C51.5898 39.2374 52.1642 39.7058 52.8728 39.7058Z"/>
<path d="M47.6697 39.7058C48.3782 39.7058 48.9526 39.2374 48.9526 38.6596C48.9526 38.0817 48.3782 37.6133 47.6697 37.6133C46.9611 37.6133 46.3867 38.0817 46.3867 38.6596C46.3867 39.2374 46.9611 39.7058 47.6697 39.7058Z"/>
<path d="M42.3952 39.7058C43.1038 39.7058 43.6782 39.2374 43.6782 38.6596C43.6782 38.0817 43.1038 37.6133 42.3952 37.6133C41.6867 37.6133 41.1123 38.0817 41.1123 38.6596C41.1123 39.2374 41.6867 39.7058 42.3952 39.7058Z"/>
<path d="M58.1472 43.0203C58.8558 43.0203 59.4301 42.5519 59.4301 41.974C59.4301 41.3962 58.8558 40.9277 58.1472 40.9277C57.4387 40.9277 56.8643 41.3962 56.8643 41.974C56.8643 42.5519 57.4387 43.0203 58.1472 43.0203Z"/>
<path d="M58.1472 46.2752C58.8558 46.2752 59.4301 45.8067 59.4301 45.2289C59.4301 44.6511 58.8558 44.1826 58.1472 44.1826C57.4387 44.1826 56.8643 44.6511 56.8643 45.2289C56.8643 45.8067 57.4387 46.2752 58.1472 46.2752Z"/>
<path d="M58.1472 49.5877C58.8558 49.5877 59.4301 49.1192 59.4301 48.5414C59.4301 47.9636 58.8558 47.4951 58.1472 47.4951C57.4387 47.4951 56.8643 47.9636 56.8643 48.5414C56.8643 49.1192 57.4387 49.5877 58.1472 49.5877Z"/>
<path d="M58.1472 52.9012C58.8558 52.9012 59.4301 52.4327 59.4301 51.8549C59.4301 51.277 58.8558 50.8086 58.1472 50.8086C57.4387 50.8086 56.8643 51.277 56.8643 51.8549C56.8643 52.4327 57.4387 52.9012 58.1472 52.9012Z"/>
<path d="M58.1472 56.2137C58.8558 56.2137 59.4301 55.7452 59.4301 55.1674C59.4301 54.5895 58.8558 54.1211 58.1472 54.1211C57.4387 54.1211 56.8643 54.5895 56.8643 55.1674C56.8643 55.7452 57.4387 56.2137 58.1472 56.2137Z"/>
<path d="M58.1472 59.4695C58.8558 59.4695 59.4301 59.0011 59.4301 58.4232C59.4301 57.8454 58.8558 57.377 58.1472 57.377C57.4387 57.377 56.8643 57.8454 56.8643 58.4232C56.8643 59.0011 57.4387 59.4695 58.1472 59.4695Z"/>
<path d="M58.1472 62.782C58.8558 62.782 59.4301 62.3136 59.4301 61.7357C59.4301 61.1579 58.8558 60.6895 58.1472 60.6895C57.4387 60.6895 56.8643 61.1579 56.8643 61.7357C56.8643 62.3136 57.4387 62.782 58.1472 62.782Z"/>
<path d="M58.1472 66.0955C58.8558 66.0955 59.4301 65.6271 59.4301 65.0492C59.4301 64.4714 58.8558 64.0029 58.1472 64.0029C57.4387 64.0029 56.8643 64.4714 56.8643 65.0492C56.8643 65.6271 57.4387 66.0955 58.1472 66.0955Z"/>
<path d="M37.1218 39.7058C37.8304 39.7058 38.4047 39.2374 38.4047 38.6596C38.4047 38.0817 37.8304 37.6133 37.1218 37.6133C36.4133 37.6133 35.8389 38.0817 35.8389 38.6596C35.8389 39.2374 36.4133 39.7058 37.1218 39.7058Z"/>
<path d="M58.1472 69.3504C58.8558 69.3504 59.4301 68.8819 59.4301 68.3041C59.4301 67.7263 58.8558 67.2578 58.1472 67.2578C57.4387 67.2578 56.8643 67.7263 56.8643 68.3041C56.8643 68.8819 57.4387 69.3504 58.1472 69.3504Z"/>
<path d="M52.8728 43.0203C53.5813 43.0203 54.1557 42.5519 54.1557 41.974C54.1557 41.3962 53.5813 40.9277 52.8728 40.9277C52.1642 40.9277 51.5898 41.3962 51.5898 41.974C51.5898 42.5519 52.1642 43.0203 52.8728 43.0203Z"/>
<path d="M52.8728 46.2752C53.5813 46.2752 54.1557 45.8067 54.1557 45.2289C54.1557 44.6511 53.5813 44.1826 52.8728 44.1826C52.1642 44.1826 51.5898 44.6511 51.5898 45.2289C51.5898 45.8067 52.1642 46.2752 52.8728 46.2752Z"/>
<path d="M52.8728 49.5877C53.5813 49.5877 54.1557 49.1192 54.1557 48.5414C54.1557 47.9636 53.5813 47.4951 52.8728 47.4951C52.1642 47.4951 51.5898 47.9636 51.5898 48.5414C51.5898 49.1192 52.1642 49.5877 52.8728 49.5877Z"/>
<path d="M52.8728 52.9012C53.5813 52.9012 54.1557 52.4327 54.1557 51.8549C54.1557 51.277 53.5813 50.8086 52.8728 50.8086C52.1642 50.8086 51.5898 51.277 51.5898 51.8549C51.5898 52.4327 52.1642 52.9012 52.8728 52.9012Z"/>
<path d="M52.8728 56.2137C53.5813 56.2137 54.1557 55.7452 54.1557 55.1674C54.1557 54.5895 53.5813 54.1211 52.8728 54.1211C52.1642 54.1211 51.5898 54.5895 51.5898 55.1674C51.5898 55.7452 52.1642 56.2137 52.8728 56.2137Z"/>
<path d="M52.8728 59.4695C53.5813 59.4695 54.1557 59.0011 54.1557 58.4232C54.1557 57.8454 53.5813 57.377 52.8728 57.377C52.1642 57.377 51.5898 57.8454 51.5898 58.4232C51.5898 59.0011 52.1642 59.4695 52.8728 59.4695Z"/>
<path d="M52.8728 62.782C53.5813 62.782 54.1557 62.3136 54.1557 61.7357C54.1557 61.1579 53.5813 60.6895 52.8728 60.6895C52.1642 60.6895 51.5898 61.1579 51.5898 61.7357C51.5898 62.3136 52.1642 62.782 52.8728 62.782Z"/>
<path d="M52.8728 66.0955C53.5813 66.0955 54.1557 65.6271 54.1557 65.0492C54.1557 64.4714 53.5813 64.0029 52.8728 64.0029C52.1642 64.0029 51.5898 64.4714 51.5898 65.0492C51.5898 65.6271 52.1642 66.0955 52.8728 66.0955Z"/>
<path d="M52.8728 69.3504C53.5813 69.3504 54.1557 68.8819 54.1557 68.3041C54.1557 67.7263 53.5813 67.2578 52.8728 67.2578C52.1642 67.2578 51.5898 67.7263 51.5898 68.3041C51.5898 68.8819 52.1642 69.3504 52.8728 69.3504Z"/>
<path d="M47.6697 43.0203C48.3782 43.0203 48.9526 42.5519 48.9526 41.974C48.9526 41.3962 48.3782 40.9277 47.6697 40.9277C46.9611 40.9277 46.3867 41.3962 46.3867 41.974C46.3867 42.5519 46.9611 43.0203 47.6697 43.0203Z" />
<path d="M47.6697 46.2752C48.3782 46.2752 48.9526 45.8067 48.9526 45.2289C48.9526 44.6511 48.3782 44.1826 47.6697 44.1826C46.9611 44.1826 46.3867 44.6511 46.3867 45.2289C46.3867 45.8067 46.9611 46.2752 47.6697 46.2752Z" />
<path d="M47.6697 49.5877C48.3782 49.5877 48.9526 49.1192 48.9526 48.5414C48.9526 47.9636 48.3782 47.4951 47.6697 47.4951C46.9611 47.4951 46.3867 47.9636 46.3867 48.5414C46.3867 49.1192 46.9611 49.5877 47.6697 49.5877Z" />
<path d="M47.6697 52.9012C48.3782 52.9012 48.9526 52.4327 48.9526 51.8549C48.9526 51.277 48.3782 50.8086 47.6697 50.8086C46.9611 50.8086 46.3867 51.277 46.3867 51.8549C46.3867 52.4327 46.9611 52.9012 47.6697 52.9012Z" />
<path d="M47.6697 56.2137C48.3782 56.2137 48.9526 55.7452 48.9526 55.1674C48.9526 54.5895 48.3782 54.1211 47.6697 54.1211C46.9611 54.1211 46.3867 54.5895 46.3867 55.1674C46.3867 55.7452 46.9611 56.2137 47.6697 56.2137Z" />
<path d="M47.6697 59.4695C48.3782 59.4695 48.9526 59.0011 48.9526 58.4232C48.9526 57.8454 48.3782 57.377 47.6697 57.377C46.9611 57.377 46.3867 57.8454 46.3867 58.4232C46.3867 59.0011 46.9611 59.4695 47.6697 59.4695Z" />
<path d="M47.6697 62.782C48.3782 62.782 48.9526 62.3136 48.9526 61.7357C48.9526 61.1579 48.3782 60.6895 47.6697 60.6895C46.9611 60.6895 46.3867 61.1579 46.3867 61.7357C46.3867 62.3136 46.9611 62.782 47.6697 62.782Z" />
<path d="M47.6697 66.0955C48.3782 66.0955 48.9526 65.6271 48.9526 65.0492C48.9526 64.4714 48.3782 64.0029 47.6697 64.0029C46.9611 64.0029 46.3867 64.4714 46.3867 65.0492C46.3867 65.6271 46.9611 66.0955 47.6697 66.0955Z" />
<path d="M47.6697 69.3504C48.3782 69.3504 48.9526 68.8819 48.9526 68.3041C48.9526 67.7263 48.3782 67.2578 47.6697 67.2578C46.9611 67.2578 46.3867 67.7263 46.3867 68.3041C46.3867 68.8819 46.9611 69.3504 47.6697 69.3504Z" />
<path d="M42.3952 43.0203C43.1038 43.0203 43.6782 42.5519 43.6782 41.974C43.6782 41.3962 43.1038 40.9277 42.3952 40.9277C41.6867 40.9277 41.1123 41.3962 41.1123 41.974C41.1123 42.5519 41.6867 43.0203 42.3952 43.0203Z" />
<path d="M42.3952 46.2752C43.1038 46.2752 43.6782 45.8067 43.6782 45.2289C43.6782 44.6511 43.1038 44.1826 42.3952 44.1826C41.6867 44.1826 41.1123 44.6511 41.1123 45.2289C41.1123 45.8067 41.6867 46.2752 42.3952 46.2752Z" />
<path d="M42.3952 49.5877C43.1038 49.5877 43.6782 49.1192 43.6782 48.5414C43.6782 47.9636 43.1038 47.4951 42.3952 47.4951C41.6867 47.4951 41.1123 47.9636 41.1123 48.5414C41.1123 49.1192 41.6867 49.5877 42.3952 49.5877Z" />
<path d="M42.3952 52.9012C43.1038 52.9012 43.6782 52.4327 43.6782 51.8549C43.6782 51.277 43.1038 50.8086 42.3952 50.8086C41.6867 50.8086 41.1123 51.277 41.1123 51.8549C41.1123 52.4327 41.6867 52.9012 42.3952 52.9012Z" />
<path d="M42.3952 56.2137C43.1038 56.2137 43.6782 55.7452 43.6782 55.1674C43.6782 54.5895 43.1038 54.1211 42.3952 54.1211C41.6867 54.1211 41.1123 54.5895 41.1123 55.1674C41.1123 55.7452 41.6867 56.2137 42.3952 56.2137Z" />
<path d="M42.3952 59.4695C43.1038 59.4695 43.6782 59.0011 43.6782 58.4232C43.6782 57.8454 43.1038 57.377 42.3952 57.377C41.6867 57.377 41.1123 57.8454 41.1123 58.4232C41.1123 59.0011 41.6867 59.4695 42.3952 59.4695Z" />
<path d="M42.3952 62.782C43.1038 62.782 43.6782 62.3136 43.6782 61.7357C43.6782 61.1579 43.1038 60.6895 42.3952 60.6895C41.6867 60.6895 41.1123 61.1579 41.1123 61.7357C41.1123 62.3136 41.6867 62.782 42.3952 62.782Z" />
<path d="M42.3952 66.0955C43.1038 66.0955 43.6782 65.6271 43.6782 65.0492C43.6782 64.4714 43.1038 64.0029 42.3952 64.0029C41.6867 64.0029 41.1123 64.4714 41.1123 65.0492C41.1123 65.6271 41.6867 66.0955 42.3952 66.0955Z" />
<path d="M42.3952 69.3504C43.1038 69.3504 43.6782 68.8819 43.6782 68.3041C43.6782 67.7263 43.1038 67.2578 42.3952 67.2578C41.6867 67.2578 41.1123 67.7263 41.1123 68.3041C41.1123 68.8819 41.6867 69.3504 42.3952 69.3504Z" />
<path d="M37.1218 43.0203C37.8304 43.0203 38.4047 42.5519 38.4047 41.974C38.4047 41.3962 37.8304 40.9277 37.1218 40.9277C36.4133 40.9277 35.8389 41.3962 35.8389 41.974C35.8389 42.5519 36.4133 43.0203 37.1218 43.0203Z" />
<path d="M37.1218 46.2752C37.8304 46.2752 38.4047 45.8067 38.4047 45.2289C38.4047 44.6511 37.8304 44.1826 37.1218 44.1826C36.4133 44.1826 35.8389 44.6511 35.8389 45.2289C35.8389 45.8067 36.4133 46.2752 37.1218 46.2752Z" />
<path d="M37.1218 49.5877C37.8304 49.5877 38.4047 49.1192 38.4047 48.5414C38.4047 47.9636 37.8304 47.4951 37.1218 47.4951C36.4133 47.4951 35.8389 47.9636 35.8389 48.5414C35.8389 49.1192 36.4133 49.5877 37.1218 49.5877Z" />
<path d="M37.1218 52.9012C37.8304 52.9012 38.4047 52.4327 38.4047 51.8549C38.4047 51.277 37.8304 50.8086 37.1218 50.8086C36.4133 50.8086 35.8389 51.277 35.8389 51.8549C35.8389 52.4327 36.4133 52.9012 37.1218 52.9012Z" />
<path d="M37.1218 56.2137C37.8304 56.2137 38.4047 55.7452 38.4047 55.1674C38.4047 54.5895 37.8304 54.1211 37.1218 54.1211C36.4133 54.1211 35.8389 54.5895 35.8389 55.1674C35.8389 55.7452 36.4133 56.2137 37.1218 56.2137Z" />
<path d="M37.1218 59.4695C37.8304 59.4695 38.4047 59.0011 38.4047 58.4232C38.4047 57.8454 37.8304 57.377 37.1218 57.377C36.4133 57.377 35.8389 57.8454 35.8389 58.4232C35.8389 59.0011 36.4133 59.4695 37.1218 59.4695Z" />
<path d="M37.1218 62.782C37.8304 62.782 38.4047 62.3136 38.4047 61.7357C38.4047 61.1579 37.8304 60.6895 37.1218 60.6895C36.4133 60.6895 35.8389 61.1579 35.8389 61.7357C35.8389 62.3136 36.4133 62.782 37.1218 62.782Z" />
<path d="M37.1218 66.0955C37.8304 66.0955 38.4047 65.6271 38.4047 65.0492C38.4047 64.4714 37.8304 64.0029 37.1218 64.0029C36.4133 64.0029 35.8389 64.4714 35.8389 65.0492C35.8389 65.6271 36.4133 66.0955 37.1218 66.0955Z" />
<path d="M37.1218 69.3504C37.8304 69.3504 38.4047 68.8819 38.4047 68.3041C38.4047 67.7263 37.8304 67.2578 37.1218 67.2578C36.4133 67.2578 35.8389 67.7263 35.8389 68.3041C35.8389 68.8819 36.4133 69.3504 37.1218 69.3504Z" />
<path d="M63.4206 43.0203C64.1292 43.0203 64.7036 42.5519 64.7036 41.974C64.7036 41.3962 64.1292 40.9277 63.4206 40.9277C62.7121 40.9277 62.1377 41.3962 62.1377 41.974C62.1377 42.5519 62.7121 43.0203 63.4206 43.0203Z" />
<path d="M63.4206 46.2752C64.1292 46.2752 64.7036 45.8067 64.7036 45.2289C64.7036 44.6511 64.1292 44.1826 63.4206 44.1826C62.7121 44.1826 62.1377 44.6511 62.1377 45.2289C62.1377 45.8067 62.7121 46.2752 63.4206 46.2752Z" />
<path d="M63.4206 49.5877C64.1292 49.5877 64.7036 49.1192 64.7036 48.5414C64.7036 47.9636 64.1292 47.4951 63.4206 47.4951C62.7121 47.4951 62.1377 47.9636 62.1377 48.5414C62.1377 49.1192 62.7121 49.5877 63.4206 49.5877Z" />
<path d="M63.4206 52.9012C64.1292 52.9012 64.7036 52.4327 64.7036 51.8549C64.7036 51.277 64.1292 50.8086 63.4206 50.8086C62.7121 50.8086 62.1377 51.277 62.1377 51.8549C62.1377 52.4327 62.7121 52.9012 63.4206 52.9012Z" />
<path d="M63.4206 56.2137C64.1292 56.2137 64.7036 55.7452 64.7036 55.1674C64.7036 54.5895 64.1292 54.1211 63.4206 54.1211C62.7121 54.1211 62.1377 54.5895 62.1377 55.1674C62.1377 55.7452 62.7121 56.2137 63.4206 56.2137Z" />
<path d="M63.4206 59.4695C64.1292 59.4695 64.7036 59.0011 64.7036 58.4232C64.7036 57.8454 64.1292 57.377 63.4206 57.377C62.7121 57.377 62.1377 57.8454 62.1377 58.4232C62.1377 59.0011 62.7121 59.4695 63.4206 59.4695Z" />
<path d="M63.4206 62.782C64.1292 62.782 64.7036 62.3136 64.7036 61.7357C64.7036 61.1579 64.1292 60.6895 63.4206 60.6895C62.7121 60.6895 62.1377 61.1579 62.1377 61.7357C62.1377 62.3136 62.7121 62.782 63.4206 62.782Z" />
<path d="M63.4206 66.0955C64.1292 66.0955 64.7036 65.6271 64.7036 65.0492C64.7036 64.4714 64.1292 64.0029 63.4206 64.0029C62.7121 64.0029 62.1377 64.4714 62.1377 65.0492C62.1377 65.6271 62.7121 66.0955 63.4206 66.0955Z" />
<path d="M63.4206 69.3504C64.1292 69.3504 64.7036 68.8819 64.7036 68.3041C64.7036 67.7263 64.1292 67.2578 63.4206 67.2578C62.7121 67.2578 62.1377 67.7263 62.1377 68.3041C62.1377 68.8819 62.7121 69.3504 63.4206 69.3504Z" />
<path d="M63.4206 39.7058C64.1292 39.7058 64.7036 39.2374 64.7036 38.6596C64.7036 38.0817 64.1292 37.6133 63.4206 37.6133C62.7121 37.6133 62.1377 38.0817 62.1377 38.6596C62.1377 39.2374 62.7121 39.7058 63.4206 39.7058Z" />
</g>
<defs>
<clipPath id="clip0_1127_1165">
<rect width="46.3997" height="39.3518" fill="white" transform="translate(27 30)"/>
</clipPath>
</defs>
</svg>
