<svg width="17" height="17" viewBox="0 0 17 17" fill="none" xmlns="http://www.w3.org/2000/svg">
<g clip-path="url(#clip0_495_683)">
<path d="M17 2.86878V5.89688C17 6.48367 16.5243 6.95938 15.9375 6.95938H12.9094C12.3226 6.95938 11.8469 6.48367 11.8469 5.89688C11.8469 5.31008 12.3226 4.83438 12.9094 4.83438H13.7212C12.548 3.1528 10.6252 2.125 8.5 2.125C5.85574 2.125 3.52458 3.71586 2.56109 6.17787C2.3472 6.72433 1.73081 6.99391 1.18442 6.78008C0.637965 6.56622 0.368355 5.94987 0.582217 5.40344C1.19843 3.82885 2.26054 2.48469 3.65371 1.51625C5.08068 0.524311 6.75647 0 8.5 0C10.2435 0 11.9193 0.524311 13.3463 1.51622C13.9133 1.91034 14.4254 2.36675 14.875 2.87556V2.86882C14.875 2.28202 15.3507 1.80632 15.9375 1.80632C16.5243 1.80632 17 2.28198 17 2.86878ZM15.8156 10.22C15.2692 10.0061 14.6528 10.2757 14.4389 10.8222C13.4754 13.2842 11.1443 14.875 8.5 14.875C6.41992 14.875 4.53375 13.8904 3.35451 12.2719H4.09059C4.67739 12.2719 5.15309 11.7962 5.15309 11.2094C5.15309 10.6226 4.67739 10.1469 4.09059 10.1469H1.0625C0.475701 10.1469 0 10.6226 0 11.2094V14.2375C0 14.8243 0.475701 15.3 1.0625 15.3C1.6493 15.3 2.125 14.8243 2.125 14.2375V14.1245C2.57457 14.6333 3.08673 15.0897 3.65371 15.4838C5.08068 16.4757 6.75647 17 8.5 17C10.2435 17 11.9193 16.4757 13.3463 15.4838C14.7395 14.5153 15.8016 13.1712 16.4178 11.5966C16.6316 11.0502 16.362 10.4338 15.8156 10.22Z" fill="#00A886"/>
</g>
<defs>
<clipPath id="clip0_495_683">
<rect width="17" height="17" fill="white"/>
</clipPath>
</defs>
</svg>
