<svg width="35" height="35" viewBox="0 0 35 35" fill="none" xmlns="http://www.w3.org/2000/svg">
<g clip-path="url(#clip0_520_1743)">
<path d="M15.4533 5.79223L17.7984 6.95358V1.05737H12.2065V6.95358L14.5677 5.79223C14.705 5.72251 14.8566 5.68622 15.0105 5.68622C15.1644 5.68622 15.3161 5.72251 15.4533 5.79223Z"/>
<path d="M28.9395 12.968V2.04032C28.9395 1.77969 28.8363 1.52974 28.6525 1.34545C28.4687 1.16115 28.2194 1.05762 27.9595 1.05762H19.6982V8.55385C19.6991 8.72889 19.6533 8.90101 19.5657 9.05237C19.478 9.20374 19.3516 9.32892 19.1995 9.41489C19.0474 9.50086 18.8752 9.54458 18.7007 9.54144C18.5261 9.53835 18.3556 9.48854 18.2066 9.39718L15.0115 7.76947L11.7496 9.43114C11.6 9.50766 11.4334 9.5444 11.2656 9.53778C11.0978 9.53115 10.9345 9.48143 10.7914 9.39339C10.6483 9.3053 10.5302 9.18184 10.4483 9.03484C10.3665 8.88785 10.3237 8.72222 10.324 8.55385V1.05762H2.06359C1.80365 1.05762 1.55436 1.16115 1.37056 1.34545C1.18676 1.52974 1.0835 1.77969 1.0835 2.04032V28.0016C1.0835 28.2622 1.18676 28.5122 1.37056 28.6964C1.55436 28.8807 1.80365 28.9843 2.06359 28.9843H12.9622C11.7497 25.9956 11.7619 22.648 12.9961 19.6682C15.5764 13.4263 22.6919 10.4264 28.9395 12.968Z"/>
<path d="M31.6225 16.9753C29.9367 15.2858 27.7189 14.2346 25.3468 14.0008C22.9747 13.7669 20.5952 14.3649 18.6135 15.6928C16.6318 17.0207 15.1706 18.9964 14.4788 21.2834C13.7869 23.5704 13.9072 26.0271 14.8192 28.235C15.7312 30.443 17.3785 32.2657 19.4805 33.3925C21.5824 34.5193 24.0089 34.8807 26.3467 34.4149C28.6845 33.9491 30.7889 32.6851 32.3015 30.8381C33.8141 28.9912 34.6412 26.6755 34.6421 24.2857C34.6443 22.9277 34.3787 21.5827 33.8604 20.3281C33.3422 19.0735 32.5816 17.934 31.6225 16.9753ZM28.48 27.517C28.1274 27.8714 27.7086 28.1525 27.2474 28.3443C26.7863 28.5361 26.2919 28.6348 25.7927 28.6346H21.205C20.9444 28.6346 20.6944 28.5308 20.51 28.346C20.3258 28.1612 20.2222 27.9106 20.2222 27.6492C20.2222 27.3879 20.3258 27.1372 20.51 26.9524C20.6944 26.7676 20.9444 26.6638 21.205 26.6638H25.7927C26.2695 26.6362 26.7177 26.4268 27.0455 26.0786C27.3732 25.7304 27.5558 25.2697 27.5558 24.7909C27.5558 24.3121 27.3732 23.8514 27.0455 23.5031C26.7177 23.1549 26.2695 22.9456 25.7927 22.918H23.0547L23.6383 23.5022C23.7315 23.5927 23.8058 23.701 23.857 23.8205C23.9081 23.9401 23.9351 24.0687 23.9363 24.1988C23.9375 24.3289 23.913 24.4579 23.864 24.5784C23.8151 24.699 23.7428 24.8085 23.6513 24.9008C23.5598 24.9931 23.451 25.0662 23.331 25.1159C23.2111 25.1657 23.0826 25.1911 22.9528 25.1906C22.823 25.1902 22.6947 25.1639 22.5751 25.1133C22.4556 25.0627 22.3472 24.9888 22.2564 24.8959L19.9968 22.6356C19.9057 22.5444 19.8335 22.436 19.7842 22.3168C19.7349 22.1975 19.7096 22.0697 19.7096 21.9406C19.7096 21.8115 19.7349 21.6837 19.7842 21.5644C19.8335 21.4452 19.9057 21.3368 19.9968 21.2455L22.2519 18.98C22.3427 18.8885 22.4506 18.8158 22.5694 18.7661C22.6882 18.7164 22.8156 18.6906 22.9444 18.6903C23.0731 18.69 23.2006 18.7151 23.3197 18.7642C23.4388 18.8132 23.547 18.8854 23.6383 18.9764C23.7296 19.0674 23.802 19.1756 23.8516 19.2947C23.9012 19.4139 23.9269 19.5416 23.9272 19.6707C23.9275 19.7998 23.9025 19.9277 23.8536 20.0471C23.8046 20.1664 23.7327 20.275 23.6418 20.3665L23.0645 20.9463H25.7963C26.5518 20.9548 27.2881 21.1862 27.9132 21.6118C28.5382 22.0373 29.0245 22.638 29.3111 23.3389C29.5978 24.0399 29.6722 24.8099 29.525 25.553C29.3778 26.296 29.0156 26.9791 28.4835 27.517H28.48Z"/>
</g>
<defs>
<clipPath id="clip0_520_1743">
<rect width="34" height="34" fill="white" transform="translate(0.862305 0.759766)"/>
</clipPath>
</defs>
</svg>
