<svg xmlns="http://www.w3.org/2000/svg" xmlns:xlink="http://www.w3.org/1999/xlink"><defs>
<clipPath id="clip0_375_421">
<rect width="14.801" height="7.94847" fill="white" transform="translate(0.0107422 0.0292969)"/>
</clipPath>

<clipPath id="clip0_750_1191">
<rect width="25" height="24" fill="white" transform="translate(0.107422 0.323242)"/>
</clipPath>

<clipPath id="clip0_1102_657">
<rect width="37" height="35.8064" fill="white" transform="translate(0 0.0966797)"/>
</clipPath>

<filter id="filter0_dd_363_315" x="-3.23438" y="-2.17676" width="91.9544" height="64.6116" filterUnits="userSpaceOnUse" color-interpolation-filters="sRGB">
<feFlood flood-opacity="0" result="BackgroundImageFix"/>
<feColorMatrix in="SourceAlpha" type="matrix" values="0 0 0 0 0 0 0 0 0 0 0 0 0 0 0 0 0 0 127 0" result="hardAlpha"/>
<feOffset dx="1.2833" dy="1.2833"/>
<feGaussianBlur stdDeviation="1.77159"/>
<feColorMatrix type="matrix" values="0 0 0 0 0.835529 0 0 0 0 0.835294 0 0 0 0 0.847059 0 0 0 0.4 0"/>
<feBlend mode="normal" in2="BackgroundImageFix" result="effect1_dropShadow_363_315"/>
<feColorMatrix in="SourceAlpha" type="matrix" values="0 0 0 0 0 0 0 0 0 0 0 0 0 0 0 0 0 0 127 0" result="hardAlpha"/>
<feOffset dx="-1.92495" dy="-1.92495"/>
<feGaussianBlur stdDeviation="2.12591"/>
<feColorMatrix type="matrix" values="0 0 0 0 1 0 0 0 0 1 0 0 0 0 1 0 0 0 1 0"/>
<feBlend mode="normal" in2="effect1_dropShadow_363_315" result="effect2_dropShadow_363_315"/>
<feBlend mode="normal" in="SourceGraphic" in2="effect2_dropShadow_363_315" result="shape"/>
</filter>

<clipPath id="clip0_750_1165">
<rect width="33.4612" height="24" fill="white" transform="translate(0.15625 0.383789)"/>
</clipPath>

<clipPath id="clip0_750_1216">
<rect width="24" height="24" fill="white"/>
</clipPath>

<clipPath id="clip0_612_3312">
<rect width="14" height="14" fill="white"/>
</clipPath>

<clipPath id="clip0_375_449">
<rect width="26" height="26" fill="white" transform="translate(0.0117188 0.269531)"/>
</clipPath>

<clipPath id="clip0_375_445">
<rect width="26" height="26" fill="white" transform="translate(0.0117188 0.269531)"/>
</clipPath>

<clipPath id="clip0_375_492">
<rect width="174" height="38" fill="white" transform="translate(0.0117188 0.12793)"/>
</clipPath>

<clipPath id="clip0_375_461">
<rect width="49" height="30" fill="white"/>
</clipPath>

<filter id="filter0_dd_356_248" x="-1.15365" y="-1.75814" width="69.4597" height="70.3727" filterUnits="userSpaceOnUse" color-interpolation-filters="sRGB">
<feFlood flood-opacity="0" result="BackgroundImageFix"/>
<feColorMatrix in="SourceAlpha" type="matrix" values="0 0 0 0 0 0 0 0 0 0 0 0 0 0 0 0 0 0 127 0" result="hardAlpha"/>
<feOffset dx="1.19633" dy="1.19633"/>
<feGaussianBlur stdDeviation="1.65152"/>
<feColorMatrix type="matrix" values="0 0 0 0 0.835529 0 0 0 0 0.835294 0 0 0 0 0.847059 0 0 0 0.4 0"/>
<feBlend mode="normal" in2="BackgroundImageFix" result="effect1_dropShadow_356_248"/>
<feColorMatrix in="SourceAlpha" type="matrix" values="0 0 0 0 0 0 0 0 0 0 0 0 0 0 0 0 0 0 127 0" result="hardAlpha"/>
<feOffset dx="-1.79449" dy="-1.79449"/>
<feGaussianBlur stdDeviation="1.98183"/>
<feColorMatrix type="matrix" values="0 0 0 0 1 0 0 0 0 1 0 0 0 0 1 0 0 0 1 0"/>
<feBlend mode="normal" in2="effect1_dropShadow_356_248" result="effect2_dropShadow_356_248"/>
<feBlend mode="normal" in="SourceGraphic" in2="effect2_dropShadow_356_248" result="shape"/>
</filter>

<clipPath id="clip0_750_1182">
<rect width="22" height="24" fill="white" transform="translate(0.107422)"/>
</clipPath>

<filter id="filter0_dd_363_328" x="-1.4493" y="-0.842854" width="60.6965" height="70.4084" filterUnits="userSpaceOnUse" color-interpolation-filters="sRGB">
<feFlood flood-opacity="0" result="BackgroundImageFix"/>
<feColorMatrix in="SourceAlpha" type="matrix" values="0 0 0 0 0 0 0 0 0 0 0 0 0 0 0 0 0 0 127 0" result="hardAlpha"/>
<feOffset dx="1.21393" dy="1.21393"/>
<feGaussianBlur stdDeviation="1.67582"/>
<feColorMatrix type="matrix" values="0 0 0 0 0.835529 0 0 0 0 0.835294 0 0 0 0 0.847059 0 0 0 0.4 0"/>
<feBlend mode="normal" in2="BackgroundImageFix" result="effect1_dropShadow_363_328"/>
<feColorMatrix in="SourceAlpha" type="matrix" values="0 0 0 0 0 0 0 0 0 0 0 0 0 0 0 0 0 0 127 0" result="hardAlpha"/>
<feOffset dx="-1.82089" dy="-1.82089"/>
<feGaussianBlur stdDeviation="2.01098"/>
<feColorMatrix type="matrix" values="0 0 0 0 1 0 0 0 0 1 0 0 0 0 1 0 0 0 1 0"/>
<feBlend mode="normal" in2="effect1_dropShadow_363_328" result="effect2_dropShadow_363_328"/>
<feBlend mode="normal" in="SourceGraphic" in2="effect2_dropShadow_363_328" result="shape"/>
</filter>

<filter id="filter0_dd_363_341" x="0.569985" y="0.24186" width="72.3005" height="73.2575" filterUnits="userSpaceOnUse" color-interpolation-filters="sRGB">
<feFlood flood-opacity="0" result="BackgroundImageFix"/>
<feColorMatrix in="SourceAlpha" type="matrix" values="0 0 0 0 0 0 0 0 0 0 0 0 0 0 0 0 0 0 127 0" result="hardAlpha"/>
<feOffset dx="1.19633" dy="1.19633"/>
<feGaussianBlur stdDeviation="1.65152"/>
<feColorMatrix type="matrix" values="0 0 0 0 0.835529 0 0 0 0 0.835294 0 0 0 0 0.847059 0 0 0 0.4 0"/>
<feBlend mode="normal" in2="BackgroundImageFix" result="effect1_dropShadow_363_341"/>
<feColorMatrix in="SourceAlpha" type="matrix" values="0 0 0 0 0 0 0 0 0 0 0 0 0 0 0 0 0 0 127 0" result="hardAlpha"/>
<feOffset dx="-1.79449" dy="-1.79449"/>
<feGaussianBlur stdDeviation="1.98183"/>
<feColorMatrix type="matrix" values="0 0 0 0 1 0 0 0 0 1 0 0 0 0 1 0 0 0 1 0"/>
<feBlend mode="normal" in2="effect1_dropShadow_363_341" result="effect2_dropShadow_363_341"/>
<feBlend mode="normal" in="SourceGraphic" in2="effect2_dropShadow_363_341" result="shape"/>
</filter>

<clipPath id="clip0_375_180">
<rect width="21" height="21" fill="white"/>
</clipPath>

<clipPath id="clip0_375_442">
<rect width="33" height="34" fill="white" transform="matrix(1 0 0 -1 0.511719 34.2695)"/>
</clipPath>
</defs><symbol id="arrow-b" viewBox="0 0 15 8">
<g clip-path="url(#clip0_375_421)">
<path d="M1.45312 1.24512L7.13218 6.97786L12.8112 1.24512" stroke="#1D252D" stroke-width="0.894633" stroke-miterlimit="10" stroke-linecap="round" stroke-linejoin="round"/>
</g>

</symbol><symbol id="arrow" viewBox="0 0 25 14">
<path d="M23.8486 12.3379L12.8762 1.26173L1.90377 12.3379" stroke-width="2.00841" stroke-miterlimit="10" stroke-linecap="round" stroke-linejoin="round"/>
</symbol><symbol id="basket" viewBox="0 0 26 25">
<g clip-path="url(#clip0_750_1191)">
<path d="M21.1288 24.323H4.34255C4.16799 24.3231 3.99877 24.261 3.86351 24.1471C3.72824 24.0332 3.63523 23.8746 3.60022 23.6981L1.46875 12.9619H24.0033L21.8711 23.6981C21.8361 23.8746 21.7431 24.0332 21.6078 24.1471C21.4726 24.261 21.3034 24.3231 21.1288 24.323Z" fill="#00A886"/>
<path d="M13.4739 15.9824C13.4739 15.5536 13.1372 15.2061 12.7218 15.2061C12.3065 15.2061 11.9697 15.5536 11.9697 15.9824V21.4685C11.9697 21.8972 12.3065 22.2448 12.7218 22.2448C13.1372 22.2448 13.4739 21.8972 13.4739 21.4685V15.9824Z" fill="white"/>
<path d="M10.4848 1.59044C10.7472 1.25809 10.6989 0.769103 10.377 0.498245C10.055 0.227387 9.58121 0.277229 9.3188 0.609571L3.14185 8.43243C2.87943 8.76477 2.92772 9.25376 3.24971 9.52462C3.57169 9.79548 4.04545 9.74564 4.30786 9.4133L10.4848 1.59044Z" fill="#00A886"/>
<path d="M21.2778 9.41231C21.5402 9.74465 22.014 9.79449 22.3359 9.52364C22.6579 9.25278 22.7062 8.76379 22.4438 8.43144L16.2668 0.608583C16.0044 0.276241 15.5307 0.226399 15.2087 0.497257C14.8867 0.768116 14.8384 1.25711 15.1008 1.58945L21.2778 9.41231Z" fill="#00A886"/>
<path d="M7.56559 15.8119C7.45808 15.3977 7.04567 15.152 6.64445 15.2629C6.24322 15.3739 6.00512 15.7996 6.11263 16.2137L7.48829 21.5129C7.59579 21.927 8.0082 22.1728 8.40942 22.0618C8.81065 21.9508 9.04875 21.5251 8.94124 21.111L7.56559 15.8119Z" fill="white"/>
<path d="M19.395 16.3582C19.5025 15.9441 19.2644 15.5184 18.8632 15.4075C18.462 15.2965 18.0496 15.5423 17.9421 15.9564L16.5664 21.2555C16.4589 21.6697 16.697 22.0953 17.0982 22.2063C17.4994 22.3173 17.9119 22.0715 18.0194 21.6574L19.395 16.3582Z" fill="white"/>
<path d="M23.7536 6.95215H1.46121C0.713535 6.95215 0.107422 7.57776 0.107422 8.34948V9.4363C0.107422 10.208 0.713535 10.8336 1.46121 10.8336H23.7536C24.5013 10.8336 25.1074 10.208 25.1074 9.4363V8.34948C25.1074 7.57776 24.5013 6.95215 23.7536 6.95215Z" fill="#00A886"/>
</g>

</symbol><symbol id="buy" viewBox="0 0 37 36">
<g clip-path="url(#clip0_1102_657)">
<path d="M12.8249 34.177C14.4751 34.177 15.8129 32.8294 15.8129 31.1671C15.8129 29.5048 14.4751 28.1572 12.8249 28.1572C11.1747 28.1572 9.83691 29.5048 9.83691 31.1671C9.83691 32.8294 11.1747 34.177 12.8249 34.177Z" fill="white" stroke="#6E6E6E" stroke-width="2.82662" stroke-miterlimit="10"/>
<path d="M29.2565 34.177C30.9068 34.177 32.2445 32.8294 32.2445 31.1671C32.2445 29.5048 30.9068 28.1572 29.2565 28.1572C27.6063 28.1572 26.2686 29.5048 26.2686 31.1671C26.2686 32.8294 27.6063 34.177 29.2565 34.177Z" fill="white" stroke="#6E6E6E" stroke-width="2.82662" stroke-miterlimit="10"/>
<path d="M6.85059 6.33789L11.3322 23.6424H30.7501L34.486 6.33789H6.85059Z" fill="#6E6E6E" stroke="#6E6E6E" stroke-width="2.82662"/>
<path d="M6.84963 6.33771L5.356 1.82324H0.12793" fill="white"/>
<path d="M6.84963 6.33771L5.356 1.82324H0.12793" stroke="#6E6E6E" stroke-width="2.82662"/>
</g>

</symbol><symbol id="car" viewBox="0 0 86 61">
<g filter="url(#filter0_dd_363_315)">
<path d="M67.3561 42.1367C66.1092 42.1365 64.8903 42.524 63.8534 43.2502C62.8166 43.9765 62.0084 45.0089 61.531 46.217C61.0537 47.425 60.9287 48.7543 61.1718 50.0368C61.4149 51.3193 62.0152 52.4974 62.8967 53.4222C63.7783 54.3469 64.9016 54.9767 66.1245 55.2319C67.3474 55.4871 68.615 55.3562 69.767 54.8559C70.919 54.3555 71.9036 53.5082 72.5963 52.4209C73.2891 51.3337 73.6589 50.0555 73.6589 48.7479C73.6568 46.9954 72.9922 45.3152 71.8107 44.0759C70.6291 42.8366 69.0272 42.1392 67.3561 42.1367ZM67.3561 50.6917C66.9891 50.6919 66.6304 50.5781 66.3251 50.3644C66.0199 50.1508 65.782 49.847 65.6414 49.4915C65.5009 49.136 65.4641 48.7448 65.5356 48.3674C65.6071 47.9899 65.7838 47.6432 66.0433 47.3711C66.3028 47.099 66.6334 46.9137 66.9933 46.8387C67.3532 46.7636 67.7262 46.8023 68.0652 46.9497C68.4042 47.0971 68.6939 47.3466 68.8976 47.6667C69.1013 47.9868 69.2099 48.363 69.2096 48.7479C69.2089 49.2632 69.0134 49.7572 68.666 50.1216C68.3185 50.4859 67.8475 50.691 67.3561 50.6917Z" fill="#6E6E6E"/>
<path d="M66.7524 14.7393H55.8569C55.4643 14.7403 55.0882 14.9047 54.8111 15.1963C54.534 15.4879 54.3786 15.8829 54.3789 16.2946V46.6308C54.3789 47.0433 54.5352 47.4389 54.8133 47.7305C55.0914 48.0222 55.4686 48.1861 55.862 48.1861H57.4297C57.7864 48.1903 58.1326 48.0592 58.4044 47.8168C58.6763 47.5745 58.8554 47.2373 58.9089 46.8673C59.4908 42.1906 63.0479 39.2897 67.351 39.2897C71.6541 39.2897 75.2112 42.1906 75.7932 46.8673C75.8464 47.2374 76.0254 47.5748 76.2973 47.8172C76.5692 48.0595 76.9156 48.1906 77.2724 48.1861H78.849C79.2423 48.1857 79.6193 48.0217 79.8974 47.7301C80.1754 47.4385 80.3318 47.0431 80.3321 46.6308V31.4593C80.3325 31.0943 80.2104 30.7407 79.9873 30.4605L67.8894 15.2971C67.7503 15.1226 67.5764 14.9822 67.38 14.8858C67.1835 14.7894 66.9693 14.7394 66.7524 14.7393ZM57.3451 27.1818V19.4052C57.3449 19.2009 57.3831 18.9986 57.4576 18.8098C57.5321 18.621 57.6413 18.4495 57.7791 18.3051C57.9168 18.1606 58.0804 18.046 58.2604 17.9679C58.4404 17.8898 58.6333 17.8497 58.8281 17.8499H65.3655C65.5828 17.8501 65.7975 17.9003 65.9944 17.9969C66.1913 18.0935 66.3656 18.2342 66.505 18.4091L72.6834 26.1857C72.8643 26.413 72.9797 26.6897 73.0159 26.9834C73.0521 27.277 73.0078 27.5754 72.888 27.8435C72.7683 28.1116 72.5781 28.3384 72.3398 28.4971C72.1015 28.6559 71.8249 28.7401 71.5426 28.7398H58.8281C58.6331 28.74 58.44 28.6998 58.2598 28.6216C58.0796 28.5433 57.9159 28.4285 57.7782 28.2837C57.6404 28.139 57.5312 27.9672 57.4569 27.7781C57.3826 27.589 57.3446 27.3864 57.3451 27.1818Z" fill="#6E6E6E"/>
<path d="M7.9069 48.1802H11.7037C12.0604 48.1851 12.4067 48.0543 12.6786 47.8122C12.9505 47.57 13.1297 47.2328 13.1829 46.8628C13.7649 42.1848 17.3232 39.2852 21.6263 39.2852C25.9294 39.2852 29.4865 42.1861 30.0684 46.8628C30.1217 47.2328 30.3008 47.57 30.5727 47.8122C30.8446 48.0543 31.191 48.1851 31.5477 48.1802H50.1752C50.5682 48.1813 50.9456 48.0189 51.2246 47.7286C51.5036 47.4383 51.6614 47.0438 51.6634 46.6316V7.74185C51.6632 7.5372 51.6246 7.33459 51.5497 7.14562C51.4748 6.95665 51.3651 6.78502 51.2268 6.64056C51.0886 6.4961 50.9246 6.38164 50.7441 6.30374C50.5637 6.22583 50.3704 6.186 50.1752 6.18653H7.9069C7.7121 6.18635 7.51917 6.22646 7.33916 6.30456C7.15915 6.38266 6.99559 6.49722 6.85784 6.64168C6.72009 6.78614 6.61085 6.95767 6.53638 7.14645C6.46191 7.33523 6.42366 7.53755 6.42383 7.74185V46.6316C6.42519 47.0431 6.58208 47.4371 6.8601 47.7275C7.13812 48.0178 7.51457 48.1806 7.9069 48.1802Z" fill="#6E6E6E"/>
<path d="M21.6217 42.1367C20.3749 42.1365 19.1559 42.524 18.119 43.2502C17.0822 43.9765 16.274 45.0089 15.7966 46.217C15.3193 47.425 15.1943 48.7543 15.4374 50.0368C15.6805 51.3193 16.2808 52.4974 17.1624 53.4222C18.0439 54.3469 19.1672 54.9767 20.3901 55.2319C21.613 55.4871 22.8806 55.3562 24.0326 54.8559C25.1846 54.3555 26.1692 53.5082 26.862 52.4209C27.5547 51.3337 27.9245 50.0555 27.9245 48.7479C27.9224 46.9954 27.2578 45.3152 26.0763 44.0759C24.8948 42.8366 23.2928 42.1392 21.6217 42.1367ZM21.6217 50.6917C21.2548 50.6919 20.896 50.5781 20.5908 50.3644C20.2856 50.1508 20.0476 49.847 19.9071 49.4915C19.7665 49.136 19.7297 48.7448 19.8012 48.3674C19.8727 47.9899 20.0494 47.6432 20.3089 47.3711C20.5684 47.099 20.899 46.9137 21.2589 46.8387C21.6188 46.7636 21.9919 46.8023 22.3308 46.9497C22.6698 47.0971 22.9595 47.3466 23.1632 47.6667C23.3669 47.9868 23.4755 48.363 23.4752 48.7479C23.4749 49.2633 23.2795 49.7575 22.932 50.1219C22.5845 50.4864 22.1132 50.6913 21.6217 50.6917Z" fill="#6E6E6E"/>
</g>

</symbol><symbol id="compare" viewBox="0 0 34 25">
<g clip-path="url(#clip0_750_1165)">
<path d="M31.9059 0.383789H1.36257C0.69634 0.383789 0.15625 0.923879 0.15625 1.59011V2.38748C0.15625 3.05371 0.69634 3.5938 1.36257 3.5938H31.9059C32.5721 3.5938 33.1122 3.05371 33.1122 2.38748V1.59011C33.1122 0.923879 32.5721 0.383789 31.9059 0.383789Z" fill="#A1A8AE"/>
<path d="M0.156571 14.9888V17.6993C0.147914 18.5827 0.314429 19.459 0.646493 20.2777C0.978556 21.0963 1.46958 21.841 2.09119 22.4687C2.71279 23.0965 3.45265 23.5948 4.268 23.9348C5.08334 24.2749 5.958 24.45 6.84143 24.45C7.72485 24.45 8.59951 24.2749 9.41486 23.9348C10.2302 23.5948 10.9701 23.0965 11.5917 22.4687C12.2133 21.841 12.7043 21.0963 13.0364 20.2777C13.3684 19.459 13.5349 18.5827 13.5263 17.6993V14.9888H0.156571Z" fill="#A1A8AE"/>
<path d="M20.2454 14.9888V17.6993C20.2368 18.5827 20.4033 19.459 20.7354 20.2777C21.0674 21.0963 21.5584 21.841 22.1801 22.4687C22.8017 23.0965 23.5415 23.5948 24.3569 23.9348C25.1722 24.2749 26.0469 24.45 26.9303 24.45C27.8137 24.45 28.6884 24.2749 29.5037 23.9348C30.3191 23.5948 31.0589 23.0965 31.6805 22.4687C32.3021 21.841 32.7932 21.0963 33.1252 20.2777C33.4573 19.459 33.6238 18.5827 33.6151 17.6993V14.9888H20.2454Z" fill="#A1A8AE"/>
<path d="M1.57987 13.6252H0.177734L6.78202 1.54395L7.89397 2.18595L1.57987 13.6252Z" fill="#A1A8AE"/>
<path d="M12.1126 13.6252H13.5141L6.9098 1.54395L5.79785 2.18595L12.1126 13.6252Z" fill="#A1A8AE"/>
<path d="M21.6824 13.6252H20.2803L26.8846 1.54395L27.9965 2.18595L21.6824 13.6252Z" fill="#A1A8AE"/>
<path d="M32.2161 13.6252H33.6176L27.0133 1.54395L25.9014 2.18595L32.2161 13.6252Z" fill="#A1A8AE"/>
</g>

</symbol><symbol id="contact" viewBox="0 0 24 24">
<g clip-path="url(#clip0_750_1216)">
<path d="M20.6789 16.7041C19.2291 15.4641 17.7577 14.713 16.3257 15.9511L15.4706 16.6995C14.8449 17.2427 13.6817 19.7808 9.1842 14.6071C4.68766 9.43998 7.36348 8.63545 7.99006 8.09692L8.84984 7.34765C10.2744 6.10667 9.73679 4.54445 8.70935 2.93633L8.08934 1.96228C7.05722 0.357912 5.93332 -0.695747 4.50502 0.543356L3.73328 1.2177C3.10202 1.67756 1.33749 3.17235 0.909472 6.01208C0.39435 9.41938 2.01933 13.3212 5.74225 17.6023C9.4605 21.8853 13.101 24.0367 16.5495 23.9992C19.4155 23.9683 21.1463 22.4304 21.6876 21.8713L22.4622 21.196C23.8867 19.9578 23.0016 18.6972 21.5509 17.4543L20.6789 16.7041Z" fill="#00A886"/>
</g>

</symbol><symbol id="eye" viewBox="0 0 14 14">
<g clip-path="url(#clip0_612_3312)">
<path d="M7 2.82715C4.32515 2.82715 1.89946 4.29058 0.109543 6.66759C-0.0365143 6.86233 -0.0365143 7.1344 0.109543 7.32914C1.89946 9.70901 4.32515 11.1724 7 11.1724C9.67485 11.1724 12.1005 9.70901 13.8905 7.33201C14.0365 7.13726 14.0365 6.8652 13.8905 6.67045C12.1005 4.29058 9.67485 2.82715 7 2.82715ZM7.19188 9.93812C5.41628 10.0498 3.94998 8.58638 4.06168 6.80792C4.15332 5.34162 5.34182 4.15312 6.80812 4.06147C8.58372 3.94978 10.05 5.41322 9.93832 7.19168C9.84382 8.65511 8.65531 9.84362 7.19188 9.93812ZM7.1031 8.58065C6.14657 8.64079 5.35614 7.85323 5.41915 6.8967C5.46783 6.10627 6.10934 5.46763 6.89977 5.41608C7.8563 5.35594 8.64672 6.1435 8.58372 7.10003C8.53217 7.89332 7.89066 8.53197 7.1031 8.58065Z" fill="white"/>
</g>

</symbol><symbol id="fb" viewBox="0 0 27 27">
<g clip-path="url(#clip0_375_449)">
<path d="M22.2031 0.269531H3.82031C1.72043 0.269531 0.0117188 1.97824 0.0117188 4.07812V22.4609C0.0117188 24.5608 1.72043 26.2695 3.82031 26.2695H11.4883V17.0781H8.44141V12.5078H11.4883V9.41016C11.4883 6.88994 13.5384 4.83984 16.0586 4.83984H20.6797V9.41016H16.0586V12.5078H20.6797L19.918 17.0781H16.0586V26.2695H22.2031C24.303 26.2695 26.0117 24.5608 26.0117 22.4609V4.07812C26.0117 1.97824 24.303 0.269531 22.2031 0.269531Z" fill="#1D252D"/>
</g>

</symbol><symbol id="icon2" viewBox="0 0 9 15">
<rect width="3" height="15" fill="#00A886"/>
<rect x="6" y="7" width="3" height="8" fill="#00A886"/>
</symbol><symbol id="inst" viewBox="0 0 27 27">
<g clip-path="url(#clip0_375_445)">
<path d="M22.2031 0.269531H3.82031C1.72043 0.269531 0.0117188 1.97824 0.0117188 4.07812V22.4609C0.0117188 24.5608 1.72043 26.2695 3.82031 26.2695H22.2031C24.303 26.2695 26.0117 24.5608 26.0117 22.4609V4.07812C26.0117 1.97824 24.303 0.269531 22.2031 0.269531ZM13.0625 20.0742C9.28227 20.0742 6.20703 16.999 6.20703 13.2188C6.20703 9.43852 9.28227 6.36328 13.0625 6.36328C16.8427 6.36328 19.918 9.43852 19.918 13.2188C19.918 16.999 16.8427 20.0742 13.0625 20.0742ZM20.6797 7.88672C19.4197 7.88672 18.3945 6.86157 18.3945 5.60156C18.3945 4.34155 19.4197 3.31641 20.6797 3.31641C21.9397 3.31641 22.9648 4.34155 22.9648 5.60156C22.9648 6.86157 21.9397 7.88672 20.6797 7.88672Z" fill="#6E6E6E"/>
<path d="M13.0625 7.88672C10.1227 7.88672 7.73047 10.279 7.73047 13.2188C7.73047 16.1585 10.1227 18.5508 13.0625 18.5508C16.0023 18.5508 18.3945 16.1585 18.3945 13.2188C18.3945 10.279 16.0023 7.88672 13.0625 7.88672Z" fill="#6E6E6E"/>
</g>

</symbol><symbol id="logofooter" viewBox="0 0 175 39">
<g clip-path="url(#clip0_375_492)">
<path d="M9.0459 38.1282C6.67292 38.2065 4.36515 37.3272 2.62178 35.6806C1.75341 34.8461 1.07091 33.8305 0.620604 32.7027C0.1703 31.5749 -0.0372708 30.3614 0.0119785 29.1444C-0.0349743 27.9338 0.17382 26.7271 0.62416 25.6063C1.0745 24.4855 1.75582 23.477 2.62178 22.6493C4.36687 21.004 6.67225 20.1207 9.0459 20.1879C10.4487 20.1226 11.8427 20.4465 13.0798 21.1254C14.317 21.8044 15.351 22.8129 16.0723 24.044L13.061 25.7122C12.6399 25.04 12.0659 24.4817 11.388 24.085C10.675 23.6552 9.86037 23.433 9.03252 23.4424C8.32344 23.4224 7.61825 23.5558 6.9632 23.8339C6.30815 24.112 5.71804 24.5284 5.23158 25.0559C4.72825 25.6041 4.33656 26.2491 4.07923 26.9533C3.82191 27.6575 3.70409 28.407 3.73262 29.1581C3.70409 29.9092 3.82191 30.6586 4.07923 31.3628C4.33656 32.0671 4.72825 32.712 5.23158 33.2603C5.71955 33.7895 6.31184 34.2069 6.96934 34.4851C7.62684 34.7632 8.3346 34.8957 9.0459 34.8738C9.75104 34.8733 10.4499 34.7388 11.107 34.4773C11.6789 34.2737 12.2063 33.9578 12.6595 33.5474V31.428H8.17597V28.2009H16.2061V34.8601C15.3181 35.9054 14.2171 36.7396 12.9801 37.3041C11.7432 37.8687 10.4004 38.1499 9.0459 38.1282Z" fill="#1D252D"/>
<path d="M31.6507 37.7859H19.6055V20.4609H31.6507V23.7153H23.2592V27.38H31.4633V30.6207H23.2592V34.5451H31.6507V37.7859Z" fill="#1D252D"/>
<path d="M50.1606 37.7859H46.6808L38.6507 26.4775V37.7859H35.0371V20.4609H38.6908L46.547 31.4001V20.4609H50.1606V37.7859Z" fill="#1D252D"/>
<path d="M57.6282 37.7859H54.0146V20.4609H57.6282V37.7859Z" fill="#1D252D"/>
<path d="M74.8671 36.1587C74.0871 36.8517 73.1806 37.3801 72.1997 37.7134C71.2189 38.0466 70.1831 38.1782 69.1523 38.1004C68.1204 38.1778 67.0837 38.0449 66.1026 37.7092C65.1215 37.3735 64.2156 36.8418 63.4375 36.145C62.7779 35.4504 62.2653 34.6246 61.9314 33.7189C61.5976 32.8132 61.4497 31.8471 61.4969 30.8805V20.4609H65.164V30.7574C65.136 31.3002 65.2139 31.8432 65.3931 32.3549C65.5723 32.8667 65.8493 33.3369 66.2079 33.7384C66.5971 34.1208 67.0597 34.4167 67.5665 34.6073C68.0733 34.798 68.6132 34.8792 69.1523 34.846C69.6894 34.8798 70.2274 34.7988 70.7321 34.6081C71.2368 34.4174 71.697 34.1211 72.0833 33.7384C72.4395 33.3358 72.714 32.8651 72.8909 32.3534C73.0678 31.8417 73.1436 31.2993 73.1138 30.7574V20.4609H76.7943V30.8532C76.8472 31.8254 76.7034 32.7983 76.3718 33.7111C76.0402 34.624 75.528 35.4572 74.8671 36.1587Z" fill="#1D252D"/>
<path d="M86.6707 38.1004C85.3552 38.1728 84.0392 37.9674 82.8049 37.4968C81.5706 37.0263 80.4446 36.3008 79.4971 35.3656L81.4511 32.5624C82.1333 33.3135 82.9625 33.9098 83.8847 34.3126C84.8069 34.7154 85.8017 34.9158 86.8045 34.9007C87.5871 34.9478 88.3644 34.7421 89.0262 34.3127C89.2587 34.171 89.4519 33.971 89.5877 33.7318C89.7236 33.4925 89.7974 33.2218 89.8024 32.9453C89.7934 32.7036 89.7217 32.4686 89.5947 32.2644C89.4678 32.0602 89.29 31.8941 89.0797 31.783C88.5239 31.4459 87.911 31.2186 87.2729 31.113C86.478 30.9545 85.6918 30.7537 84.9174 30.5113C84.1143 30.2673 83.3275 29.9704 82.5619 29.6225C81.7925 29.2682 81.1423 28.6902 80.6925 27.9606C80.2426 27.2311 80.0131 26.3824 80.0324 25.5203C80.0245 24.7984 80.1783 24.0842 80.4822 23.4324C80.7861 22.7807 81.232 22.2086 81.7857 21.76C83.1156 20.6912 84.7801 20.1518 86.4699 20.2422C88.8975 20.1425 91.2681 21.0103 93.0814 22.6625L91.0739 25.3973C89.7526 24.0848 87.9781 23.3576 86.1353 23.3735C85.509 23.3343 84.8864 23.497 84.3553 23.8384C84.1549 23.9799 83.9923 24.1704 83.8824 24.3925C83.7726 24.6146 83.7189 24.8613 83.7263 25.1101C83.74 25.3366 83.8148 25.5549 83.9423 25.7407C84.0699 25.9265 84.2452 26.0727 84.449 26.163C85.0114 26.4799 85.6223 26.6972 86.2558 26.8057C87.0475 26.9644 87.8295 27.1698 88.5979 27.421C89.3965 27.6762 90.1788 27.9822 90.94 28.3372C91.7041 28.6986 92.3495 29.2783 92.7984 30.0062C93.2472 30.7341 93.4803 31.5791 93.4695 32.4394C93.4941 33.2 93.3505 33.9565 93.0492 34.6526C92.748 35.3486 92.2969 35.9663 91.7297 36.4595C90.2945 37.6164 88.4961 38.1997 86.6707 38.1004Z" fill="#1D252D"/>
<path d="M103.962 37.7859H100.389V23.7153H95.3701V20.4609H108.901V23.7153H103.962V37.7859Z" fill="#1D252D"/>
<path d="M125.082 36.1587C123.438 37.4265 121.434 38.1124 119.374 38.1124C117.314 38.1124 115.31 37.4265 113.666 36.1587C113.006 35.4641 112.494 34.6382 112.16 33.7326C111.826 32.8269 111.678 31.8608 111.725 30.8942V20.4609H115.379V30.7574C115.357 31.2998 115.44 31.8414 115.623 32.3507C115.807 32.8601 116.088 33.3271 116.45 33.7247C116.839 34.1071 117.302 34.403 117.808 34.5937C118.315 34.7843 118.855 34.8655 119.394 34.8323C119.933 34.8681 120.474 34.788 120.981 34.5972C121.488 34.4065 121.951 34.1092 122.339 33.7247C122.695 33.3222 122.969 32.8514 123.146 32.3397C123.323 31.828 123.399 31.2856 123.369 30.7438V20.4609H127.023V30.8532C127.074 31.8263 126.928 32.7998 126.594 33.7127C126.26 34.6256 125.745 35.4583 125.082 36.1587Z" fill="#1D252D"/>
<path d="M137.555 37.7858H130.863V20.4609H137.555C139.942 20.3614 142.272 21.2204 144.046 22.8538C144.879 23.659 145.533 24.637 145.964 25.7219C146.396 26.8069 146.595 27.9737 146.549 29.1439C146.595 30.3108 146.397 31.4743 145.968 32.5567C145.538 33.6391 144.888 34.6154 144.059 35.4202C142.277 37.0459 139.942 37.8949 137.555 37.7858ZM137.555 34.5451C138.273 34.5811 138.991 34.4608 139.66 34.1921C140.329 33.9233 140.934 33.5123 141.436 32.9863C142.385 31.9445 142.898 30.5662 142.868 29.1439C142.941 27.7114 142.461 26.307 141.53 25.2331C141.019 24.7113 140.405 24.3062 139.729 24.0445C139.053 23.7829 138.33 23.6707 137.609 23.7153H134.53V34.5451H137.555Z" fill="#1D252D"/>
<path d="M153.241 37.7859H149.627V20.4609H153.241V37.7859Z" fill="#1D252D"/>
<path d="M165.139 38.101C163.969 38.14 162.804 37.936 161.713 37.5011C160.623 37.0663 159.63 36.4097 158.795 35.5713C157.968 34.7334 157.319 33.7302 156.888 32.6244C156.458 31.5186 156.255 30.334 156.293 29.1445C156.255 27.955 156.458 26.7704 156.888 25.6646C157.319 24.5588 157.968 23.5556 158.795 22.7177C160.526 21.084 162.796 20.1768 165.152 20.1768C167.509 20.1768 169.779 21.084 171.51 22.7177C172.334 23.5568 172.981 24.5605 173.409 25.6662C173.838 26.772 174.038 27.956 173.999 29.1445C174.039 30.3363 173.837 31.5235 173.406 32.6318C172.975 33.7401 172.325 34.7455 171.496 35.585C170.657 36.4201 169.661 37.0734 168.569 37.5057C167.477 37.9381 166.31 38.1405 165.139 38.101ZM161.418 33.2194C161.904 33.7296 162.484 34.1352 163.126 34.4122C163.767 34.6892 164.456 34.8319 165.152 34.8319C165.849 34.8319 166.538 34.6892 167.179 34.4122C167.821 34.1352 168.401 33.7296 168.886 33.2194C169.858 32.089 170.366 30.62 170.305 29.1172C170.366 27.6143 169.858 26.1453 168.886 25.015C168.401 24.5047 167.821 24.0991 167.179 23.8221C166.538 23.5451 165.849 23.4024 165.152 23.4024C164.456 23.4024 163.767 23.5451 163.126 23.8221C162.484 24.0991 161.904 24.5047 161.418 25.015C160.454 26.1488 159.952 27.6166 160.013 29.1172C159.952 30.6177 160.454 32.0855 161.418 33.2194Z" fill="#1D252D"/>
<path d="M94.4734 9.24848H93.6972V8.19558C93.4463 8.55931 93.1165 8.85882 92.7335 9.07071C92.1873 9.37347 91.5569 9.47878 90.9447 9.36957C90.3325 9.26036 89.7744 8.94303 89.3609 8.46906C88.8063 7.75679 88.5254 6.86203 88.5712 5.95305C88.5267 5.04423 88.8074 4.14991 89.3609 3.43703C89.772 2.94089 90.3426 2.61058 90.9705 2.50534C91.5983 2.40009 92.2424 2.5268 92.7871 2.86273C93.1781 3.08024 93.513 3.38956 93.7641 3.76521V0.12793H94.4734V9.24848ZM91.6361 8.76989C92.0732 8.7702 92.5027 8.65225 92.8808 8.42804C93.2157 8.2226 93.4961 7.93615 93.6972 7.59392V4.32584C93.4787 3.97057 93.1745 3.67863 92.8138 3.47806C92.4363 3.25261 92.0065 3.13458 91.5692 3.13621C91.2527 3.12433 90.9381 3.19015 90.6516 3.32814C90.3652 3.46613 90.1153 3.67228 89.923 3.9293C89.4997 4.51334 89.2827 5.22674 89.3073 5.95305C89.2805 6.67964 89.4978 7.39375 89.923 7.9768C90.1226 8.24277 90.3835 8.4543 90.6823 8.59264C90.9811 8.73099 91.3087 8.79187 91.6361 8.76989Z" fill="#1D252D"/>
<path d="M97.3241 1.60523C97.2577 1.61307 97.1904 1.60744 97.1261 1.58867C97.0618 1.5699 97.0018 1.53835 96.9494 1.49584C96.8982 1.44679 96.8575 1.38746 96.8299 1.32157C96.8023 1.25568 96.7883 1.18465 96.7888 1.11297C96.7792 1.03221 96.7887 0.950278 96.8167 0.874105C96.8446 0.797933 96.8902 0.729772 96.9494 0.675402C96.999 0.62623 97.0577 0.587613 97.122 0.561793C97.1863 0.535972 97.255 0.523462 97.3241 0.524988C97.3955 0.521604 97.4667 0.533207 97.5335 0.559079C97.6002 0.584951 97.6611 0.624541 97.7123 0.675402C97.7618 0.722867 97.8016 0.77999 97.8291 0.8434C97.8567 0.906809 97.8716 0.975222 97.8729 1.0446C97.8747 1.11694 97.8621 1.18891 97.8359 1.25612C97.8096 1.32333 97.7703 1.38437 97.7202 1.43554C97.6701 1.48671 97.6103 1.52693 97.5446 1.55375C97.4788 1.58058 97.4083 1.59344 97.3375 1.59156L97.3241 1.60523ZM97.7123 9.24899H97.0163V2.64446H97.7123V9.24899Z" fill="#1D252D"/>
<path d="M102.745 11.9288C102.26 11.9441 101.775 11.8747 101.313 11.7236C100.884 11.5495 100.5 11.2783 100.189 10.9306L100.59 10.3562C100.837 10.6663 101.154 10.9104 101.514 11.0673C101.906 11.2212 102.325 11.2955 102.745 11.2861C103.311 11.3073 103.865 11.1232 104.311 10.7665C104.527 10.5715 104.696 10.3282 104.806 10.0554C104.915 9.78265 104.961 9.48785 104.94 9.19396V8.14106C104.692 8.51442 104.362 8.82345 103.976 9.04354C103.569 9.28066 103.106 9.39891 102.638 9.38539C102.243 9.39512 101.852 9.31558 101.491 9.15246C101.13 8.98935 100.809 8.74669 100.55 8.44189C99.9965 7.73442 99.7155 6.84423 99.7605 5.93955C99.7168 5.03504 99.9976 4.14529 100.55 3.43721C100.807 3.12991 101.128 2.88468 101.489 2.71917C101.85 2.55366 102.242 2.47199 102.638 2.48003C103.083 2.47784 103.522 2.58923 103.915 2.80413C104.308 3.01903 104.641 3.33063 104.886 3.71069V2.64412H105.596V9.19396C105.63 9.58038 105.575 9.96956 105.435 10.3304C105.296 10.6913 105.076 11.0139 104.793 11.2724C104.202 11.7206 103.481 11.9519 102.745 11.9288ZM102.745 8.74272C103.212 8.7364 103.667 8.59408 104.057 8.3325C104.417 8.13192 104.722 7.83999 104.94 7.48471V4.32602C104.722 3.97075 104.417 3.67881 104.057 3.47823C103.679 3.25279 103.249 3.13476 102.812 3.13638C102.496 3.12564 102.181 3.19196 101.895 3.32986C101.609 3.46777 101.359 3.6733 101.166 3.92948C100.741 4.51252 100.523 5.22663 100.55 5.95322C100.521 6.68011 100.739 7.39495 101.166 7.97697C101.362 8.22814 101.613 8.42843 101.899 8.5615C102.185 8.69458 102.498 8.75667 102.812 8.74272H102.745Z" fill="#1D252D"/>
<path d="M108.419 1.60523C108.308 1.60426 108.2 1.56582 108.112 1.49584C108.06 1.44679 108.02 1.38746 107.992 1.32157C107.964 1.25568 107.95 1.18465 107.951 1.11297C107.941 1.03221 107.951 0.950278 107.979 0.874105C108.007 0.797933 108.052 0.729772 108.112 0.675402C108.195 0.591446 108.303 0.538477 108.419 0.524988C108.491 0.521604 108.562 0.533207 108.629 0.559079C108.695 0.584951 108.756 0.624541 108.807 0.675402C108.857 0.722867 108.897 0.77999 108.924 0.8434C108.952 0.906809 108.967 0.975222 108.968 1.0446C108.97 1.11694 108.957 1.18891 108.931 1.25612C108.905 1.32333 108.865 1.38437 108.815 1.43554C108.765 1.48671 108.706 1.52693 108.64 1.55375C108.574 1.58058 108.504 1.59344 108.433 1.59156L108.419 1.60523ZM108.767 9.24899H108.071V2.64446H108.767V9.24899Z" fill="#1D252D"/>
<path d="M112.743 9.41245C111.895 9.41245 111.471 8.93386 111.471 7.97669V3.27284H110.4V2.64383H111.471V0.838867H112.18V2.64383H113.519V3.27284H112.18V7.86729C112.18 8.46895 112.403 8.76978 112.85 8.76978C112.985 8.77393 113.12 8.74796 113.245 8.69366C113.37 8.63936 113.481 8.55802 113.572 8.45528L113.84 9.00223C113.541 9.28106 113.147 9.42844 112.743 9.41245Z" fill="#1D252D"/>
<path d="M120.157 9.24842H119.461V8.469C119.184 8.77936 118.844 9.02448 118.465 9.1874C118.086 9.35031 117.677 9.42712 117.266 9.4125C116.685 9.41783 116.123 9.20355 115.687 8.81085C115.461 8.61229 115.282 8.36387 115.164 8.08436C115.046 7.80484 114.991 7.50152 115.004 7.19732C114.99 6.89622 115.042 6.59562 115.158 6.31839C115.274 6.04117 115.45 5.79461 115.674 5.59746C116.115 5.21687 116.676 5.01279 117.253 5.02316C117.664 5.00668 118.074 5.08264 118.453 5.24567C118.832 5.4087 119.172 5.65483 119.448 5.96666V4.59926C119.455 4.38811 119.413 4.17821 119.328 3.98604C119.242 3.79387 119.113 3.62466 118.953 3.49167C118.598 3.20985 118.157 3.06462 117.708 3.08145C117.319 3.07742 116.935 3.16256 116.583 3.33059C116.231 3.49862 115.92 3.74525 115.674 4.0523L115.285 3.56004C115.602 3.20627 115.989 2.92657 116.421 2.74011C116.853 2.55365 117.319 2.46485 117.788 2.4798C118.398 2.45449 118.997 2.64264 119.488 3.01308C119.711 3.20678 119.886 3.45114 120 3.72659C120.114 4.00204 120.163 4.30091 120.144 4.59926L120.157 9.24842ZM117.48 8.85187C117.853 8.87241 118.225 8.80115 118.565 8.64409C118.905 8.48703 119.203 8.24878 119.434 7.94939V6.49995C119.207 6.20359 118.913 5.96708 118.578 5.8101C118.243 5.65313 117.876 5.58022 117.507 5.59746C117.265 5.57907 117.022 5.61076 116.792 5.69064C116.562 5.77052 116.35 5.89696 116.169 6.06238C116.011 6.21154 115.886 6.39378 115.802 6.5967C115.719 6.79963 115.68 7.01847 115.687 7.23834C115.681 7.45605 115.721 7.67253 115.804 7.87308C115.887 8.07364 116.012 8.25356 116.169 8.40063C116.351 8.56297 116.564 8.68649 116.793 8.76397C117.023 8.84145 117.266 8.87133 117.507 8.85187H117.48Z" fill="#1D252D"/>
<path d="M123.355 9.24848H122.659V0.12793H123.355V9.24848Z" fill="#1D252D"/>
<path d="M134.464 9.24842H133.768V8.46901C133.491 8.77937 133.151 9.02449 132.772 9.1874C132.393 9.35031 131.984 9.42712 131.573 9.41251C130.992 9.41655 130.43 9.20243 129.994 8.81085C129.768 8.61229 129.589 8.36388 129.471 8.08436C129.352 7.80484 129.298 7.50153 129.311 7.19732C129.296 6.89622 129.349 6.59563 129.465 6.3184C129.581 6.04117 129.757 5.79461 129.98 5.59747C130.421 5.21688 130.982 5.0128 131.56 5.02316C131.971 5.00669 132.38 5.08265 132.76 5.24568C133.139 5.40871 133.478 5.65483 133.754 5.96667V4.59927C133.761 4.38811 133.72 4.17822 133.634 3.98605C133.548 3.79388 133.42 3.62466 133.259 3.49168C132.908 3.21186 132.473 3.06669 132.028 3.08146C131.639 3.07743 131.255 3.16257 130.903 3.3306C130.551 3.49863 130.24 3.74526 129.994 4.05231L129.605 3.56004C129.918 3.20308 130.302 2.9193 130.732 2.72813C131.161 2.53696 131.626 2.44292 132.095 2.45245C132.704 2.42714 133.304 2.61529 133.795 2.98574C134.018 3.17943 134.193 3.4238 134.307 3.69924C134.421 3.97469 134.47 4.27357 134.45 4.57192L134.464 9.24842ZM131.787 8.85188C132.16 8.87357 132.532 8.80283 132.872 8.64569C133.213 8.48854 133.511 8.24965 133.741 7.94939V6.49995C133.514 6.20274 133.221 5.96561 132.885 5.80854C132.55 5.65148 132.182 5.57909 131.814 5.59747C131.572 5.57908 131.328 5.61077 131.098 5.69065C130.868 5.77053 130.656 5.89696 130.475 6.06238C130.317 6.21154 130.192 6.39379 130.109 6.59671C130.026 6.79963 129.987 7.01848 129.994 7.23835C129.988 7.45606 130.028 7.67254 130.111 7.87309C130.194 8.07364 130.318 8.25356 130.475 8.40064C130.658 8.56297 130.87 8.68649 131.1 8.76397C131.33 8.84145 131.573 8.87134 131.814 8.85188H131.787Z" fill="#1D252D"/>
<path d="M139.536 11.9285C139.051 11.9438 138.567 11.8745 138.104 11.7234C137.675 11.5497 137.291 11.2785 136.98 10.9303L137.381 10.356C137.624 10.6647 137.936 10.9087 138.291 11.0671C138.688 11.2224 139.111 11.2967 139.536 11.2858C140.102 11.3071 140.656 11.123 141.102 10.7662C141.318 10.5713 141.487 10.3279 141.597 10.0552C141.706 9.78242 141.752 9.48762 141.731 9.19372V8.14083C141.483 8.51385 141.153 8.8228 140.767 9.04331C140.361 9.28108 139.897 9.39939 139.429 9.38516C139.034 9.39489 138.643 9.31534 138.282 9.15223C137.921 8.98911 137.6 8.74646 137.341 8.44165C136.787 7.73419 136.507 6.844 136.552 5.93932C136.508 5.0348 136.789 4.14505 137.341 3.43698C137.597 3.13148 137.915 2.88732 138.274 2.72188C138.632 2.55643 139.022 2.47378 139.416 2.4798C139.861 2.4776 140.3 2.589 140.693 2.80389C141.085 3.01879 141.419 3.33039 141.664 3.71046V2.64389H142.373V9.19372C142.406 9.58125 142.349 9.97113 142.207 10.3321C142.065 10.693 141.843 11.015 141.557 11.2722C140.974 11.7145 140.262 11.9455 139.536 11.9285ZM139.536 8.74248C139.973 8.74411 140.403 8.62607 140.781 8.40063C141.141 8.20006 141.446 7.90812 141.664 7.55285V4.32579C141.446 3.97051 141.141 3.67857 140.781 3.478C140.403 3.25256 139.973 3.13452 139.536 3.13615C139.22 3.12427 138.905 3.19009 138.619 3.32808C138.332 3.46608 138.082 3.67223 137.89 3.92924C137.465 4.51229 137.247 5.2264 137.274 5.95299C137.245 6.67988 137.463 7.39472 137.89 7.97674C138.092 8.23771 138.355 8.44398 138.653 8.57747C138.952 8.71097 139.278 8.76763 139.603 8.74248H139.536Z" fill="#1D252D"/>
<path d="M147.794 9.41227C147.361 9.42794 146.929 9.34951 146.528 9.18215C146.126 9.0148 145.764 8.76233 145.465 8.44142C145.16 8.10583 144.923 7.71212 144.766 7.28276C144.61 6.8534 144.538 6.39681 144.555 5.93908C144.533 5.03786 144.849 4.16204 145.438 3.49144C145.713 3.16579 146.054 2.90619 146.438 2.73125C146.822 2.5563 147.24 2.47036 147.66 2.47956C148.083 2.45963 148.504 2.53929 148.892 2.71238C149.279 2.88547 149.622 3.14736 149.895 3.47776C150.453 4.1844 150.743 5.07281 150.712 5.9801V6.17154H145.358C145.373 6.86642 145.635 7.53203 146.094 8.04487C146.323 8.29448 146.601 8.49086 146.911 8.62064C147.22 8.75041 147.553 8.81055 147.888 8.79694C148.268 8.79498 148.644 8.71257 148.992 8.5549C149.34 8.39723 149.652 8.16771 149.908 7.88078L150.27 8.3457C149.951 8.688 149.567 8.95941 149.141 9.14293C148.715 9.32646 148.256 9.41815 147.794 9.41227ZM150.016 5.59723C150.014 4.96294 149.796 4.34904 149.4 3.86063C149.192 3.60132 148.928 3.39562 148.628 3.26021C148.328 3.1248 148.001 3.06348 147.673 3.08122C147.356 3.06833 147.039 3.13076 146.749 3.2636C146.459 3.39644 146.203 3.59611 146.001 3.84696C145.594 4.33355 145.359 4.94471 145.331 5.58356L150.016 5.59723Z" fill="#1D252D"/>
<path d="M157.939 9.24854H157.243V4.77714C157.267 4.54614 157.244 4.31249 157.175 4.09114C157.106 3.8698 156.992 3.66566 156.841 3.49179C156.513 3.22347 156.097 3.09164 155.677 3.12259C155.259 3.12755 154.849 3.24045 154.486 3.45077C154.124 3.6422 153.812 3.91872 153.576 4.25753V9.24854H152.88V2.644H153.576V3.6422C153.867 3.30961 154.216 3.03593 154.606 2.83544C155.014 2.5992 155.476 2.47661 155.945 2.47991C156.223 2.45163 156.504 2.48869 156.766 2.58827C157.028 2.68785 157.264 2.84731 157.456 3.05446C157.649 3.26161 157.792 3.51097 157.876 3.78347C157.959 4.05598 157.981 4.34441 157.939 4.62673V9.24854Z" fill="#1D252D"/>
<path d="M163.185 9.41279C162.759 9.42692 162.335 9.34476 161.944 9.1722C161.553 8.99964 161.204 8.74093 160.923 8.41458C160.336 7.73208 160.025 6.84743 160.053 5.93959C160.023 5.03132 160.334 4.14568 160.923 3.4646C161.204 3.13825 161.553 2.87955 161.944 2.70699C162.335 2.53442 162.759 2.45227 163.185 2.4664C163.626 2.45458 164.063 2.55009 164.461 2.74504C164.859 2.94 165.206 3.22881 165.473 3.58767L164.991 4.02524C164.795 3.73411 164.531 3.49777 164.222 3.33776C163.913 3.17775 163.571 3.09913 163.225 3.10908C162.888 3.09395 162.553 3.15754 162.245 3.29499C161.936 3.43244 161.663 3.64013 161.445 3.90217C160.987 4.4704 160.749 5.19041 160.776 5.92592C160.751 6.66106 160.989 7.3802 161.445 7.94967C161.661 8.215 161.934 8.42584 162.242 8.56577C162.551 8.7057 162.887 8.77095 163.225 8.75643C163.572 8.76363 163.915 8.68239 164.223 8.52004C164.532 8.35769 164.796 8.11937 164.991 7.8266L165.473 8.26417C165.21 8.62889 164.864 8.92359 164.466 9.12347C164.068 9.32336 163.628 9.42258 163.185 9.41279Z" fill="#1D252D"/>
<path d="M166.932 11.8325L167.053 11.1761C167.23 11.2536 167.422 11.2909 167.615 11.2855C167.821 11.2935 168.023 11.2309 168.19 11.1078C168.379 10.9377 168.522 10.7212 168.605 10.4787L169.114 9.30279L166.37 2.64355H167.146L169.502 8.41398L171.831 2.64355H172.66L169.314 10.6975C169.205 11.0559 168.987 11.3689 168.69 11.5905C168.394 11.8121 168.036 11.9304 167.668 11.9282C167.42 11.9355 167.171 11.9032 166.932 11.8325Z" fill="#1D252D"/>
</g>

</symbol><symbol id="mastercard" viewBox="0 0 49 30">
<g clip-path="url(#clip0_375_461)">
<path d="M48.5113 15.0486C48.5113 23.1375 41.978 29.7486 33.8113 29.7486C25.7224 29.7486 19.1113 23.1375 19.1113 15.0486C19.1113 6.95974 25.6447 0.348633 33.7336 0.348633C41.978 0.348633 48.5113 6.95974 48.5113 15.0486Z" fill="#FFB600"/>
<path d="M33.8113 0.348633C41.9002 0.348633 48.5113 6.95974 48.5113 15.0486C48.5113 23.1375 41.978 29.7486 33.8113 29.7486C25.7224 29.7486 19.1113 23.1375 19.1113 15.0486" fill="#F7981D"/>
<path d="M33.8105 0.348633C41.8994 0.348633 48.5105 6.95974 48.5105 15.0486C48.5105 23.1375 41.9772 29.7486 33.8105 29.7486" fill="#FF8500"/>
<path d="M14.0562 0.348633C6.04505 0.426411 -0.488281 6.95974 -0.488281 15.0486C-0.488281 23.1375 6.04505 29.7486 14.2117 29.7486C18.0228 29.7486 21.4451 28.2709 24.0895 25.9375C24.6339 25.4709 25.1006 24.9264 25.5673 24.382H22.5339C22.1451 23.9153 21.7562 23.3709 21.4451 22.9042H26.6562C26.9673 22.4375 27.2784 21.8931 27.5117 21.3486H20.5895C20.3562 20.882 20.1228 20.3375 19.9673 19.7931H28.0562C28.5228 18.3153 28.8339 16.7597 28.8339 15.1264C28.8339 14.0375 28.6784 13.0264 28.5228 12.0153H19.5006C19.5784 11.4709 19.7339 11.0042 19.8895 10.4597H27.9784C27.8228 9.9153 27.5895 9.37086 27.3562 8.90419H20.5117C20.7451 8.35974 21.0562 7.89308 21.3673 7.34863H26.5784C26.2673 6.80419 25.8784 6.25974 25.4117 5.79308H22.5339C23.0006 5.24863 23.4673 4.78197 24.0117 4.3153C21.4451 1.90419 17.9451 0.504188 14.1339 0.504188C14.1339 0.348633 14.1339 0.348633 14.0562 0.348633Z" fill="#FF5050"/>
<path d="M-0.488281 15.0484C-0.488281 23.1372 6.04505 29.7484 14.2117 29.7484C18.0228 29.7484 21.4451 28.2706 24.0895 25.9372C24.6339 25.4706 25.1006 24.9261 25.5673 24.3817H22.5339C22.1451 23.915 21.7562 23.3706 21.4451 22.9039H26.6562C26.9673 22.4372 27.2784 21.8928 27.5117 21.3484H20.5895C20.3562 20.8817 20.1228 20.3372 19.9673 19.7928H28.0562C28.5228 18.315 28.8339 16.7595 28.8339 15.1261C28.8339 14.0372 28.6784 13.0261 28.5228 12.015H19.5006C19.5784 11.4706 19.7339 11.0039 19.8895 10.4595H27.9784C27.8228 9.91502 27.5895 9.37057 27.3562 8.90391H20.5117C20.7451 8.35946 21.0562 7.8928 21.3673 7.34835H26.5784C26.2673 6.80391 25.8784 6.25946 25.4117 5.7928H22.5339C23.0006 5.24835 23.4673 4.78168 24.0117 4.31502C21.4451 1.90391 17.9451 0.503906 14.1339 0.503906H14.0562" fill="#E52836"/>
<path d="M14.2112 29.7484C18.0223 29.7484 21.4446 28.2706 24.089 25.9372C24.6334 25.4706 25.1001 24.9261 25.5668 24.3817H22.5334C22.1446 23.915 21.7557 23.3706 21.4446 22.9039H26.6557C26.9668 22.4372 27.2779 21.8928 27.5112 21.3484H20.589C20.3557 20.8817 20.1223 20.3372 19.9668 19.7928H28.0557C28.5223 18.315 28.8334 16.7595 28.8334 15.1261C28.8334 14.0372 28.6779 13.0261 28.5223 12.015H19.5001C19.5779 11.4706 19.7334 11.0039 19.889 10.4595H27.9779C27.8223 9.91502 27.589 9.37057 27.3557 8.90391H20.5112C20.7446 8.35946 21.0557 7.8928 21.3668 7.34835H26.5779C26.2668 6.80391 25.8779 6.25946 25.4112 5.7928H22.5334C23.0001 5.24835 23.4668 4.78168 24.0112 4.31502C21.4446 1.90391 17.9446 0.503906 14.1334 0.503906H14.0557" fill="#CB2026"/>
<path d="M19.4225 18.7829L19.6559 17.4607C19.5781 17.4607 19.4225 17.5385 19.267 17.5385C18.7225 17.5385 18.6448 17.2274 18.7225 17.0718L19.1892 14.3496H20.0448L20.2781 12.8718H19.5003L19.6559 11.9385H18.1003C18.1003 11.9385 17.167 17.0718 17.167 17.694C17.167 18.6274 17.7114 19.0163 18.4114 19.0163C18.8781 19.0163 19.267 18.8607 19.4225 18.7829Z" fill="#1D252D"/>
<path d="M19.9668 16.294C19.9668 18.4718 21.4446 19.0163 22.689 19.0163C23.8557 19.0163 24.3224 18.7829 24.3224 18.7829L24.6335 17.3051C24.6335 17.3051 23.7779 17.694 23.0001 17.694C21.289 17.694 21.6001 16.4496 21.6001 16.4496H24.789C24.789 16.4496 25.0224 15.4385 25.0224 15.0496C25.0224 14.0385 24.4779 12.794 22.7668 12.794C21.1335 12.6385 19.9668 14.3496 19.9668 16.294ZM22.689 14.0385C23.5446 14.0385 23.389 15.0496 23.389 15.1274H21.6779C21.6779 15.0496 21.8335 14.0385 22.689 14.0385Z" fill="#1D252D"/>
<path d="M32.5668 18.7827L32.878 17.0716C32.878 17.0716 32.1002 17.4605 31.5557 17.4605C30.4668 17.4605 30.0002 16.6049 30.0002 15.6716C30.0002 13.8049 30.9335 12.7938 32.0224 12.7938C32.8002 12.7938 33.4224 13.2605 33.4224 13.2605L33.6557 11.6272C33.6557 11.6272 32.7224 11.2383 31.8668 11.2383C30.078 11.2383 28.2891 12.7938 28.2891 15.7494C28.2891 17.6938 29.2224 19.0161 31.0891 19.0161C31.7113 19.0161 32.5668 18.7827 32.5668 18.7827Z" fill="#1D252D"/>
<path d="M10.8667 12.6387C9.7778 12.6387 9.00002 12.9498 9.00002 12.9498L8.76669 14.272C8.76669 14.272 9.46669 13.9609 10.4778 13.9609C11.0222 13.9609 11.4889 14.0387 11.4889 14.5053C11.4889 14.8164 11.4111 14.8942 11.4111 14.8942C11.4111 14.8942 10.9445 14.8942 10.7111 14.8942C9.38891 14.8942 7.91113 15.4387 7.91113 17.2276C7.91113 18.6276 8.84447 18.9387 9.38891 18.9387C10.4778 18.9387 10.9445 18.2387 11.0222 18.2387L10.9445 18.8609H12.3445L12.9667 14.5831C12.9667 12.7164 11.4111 12.6387 10.8667 12.6387ZM11.1778 16.1387C11.1778 16.372 11.0222 17.6164 10.0889 17.6164C9.62224 17.6164 9.46669 17.2276 9.46669 16.9942C9.46669 16.6053 9.70002 16.0609 10.8667 16.0609C11.1 16.1387 11.1778 16.1387 11.1778 16.1387Z" fill="#1D252D"/>
<path d="M14.4442 18.9383C14.8331 18.9383 16.7775 19.0161 16.7775 16.9161C16.7775 14.9717 14.9108 15.3605 14.9108 14.5828C14.9108 14.1939 15.2219 14.0383 15.7664 14.0383C15.9997 14.0383 16.8553 14.1161 16.8553 14.1161L17.0886 12.7161C17.0886 12.7161 16.5442 12.5605 15.6108 12.5605C14.4442 12.5605 13.2775 13.0272 13.2775 14.5828C13.2775 16.3717 15.2219 16.2161 15.2219 16.9161C15.2219 17.3828 14.6775 17.4605 14.2886 17.4605C13.5886 17.4605 12.8886 17.2272 12.8886 17.2272L12.6553 18.6272C12.7331 18.7828 13.1219 18.9383 14.4442 18.9383Z" fill="#1D252D"/>
<path d="M45.4783 11.3945L45.1671 13.4945C45.1671 13.4945 44.5449 12.7168 43.6894 12.7168C42.2894 12.7168 41.0449 14.4279 41.0449 16.4501C41.0449 17.6945 41.6671 19.0168 42.9894 19.0168C43.9227 19.0168 44.4671 18.3945 44.4671 18.3945L44.3894 18.939H45.9449L47.1116 11.4723L45.4783 11.3945ZM44.7783 15.5168C44.7783 16.3723 44.3894 17.4612 43.5338 17.4612C42.9894 17.4612 42.6783 16.9945 42.6783 16.2168C42.6783 14.9723 43.2227 14.1945 43.9227 14.1945C44.4671 14.1945 44.7783 14.5834 44.7783 15.5168Z" fill="#1D252D"/>
<path d="M2.38891 18.8612L3.32224 13.2612L3.4778 18.8612H4.56669L6.58891 13.2612L5.73336 18.8612H7.36669L8.61113 11.3945H6.04447L4.48891 15.9834L4.41113 11.3945H2.15558L0.911133 18.8612H2.38891Z" fill="#1D252D"/>
<path d="M26.5002 18.8606C26.9668 16.2939 27.0446 14.1939 28.1335 14.5828C28.2891 13.5717 28.5224 13.1828 28.678 12.7939C28.678 12.7939 28.6002 12.7939 28.3668 12.7939C27.6668 12.7939 27.1224 13.7273 27.1224 13.7273L27.278 12.8717H25.8002L24.7891 18.9384H26.5002V18.8606Z" fill="#1D252D"/>
<path d="M36.144 12.6387C35.0551 12.6387 34.2774 12.9498 34.2774 12.9498L34.044 14.272C34.044 14.272 34.744 13.9609 35.7551 13.9609C36.2996 13.9609 36.7663 14.0387 36.7663 14.5053C36.7663 14.8164 36.6885 14.8942 36.6885 14.8942C36.6885 14.8942 36.2218 14.8942 35.9885 14.8942C34.6663 14.8942 33.1885 15.4387 33.1885 17.2276C33.1885 18.6276 34.1218 18.9387 34.6663 18.9387C35.7551 18.9387 36.2218 18.2387 36.2996 18.2387L36.2218 18.8609H37.6218L38.244 14.5831C38.3218 12.7164 36.6885 12.6387 36.144 12.6387ZM36.5329 16.1387C36.5329 16.372 36.3774 17.6164 35.444 17.6164C34.9774 17.6164 34.8218 17.2276 34.8218 16.9942C34.8218 16.6053 35.0551 16.0609 36.2218 16.0609C36.4551 16.1387 36.4551 16.1387 36.5329 16.1387Z" fill="#1D252D"/>
<path d="M39.5666 18.8606C40.0332 16.2939 40.111 14.1939 41.1999 14.5828C41.3555 13.5717 41.5888 13.1828 41.7444 12.7939C41.7444 12.7939 41.6666 12.7939 41.4332 12.7939C40.7332 12.7939 40.1888 13.7273 40.1888 13.7273L40.3444 12.8717H38.8666L37.8555 18.9384H39.5666V18.8606Z" fill="#1D252D"/>
<path d="M17.0107 17.694C17.0107 18.6274 17.5552 19.0163 18.2552 19.0163C18.7996 19.0163 19.2663 18.8607 19.4219 18.7829L19.6552 17.4607C19.5774 17.4607 19.4219 17.5385 19.2663 17.5385C18.7219 17.5385 18.6441 17.2274 18.7219 17.0718L19.1885 14.3496H20.0441L20.2774 12.8718H19.4996L19.6552 11.9385" fill="#DCE5E5"/>
<path d="M20.7441 16.294C20.7441 18.4718 21.4441 19.0163 22.6886 19.0163C23.8553 19.0163 24.3219 18.7829 24.3219 18.7829L24.633 17.3051C24.633 17.3051 23.7775 17.694 22.9997 17.694C21.2886 17.694 21.5997 16.4496 21.5997 16.4496H24.7886C24.7886 16.4496 25.0219 15.4385 25.0219 15.0496C25.0219 14.0385 24.4775 12.794 22.7664 12.794C21.133 12.6385 20.7441 14.3496 20.7441 16.294ZM22.6886 14.0385C23.5441 14.0385 23.6997 15.0496 23.6997 15.1274H21.6775C21.6775 15.0496 21.833 14.0385 22.6886 14.0385Z" fill="#DCE5E5"/>
<path d="M32.5664 18.7827L32.8775 17.0716C32.8775 17.0716 32.0997 17.4605 31.5553 17.4605C30.4664 17.4605 29.9997 16.6049 29.9997 15.6716C29.9997 13.8049 30.9331 12.7938 32.022 12.7938C32.7997 12.7938 33.422 13.2605 33.422 13.2605L33.6553 11.6272C33.6553 11.6272 32.722 11.2383 31.8664 11.2383C30.0775 11.2383 29.0664 12.7938 29.0664 15.7494C29.0664 17.6938 29.222 19.0161 31.0886 19.0161C31.7109 19.0161 32.5664 18.7827 32.5664 18.7827Z" fill="#DCE5E5"/>
<path d="M8.76669 14.3495C8.76669 14.3495 9.46669 14.0384 10.4778 14.0384C11.0222 14.0384 11.4889 14.1162 11.4889 14.5828C11.4889 14.8939 11.4111 14.9717 11.4111 14.9717C11.4111 14.9717 10.9445 14.9717 10.7111 14.9717C9.38891 14.9717 7.91113 15.5162 7.91113 17.3051C7.91113 18.7051 8.84447 19.0162 9.38891 19.0162C10.4778 19.0162 10.9445 18.3162 11.0222 18.3162L10.9445 18.9384H12.3445L12.9667 14.6606C12.9667 12.8717 11.4111 12.7939 10.7889 12.7939L8.76669 14.3495ZM11.9556 16.1384C11.9556 16.3717 11.0222 17.6162 10.0889 17.6162C9.62224 17.6162 9.46669 17.2273 9.46669 16.9939C9.46669 16.6051 9.70002 16.0606 10.8667 16.0606C11.1 16.1384 11.9556 16.1384 11.9556 16.1384Z" fill="#DCE5E5"/>
<path d="M12.7334 18.7828C12.7334 18.7828 13.2001 18.9383 14.5223 18.9383C14.9112 18.9383 16.8556 19.0161 16.8556 16.9161C16.8556 14.9717 14.989 15.3605 14.989 14.5828C14.989 14.1939 15.3001 14.0383 15.8445 14.0383C16.0778 14.0383 16.9334 14.1161 16.9334 14.1161L17.1667 12.7161C17.1667 12.7161 16.6223 12.5605 15.689 12.5605C14.5223 12.5605 14.1334 13.0272 14.1334 14.5828C14.1334 16.3717 15.3001 16.2161 15.3001 16.9161C15.3001 17.3828 14.7556 17.4605 14.3667 17.4605" fill="#DCE5E5"/>
<path d="M45.1665 13.4939C45.1665 13.4939 44.5443 12.7161 43.6887 12.7161C42.2887 12.7161 41.822 14.4272 41.822 16.4495C41.822 17.6939 41.6665 19.0161 42.9887 19.0161C43.922 19.0161 44.4665 18.3939 44.4665 18.3939L44.3887 18.9383H45.9443L47.1109 11.4717L45.1665 13.4939ZM45.0887 15.5161C45.0887 16.3717 44.3887 17.4606 43.5332 17.4606C42.9887 17.4606 42.6776 16.9939 42.6776 16.2161C42.6776 14.9717 43.222 14.1939 43.922 14.1939C44.4665 14.1939 45.0887 14.5828 45.0887 15.5161Z" fill="#DCE5E5"/>
<path d="M2.38891 18.8612L3.32224 13.2612L3.4778 18.8612H4.56669L6.58891 13.2612L5.73336 18.8612H7.36669L8.61113 11.3945H6.66669L4.48891 15.9834L4.41113 11.3945H3.55558L0.911133 18.8612H2.38891Z" fill="#DCE5E5"/>
<path d="M24.8662 18.8606H26.4995C26.9662 16.294 27.044 14.1939 28.1329 14.5828C28.2884 13.5717 28.5218 13.1828 28.6773 12.7939C28.6773 12.7939 28.5995 12.7939 28.3662 12.7939C27.6662 12.7939 27.1218 13.7273 27.1218 13.7273L27.2773 12.8717" fill="#DCE5E5"/>
<path d="M34.044 14.3495C34.044 14.3495 34.744 14.0384 35.7551 14.0384C36.2996 14.0384 36.7663 14.1162 36.7663 14.5828C36.7663 14.8939 36.6885 14.9717 36.6885 14.9717C36.6885 14.9717 36.2218 14.9717 35.9885 14.9717C34.6663 14.9717 33.1885 15.5162 33.1885 17.3051C33.1885 18.7051 34.1218 19.0162 34.6663 19.0162C35.7551 19.0162 36.2218 18.3162 36.2996 18.3162L36.2218 18.9384H37.6218L38.244 14.6606C38.244 12.8717 36.6885 12.7939 36.0663 12.7939L34.044 14.3495ZM37.2329 16.1384C37.2329 16.3717 36.2996 17.6162 35.3663 17.6162C34.8996 17.6162 34.744 17.2273 34.744 16.9939C34.744 16.6051 34.9774 16.0606 36.144 16.0606C36.4551 16.1384 37.2329 16.1384 37.2329 16.1384Z" fill="#DCE5E5"/>
<path d="M37.9336 18.8606H39.5669C40.0336 16.294 40.1114 14.1939 41.2003 14.5828C41.3558 13.5717 41.5892 13.1828 41.7447 12.7939C41.7447 12.7939 41.6669 12.7939 41.4336 12.7939C40.7336 12.7939 40.1892 13.7273 40.1892 13.7273L40.3447 12.8717" fill="#DCE5E5"/>
</g>

</symbol><symbol id="mess" viewBox="0 0 14 14">
<path d="M13.017 4.40332H12.6335V8.6178C12.6335 9.27399 12.2515 9.86735 11.4855 9.86735H3.98145V10.0677C3.98145 10.6479 4.64128 11.2335 5.31888 11.2335H11.0561L13.251 12.524L12.9327 11.2335H13.017C13.6941 11.2335 13.9997 10.6492 13.9997 10.0677V5.40378C13.9997 4.82363 13.6941 4.40332 13.017 4.40332Z" fill="white"/>
<path d="M10.3652 1.47559H1.64936C0.882514 1.47559 0 2.15682 0 2.81347V8.0958C0 8.70054 0.747723 9.13724 1.46494 9.20464L0.998179 10.9765L3.98907 9.21693H10.3652C11.1321 9.21693 11.8397 8.752 11.8397 8.0958V2.81347C11.8397 2.15682 11.1316 1.47559 10.3652 1.47559ZM2.97905 5.9346C2.77024 5.9346 2.56997 5.85165 2.42232 5.704C2.27466 5.55634 2.19171 5.35608 2.19171 5.14726C2.19171 4.93845 2.27466 4.73818 2.42232 4.59053C2.56997 4.44287 2.77024 4.35992 2.97905 4.35992C3.18787 4.35992 3.38813 4.44287 3.53579 4.59053C3.68344 4.73818 3.76639 4.93845 3.76639 5.14726C3.76639 5.35608 3.68344 5.55634 3.53579 5.704C3.38813 5.85165 3.18787 5.9346 2.97905 5.9346ZM5.91985 5.9346C5.71104 5.9346 5.51078 5.85165 5.36312 5.704C5.21547 5.55634 5.13251 5.35608 5.13251 5.14726C5.13251 4.93845 5.21547 4.73818 5.36312 4.59053C5.51078 4.44287 5.71104 4.35992 5.91985 4.35992C6.12867 4.35992 6.32893 4.44287 6.47659 4.59053C6.62424 4.73818 6.7072 4.93845 6.7072 5.14726C6.7072 5.35608 6.62424 5.55634 6.47659 5.704C6.32893 5.85165 6.12867 5.9346 5.91985 5.9346ZM8.86111 5.9346C8.75766 5.9346 8.65521 5.91423 8.55964 5.87464C8.46406 5.83504 8.37721 5.77702 8.30406 5.70386C8.2309 5.63071 8.17287 5.54386 8.13328 5.44828C8.09369 5.3527 8.07332 5.25026 8.07332 5.14681C8.07332 5.04335 8.09369 4.94091 8.13328 4.84533C8.17287 4.74975 8.2309 4.6629 8.30406 4.58975C8.37721 4.5166 8.46406 4.45857 8.55964 4.41898C8.65521 4.37939 8.75766 4.35901 8.86111 4.35901C9.07005 4.35901 9.27043 4.44201 9.41817 4.58975C9.56591 4.73749 9.64891 4.93787 9.64891 5.14681C9.64891 5.35574 9.56591 5.55612 9.41817 5.70386C9.27043 5.8516 9.07005 5.9346 8.86111 5.9346Z" fill="white"/>
</symbol><symbol id="mixer" viewBox="0 0 67 67">
<g filter="url(#filter0_dd_356_248)">
<path d="M24.0501 21.9473H8.11523V56.1223H24.0501V21.9473Z" fill="#00A886"/>
<path d="M25.776 59.3164H6.39258V62.3231H25.776V59.3164Z" fill="#00A886"/>
<path d="M51.9386 7.78735V10.3054H26.8193C26.0847 10.3058 25.3804 10.6019 24.8611 11.1284C24.3418 11.655 24.0501 12.3691 24.0501 13.1136V18.7526H8.11523V7.78585C8.11523 7.25782 8.32209 6.7514 8.69035 6.37789C9.0586 6.00438 9.55811 5.79434 10.0791 5.79395H49.9792C50.4997 5.79554 50.9983 6.00631 51.3656 6.38001C51.7329 6.75372 51.939 7.25984 51.9386 7.78735Z" fill="#00A886"/>
<path d="M27.1992 24.9746H59.3744C60.0857 24.9746 60.7678 25.261 61.2707 25.7707C61.7736 26.2804 62.0562 26.9718 62.0562 27.6926V33.0505H27.1992V24.9746Z" fill="#00A886"/>
<path d="M50.7295 36.2422H60.6823V37.7816C60.6823 38.0427 60.5799 38.2932 60.3977 38.4779C60.2155 38.6625 59.9684 38.7663 59.7107 38.7663H51.701C51.4434 38.7663 51.1963 38.6625 51.0141 38.4779C50.8319 38.2932 50.7295 38.0427 50.7295 37.7816V36.2422Z" fill="#00A886"/>
</g>

</symbol><symbol id="personal" viewBox="0 0 23 24">
<g clip-path="url(#clip0_750_1182)">
<path d="M11.1343 12.9527C14.9402 12.9527 18.0254 10.0531 18.0254 6.47635C18.0254 2.89956 14.9402 0 11.1343 0C7.32843 0 4.24316 2.89956 4.24316 6.47635C4.24316 10.0531 7.32843 12.9527 11.1343 12.9527Z" fill="#A1A8AE"/>
<path d="M22.1074 19.741V23.055C22.1074 23.1791 22.0814 23.3019 22.0309 23.4166C21.9803 23.5312 21.9063 23.6354 21.8129 23.7232C21.7195 23.8109 21.6087 23.8805 21.4867 23.928C21.3647 23.9755 21.2339 24 21.1019 24H1.11295C0.846267 24 0.590507 23.9004 0.401934 23.7232C0.213361 23.546 0.107422 23.3056 0.107422 23.055V19.7481C0.107452 19.0384 0.325978 18.3439 0.736637 17.7484C1.1473 17.1528 1.73254 16.6817 2.42177 16.3918L6.14878 14.8247C6.4944 14.6796 6.86867 14.6046 7.24721 14.6045H8.98844C9.03844 14.6045 9.0864 14.6232 9.12175 14.6564C9.15711 14.6896 9.17697 14.7347 9.17697 14.7817C9.17688 14.875 9.18441 14.9681 9.19952 15.0603C9.26984 15.4954 9.50378 15.8924 9.8589 16.1793C10.214 16.4662 10.6668 16.6239 11.1351 16.6239C11.6034 16.6239 12.0561 16.4662 12.4113 16.1793C12.7664 15.8924 13.0003 15.4954 13.0707 15.0603C13.0858 14.9681 13.0933 14.875 13.0932 14.7817C13.0934 14.7347 13.1133 14.6898 13.1486 14.6566C13.1839 14.6234 13.2318 14.6047 13.2817 14.6045H15.012C15.3932 14.6043 15.7699 14.6805 16.1173 14.8279L19.8026 16.3886C20.4895 16.6795 21.0724 17.1506 21.4812 17.7453C21.8901 18.34 22.1075 19.033 22.1074 19.741Z" fill="#A1A8AE"/>
<path d="M9.17676 15.0604V14.7817C9.17666 14.875 9.1842 14.9682 9.1993 15.0604H9.17676Z" fill="#A1A8AE"/>
<path d="M13.0703 15.0604C13.0854 14.9682 13.093 14.875 13.0929 14.7817V15.0604H13.0703Z" fill="#A1A8AE"/>
</g>

</symbol><symbol id="protection" viewBox="0 0 58 68">
<g filter="url(#filter0_dd_363_328)">
<path d="M30.2912 63.1263L29.6155 63.2616L28.9399 63.1263C5.23971 54.9405 5.6451 35.4802 5.91535 21.2837C5.98292 19.7971 5.98292 18.3767 5.98292 16.9578C5.97803 16.6902 6.02708 16.4243 6.12714 16.1761C6.2272 15.9279 6.37621 15.7024 6.56527 15.5132C6.75433 15.3239 6.97956 15.1747 7.22751 15.0745C7.47546 14.9744 7.74103 14.9253 8.00836 14.9302C16.4494 14.9302 22.8636 12.4967 28.1982 7.29154C28.5834 6.93316 29.0899 6.7341 29.6158 6.73438C30.1417 6.73465 30.648 6.93425 31.0329 7.29304C36.3675 12.4967 42.7891 14.9302 51.2227 14.9302C51.49 14.9253 51.7556 14.9744 52.0035 15.0745C52.2515 15.1747 52.4767 15.3239 52.6658 15.5132C52.8548 15.7024 53.0038 15.9279 53.1039 16.1761C53.204 16.4243 53.253 16.6902 53.2481 16.9578C53.2481 18.3767 53.2481 19.7971 53.3157 21.2837C53.5859 35.5509 53.9238 54.9405 30.2912 63.1263Z" fill="#00A886"/>
<path d="M30.1866 58.8024L29.6161 58.9166L29.044 58.8024C8.98935 51.8807 9.33168 35.4025 9.5614 23.396C9.61695 22.1364 9.61695 20.9354 9.61695 19.7345C9.61288 19.5079 9.65445 19.2829 9.73918 19.0728C9.82391 18.8627 9.95005 18.6718 10.1101 18.5116C10.2701 18.3514 10.4608 18.2251 10.6706 18.1403C10.8805 18.0555 11.1053 18.0139 11.3316 18.018C18.4739 18.018 23.9016 15.9602 28.4164 11.5547C28.7425 11.2503 29.1717 11.0811 29.6176 11.0811C30.0634 11.0811 30.4927 11.2503 30.8187 11.5547C35.3321 15.9602 40.7612 18.018 47.9021 18.018C48.1284 18.0139 48.3532 18.0555 48.563 18.1403C48.7729 18.2251 48.9635 18.3514 49.1236 18.5116C49.2836 18.6718 49.4098 18.8627 49.4945 19.0728C49.5792 19.2829 49.6208 19.5079 49.6167 19.7345C49.6167 20.9369 49.6167 22.1394 49.6738 23.396C49.899 35.4641 50.1858 51.8807 30.1866 58.8024Z" stroke="white" stroke-width="0.778714" stroke-miterlimit="10"/>
<path d="M40.4857 29.1948L27.9953 40.9639C27.6024 41.3087 27.0989 41.5007 26.5764 41.505H26.5104C26.2391 41.5002 25.9721 41.4373 25.7271 41.3207C25.4821 41.204 25.2649 41.0363 25.09 40.8287L18.8125 33.8589L21.8499 31.1533L26.7791 36.6291L37.7186 26.2188L40.4857 29.1948Z" fill="white"/>
</g>

</symbol><symbol id="return" viewBox="0 0 73 74">
<g filter="url(#filter0_dd_363_341)">
<path d="M33.0369 16.1161L37.149 18.184V7.68555H27.3438V18.184L31.4839 16.1161C31.7246 15.992 31.9906 15.9273 32.2604 15.9273C32.5302 15.9273 32.7962 15.992 33.0369 16.1161Z" fill="#00A886"/>
<path d="M56.6847 28.8923V9.43528C56.6847 8.97122 56.5036 8.52617 56.1813 8.19803C55.859 7.86989 55.4219 7.68555 54.9661 7.68555H40.4801V21.0328C40.4817 21.3445 40.4015 21.6509 40.2478 21.9205C40.094 22.19 39.8724 22.4128 39.6057 22.5659C39.3391 22.719 39.0371 22.7968 38.7311 22.7913C38.425 22.7857 38.1259 22.6971 37.8648 22.5344L32.2623 19.6362L26.5425 22.5949C26.2803 22.7311 25.988 22.7965 25.6938 22.7847C25.3996 22.7729 25.1133 22.6844 24.8624 22.5276C24.6115 22.3708 24.4043 22.151 24.2608 21.8892C24.1173 21.6275 24.0422 21.3326 24.0428 21.0328V7.68555H9.55841C9.10262 7.68555 8.66549 7.86989 8.3432 8.19803C8.02091 8.52617 7.83984 8.97122 7.83984 9.43528V55.6601C7.83984 56.1241 8.02091 56.5692 8.3432 56.8973C8.66549 57.2255 9.10262 57.4098 9.55841 57.4098H28.6689C26.5428 52.0884 26.5641 46.1279 28.7282 40.8223C33.2528 29.7083 45.7296 24.3669 56.6847 28.8923Z" fill="#00A886"/>
<path d="M61.3877 36.0261C58.4317 33.0179 54.5428 31.1463 50.3835 30.7299C46.2242 30.3135 42.0517 31.3782 38.5768 33.7426C35.102 36.107 32.5398 39.6248 31.3267 43.6968C30.1135 47.7688 30.3245 52.1431 31.9237 56.0745C33.5229 60.0058 36.4113 63.2511 40.097 65.2575C43.7826 67.2639 48.0375 67.9072 52.1368 67.0779C56.236 66.2486 59.9261 63.9979 62.5784 60.7094C65.2306 57.4208 66.681 53.2977 66.6825 49.0425C66.6864 46.6246 66.2206 44.2298 65.3119 41.9959C64.4032 39.762 63.0696 37.7332 61.3877 36.0261ZM55.8774 54.796C55.2592 55.427 54.5248 55.9276 53.7162 56.2691C52.9076 56.6105 52.0408 56.7862 51.1654 56.7859H43.1209C42.6639 56.7859 42.2256 56.6011 41.9024 56.272C41.5792 55.943 41.3977 55.4967 41.3977 55.0314C41.3977 54.5661 41.5792 54.1198 41.9024 53.7908C42.2256 53.4617 42.6639 53.2769 43.1209 53.2769H51.1654C52.0014 53.2277 52.7872 52.8549 53.362 52.2349C53.9368 51.6149 54.257 50.7946 54.257 49.9421C54.257 49.0895 53.9368 48.2692 53.362 47.6492C52.7872 47.0292 52.0014 46.6564 51.1654 46.6072H46.3643L47.3877 47.6475C47.5511 47.8087 47.6814 48.0014 47.7711 48.2143C47.8608 48.4272 47.9081 48.6561 47.9102 48.8878C47.9124 49.1194 47.8693 49.3492 47.7835 49.5638C47.6977 49.7784 47.5709 49.9735 47.4105 50.1377C47.25 50.302 47.0592 50.4323 46.8489 50.5208C46.6386 50.6094 46.4132 50.6546 46.1857 50.6538C45.9581 50.653 45.733 50.6062 45.5234 50.5161C45.3137 50.426 45.1238 50.2944 44.9645 50.129L41.0024 46.1046C40.8427 45.9421 40.7161 45.7492 40.6297 45.5368C40.5432 45.3245 40.4988 45.0969 40.4988 44.867C40.4988 44.6372 40.5432 44.4096 40.6297 44.1972C40.7161 43.9849 40.8427 43.792 41.0024 43.6295L44.9567 39.5956C45.1159 39.4326 45.3051 39.3032 45.5134 39.2147C45.7217 39.1262 45.9451 39.0804 46.1709 39.0798C46.3966 39.0792 46.6203 39.1239 46.829 39.2113C47.0378 39.2987 47.2276 39.4271 47.3877 39.5892C47.5477 39.7513 47.6748 39.9439 47.7617 40.156C47.8487 40.3681 47.8937 40.5956 47.8943 40.8254C47.8948 41.0552 47.851 41.2829 47.7651 41.4955C47.6793 41.7081 47.5531 41.9013 47.3939 42.0643L46.3815 43.0966H51.1716C52.4964 43.1117 53.7874 43.5239 54.8835 44.2815C55.9796 45.0392 56.8322 46.1088 57.3349 47.3568C57.8375 48.6048 57.9679 49.9759 57.7098 51.2989C57.4517 52.622 56.8166 53.8383 55.8836 54.796H55.8774Z" fill="#00A886"/>
</g>

</symbol><symbol id="search" viewBox="0 0 21 21">
<circle cx="9" cy="9" r="7" stroke="#A1A8AE" stroke-width="2"/>
<path d="M14.0371 14.0366L19.9636 19.9631" stroke="#A1A8AE" stroke-width="2" stroke-linecap="round"/>
</symbol><symbol id="star" viewBox="0 0 14 14">
<path d="M13.9635 5.08206C13.8719 4.80008 13.6204 4.59981 13.3229 4.57314L9.28216 4.20818L7.68432 0.488167C7.56651 0.215538 7.29819 0.0390625 7.00007 0.0390625C6.70195 0.0390625 6.43364 0.215538 6.31582 0.488804L4.71798 4.20818L0.67656 4.57314C0.379616 4.60044 0.128816 4.80008 0.0366355 5.08206C-0.0555452 5.36404 0.0295858 5.67332 0.254216 5.86828L3.30857 8.53274L2.40791 12.4791C2.34201 12.7692 2.45523 13.0691 2.69727 13.2432C2.82737 13.3367 2.97958 13.3843 3.13307 13.3843C3.26542 13.3843 3.39669 13.3488 3.51451 13.2787L7.00007 11.2065L10.4844 13.2787C10.7393 13.4312 11.0607 13.4173 11.3022 13.2432C11.5444 13.0686 11.6575 12.7686 11.5916 12.4791L10.6909 8.53274L13.7453 5.86882C13.9699 5.67332 14.0557 5.36457 13.9635 5.08206Z"/>
</symbol><symbol id="view" viewBox="0 0 21 21">
<g clip-path="url(#clip0_375_180)">
<path d="M11 1.5H3.5C2.39543 1.5 1.5 2.39543 1.5 3.5V18.5C1.5 19.6046 2.39543 20.5 3.5 20.5H11" stroke="#1D252D" stroke-width="1.4"/>
<path d="M6.00502 10.505C5.73166 10.7784 5.73166 11.2216 6.00502 11.495L10.4598 15.9497C10.7332 16.2231 11.1764 16.2231 11.4497 15.9497C11.7231 15.6764 11.7231 15.2332 11.4497 14.9598L7.48995 11L11.4497 7.0402C11.7231 6.76684 11.7231 6.32362 11.4497 6.05025C11.1764 5.77689 10.7332 5.77689 10.4598 6.05025L6.00502 10.505ZM19.5 10.3L6.5 10.3L6.5 11.7L19.5 11.7L19.5 10.3Z" fill="black"/>
</g>

</symbol><symbol id="visa" viewBox="0 0 56 30">
<path d="M20.2285 23.1719L23.0222 7.17188H27.3872L24.6809 23.1719H20.2285Z" fill="#3C58BF"/>
<path d="M20.2285 23.1719L23.8079 7.17188H27.3872L24.6809 23.1719H20.2285Z" fill="#293688"/>
<path d="M40.4821 7.34978C39.6091 6.99423 38.2123 6.63867 36.4663 6.63867C32.1012 6.63867 28.9583 8.86089 28.9583 12.0609C28.9583 14.4609 31.1409 15.7053 32.8869 16.5053C34.6329 17.3053 35.1567 17.8387 35.1567 18.5498C35.1567 19.6164 33.7599 20.1498 32.5377 20.1498C30.7917 20.1498 29.8314 19.8831 28.3472 19.2609L27.7361 18.9942L27.125 22.6387C28.1726 23.0831 30.0933 23.5276 32.1012 23.5276C36.7282 23.5276 39.7837 21.3053 39.7837 17.9276C39.7837 16.0609 38.6488 14.6387 36.0298 13.4831C34.4583 12.6831 33.498 12.2387 33.498 11.4387C33.498 10.7276 34.2837 10.0164 36.0298 10.0164C37.5139 10.0164 38.5615 10.2831 39.3472 10.6387L39.7837 10.8164L40.4821 7.34978Z" fill="#3C58BF"/>
<path d="M40.4821 7.34978C39.6091 6.99423 38.2123 6.63867 36.4663 6.63867C32.1012 6.63867 29.744 8.86089 29.744 12.0609C29.744 14.4609 31.1409 15.7053 32.8869 16.5053C34.6329 17.3053 35.1567 17.8387 35.1567 18.5498C35.1567 19.6164 33.7599 20.1498 32.5377 20.1498C30.7917 20.1498 29.8314 19.8831 28.3472 19.2609L27.7361 18.9942L27.125 22.6387C28.1726 23.0831 30.0933 23.5276 32.1012 23.5276C36.7282 23.5276 39.7837 21.3053 39.7837 17.9276C39.7837 16.0609 38.6488 14.6387 36.0298 13.4831C34.4583 12.6831 33.498 12.2387 33.498 11.4387C33.498 10.7276 34.2837 10.0164 36.0298 10.0164C37.5139 10.0164 38.5615 10.2831 39.3472 10.6387L39.7837 10.8164L40.4821 7.34978Z" fill="#293688"/>
<path d="M47.9913 7.17188C46.9437 7.17188 46.1579 7.26076 45.7214 8.32743L39.1738 23.1719H43.8881L44.7611 20.5052H50.3484L50.8722 23.1719H55.0627L51.396 7.17188H47.9913ZM45.9833 17.8385C46.2452 17.0385 47.7294 13.1274 47.7294 13.1274C47.7294 13.1274 48.0786 12.1497 48.3405 11.5274L48.6024 13.0385C48.6024 13.0385 49.4754 17.0385 49.65 17.9274H45.9833V17.8385Z" fill="#3C58BF"/>
<path d="M49.0389 7.17188C47.9913 7.17188 47.2056 7.26076 46.7691 8.32743L39.1738 23.1719H43.8881L44.7611 20.5052H50.3484L50.8722 23.1719H55.0627L51.396 7.17188H49.0389ZM45.9833 17.8385C46.3326 16.9497 47.7294 13.1274 47.7294 13.1274C47.7294 13.1274 48.0786 12.1497 48.3405 11.5274L48.6024 13.0385C48.6024 13.0385 49.4754 17.0385 49.65 17.9274H45.9833V17.8385Z" fill="#293688"/>
<path d="M12.197 18.3718L11.7605 16.0607C10.9748 13.3941 8.44306 10.4607 5.64941 9.03852L9.57798 23.2607H14.2923L21.3637 7.26074H16.6494L12.197 18.3718Z" fill="#3C58BF"/>
<path d="M12.197 18.3718L11.7605 16.0607C10.9748 13.3941 8.44306 10.4607 5.64941 9.03852L9.57798 23.2607H14.2923L21.3637 7.26074H17.5224L12.197 18.3718Z" fill="#293688"/>
<path d="M0.0625 7.17188L0.848214 7.34965C6.43552 8.68299 10.2768 12.0608 11.7609 16.0608L10.1895 8.50521C9.92758 7.43854 9.14186 7.17188 8.18155 7.17188H0.0625Z" fill="#FFBC00"/>
<path d="M0.0625 7.17188C5.6498 8.50521 10.2768 11.9719 11.7609 15.9719L10.2768 9.66076C10.0149 8.5941 9.14186 7.97188 8.18155 7.97188L0.0625 7.17188Z" fill="#F7981D"/>
<path d="M0.0625 7.17188C5.6498 8.50521 10.2768 11.9719 11.7609 15.9719L10.7133 12.5052C10.4514 11.4385 10.1022 10.3719 8.87996 9.92743L0.0625 7.17188Z" fill="#ED7C00"/>
<path d="M16.5617 17.8391L13.5935 14.8169L12.1966 18.1946L11.8474 15.9724C11.0617 13.3058 8.52998 10.3724 5.73633 8.9502L9.6649 23.1724H14.3792L16.5617 17.8391Z" fill="#051244"/>
<path d="M24.6809 23.1728L20.9269 19.2617L20.2285 23.1728H24.6809Z" fill="#051244"/>
<path d="M34.7202 17.6611C35.0694 18.0167 35.2441 18.2834 35.1567 18.6389C35.1567 19.7056 33.7599 20.2389 32.5377 20.2389C30.7917 20.2389 29.8314 19.9722 28.3472 19.35L27.7361 19.0834L27.125 22.7278C28.1726 23.1722 30.0933 23.6167 32.1012 23.6167C34.8948 23.6167 37.1647 22.8167 38.4742 21.3945L34.7202 17.6611Z" fill="#051244"/>
<path d="M39.7832 23.1728H43.8864L44.7594 20.5061H50.3467L50.8705 23.1728H55.061L53.5769 16.6839L48.3388 11.5283L48.6007 12.9505C48.6007 12.9505 49.4737 16.9505 49.6483 17.8394H45.9816C46.3308 16.9505 47.7276 13.1283 47.7276 13.1283C47.7276 13.1283 48.0769 12.1505 48.3388 11.5283" fill="#051244"/>
</symbol><symbol id="youtube" viewBox="0 0 34 35">
<g clip-path="url(#clip0_375_442)">
<path d="M28.7882 30.2188H5.36466C2.68897 30.2188 0.511719 27.9755 0.511719 25.2187V9.21875C0.511719 6.46198 2.68897 4.21875 5.36466 4.21875H28.7882C31.4639 4.21875 33.6411 6.46198 33.6411 9.21875V25.2187C33.6411 27.9755 31.4639 30.2188 28.7882 30.2188ZM12.2235 10.3242V23.918L23.9026 17.2333L12.2235 10.3242Z" fill="#6E6E6E"/>
</g>

</symbol></svg>