<svg xmlns="http://www.w3.org/2000/svg" xmlns:xlink="http://www.w3.org/1999/xlink"><defs>
<clipPath id="clip0_436_953">
<rect width="15.6771" height="14" fill="white" transform="translate(0.75293 0.0405273)"/>
</clipPath>
</defs><symbol id="calendar" viewBox="0 0 18 18">
<path d="M15.6705 1.05908H14.0822V2.64732C14.0822 2.96496 13.8175 3.17673 13.5528 3.17673C13.2881 3.17673 13.0234 2.96496 13.0234 2.64732V1.05908H4.55283V2.64732C4.55283 2.96496 4.28812 3.17673 4.02341 3.17673C3.75871 3.17673 3.494 2.96496 3.494 2.64732V1.05908H1.90577C1.11165 1.05908 0.529297 1.74732 0.529297 2.64732V4.5532H17.4705V2.64732C17.4705 1.74732 16.5175 1.05908 15.6705 1.05908ZM0.529297 5.66496V15.3532C0.529297 16.3061 1.11165 16.9414 1.95871 16.9414H15.7234C16.5705 16.9414 17.5234 16.2532 17.5234 15.3532V5.66496H0.529297ZM5.24106 14.5591H3.97047C3.75871 14.5591 3.54694 14.4003 3.54694 14.1356V12.812C3.54694 12.6003 3.70577 12.3885 3.97047 12.3885H5.294C5.50577 12.3885 5.71753 12.5473 5.71753 12.812V14.1356C5.66459 14.4003 5.50577 14.5591 5.24106 14.5591ZM5.24106 9.79438H3.97047C3.75871 9.79438 3.54694 9.63555 3.54694 9.37085V8.04732C3.54694 7.83555 3.70577 7.62379 3.97047 7.62379H5.294C5.50577 7.62379 5.71753 7.78261 5.71753 8.04732V9.37085C5.66459 9.63555 5.50577 9.79438 5.24106 9.79438ZM9.47636 14.5591H8.15283C7.94106 14.5591 7.7293 14.4003 7.7293 14.1356V12.812C7.7293 12.6003 7.88812 12.3885 8.15283 12.3885H9.47636C9.68812 12.3885 9.89989 12.5473 9.89989 12.812V14.1356C9.89989 14.4003 9.74106 14.5591 9.47636 14.5591ZM9.47636 9.79438H8.15283C7.94106 9.79438 7.7293 9.63555 7.7293 9.37085V8.04732C7.7293 7.83555 7.88812 7.62379 8.15283 7.62379H9.47636C9.68812 7.62379 9.89989 7.78261 9.89989 8.04732V9.37085C9.89989 9.63555 9.74106 9.79438 9.47636 9.79438ZM13.7116 14.5591H12.3881C12.1764 14.5591 11.9646 14.4003 11.9646 14.1356V12.812C11.9646 12.6003 12.1234 12.3885 12.3881 12.3885H13.7116C13.9234 12.3885 14.1352 12.5473 14.1352 12.812V14.1356C14.1352 14.4003 13.9764 14.5591 13.7116 14.5591ZM13.7116 9.79438H12.3881C12.1764 9.79438 11.9646 9.63555 11.9646 9.37085V8.04732C11.9646 7.83555 12.1234 7.62379 12.3881 7.62379H13.7116C13.9234 7.62379 14.1352 7.78261 14.1352 8.04732V9.37085C14.1352 9.63555 13.9764 9.79438 13.7116 9.79438Z" fill="#00A886"/>
</symbol><symbol id="home" viewBox="0 0 17 15">
<g clip-path="url(#clip0_436_953)">
<path d="M1.12598 5.98217L8.5481 0.503906L16.056 5.98217" stroke="#A1A8AE" stroke-width="1.11351" stroke-miterlimit="10" stroke-linecap="round"/>
<path d="M14.241 5.9341V14.0404H10.1326V10.2308C10.1326 9.80148 9.9621 9.38975 9.65852 9.08618C9.35495 8.7826 8.94322 8.61206 8.5139 8.61206C8.08458 8.61206 7.67285 8.7826 7.36928 9.08618C7.0657 9.38975 6.89516 9.80148 6.89516 10.2308V14.0404H2.81152V5.98175L8.52648 1.76318L14.241 5.9341Z" fill="#A1A8AE"/>
</g>

</symbol></svg>