<svg width="14" height="14" viewBox="0 0 14 14" fill="none" xmlns="http://www.w3.org/2000/svg">
<path d="M13.9635 5.08206C13.8719 4.80008 13.6204 4.59981 13.3229 4.57314L9.28216 4.20818L7.68432 0.488167C7.56651 0.215538 7.29819 0.0390625 7.00007 0.0390625C6.70195 0.0390625 6.43364 0.215538 6.31582 0.488804L4.71798 4.20818L0.67656 4.57314C0.379616 4.60044 0.128816 4.80008 0.0366355 5.08206C-0.0555452 5.36404 0.0295858 5.67332 0.254216 5.86828L3.30857 8.53274L2.40791 12.4791C2.34201 12.7692 2.45523 13.0691 2.69727 13.2432C2.82737 13.3367 2.97958 13.3843 3.13307 13.3843C3.26542 13.3843 3.39669 13.3488 3.51451 13.2787L7.00007 11.2065L10.4844 13.2787C10.7393 13.4312 11.0607 13.4173 11.3022 13.2432C11.5444 13.0686 11.6575 12.7686 11.5916 12.4791L10.6909 8.53274L13.7453 5.86882C13.9699 5.67332 14.0557 5.36457 13.9635 5.08206Z"/>
</svg>
