<svg width="95" height="73" viewBox="0 0 95 73" fill="none" xmlns="http://www.w3.org/2000/svg">
<g clip-path="url(#clip0_462_3684)">
<path d="M94.2332 67.3438H0.00146484V72.9978H94.2332V67.3438Z" fill="#00A886"/>
<path d="M89.0387 16.4941H50.4736V67.3452H89.0387V16.4941Z" fill="#00A886"/>
<path d="M93.404 21.7261H46.2881L50.4715 6.91992H89.0365L93.404 21.7261Z" fill="#00A886"/>
<path d="M84.9112 0H80.126V6.91873H84.9112V0Z" fill="#00A886"/>
<path d="M74.3565 45.6641H65.1523V64.5996H74.3565V45.6641Z" fill="white"/>
<path d="M74.8043 25.4395H64.7002V38.114H74.8043V25.4395Z" fill="white"/>
<path d="M62.86 25.4395H52.7559V38.114H62.86V25.4395Z" fill="white"/>
<path d="M62.86 45.6641H52.7559V58.3387H62.86V45.6641Z" fill="white"/>
<path d="M86.7516 45.6641H76.6475V58.3387H86.7516V45.6641Z" fill="white"/>
<path d="M86.7516 25.4395H76.6475V38.114H86.7516V25.4395Z" fill="white"/>
<path d="M44.816 53.3254V67.3438H3.31354V53.365H1.10498L9.80485 33.6699L35.5216 33.7133L46.2884 53.3217L44.816 53.3254Z" fill="#00A886"/>
<path d="M10.5835 38.0273L17.1263 46.6385L6.62646 46.8817L10.5835 38.0273Z" fill="white"/>
<path d="M35.2669 54.9668H28.7793V67.3455H35.2669V54.9668Z" fill="white"/>
<path d="M14.378 54.9668H8.58057V64.4996H14.378V54.9668Z" fill="white"/>
</g>
<defs>
<clipPath id="clip0_462_3684">
<rect width="94.2318" height="73" fill="white"/>
</clipPath>
</defs>
</svg>
