<svg width="44" height="44" viewBox="0 0 44 44" fill="none" xmlns="http://www.w3.org/2000/svg">
<g clip-path="url(#clip0_446_4116)">
<path d="M22 44C34.1503 44 44 34.1503 44 22C44 9.84974 34.1503 0 22 0C9.84974 0 0 9.84974 0 22C0 34.1503 9.84974 44 22 44Z" fill="#47B0D3"/>
<path d="M2.93305 22C2.93305 10.3426 12.0003 0.804375 23.467 0.0498437C22.9814 0.0180469 22.4933 0 22 0C9.8493 0 0 9.8493 0 22C0 34.1507 9.8493 44 22 44C22.4933 44 22.9814 43.982 23.467 43.9502C12.0003 43.1956 2.93305 33.6574 2.93305 22Z" fill="#47B0D3"/>
<path d="M32.6778 9.37159C32.5728 9.30031 32.451 9.25753 32.3245 9.24744C32.198 9.23735 32.071 9.26029 31.956 9.31401L8.31627 20.3183C8.11456 20.4123 7.94426 20.5624 7.82581 20.7508C7.70736 20.9392 7.6458 21.1577 7.64852 21.3802C7.65125 21.6027 7.71813 21.8197 7.84116 22.0051C7.96418 22.1905 8.13811 22.3365 8.34205 22.4255L30.1367 31.9182C30.3078 31.9934 30.4945 32.0265 30.681 32.0145C30.8675 32.0025 31.0485 31.9458 31.2085 31.8493C31.3686 31.7527 31.5031 31.6191 31.6007 31.4597C31.6984 31.3003 31.7562 31.1198 31.7695 30.9333L32.9992 10.0213C33.0064 9.89444 32.9806 9.76791 32.9242 9.65404C32.8679 9.54018 32.783 9.44286 32.6778 9.37159Z" fill="#E5E5E5"/>
<path d="M14.75 25.2169L16.223 35.0636L32.5855 9.31934L14.75 25.2169Z" fill="#CCCCCC"/>
<path d="M31.9568 9.314L8.31627 20.3183C8.11456 20.4122 7.94426 20.5624 7.82581 20.7508C7.70736 20.9392 7.6458 21.1577 7.64852 21.3802C7.65125 21.6027 7.71813 21.8197 7.84116 22.0051C7.96418 22.1905 8.13811 22.3365 8.34205 22.4255L14.7487 25.2159L32.5842 9.31744C32.4864 9.27042 32.3794 9.24572 32.2709 9.24513C32.1624 9.24453 32.0551 9.26806 31.9568 9.314Z" fill="white"/>
<path d="M18.1691 26.7062L16.2227 35.0636L32.5852 9.31934L18.1691 26.7062Z" fill="#E5E5E5"/>
<path d="M32.6796 9.37262C32.6496 9.35288 32.6183 9.33508 32.5859 9.31934L18.1699 26.7062L30.1384 31.9192C30.3095 31.9944 30.4962 32.0275 30.6828 32.0155C30.8693 32.0035 31.0502 31.9469 31.2103 31.8503C31.3704 31.7538 31.5049 31.6202 31.6025 31.4607C31.7001 31.3013 31.758 31.1208 31.7712 30.9343L33.001 10.0223C33.0085 9.89542 32.9828 9.76877 32.9265 9.65484C32.8701 9.54091 32.785 9.44364 32.6796 9.37262Z" fill="white"/>
</g>
<defs>
<clipPath id="clip0_446_4116">
<rect width="44" height="44" fill="white"/>
</clipPath>
</defs>
</svg>
