<svg width="34" height="34" viewBox="0 0 34 34" fill="none" xmlns="http://www.w3.org/2000/svg">
<path d="M21.4233 14.5363C24.312 12.1059 27.4796 9.81484 27.4796 5.81719V3.26055H29.8104V0H4.19092V3.26055H6.52178V5.82383C6.52178 9.82148 9.68936 12.1125 12.578 14.543C13.0429 14.9281 13.5077 15.8379 13.5077 16.7676C13.5077 17.6973 12.9831 18.3082 12.578 18.6336C9.60967 20.9645 6.52178 23.3551 6.52178 27.3527V30.7461H4.19092V34H29.8104V30.7395H27.4796V27.3461C27.4796 23.3484 24.3917 20.9578 21.4233 18.627C21.0116 18.3082 20.4937 17.6973 20.4937 16.7609C20.4937 15.8379 20.9651 14.9281 21.4233 14.5363ZM9.78232 3.26055H24.219V5.82383C24.219 5.98984 24.2058 6.15586 24.1858 6.32187H9.81553C9.79561 6.1625 9.78232 5.99648 9.78232 5.82383V3.26055ZM24.219 27.3461V28.0367L18.7339 24.9555C17.7776 24.5836 16.2171 24.5836 15.2608 24.9555L9.77568 28.0367V27.3461C9.77568 25.0883 11.5753 23.5609 14.5038 21.2566L14.5835 21.1969C15.6991 20.327 16.4163 19.1051 16.662 17.7703C16.8812 17.8168 17.1069 17.8168 17.3261 17.7703C17.5718 19.1117 18.2956 20.327 19.4046 21.1969L19.4843 21.2566C22.4261 23.5609 24.219 25.0883 24.219 27.3461Z"/>
</svg>
