<svg width="39" height="41" viewBox="0 0 39 41" fill="none" xmlns="http://www.w3.org/2000/svg">
<g clip-path="url(#clip0_492_768)">
<path d="M37.4173 3.45654H36.1797V31.7129H37.4173C37.7186 31.7129 38.0075 31.5923 38.2205 31.3775C38.4335 31.1627 38.5532 30.8714 38.5532 30.5676V4.60184C38.5532 4.29809 38.4335 4.00678 38.2205 3.79199C38.0075 3.57721 37.7186 3.45654 37.4173 3.45654Z" fill="#00A886"/>
<path d="M13.0545 40.4333C13.841 40.4333 14.4786 39.7904 14.4786 38.9974C14.4786 38.2044 13.841 37.5615 13.0545 37.5615C12.268 37.5615 11.6304 38.2044 11.6304 38.9974C11.6304 39.7904 12.268 40.4333 13.0545 40.4333Z" fill="#00A886"/>
<path d="M19.2767 40.4333C20.0632 40.4333 20.7008 39.7904 20.7008 38.9974C20.7008 38.2044 20.0632 37.5615 19.2767 37.5615C18.4901 37.5615 17.8525 38.2044 17.8525 38.9974C17.8525 39.7904 18.4901 40.4333 19.2767 40.4333Z" fill="#00A886"/>
<path d="M25.4983 40.4333C26.2849 40.4333 26.9225 39.7904 26.9225 38.9974C26.9225 38.2044 26.2849 37.5615 25.4983 37.5615C24.7118 37.5615 24.0742 38.2044 24.0742 38.9974C24.0742 39.7904 24.7118 40.4333 25.4983 40.4333Z" fill="#00A886"/>
<path d="M0 4.60184V30.5676C0 30.8714 0.119675 31.1627 0.332699 31.3775C0.545722 31.5923 0.834644 31.7129 1.1359 31.7129H2.4583V3.45654H1.1359C0.834644 3.45654 0.545722 3.57721 0.332699 3.79199C0.119675 4.00678 0 4.29809 0 4.60184H0Z" fill="#00A886"/>
<path fill-rule="evenodd" clip-rule="evenodd" d="M31.8394 0.431641H6.7817C5.939 0.431641 5.25586 1.12043 5.25586 1.9701V33.2009C5.25586 34.0505 5.939 34.7393 6.7817 34.7393H31.8394C32.6821 34.7393 33.3653 34.0505 33.3653 33.2009V1.9701C33.3653 1.12043 32.6821 0.431641 31.8394 0.431641ZM26.6517 9.8154H22.5827C22.9177 9.41191 23.08 8.89077 23.0339 8.36663C22.9878 7.84249 22.7371 7.35828 22.3369 7.02053C21.9367 6.68277 21.4199 6.51914 20.9 6.56562C20.3802 6.61211 19.8999 6.8649 19.565 7.26839C19.448 7.39529 19.3508 7.53939 19.2767 7.69574C19.2027 7.53939 19.1055 7.39529 18.9885 7.26839C18.8227 7.0686 18.6194 6.90371 18.3903 6.78313C18.1613 6.66255 17.9109 6.58864 17.6535 6.56562C17.3961 6.54261 17.1367 6.57093 16.8902 6.64899C16.6436 6.72704 16.4147 6.85329 16.2166 7.02053C15.8164 7.35828 15.5657 7.84249 15.5196 8.36663C15.4735 8.89077 15.6358 9.41191 15.9708 9.8154H11.8679C11.4331 9.83735 11.0234 10.0271 10.7236 10.3453C10.4237 10.6635 10.2568 11.0859 10.2573 11.5248V12.7898C10.2568 13.2287 10.4237 13.651 10.7236 13.9692C11.0234 14.2875 11.4331 14.4772 11.8679 14.4992H17.3779C17.5983 14.4992 17.5983 14.294 17.5983 14.106V10.6872L18.0391 10.7727L18.7173 10.8752V14.106C18.7171 14.153 18.7344 14.1985 18.7658 14.2333C18.7972 14.2681 18.8403 14.2898 18.8868 14.294H19.6667C19.7132 14.2898 19.7563 14.2681 19.7877 14.2333C19.8191 14.1985 19.8364 14.153 19.8362 14.106V10.9094L20.5144 10.8069L20.9552 10.6872V14.106C20.9552 14.1559 20.9748 14.2037 21.0098 14.239C21.0448 14.2742 21.0922 14.294 21.1417 14.294H26.6517C27.1013 14.294 27.5325 14.1139 27.8505 13.7934C28.1684 13.4728 28.347 13.038 28.347 12.5846V11.4564C28.3295 11.015 28.1432 10.5976 27.8271 10.2917C27.511 9.98573 27.0898 9.81505 26.6517 9.8154ZM18.1748 9.69574C17.1745 9.50771 16.9541 9.31967 16.9202 9.28548C16.8003 9.16733 16.7188 9.01539 16.6862 8.84963C16.6536 8.68387 16.6714 8.51204 16.7375 8.35672C16.8035 8.20139 16.9146 8.06984 17.0561 7.97933C17.1976 7.88882 17.363 7.84359 17.5305 7.84959C17.6402 7.848 17.7491 7.86834 17.8509 7.90941C17.9528 7.95049 18.0455 8.01149 18.1239 8.0889C18.1239 8.0889 18.3443 8.32822 18.5138 9.33677V9.74702L18.1748 9.69574ZM20.2601 9.69574H19.8362V9.28548C19.9078 8.85116 20.0823 8.44067 20.3448 8.0889C20.4232 8.01149 20.5159 7.95049 20.6178 7.90941C20.7196 7.86834 20.8285 7.848 20.9382 7.84959C21.1057 7.84359 21.2711 7.88882 21.4126 7.97933C21.5542 8.06984 21.6652 8.20139 21.7313 8.35672C21.7973 8.51204 21.8152 8.68387 21.7826 8.84963C21.75 9.01539 21.6684 9.16733 21.5486 9.28548C21.5486 9.28548 21.2943 9.50771 20.3109 9.69574H20.2601ZM18.6489 24.9287V15.9373C18.6489 15.892 18.6668 15.8485 18.6986 15.8164C18.7304 15.7844 18.7735 15.7664 18.8185 15.7664H19.5983C19.6433 15.7664 19.6864 15.7844 19.7182 15.8164C19.75 15.8485 19.7679 15.892 19.7679 15.9373V24.9287C19.7679 24.9741 19.75 25.0176 19.7182 25.0496C19.6864 25.0817 19.6433 25.0997 19.5983 25.0997H18.8185C18.7735 25.0997 18.7304 25.0817 18.6986 25.0496C18.6668 25.0176 18.6489 24.9741 18.6489 24.9287ZM17.4113 15.815H11.9691C11.8208 15.815 11.6785 15.8744 11.5735 15.9802C11.4686 16.086 11.4097 16.2295 11.4097 16.3791V23.5244C11.4302 23.9484 11.6065 24.3495 11.9042 24.6497C12.2019 24.9499 12.5998 25.1276 13.0203 25.1483H17.4113C17.435 25.1507 17.4588 25.1481 17.4814 25.1406C17.504 25.1331 17.5247 25.1208 17.5423 25.1047C17.5599 25.0886 17.5739 25.0689 17.5835 25.047C17.593 25.0251 17.5979 25.0013 17.5978 24.9774V15.9346C17.5861 15.8955 17.5608 15.8619 17.5266 15.84C17.4923 15.818 17.4515 15.8091 17.4113 15.815ZM21.1416 15.8161H26.5837C26.6599 15.8041 26.7377 15.8081 26.8122 15.8278C26.8867 15.8475 26.9564 15.8825 27.0169 15.9307C27.0774 15.9788 27.1274 16.0391 27.1637 16.1076C27.2 16.1761 27.2219 16.2515 27.228 16.3289V23.5255C27.2062 23.9639 27.018 24.377 26.7024 24.6794C26.3868 24.9817 25.9679 25.15 25.5326 25.1494H21.1416C21.1179 25.1518 21.094 25.1492 21.0715 25.1417C21.0489 25.1342 21.0282 25.122 21.0106 25.1058C20.993 25.0897 20.979 25.0701 20.9694 25.0481C20.9598 25.0262 20.955 25.0025 20.9551 24.9785V15.9871C20.955 15.9631 20.9598 15.9394 20.9694 15.9174C20.979 15.8955 20.993 15.8758 21.0106 15.8597C21.0282 15.8436 21.0489 15.8314 21.0715 15.8239C21.094 15.8164 21.1179 15.8137 21.1416 15.8161Z" fill="#00A886"/>
</g>
<defs>
<clipPath id="clip0_492_768">
<rect width="38.5529" height="40" fill="white" transform="translate(0 0.431641)"/>
</clipPath>
</defs>
</svg>
