<svg width="42" height="28" viewBox="0 0 42 28" fill="none" xmlns="http://www.w3.org/2000/svg">
<g clip-path="url(#clip0_68_1639)">
<path d="M42.0488 13.9631C42.0484 16.4048 41.3878 18.8011 40.1368 20.898C38.8858 22.995 37.0911 24.7146 34.9426 25.8749C32.7941 27.0351 30.3719 27.5929 27.9324 27.489C25.4928 27.3851 23.1268 26.6234 21.0847 25.2847L20.9288 25.3806C15.5919 21.4948 15.5679 14.167 15.5679 14.167H18.7581L12.7615 5.77174L6.99274 14.2149H9.81114C9.87386 16.7267 10.4786 19.1952 11.584 21.4515C12.6894 23.7078 14.2693 25.6986 16.2155 27.2875C15.3597 27.4667 14.4874 27.5552 13.613 27.5514C11.5033 27.5519 9.42276 27.0595 7.53717 26.1133C5.65158 25.1672 4.01314 23.7936 2.75254 22.102C1.49193 20.4104 0.644031 18.4477 0.276453 16.3703C-0.0911251 14.2929 0.0317905 12.1584 0.635397 10.1369C1.239 8.11549 2.3066 6.26305 3.75305 4.72734C5.1995 3.19164 6.98477 2.01516 8.96651 1.29174C10.9482 0.568314 13.0716 0.317958 15.1672 0.560636C17.2629 0.803315 19.2728 1.53231 21.0368 2.68949L21.1447 2.62953C26.6256 6.47934 26.6496 13.9631 26.6496 13.9631H23.4594L29.456 22.3583L35.1288 13.9631H32.3463C32.2834 11.4195 31.6646 8.92059 30.5334 6.64158C29.4021 4.36256 27.7859 2.35869 25.7981 0.770581C26.6729 0.579377 27.5651 0.478902 28.4606 0.470751C32.0507 0.461185 35.498 1.87657 38.0456 4.40619C40.5932 6.93581 42.033 10.373 42.0488 13.9631Z"/>
</g>
<defs>
<clipPath id="clip0_68_1639">
<rect width="41.9282" height="27.0806" fill="white" transform="translate(0.0722656 0.470703)"/>
</clipPath>
</defs>
</svg>
