<svg width="73" height="73" viewBox="0 0 73 73" fill="none" xmlns="http://www.w3.org/2000/svg">
<g clip-path="url(#clip0_462_3699)">
<path d="M71.7866 29.0043C67.7447 27.4677 63.6729 24.3343 59.7175 24.5744C54.2984 24.8946 52.166 19.8284 49.5712 16.8311C47.7349 14.7222 47.8746 10.3283 43.7696 11.5368C40.7357 12.4332 36.6339 12.1051 34.9074 14.3901C32.755 17.2393 31.0451 16.9151 28.6732 16.675C24.821 16.2749 21.0286 15.6986 17.2528 14.5541C14.3453 13.6858 11.2482 13.4537 8.25092 14.8302C6.18507 15.7907 4.36872 16.623 6.33145 19.8684C7.51906 21.8172 7.36936 23.4699 5.27357 24.7545C4.11922 25.4548 3.15782 26.8474 2.37939 28.16C-0.96057 33.7663 -0.774278 39.1326 2.87506 39.5048C7.80848 40.005 12.845 42.4621 17.8417 38.1202C21.2415 35.1589 26.0252 37.9121 28.0744 42.6261C28.9061 44.543 30.0238 46.2797 31.2148 48.4606C26.1516 47.8804 26.2681 52.6184 24.6313 55.7157C29.5781 57.6366 31.8535 53.6589 34.2986 50.3575C35.3964 48.8808 36.6871 47.2041 38.0012 48.8248C40.0504 51.3579 42.5819 50.9057 45.0304 51.4299C44.9738 51.9942 44.7742 52.3863 44.4948 52.6945C43.6631 53.6108 42.1728 53.7549 42.1362 55.4356C43.2739 56.6241 45.6824 56.324 45.7689 58.7891C45.7789 59.1412 45.7456 59.5494 45.6491 60.0336C45.4229 61.1781 46.89 61.9544 47.3823 61.5743C50.7888 58.9811 54.8673 58.2728 58.2072 55.0475C57.5419 54.9874 56.8633 54.7954 56.2179 54.9074C54.3683 55.2195 52.6817 54.9994 52.0928 52.5504C51.5107 50.1294 53.9657 49.205 54.6178 49.0569C60.313 47.7243 64.7607 43.2304 69.9935 40.8454C73.9589 39.0286 70.4859 34.3506 72.6981 31.8655C73.1805 31.3173 73.2337 29.5565 71.7866 29.0043Z" fill="#A1A8AE"/>
</g>
<defs>
<clipPath id="clip0_462_3699">
<rect width="73" height="72.9967" fill="white"/>
</clipPath>
</defs>
</svg>
